<svg id="Layer_1" data-name="Layer 1" xmlns="http://www.w3.org/2000/svg" viewBox="0 0 417 217"><defs><style>.cls-1{fill:#fff;}</style></defs><title>Artboard 4</title><path class="cls-1" d="M107.83,77s-7.75,11-17.1,9.2c5.32,5.32,14,1.53,13.36,2.35A19.69,19.69,0,1,1,107.83,77ZM90,76.23a5.1,5.1,0,0,1,4,.23c-6.16-6-6.7,2.79-6.7,2.79A5.1,5.1,0,0,1,90,76.23Z"/><path class="cls-1" d="M72.44,92.27S43.21,94,35.79,130.37H49.31l7.42-15.69L50.9,130.37H98.35l-.79-16.17,2.38,17,15.9.11s-9.91-30-21.47-37.06"/><path class="cls-1" d="M141.48,71.26a9.4,9.4,0,1,1-3.31,16.42c-.38-.3,4.08.33,5.84-2.8-4.07,2-9-2-9-2A9.4,9.4,0,0,1,141.48,71.26Zm3.2,10s-1.38-4-3.44-.42a2.21,2.21,0,0,1,3.44.42Z"/><path class="cls-1" d="M153.28,85.56s13.49-3.6,21.84,13.06l-6.22,1.74-5.43-6.26,4.7,6.46-21.82,6.11-1.79-7.79,1.06,8-7.32,2s.71-15,5.12-19.71"/><path class="cls-1" d="M215,79.42h-3.83l-1.58-1.62a10.18,10.18,0,0,1-5.62,1.62,10.52,10.52,0,0,1-7.13-2.72A9.76,9.76,0,0,1,193.42,69a10.07,10.07,0,0,1,3.2-7.61,10.55,10.55,0,0,1,14.24-.37,10.15,10.15,0,0,1,3.66,8.12,9.85,9.85,0,0,1-2.89,7ZM206.6,71,209.53,74a6.91,6.91,0,0,0,1.94-5,7.47,7.47,0,0,0-2.16-5.45,7.22,7.22,0,0,0-5.36-2.2,7,7,0,0,0-5.34,2.2,7.64,7.64,0,0,0-2.11,5.53,7.07,7.07,0,0,0,2.17,5.34,7.3,7.3,0,0,0,5.17,2.14,7.13,7.13,0,0,0,3.57-.9L202.66,71Z"/><path class="cls-1" d="M220.75,66.31v7.31q0,3.17,2.5,3.17t2.5-3.17V66.31h2.94v7.38a8.21,8.21,0,0,1-.38,2.64A4.43,4.43,0,0,1,227,78.12a6.18,6.18,0,0,1-7.57,0,4.51,4.51,0,0,1-1.3-1.79,7.29,7.29,0,0,1-.37-2.64V66.31Z"/><path class="cls-1" d="M232,61a1.92,1.92,0,0,1,1.91-1.9,1.86,1.86,0,0,1,1.36.56,1.81,1.81,0,0,1,.56,1.35,1.85,1.85,0,0,1-.56,1.36,1.81,1.81,0,0,1-1.35.56,1.85,1.85,0,0,1-1.36-.56A1.87,1.87,0,0,1,232,61Zm3.39,5.3V79H232.4V66.31Z"/><path class="cls-1" d="M242.11,69.05V79h-2.94v-10h-1.26V66.31h1.26V61.64h2.94v4.67h2.29v2.75Z"/><path class="cls-1" d="M255.23,79V57.48L270,72.89v-14h3V80.28L258.28,64.91V79Z"/><path class="cls-1" d="M276.86,72.59a6.33,6.33,0,0,1,2-4.7,7,7,0,0,1,9.65,0,6.82,6.82,0,0,1,0,9.59,6.75,6.75,0,0,1-4.88,1.92,6.47,6.47,0,0,1-4.8-2A6.6,6.6,0,0,1,276.86,72.59Zm3,.05a4.3,4.3,0,0,0,1,3,4,4,0,0,0,5.52,0,4.78,4.78,0,0,0,0-5.94,3.92,3.92,0,0,0-5.49,0A4.09,4.09,0,0,0,279.87,72.64Z"/><path class="cls-1" d="M294.65,66.31,298,73.58l3.6-8.44,3.62,8.44,3.3-7.27h3.3L305.13,80l-3.54-8.2L298,80l-6.66-13.7Z"/><path class="cls-1" d="M314.41,67.75a1.72,1.72,0,0,1,.54-1.26,1.82,1.82,0,0,1,3.1,1.28,1.77,1.77,0,0,1-.54,1.3,1.74,1.74,0,0,1-1.28.52,1.81,1.81,0,0,1-1.82-1.84Zm0,9.84a1.81,1.81,0,0,1,3.1-1.27,1.82,1.82,0,0,1-2.58,2.58A1.77,1.77,0,0,1,314.41,77.58Z"/><path class="cls-1" d="M193.42,115.13l4.25-21.71,6.93,15.7,7.18-15.7,3.82,21.71h-3.13l-1.95-12.19-6,13.12-5.81-13.13-2.17,12.2Z"/><path class="cls-1" d="M223.34,112.76l-5.73-10.37H221l3.9,7.32,3.64-7.32h3.32l-10.15,19.67h-3.36Z"/><path class="cls-1" d="M263.26,115.49h-3.83l-1.58-1.62a10.19,10.19,0,0,1-5.62,1.62,10.52,10.52,0,0,1-7.13-2.72,9.76,9.76,0,0,1-3.39-7.65,10.07,10.07,0,0,1,3.2-7.61,10.55,10.55,0,0,1,14.25-.37,10.16,10.16,0,0,1,3.66,8.12,9.85,9.85,0,0,1-2.89,7Zm-8.38-8.37,2.93,2.92a6.91,6.91,0,0,0,1.94-5,7.46,7.46,0,0,0-2.16-5.45,7.21,7.21,0,0,0-5.36-2.2,7,7,0,0,0-5.34,2.2,7.64,7.64,0,0,0-2.11,5.53,7.07,7.07,0,0,0,2.17,5.34,7.31,7.31,0,0,0,5.17,2.14,7.13,7.13,0,0,0,3.57-.9l-4.75-4.6Z"/><path class="cls-1" d="M269,102.39v7.31q0,3.17,2.5,3.16t2.5-3.16v-7.31H277v7.38a8.21,8.21,0,0,1-.38,2.64,4.44,4.44,0,0,1-1.27,1.79,6.18,6.18,0,0,1-7.57,0,4.51,4.51,0,0,1-1.3-1.79,7.29,7.29,0,0,1-.37-2.64v-7.38Z"/><path class="cls-1" d="M280.24,97.09a1.92,1.92,0,0,1,1.91-1.9,1.86,1.86,0,0,1,1.36.56,1.81,1.81,0,0,1,.56,1.35,1.85,1.85,0,0,1-.56,1.36,1.81,1.81,0,0,1-1.35.56,1.85,1.85,0,0,1-1.36-.56A1.87,1.87,0,0,1,280.24,97.09Zm3.39,5.3v12.74h-2.94V102.39Z"/><path class="cls-1" d="M290.39,105.13v10h-2.94v-10h-1.26v-2.75h1.26V97.72h2.94v4.67h2.29v2.75Z"/><path class="cls-1" d="M295.24,115.13V94.93h3a13.31,13.31,0,0,1,3.23.31,4.86,4.86,0,0,1,2.05,1.06,5.5,5.5,0,0,1,1.35,1.92,5.82,5.82,0,0,1,.51,2.35,4.77,4.77,0,0,1-1.66,3.68,4.87,4.87,0,0,1,2.54,1.92,5.69,5.69,0,0,1-.73,7.17,5.51,5.51,0,0,1-2.26,1.4,13.19,13.19,0,0,1-3.44.38Zm3-11.52h1a3.52,3.52,0,0,0,2.49-.75,2.92,2.92,0,0,0,.79-2.22,2.78,2.78,0,0,0-.81-2.16,3.38,3.38,0,0,0-2.35-.74h-1.07Zm0,8.66h1.88a4.68,4.68,0,0,0,3-.81,2.8,2.8,0,0,0,1-2.22,2.85,2.85,0,0,0-1-2.2,5.09,5.09,0,0,0-3.41-.88h-1.54Z"/><path class="cls-1" d="M313.46,102.39v7.31q0,3.17,2.5,3.16t2.5-3.16v-7.31h2.94v7.38a8.21,8.21,0,0,1-.38,2.64,4.43,4.43,0,0,1-1.27,1.79,6.18,6.18,0,0,1-7.57,0,4.51,4.51,0,0,1-1.3-1.79,7.29,7.29,0,0,1-.37-2.64v-7.38Z"/><path class="cls-1" d="M334.51,93h3v22.09h-3v-1.33a5.49,5.49,0,0,1-3.94,1.7,5.61,5.61,0,0,1-4.34-1.91,7.11,7.11,0,0,1-1.71-4.87,6.87,6.87,0,0,1,1.71-4.76,5.5,5.5,0,0,1,8.28-.09Zm-7,15.68a4.43,4.43,0,0,0,1,3,3.21,3.21,0,0,0,2.54,1.16,3.38,3.38,0,0,0,2.64-1.12,4.84,4.84,0,0,0,0-5.91,3.33,3.33,0,0,0-2.62-1.14,3.26,3.26,0,0,0-2.54,1.15A4.24,4.24,0,0,0,327.52,108.72Z"/><path class="cls-1" d="M350.57,93h3v22.09h-3v-1.33a5.49,5.49,0,0,1-3.94,1.7,5.61,5.61,0,0,1-4.34-1.91,7.11,7.11,0,0,1-1.71-4.87,6.87,6.87,0,0,1,1.71-4.76,5.5,5.5,0,0,1,8.28-.09Zm-7,15.68a4.44,4.44,0,0,0,1,3,3.21,3.21,0,0,0,2.54,1.16,3.38,3.38,0,0,0,2.64-1.12,4.84,4.84,0,0,0,0-5.91,3.33,3.33,0,0,0-2.62-1.14,3.26,3.26,0,0,0-2.54,1.15A4.24,4.24,0,0,0,343.59,108.72Z"/><path class="cls-1" d="M361.26,112.76l-5.73-10.37h3.41l3.9,7.32,3.64-7.32h3.32l-10.15,19.67h-3.36Z"/><path class="cls-1" d="M185.83,113.09C177.78,79.76,162,38.5,162,38.5a3.67,3.67,0,0,0-4.64-2.32s-24.42,5.9-42.8,13.67c-2.95.94-3,2.68-2.43,4.58,0,0,10.89,41.81,23.83,74.59a3.37,3.37,0,0,0,4.64,2.32,227.67,227.67,0,0,0,42.8-13.67A3.56,3.56,0,0,0,185.83,113.09ZM132.21,48.25c0-.42.58-1,1.07-1.13L139,45.44c.49-.16,2,.13,2,.55h0c0,.62-1,1-1.45,1.16l-6.15,1.71c-.49.16-.11,0-1.21-.61Zm-3.3,4.68c0-.43.82-1.08,1.31-1.24l14-4.34c.49-.16,1,.42,1.59.42h0c0,1.1-.75,1.16-1.24,1.32l-14,4.41c-.49.16-1.65-.14-1.65-.57Zm-2.58-.45a1.42,1.42,0,1,1-.95,1.79A1.43,1.43,0,0,1,126.32,52.48Zm27,71.39c-1,.31-2,.11-2.13-.45s.49-1.27,1.5-1.59,2-.11,2.13.45S154.35,123.55,153.35,123.86Zm8.22-2.72c-1,.31-2,.11-2.13-.45s.49-1.27,1.5-1.59,2-.11,2.13.45S162.57,120.83,161.57,121.14Zm8.25-2.73c-1,.31-2,.11-2.13-.45s.49-1.27,1.49-1.59,2-.11,2.13.45S170.82,118.1,169.82,118.41Zm7.33-10.54c-15.75,6.43-36.79,11.75-36.79,11.75a3.56,3.56,0,0,1-4.64-2.32c-9.22-25.21-16.43-51.45-16.43-51.45a3.49,3.49,0,0,1,2.43-4.58c14.22-5.94,36.79-11.75,36.79-11.75a3.67,3.67,0,0,1,4.64,2.32s10.27,27.67,16.43,51.45A3.89,3.89,0,0,1,177.15,107.87Z"/></svg>