<svg id="Layer_1" xmlns="http://www.w3.org/2000/svg" viewBox="0 0 340.2 513.7"><style>.st0{fill:#fff}</style><path class="st0" d="M21.9 491.8h296.4V101.3H210.9l-41-62-42.1 62H21.9z"/><path class="st0" d="M340.2 513.7H0V79.4h116.2l54-79.4 52.5 79.4h117.5v434.3zM21.9 491.8h296.4V101.3H210.9l-41-62-42.2 62H21.9v390.5z"/><path class="st0" d="M80 149.8c3.4 0 6.6.5 9.5 1.6 2.9 1.1 5.5 2.7 7.6 4.9 2.1 2.2 3.8 4.9 5 8.1 1.2 3.2 1.8 7.1 1.8 11.5 0 3.8-.5 7.4-1.5 10.6-1 3.2-2.5 6.1-4.5 8.4-2 2.4-4.5 4.2-7.5 5.6-3 1.4-6.5 2-10.5 2H57.2v-52.8H80zm-.9 43c1.7 0 3.3-.3 4.9-.8 1.6-.5 3-1.4 4.2-2.7 1.2-1.3 2.2-2.9 3-4.9.7-2 1.1-4.5 1.1-7.4 0-2.7-.3-5.1-.8-7.2-.5-2.1-1.4-4-2.6-5.5-1.2-1.5-2.7-2.7-4.7-3.5-1.9-.8-4.3-1.2-7.2-1.2h-8.3v33.3h10.4zm32.3-27.4c1.2-3.4 2.9-6.3 5.1-8.8 2.2-2.5 4.9-4.5 8.2-5.9 3.2-1.4 6.9-2.1 10.9-2.1 4.1 0 7.7.7 10.9 2.1 3.2 1.4 5.9 3.4 8.1 5.9 2.2 2.5 3.9 5.5 5.1 8.8 1.2 3.4 1.8 7 1.8 11 0 3.8-.6 7.4-1.8 10.8-1.2 3.3-2.9 6.2-5.1 8.7-2.2 2.5-4.9 4.4-8.1 5.8-3.2 1.4-6.9 2.1-10.9 2.1s-7.7-.7-10.9-2.1c-3.2-1.4-6-3.3-8.2-5.8-2.2-2.5-3.9-5.4-5.1-8.7-1.2-3.3-1.8-6.9-1.8-10.8.1-3.9.7-7.6 1.8-11zm10.6 17.5c.5 2.1 1.3 4 2.5 5.7 1.1 1.7 2.6 3 4.4 4 1.8 1 4 1.5 6.7 1.5s4.8-.5 6.7-1.5c1.8-1 3.3-2.4 4.4-4 1.1-1.7 2-3.6 2.5-5.7s.8-4.3.8-6.5c0-2.3-.3-4.6-.8-6.7s-1.3-4.1-2.5-5.8c-1.1-1.7-2.6-3-4.4-4.1-1.8-1-4-1.5-6.7-1.5s-4.8.5-6.7 1.5c-1.8 1-3.3 2.4-4.4 4.1-1.1 1.7-2 3.6-2.5 5.8-.5 2.2-.8 4.4-.8 6.7.1 2.2.3 4.4.8 6.5zm59-33.1l22 35.4h.1v-35.4H214v52.8h-11.6l-22-35.3h-.2v35.3h-10.9v-52.8H181zm52.7 0v11.3c.1 1.6-.2 3.2-.7 4.6-.5 1.4-1.2 2.7-2.2 3.8-.9 1.1-2.1 2-3.4 2.7-1.3.7-2.7 1.2-4.2 1.4v-4.9c1.9-.6 3.2-1.6 3.8-2.9.7-1.3 1-2.8 1-4.6h-4.9v-11.4h10.6zm6 9.7v-9.8H283v9.8h-15.8v43h-11.6v-43h-15.9zm-165 53.6l13.2 38.8h.1l12.5-38.8H118v56.5h-11.6v-40h-.2l-13.8 40h-9.6L69 229.9h-.2v39.6H57.2V213h17.5zm82.3 0l21.1 56.5h-12.9L161 257h-21.1l-4.4 12.6H123l21.3-56.5H157zm.7 34.6l-7.1-20.7h-.2l-7.3 20.7h14.6zm37.8-34.6v23.4l22.1-23.4H233l-22 22.3 24.2 34.2h-15.6l-17-25.4-7.1 7.2v18.2H183v-56.5h12.5zm86.8 0v10.4h-29.8v12.1h27.4v9.6h-27.4V259H283v10.4h-42.9v-56.5h42.2zM64.7 308.6c.5.9 1.1 1.6 1.8 2.1.8.5 1.7 1 2.7 1.2 1 .3 2.1.4 3.2.4.7 0 1.5-.1 2.4-.2.8-.1 1.6-.4 2.4-.7s1.4-.8 1.9-1.5c.5-.6.7-1.4.7-2.4s-.3-1.9-1-2.5c-.7-.6-1.5-1.2-2.6-1.6-1.1-.4-2.3-.8-3.6-1.1-1.3-.3-2.7-.7-4.1-1.1-1.4-.3-2.8-.8-4.1-1.3-1.3-.5-2.5-1.2-3.6-2s-1.9-1.8-2.6-3.1c-.7-1.2-1-2.7-1-4.4 0-1.9.4-3.6 1.2-5.1.8-1.4 1.9-2.6 3.3-3.6 1.3-1 2.9-1.7 4.6-2.1 1.7-.5 3.4-.7 5.1-.7 2 0 3.9.2 5.7.7 1.8.4 3.4 1.2 4.8 2.1 1.4 1 2.5 2.3 3.4 3.8.8 1.5 1.2 3.4 1.2 5.6h-8.1c-.1-1.1-.3-2.1-.7-2.8-.4-.7-.9-1.3-1.6-1.8-.7-.4-1.4-.7-2.3-.9-.9-.2-1.8-.3-2.8-.3-.7 0-1.3.1-2 .2s-1.3.4-1.8.7c-.5.4-1 .8-1.4 1.3-.4.5-.5 1.2-.5 2 0 .7.1 1.3.4 1.8.3.5.8.9 1.7 1.3.8.4 2 .8 3.4 1.2 1.5.4 3.4.9 5.8 1.5.7.1 1.7.4 2.9.8 1.3.4 2.5 1 3.7 1.8 1.2.8 2.3 1.9 3.2 3.3.9 1.4 1.4 3.1 1.4 5.2 0 1.7-.3 3.3-1 4.8s-1.7 2.8-3 3.8c-1.3 1.1-3 1.9-4.9 2.5-2 .6-4.2.9-6.8.9-2.1 0-4.1-.3-6.1-.8s-3.7-1.3-5.2-2.4-2.7-2.5-3.6-4.2c-.9-1.7-1.3-3.7-1.3-6H64c0 1.7.3 2.8.7 3.6zm39.8-28.5l8.9 26h.1l8.4-26h11.7V318h-7.8v-26.8h-.1l-9.3 26.8H110l-9.3-26.6h-.1V318h-7.8v-37.8h11.7zm36 11.2c.8-2.4 2.1-4.5 3.7-6.3 1.6-1.8 3.5-3.2 5.9-4.2 2.3-1 4.9-1.5 7.8-1.5 2.9 0 5.5.5 7.8 1.5s4.2 2.4 5.8 4.2c1.6 1.8 2.8 3.9 3.7 6.3.8 2.4 1.3 5 1.3 7.9 0 2.8-.4 5.3-1.3 7.7-.8 2.4-2.1 4.5-3.7 6.2-1.6 1.8-3.5 3.2-5.8 4.2s-4.9 1.5-7.8 1.5c-2.9 0-5.5-.5-7.8-1.5s-4.3-2.4-5.9-4.2c-1.6-1.8-2.8-3.8-3.7-6.2-.8-2.4-1.3-5-1.3-7.7 0-2.8.4-5.4 1.3-7.9zm7.6 12.5c.4 1.5 1 2.9 1.8 4.1.8 1.2 1.9 2.2 3.2 2.9 1.3.7 2.9 1.1 4.8 1.1s3.5-.4 4.8-1.1c1.3-.7 2.4-1.7 3.2-2.9.8-1.2 1.4-2.6 1.8-4.1s.6-3 .6-4.6c0-1.7-.2-3.3-.6-4.8-.4-1.6-1-2.9-1.8-4.2-.8-1.2-1.9-2.2-3.2-2.9-1.3-.7-2.9-1.1-4.8-1.1s-3.5.4-4.8 1.1c-1.3.7-2.4 1.7-3.2 2.9-.8 1.2-1.4 2.6-1.8 4.2-.4 1.6-.6 3.2-.6 4.8 0 1.6.2 3.1.6 4.6zm42.3-23.7v15.7l14.8-15.7h10.4L200.8 295l16.2 23h-10.4l-11.4-17-4.8 4.8V318h-8.3v-37.8h8.3zm58.3 0v7h-20v8.1H247v6.5h-18.3v9.3h20.4v7h-28.7v-37.8h28.3zm12.4 28.5c.5.9 1.1 1.6 1.8 2.1.8.5 1.7 1 2.7 1.2 1 .3 2.1.4 3.2.4.7 0 1.5-.1 2.4-.2.8-.1 1.6-.4 2.4-.7s1.4-.8 1.9-1.5.7-1.4.7-2.4-.3-1.9-1-2.5c-.7-.6-1.5-1.2-2.6-1.6s-2.3-.8-3.6-1.1c-1.3-.3-2.7-.7-4.1-1.1-1.4-.3-2.8-.8-4.1-1.3-1.3-.5-2.5-1.2-3.6-2s-1.9-1.8-2.6-3.1c-.7-1.2-1-2.7-1-4.4 0-1.9.4-3.6 1.2-5.1.8-1.4 1.9-2.6 3.3-3.6 1.3-1 2.9-1.7 4.6-2.1 1.7-.5 3.4-.7 5.1-.7 2 0 3.9.2 5.7.7 1.8.4 3.4 1.2 4.8 2.1 1.4 1 2.5 2.3 3.4 3.8.8 1.5 1.2 3.4 1.2 5.6h-8.1c-.1-1.1-.3-2.1-.7-2.8-.4-.7-.9-1.3-1.6-1.8-.7-.4-1.4-.7-2.3-.9-.9-.2-1.8-.3-2.8-.3-.7 0-1.3.1-2 .2s-1.3.4-1.8.7-1 .8-1.4 1.3c-.4.5-.5 1.2-.5 2 0 .7.1 1.3.4 1.8.3.5.8.9 1.7 1.3.8.4 2 .8 3.4 1.2s3.4.9 5.8 1.5c.7.1 1.7.4 2.9.8 1.3.4 2.5 1 3.7 1.8 1.2.8 2.3 1.9 3.2 3.3.9 1.4 1.4 3.1 1.4 5.2 0 1.7-.3 3.3-1 4.8s-1.7 2.8-3 3.8c-1.3 1.1-3 1.9-4.9 2.5-2 .6-4.2.9-6.8.9-2.1 0-4.1-.3-6.1-.8s-3.7-1.3-5.2-2.4-2.7-2.5-3.6-4.2c-.9-1.7-1.3-3.7-1.3-6h8.1c0 1.7.2 2.8.7 3.6zM56 328.6h13.9L83 350.8l13.1-22.2h13.8L89 363.3v21.6H76.6V363L56 328.6zm58.1 16.7c1.3-3.6 3.1-6.7 5.4-9.4 2.4-2.7 5.3-4.8 8.7-6.3 3.4-1.5 7.3-2.3 11.6-2.3 4.4 0 8.3.8 11.7 2.3 3.4 1.5 6.3 3.6 8.7 6.3 2.4 2.7 4.2 5.8 5.4 9.4 1.3 3.6 1.9 7.5 1.9 11.7 0 4.1-.6 7.9-1.9 11.5-1.3 3.5-3.1 6.6-5.4 9.3-2.4 2.6-5.3 4.7-8.7 6.2-3.4 1.5-7.3 2.2-11.7 2.2-4.3 0-8.2-.8-11.6-2.2-3.4-1.5-6.4-3.6-8.7-6.2-2.4-2.6-4.2-5.7-5.4-9.3-1.3-3.5-1.9-7.4-1.9-11.5 0-4.2.6-8.1 1.9-11.7zm11.3 18.6c.6 2.2 1.4 4.2 2.6 6 1.2 1.8 2.8 3.2 4.7 4.3 1.9 1.1 4.3 1.6 7.1 1.6s5.2-.5 7.1-1.6c1.9-1.1 3.5-2.5 4.7-4.3 1.2-1.8 2.1-3.8 2.6-6 .6-2.2.8-4.5.8-6.9 0-2.5-.3-4.9-.8-7.2-.6-2.3-1.4-4.4-2.6-6.2-1.2-1.8-2.8-3.3-4.7-4.3-1.9-1.1-4.3-1.6-7.1-1.6s-5.2.5-7.1 1.6c-1.9 1.1-3.5 2.5-4.7 4.3-1.2 1.8-2.1 3.9-2.6 6.2-.6 2.3-.8 4.7-.8 7.2 0 2.3.3 4.6.8 6.9zm92 16.7c-4.3 3.7-10.1 5.6-17.7 5.6s-13.5-1.8-17.7-5.5c-4.2-3.7-6.3-9.4-6.3-17v-35h12.4v35c0 1.5.1 3 .4 4.5.3 1.5.8 2.8 1.7 3.9.8 1.1 2 2.1 3.5 2.8 1.5.7 3.5 1.1 6 1.1 4.4 0 7.5-1 9.1-3s2.5-5.1 2.5-9.3v-35h12.4v35c.1 7.5-2 13.2-6.3 16.9zm47.4-52c2.5 0 4.8.4 6.8 1.2 2 .8 3.8 1.9 5.2 3.4 1.4 1.4 2.5 3.1 3.3 4.9.8 1.9 1.1 3.9 1.1 6 0 3.3-.7 6.2-2.1 8.6-1.4 2.4-3.7 4.3-6.8 5.5v.2c1.5.4 2.8 1.1 3.8 1.9 1 .9 1.8 1.9 2.4 3.1.6 1.2 1.1 2.5 1.4 3.9s.5 2.8.6 4.3c.1.9.1 2 .2 3.2.1 1.2.1 2.4.3 3.7.1 1.3.3 2.5.6 3.6s.7 2.1 1.3 2.9h-12.4c-.7-1.8-1.1-3.9-1.3-6.4-.2-2.5-.4-4.8-.7-7.1-.4-2.9-1.3-5.1-2.7-6.5-1.4-1.4-3.6-2.1-6.7-2.1h-12.4v22h-12.4v-56.3h30.5zm-4.4 25.5c2.8 0 5-.6 6.4-1.9 1.4-1.3 2.1-3.3 2.1-6.2 0-2.7-.7-4.7-2.1-6-1.4-1.2-3.5-1.9-6.4-1.9h-13.6V354h13.6zM67.1 431.9c.6 1.1 1.4 2 2.3 2.7 1 .7 2.1 1.2 3.4 1.6 1.3.3 2.7.5 4.1.5.9 0 2-.1 3-.2 1.1-.2 2.1-.5 3-.9s1.7-1.1 2.4-1.9c.6-.8.9-1.8.9-3 0-1.3-.4-2.4-1.2-3.2-.8-.8-1.9-1.5-3.3-2s-2.9-1-4.6-1.4c-1.7-.4-3.4-.9-5.2-1.4-1.8-.4-3.6-1-5.3-1.7-1.7-.7-3.2-1.5-4.6-2.5s-2.4-2.3-3.3-3.9c-.8-1.6-1.2-3.4-1.2-5.6 0-2.5.5-4.6 1.6-6.5 1.1-1.8 2.4-3.3 4.2-4.6 1.7-1.2 3.7-2.1 5.8-2.7s4.3-.9 6.5-.9c2.5 0 4.9.3 7.3.8 2.3.6 4.4 1.5 6.2 2.7 1.8 1.3 3.2 2.9 4.3 4.8 1.1 2 1.6 4.3 1.6 7.1H84.7c-.1-1.4-.4-2.6-.9-3.6-.5-.9-1.2-1.7-2.1-2.2-.9-.5-1.8-.9-2.9-1.2-1.1-.2-2.3-.3-3.6-.3-.9 0-1.7.1-2.6.3-.9.2-1.6.5-2.3.9-.7.5-1.3 1-1.7 1.7-.5.7-.7 1.5-.7 2.6 0 .9.2 1.7.5 2.3.4.6 1.1 1.1 2.1 1.6 1.1.5 2.5 1 4.4 1.5 1.9.5 4.3 1.1 7.3 1.9.9.2 2.2.5 3.8 1 1.6.5 3.2 1.2 4.8 2.3 1.6 1 2.9 2.4 4.1 4.2 1.1 1.7 1.7 4 1.7 6.7 0 2.2-.4 4.3-1.3 6.2-.9 1.9-2.1 3.5-3.8 4.9-1.7 1.4-3.8 2.4-6.3 3.2-2.5.8-5.4 1.1-8.7 1.1-2.7 0-5.2-.3-7.7-1s-4.7-1.7-6.6-3.1c-1.9-1.4-3.4-3.2-4.6-5.3-1.1-2.2-1.7-4.7-1.6-7.7h10.3c0 1.7.3 3.1.8 4.2zm32-27.5v-8.9h39.6v8.9h-14.5v39.3h-10.6v-39.3H99.1zm44.6 5.4c1.1-3.1 2.6-5.8 4.7-8.1 2-2.3 4.5-4.1 7.5-5.4 2.9-1.3 6.3-2 10-2s7.1.7 10 2c2.9 1.3 5.4 3.1 7.4 5.4 2 2.3 3.6 5 4.7 8.1 1.1 3.1 1.6 6.4 1.6 10 0 3.5-.5 6.8-1.6 9.8-1.1 3-2.6 5.7-4.7 7.9-2 2.3-4.5 4-7.4 5.3-2.9 1.3-6.3 1.9-10 1.9s-7-.6-10-1.9c-3-1.3-5.4-3.1-7.5-5.3-2-2.3-3.6-4.9-4.7-7.9s-1.6-6.3-1.6-9.8c0-3.5.6-6.9 1.6-10zm9.7 16c.5 1.9 1.2 3.6 2.3 5.2 1 1.5 2.4 2.8 4.1 3.7 1.7.9 3.7 1.4 6.1 1.4 2.4 0 4.4-.5 6.1-1.4 1.7-.9 3-2.2 4.1-3.7 1-1.5 1.8-3.3 2.3-5.2.5-1.9.7-3.9.7-5.9 0-2.1-.2-4.2-.7-6.2-.5-2-1.2-3.8-2.3-5.3-1-1.6-2.4-2.8-4.1-3.7-1.7-.9-3.7-1.4-6.1-1.4-2.4 0-4.4.5-6.1 1.4-1.7.9-3 2.2-4.1 3.7-1 1.6-1.8 3.3-2.3 5.3-.5 2-.7 4-.7 6.2 0 2 .3 4 .7 5.9zm69.5-30.3c2.2 0 4.1.3 5.8 1.1 1.7.7 3.2 1.7 4.5 2.9 1.2 1.2 2.2 2.6 2.8 4.2.6 1.6 1 3.3 1 5.2 0 2.8-.6 5.3-1.8 7.4-1.2 2.1-3.1 3.6-5.8 4.7v.1c1.3.4 2.4.9 3.2 1.7.9.7 1.6 1.6 2.1 2.6s.9 2.1 1.2 3.3c.2 1.2.4 2.4.5 3.7 0 .8.1 1.7.1 2.7 0 1 .1 2.1.2 3.2s.3 2.1.5 3.1.6 1.8 1.1 2.5h-10.6c-.6-1.5-.9-3.4-1.1-5.5-.1-2.1-.3-4.1-.6-6.1-.4-2.5-1.1-4.4-2.3-5.5-1.2-1.2-3.1-1.8-5.7-1.8h-10.6v18.9h-10.6v-48.3h26.1zm-3.8 21.9c2.4 0 4.3-.5 5.5-1.6 1.2-1.1 1.8-2.8 1.8-5.3 0-2.3-.6-4-1.8-5.1s-3-1.6-5.5-1.6h-11.6v13.6h11.6zm18.8-21.9h11.9l11.3 19.1 11.2-19.1h11.8l-17.9 29.8v18.5h-10.6V425l-17.7-29.5z"/></svg>