<?xml version="1.0" encoding="utf-8"?>
<!-- Generator: Adobe Illustrator 21.0.0, SVG Export Plug-In . SVG Version: 6.00 Build 0)  -->
<svg version="1.1" id="Layer_1" xmlns="http://www.w3.org/2000/svg" xmlns:xlink="http://www.w3.org/1999/xlink" x="0px" y="0px"
	 viewBox="0 0 340.2 513.7" style="enable-background:new 0 0 340.2 513.7;" xml:space="preserve">
<style type="text/css">
	.st0{fill:#FFFFFF;}
</style>
<polygon class="st0" points="21.9,491.8 318.3,491.8 318.3,101.3 210.9,101.3 169.9,39.3 127.8,101.3 21.9,101.3 "/>
<g>
	<path class="st0" d="M340.2,513.7H0V79.4h116.2l54-79.4l52.5,79.4h117.5V513.7z M21.9,491.8h296.4V101.3H210.9l-41-62l-42.2,62
		H21.9V491.8z"/>
	<g>
		<g>
			<path class="st0" d="M80,149.8c3.4,0,6.6,0.5,9.5,1.6c2.9,1.1,5.5,2.7,7.6,4.9c2.1,2.2,3.8,4.9,5,8.1c1.2,3.2,1.8,7.1,1.8,11.5
				c0,3.8-0.5,7.4-1.5,10.6c-1,3.2-2.5,6.1-4.5,8.4c-2,2.4-4.5,4.2-7.5,5.6c-3,1.4-6.5,2-10.5,2H57.2v-52.8H80z M79.1,192.8
				c1.7,0,3.3-0.3,4.9-0.8c1.6-0.5,3-1.4,4.2-2.7c1.2-1.3,2.2-2.9,3-4.9c0.7-2,1.1-4.5,1.1-7.4c0-2.7-0.3-5.1-0.8-7.2
				c-0.5-2.1-1.4-4-2.6-5.5c-1.2-1.5-2.7-2.7-4.7-3.5c-1.9-0.8-4.3-1.2-7.2-1.2h-8.3v33.3H79.1z"/>
			<path class="st0" d="M111.4,165.4c1.2-3.4,2.9-6.3,5.1-8.8c2.2-2.5,4.9-4.5,8.2-5.9c3.2-1.4,6.9-2.1,10.9-2.1
				c4.1,0,7.7,0.7,10.9,2.1c3.2,1.4,5.9,3.4,8.1,5.9c2.2,2.5,3.9,5.5,5.1,8.8c1.2,3.4,1.8,7,1.8,11c0,3.8-0.6,7.4-1.8,10.8
				c-1.2,3.3-2.9,6.2-5.1,8.7c-2.2,2.5-4.9,4.4-8.1,5.8c-3.2,1.4-6.9,2.1-10.9,2.1c-4,0-7.7-0.7-10.9-2.1c-3.2-1.4-6-3.3-8.2-5.8
				c-2.2-2.5-3.9-5.4-5.1-8.7c-1.2-3.3-1.8-6.9-1.8-10.8C109.7,172.5,110.3,168.8,111.4,165.4z M122,182.9c0.5,2.1,1.3,4,2.5,5.7
				c1.1,1.7,2.6,3,4.4,4c1.8,1,4,1.5,6.7,1.5s4.8-0.5,6.7-1.5c1.8-1,3.3-2.4,4.4-4c1.1-1.7,2-3.6,2.5-5.7c0.5-2.1,0.8-4.3,0.8-6.5
				c0-2.3-0.3-4.6-0.8-6.7s-1.3-4.1-2.5-5.8c-1.1-1.7-2.6-3-4.4-4.1c-1.8-1-4-1.5-6.7-1.5s-4.8,0.5-6.7,1.5c-1.8,1-3.3,2.4-4.4,4.1
				c-1.1,1.7-2,3.6-2.5,5.8c-0.5,2.2-0.8,4.4-0.8,6.7C121.3,178.6,121.5,180.8,122,182.9z"/>
			<path class="st0" d="M181,149.8l22,35.4h0.1v-35.4H214v52.8h-11.6l-22-35.3h-0.2v35.3h-10.9v-52.8H181z"/>
			<path class="st0" d="M233.7,149.8v11.3c0.1,1.6-0.2,3.2-0.7,4.6c-0.5,1.4-1.2,2.7-2.2,3.8c-0.9,1.1-2.1,2-3.4,2.7
				c-1.3,0.7-2.7,1.2-4.2,1.4v-4.9c1.9-0.6,3.2-1.6,3.8-2.9c0.7-1.3,1-2.8,1-4.6h-4.9v-11.4H233.7z"/>
			<path class="st0" d="M239.7,159.5v-9.8H283v9.8h-15.8v43h-11.6v-43H239.7z"/>
		</g>
		<g>
			<path class="st0" d="M74.7,213.1l13.2,38.8H88l12.5-38.8H118v56.5h-11.6v-40h-0.2l-13.8,40h-9.6L69,229.9h-0.2v39.6H57.2v-56.5
				H74.7z"/>
			<path class="st0" d="M157,213.1l21.1,56.5h-12.9L161,257h-21.1l-4.4,12.6H123l21.3-56.5H157z M157.7,247.7l-7.1-20.7h-0.2
				l-7.3,20.7H157.7z"/>
			<path class="st0" d="M195.5,213.1v23.4l22.1-23.4H233L211,235.4l24.2,34.2h-15.6l-17-25.4l-7.1,7.2v18.2H183v-56.5H195.5z"/>
			<path class="st0" d="M282.3,213.1v10.4h-29.8v12.1h27.4v9.6h-27.4v13.8H283v10.4h-42.9v-56.5H282.3z"/>
		</g>
		<g>
			<path class="st0" d="M64.7,308.6c0.5,0.9,1.1,1.6,1.8,2.1c0.8,0.5,1.7,1,2.7,1.2c1,0.3,2.1,0.4,3.2,0.4c0.7,0,1.5-0.1,2.4-0.2
				c0.8-0.1,1.6-0.4,2.4-0.7s1.4-0.8,1.9-1.5c0.5-0.6,0.7-1.4,0.7-2.4c0-1-0.3-1.9-1-2.5c-0.7-0.6-1.5-1.2-2.6-1.6
				c-1.1-0.4-2.3-0.8-3.6-1.1c-1.3-0.3-2.7-0.7-4.1-1.1c-1.4-0.3-2.8-0.8-4.1-1.3c-1.3-0.5-2.5-1.2-3.6-2c-1.1-0.8-1.9-1.8-2.6-3.1
				c-0.7-1.2-1-2.7-1-4.4c0-1.9,0.4-3.6,1.2-5.1c0.8-1.4,1.9-2.6,3.3-3.6c1.3-1,2.9-1.7,4.6-2.1c1.7-0.5,3.4-0.7,5.1-0.7
				c2,0,3.9,0.2,5.7,0.7c1.8,0.4,3.4,1.2,4.8,2.1c1.4,1,2.5,2.3,3.4,3.8c0.8,1.5,1.2,3.4,1.2,5.6h-8.1c-0.1-1.1-0.3-2.1-0.7-2.8
				c-0.4-0.7-0.9-1.3-1.6-1.8c-0.7-0.4-1.4-0.7-2.3-0.9c-0.9-0.2-1.8-0.3-2.8-0.3c-0.7,0-1.3,0.1-2,0.2c-0.7,0.1-1.3,0.4-1.8,0.7
				c-0.5,0.4-1,0.8-1.4,1.3c-0.4,0.5-0.5,1.2-0.5,2c0,0.7,0.1,1.3,0.4,1.8c0.3,0.5,0.8,0.9,1.7,1.3c0.8,0.4,2,0.8,3.4,1.2
				c1.5,0.4,3.4,0.9,5.8,1.5c0.7,0.1,1.7,0.4,2.9,0.8c1.3,0.4,2.5,1,3.7,1.8c1.2,0.8,2.3,1.9,3.2,3.3c0.9,1.4,1.4,3.1,1.4,5.2
				c0,1.7-0.3,3.3-1,4.8c-0.7,1.5-1.7,2.8-3,3.8c-1.3,1.1-3,1.9-4.9,2.5c-2,0.6-4.2,0.9-6.8,0.9c-2.1,0-4.1-0.3-6.1-0.8
				c-2-0.5-3.7-1.3-5.2-2.4s-2.7-2.5-3.6-4.2c-0.9-1.7-1.3-3.7-1.3-6H64C64,306.7,64.3,307.8,64.7,308.6z"/>
			<path class="st0" d="M104.5,280.1l8.9,26h0.1l8.4-26h11.7V318h-7.8v-26.8h-0.1l-9.3,26.8h-6.4l-9.3-26.6h-0.1V318h-7.8v-37.8
				H104.5z"/>
			<path class="st0" d="M140.5,291.3c0.8-2.4,2.1-4.5,3.7-6.3c1.6-1.8,3.5-3.2,5.9-4.2c2.3-1,4.9-1.5,7.8-1.5c2.9,0,5.5,0.5,7.8,1.5
				c2.3,1,4.2,2.4,5.8,4.2c1.6,1.8,2.8,3.9,3.7,6.3c0.8,2.4,1.3,5,1.3,7.9c0,2.8-0.4,5.3-1.3,7.7c-0.8,2.4-2.1,4.5-3.7,6.2
				c-1.6,1.8-3.5,3.2-5.8,4.2c-2.3,1-4.9,1.5-7.8,1.5c-2.9,0-5.5-0.5-7.8-1.5c-2.3-1-4.3-2.4-5.9-4.2c-1.6-1.8-2.8-3.8-3.7-6.2
				c-0.8-2.4-1.3-5-1.3-7.7C139.2,296.4,139.6,293.8,140.5,291.3z M148.1,303.8c0.4,1.5,1,2.9,1.8,4.1c0.8,1.2,1.9,2.2,3.2,2.9
				c1.3,0.7,2.9,1.1,4.8,1.1s3.5-0.4,4.8-1.1c1.3-0.7,2.4-1.7,3.2-2.9c0.8-1.2,1.4-2.6,1.8-4.1s0.6-3,0.6-4.6c0-1.7-0.2-3.3-0.6-4.8
				c-0.4-1.6-1-2.9-1.8-4.2c-0.8-1.2-1.9-2.2-3.2-2.9c-1.3-0.7-2.9-1.1-4.8-1.1s-3.5,0.4-4.8,1.1c-1.3,0.7-2.4,1.7-3.2,2.9
				c-0.8,1.2-1.4,2.6-1.8,4.2c-0.4,1.6-0.6,3.2-0.6,4.8C147.5,300.8,147.7,302.3,148.1,303.8z"/>
			<path class="st0" d="M190.4,280.1v15.7l14.8-15.7h10.4l-14.8,14.9L217,318h-10.4l-11.4-17l-4.8,4.8V318h-8.3v-37.8H190.4z"/>
			<path class="st0" d="M248.7,280.1v7h-20v8.1H247v6.5h-18.3v9.3h20.4v7h-28.7v-37.8H248.7z"/>
			<path class="st0" d="M261.1,308.6c0.5,0.9,1.1,1.6,1.8,2.1c0.8,0.5,1.7,1,2.7,1.2c1,0.3,2.1,0.4,3.2,0.4c0.7,0,1.5-0.1,2.4-0.2
				c0.8-0.1,1.6-0.4,2.4-0.7s1.4-0.8,1.9-1.5s0.7-1.4,0.7-2.4c0-1-0.3-1.9-1-2.5c-0.7-0.6-1.5-1.2-2.6-1.6s-2.3-0.8-3.6-1.1
				c-1.3-0.3-2.7-0.7-4.1-1.1c-1.4-0.3-2.8-0.8-4.1-1.3c-1.3-0.5-2.5-1.2-3.6-2c-1.1-0.8-1.9-1.8-2.6-3.1c-0.7-1.2-1-2.7-1-4.4
				c0-1.9,0.4-3.6,1.2-5.1c0.8-1.4,1.9-2.6,3.3-3.6c1.3-1,2.9-1.7,4.6-2.1c1.7-0.5,3.4-0.7,5.1-0.7c2,0,3.9,0.2,5.7,0.7
				c1.8,0.4,3.4,1.2,4.8,2.1c1.4,1,2.5,2.3,3.4,3.8c0.8,1.5,1.2,3.4,1.2,5.6h-8.1c-0.1-1.1-0.3-2.1-0.7-2.8
				c-0.4-0.7-0.9-1.3-1.6-1.8c-0.7-0.4-1.4-0.7-2.3-0.9c-0.9-0.2-1.8-0.3-2.8-0.3c-0.7,0-1.3,0.1-2,0.2c-0.7,0.1-1.3,0.4-1.8,0.7
				s-1,0.8-1.4,1.3c-0.4,0.5-0.5,1.2-0.5,2c0,0.7,0.1,1.3,0.4,1.8c0.3,0.5,0.8,0.9,1.7,1.3c0.8,0.4,2,0.8,3.4,1.2s3.4,0.9,5.8,1.5
				c0.7,0.1,1.7,0.4,2.9,0.8c1.3,0.4,2.5,1,3.7,1.8c1.2,0.8,2.3,1.9,3.2,3.3c0.9,1.4,1.4,3.1,1.4,5.2c0,1.7-0.3,3.3-1,4.8
				c-0.7,1.5-1.7,2.8-3,3.8c-1.3,1.1-3,1.9-4.9,2.5c-2,0.6-4.2,0.9-6.8,0.9c-2.1,0-4.1-0.3-6.1-0.8c-2-0.5-3.7-1.3-5.2-2.4
				s-2.7-2.5-3.6-4.2c-0.9-1.7-1.3-3.7-1.3-6h8.1C260.4,306.7,260.6,307.8,261.1,308.6z"/>
		</g>
		<g>
			<path class="st0" d="M56,328.6h13.9L83,350.8l13.1-22.2h13.8L89,363.3v21.6H76.6V363L56,328.6z"/>
			<path class="st0" d="M114.1,345.3c1.3-3.6,3.1-6.7,5.4-9.4c2.4-2.7,5.3-4.8,8.7-6.3c3.4-1.5,7.3-2.3,11.6-2.3
				c4.4,0,8.3,0.8,11.7,2.3c3.4,1.5,6.3,3.6,8.7,6.3c2.4,2.7,4.2,5.8,5.4,9.4c1.3,3.6,1.9,7.5,1.9,11.7c0,4.1-0.6,7.9-1.9,11.5
				c-1.3,3.5-3.1,6.6-5.4,9.3c-2.4,2.6-5.3,4.7-8.7,6.2c-3.4,1.5-7.3,2.2-11.7,2.2c-4.3,0-8.2-0.8-11.6-2.2
				c-3.4-1.5-6.4-3.6-8.7-6.2c-2.4-2.6-4.2-5.7-5.4-9.3c-1.3-3.5-1.9-7.4-1.9-11.5C112.2,352.8,112.8,348.9,114.1,345.3z
				 M125.4,363.9c0.6,2.2,1.4,4.2,2.6,6c1.2,1.8,2.8,3.2,4.7,4.3c1.9,1.1,4.3,1.6,7.1,1.6s5.2-0.5,7.1-1.6c1.9-1.1,3.5-2.5,4.7-4.3
				c1.2-1.8,2.1-3.8,2.6-6c0.6-2.2,0.8-4.5,0.8-6.9c0-2.5-0.3-4.9-0.8-7.2c-0.6-2.3-1.4-4.4-2.6-6.2c-1.2-1.8-2.8-3.3-4.7-4.3
				c-1.9-1.1-4.3-1.6-7.1-1.6s-5.2,0.5-7.1,1.6c-1.9,1.1-3.5,2.5-4.7,4.3c-1.2,1.8-2.1,3.9-2.6,6.2c-0.6,2.3-0.8,4.7-0.8,7.2
				C124.6,359.3,124.9,361.6,125.4,363.9z"/>
			<path class="st0" d="M217.4,380.6c-4.3,3.7-10.1,5.6-17.7,5.6c-7.6,0-13.5-1.8-17.7-5.5c-4.2-3.7-6.3-9.4-6.3-17v-35h12.4v35
				c0,1.5,0.1,3,0.4,4.5c0.3,1.5,0.8,2.8,1.7,3.9c0.8,1.1,2,2.1,3.5,2.8c1.5,0.7,3.5,1.1,6,1.1c4.4,0,7.5-1,9.1-3s2.5-5.1,2.5-9.3
				v-35h12.4v35C223.8,371.2,221.7,376.9,217.4,380.6z"/>
			<path class="st0" d="M264.8,328.6c2.5,0,4.8,0.4,6.8,1.2c2,0.8,3.8,1.9,5.2,3.4c1.4,1.4,2.5,3.1,3.3,4.9c0.8,1.9,1.1,3.9,1.1,6
				c0,3.3-0.7,6.2-2.1,8.6c-1.4,2.4-3.7,4.3-6.8,5.5v0.2c1.5,0.4,2.8,1.1,3.8,1.9c1,0.9,1.8,1.9,2.4,3.1c0.6,1.2,1.1,2.5,1.4,3.9
				s0.5,2.8,0.6,4.3c0.1,0.9,0.1,2,0.2,3.2c0.1,1.2,0.1,2.4,0.3,3.7c0.1,1.3,0.3,2.5,0.6,3.6c0.3,1.1,0.7,2.1,1.3,2.9h-12.4
				c-0.7-1.8-1.1-3.9-1.3-6.4c-0.2-2.5-0.4-4.8-0.7-7.1c-0.4-2.9-1.3-5.1-2.7-6.5c-1.4-1.4-3.6-2.1-6.7-2.1h-12.4v22h-12.4v-56.3
				H264.8z M260.4,354.1c2.8,0,5-0.6,6.4-1.9c1.4-1.3,2.1-3.3,2.1-6.2c0-2.7-0.7-4.7-2.1-6c-1.4-1.2-3.5-1.9-6.4-1.9h-13.6v15.9
				H260.4z"/>
		</g>
		<g>
			<path class="st0" d="M67.1,431.9c0.6,1.1,1.4,2,2.3,2.7c1,0.7,2.1,1.2,3.4,1.6c1.3,0.3,2.7,0.5,4.1,0.5c0.9,0,2-0.1,3-0.2
				c1.1-0.2,2.1-0.5,3-0.9s1.7-1.1,2.4-1.9c0.6-0.8,0.9-1.8,0.9-3c0-1.3-0.4-2.4-1.2-3.2c-0.8-0.8-1.9-1.5-3.3-2
				c-1.4-0.5-2.9-1-4.6-1.4c-1.7-0.4-3.4-0.9-5.2-1.4c-1.8-0.4-3.6-1-5.3-1.7c-1.7-0.7-3.2-1.5-4.6-2.5s-2.4-2.3-3.3-3.9
				c-0.8-1.6-1.2-3.4-1.2-5.6c0-2.5,0.5-4.6,1.6-6.5c1.1-1.8,2.4-3.3,4.2-4.6c1.7-1.2,3.7-2.1,5.8-2.7s4.3-0.9,6.5-0.9
				c2.5,0,4.9,0.3,7.3,0.8c2.3,0.6,4.4,1.5,6.2,2.7c1.8,1.3,3.2,2.9,4.3,4.8c1.1,2,1.6,4.3,1.6,7.1H84.7c-0.1-1.4-0.4-2.6-0.9-3.6
				c-0.5-0.9-1.2-1.7-2.1-2.2c-0.9-0.5-1.8-0.9-2.9-1.2c-1.1-0.2-2.3-0.3-3.6-0.3c-0.9,0-1.7,0.1-2.6,0.3c-0.9,0.2-1.6,0.5-2.3,0.9
				c-0.7,0.5-1.3,1-1.7,1.7c-0.5,0.7-0.7,1.5-0.7,2.6c0,0.9,0.2,1.7,0.5,2.3c0.4,0.6,1.1,1.1,2.1,1.6c1.1,0.5,2.5,1,4.4,1.5
				c1.9,0.5,4.3,1.1,7.3,1.9c0.9,0.2,2.2,0.5,3.8,1c1.6,0.5,3.2,1.2,4.8,2.3c1.6,1,2.9,2.4,4.1,4.2c1.1,1.7,1.7,4,1.7,6.7
				c0,2.2-0.4,4.3-1.3,6.2c-0.9,1.9-2.1,3.5-3.8,4.9c-1.7,1.4-3.8,2.4-6.3,3.2c-2.5,0.8-5.4,1.1-8.7,1.1c-2.7,0-5.2-0.3-7.7-1
				c-2.5-0.7-4.7-1.7-6.6-3.1c-1.9-1.4-3.4-3.2-4.6-5.3c-1.1-2.2-1.7-4.7-1.6-7.7h10.3C66.3,429.4,66.6,430.8,67.1,431.9z"/>
			<path class="st0" d="M99.1,404.4v-8.9h39.6v8.9h-14.5v39.3h-10.6v-39.3H99.1z"/>
			<path class="st0" d="M143.7,409.8c1.1-3.1,2.6-5.8,4.7-8.1c2-2.3,4.5-4.1,7.5-5.4c2.9-1.3,6.3-2,10-2c3.7,0,7.1,0.7,10,2
				c2.9,1.3,5.4,3.1,7.4,5.4c2,2.3,3.6,5,4.7,8.1c1.1,3.1,1.6,6.4,1.6,10c0,3.5-0.5,6.8-1.6,9.8c-1.1,3-2.6,5.7-4.7,7.9
				c-2,2.3-4.5,4-7.4,5.3c-2.9,1.3-6.3,1.9-10,1.9c-3.7,0-7-0.6-10-1.9c-3-1.3-5.4-3.1-7.5-5.3c-2-2.3-3.6-4.9-4.7-7.9
				c-1.1-3-1.6-6.3-1.6-9.8C142.1,416.3,142.7,412.9,143.7,409.8z M153.4,425.8c0.5,1.9,1.2,3.6,2.3,5.2c1,1.5,2.4,2.8,4.1,3.7
				c1.7,0.9,3.7,1.4,6.1,1.4c2.4,0,4.4-0.5,6.1-1.4c1.7-0.9,3-2.2,4.1-3.7c1-1.5,1.8-3.3,2.3-5.2c0.5-1.9,0.7-3.9,0.7-5.9
				c0-2.1-0.2-4.2-0.7-6.2c-0.5-2-1.2-3.8-2.3-5.3c-1-1.6-2.4-2.8-4.1-3.7c-1.7-0.9-3.7-1.4-6.1-1.4c-2.4,0-4.4,0.5-6.1,1.4
				c-1.7,0.9-3,2.2-4.1,3.7c-1,1.6-1.8,3.3-2.3,5.3c-0.5,2-0.7,4-0.7,6.2C152.7,421.9,153,423.9,153.4,425.8z"/>
			<path class="st0" d="M222.9,395.5c2.2,0,4.1,0.3,5.8,1.1c1.7,0.7,3.2,1.7,4.5,2.9c1.2,1.2,2.2,2.6,2.8,4.2c0.6,1.6,1,3.3,1,5.2
				c0,2.8-0.6,5.3-1.8,7.4c-1.2,2.1-3.1,3.6-5.8,4.7v0.1c1.3,0.4,2.4,0.9,3.2,1.7c0.9,0.7,1.6,1.6,2.1,2.6c0.5,1,0.9,2.1,1.2,3.3
				c0.2,1.2,0.4,2.4,0.5,3.7c0,0.8,0.1,1.7,0.1,2.7c0,1,0.1,2.1,0.2,3.2c0.1,1.1,0.3,2.1,0.5,3.1s0.6,1.8,1.1,2.5h-10.6
				c-0.6-1.5-0.9-3.4-1.1-5.5c-0.1-2.1-0.3-4.1-0.6-6.1c-0.4-2.5-1.1-4.4-2.3-5.5c-1.2-1.2-3.1-1.8-5.7-1.8h-10.6v18.9h-10.6v-48.3
				H222.9z M219.1,417.4c2.4,0,4.3-0.5,5.5-1.6c1.2-1.1,1.8-2.8,1.8-5.3c0-2.3-0.6-4-1.8-5.1s-3-1.6-5.5-1.6h-11.6v13.6H219.1z"/>
			<path class="st0" d="M237.9,395.5h11.9l11.3,19.1l11.2-19.1h11.8l-17.9,29.8v18.5h-10.6V425L237.9,395.5z"/>
		</g>
	</g>
</g>
</svg>
