<?xml version="1.0" encoding="utf-8"?>
<!-- Generator: Adobe Illustrator 15.0.0, SVG Export Plug-In  -->
<!DOCTYPE svg PUBLIC "-//W3C//DTD SVG 1.1//EN" "http://www.w3.org/Graphics/SVG/1.1/DTD/svg11.dtd" [
	<!ENTITY ns_flows "http://ns.adobe.com/Flows/1.0/">
]>
<svg version="1.1"
	 xmlns="http://www.w3.org/2000/svg" xmlns:xlink="http://www.w3.org/1999/xlink" xmlns:a="http://ns.adobe.com/AdobeSVGViewerExtensions/3.0/"
	 x="0px" y="0px" width="595px" height="842px" viewBox="-8.5 -350.8 595 842" style="enable-background:new -8.5 -350.8 595 842;"
	 xml:space="preserve">
<style type="text/css">
<![CDATA[
	.st0{stroke:#000000;stroke-width:2;stroke-miterlimit:10;}
]]>
</style>
<defs>
</defs>
<path d="M225.4,62.3h-9.2l-1,2.5c-0.3,0.9-0.6,1.5-0.6,2.1c0,0.7,0.3,1.3,0.9,1.6c0.3,0.1,1.2,0.3,2.5,0.4v0.7h-8.6V69
	c0.9-0.1,1.6-0.6,2.2-1.2s1.3-1.9,2.2-3.9l9.4-20.6h0.3l9.4,21.2c0.9,2.1,1.6,3.3,2.2,3.9c0.4,0.4,1,0.6,1.8,0.7v0.6h-12.6V69h0.4
	c1,0,1.8-0.1,2.1-0.4c0.3-0.1,0.4-0.4,0.4-0.9c0-0.3,0-0.4-0.1-0.7c0-0.1-0.1-0.6-0.6-1.5L225.4,62.3L225.4,62.3z M224.6,60.9
	l-3.9-8.9l-4,8.9H224.6L224.6,60.9z"/>
<path d="M252.8,51.8v14c0,1.3,0.1,2.2,0.4,2.5s0.7,0.6,1.5,0.6v0.9h-7.3v-2.4c-0.9,1-1.8,1.8-2.5,2.2c-0.9,0.4-1.8,0.7-2.8,0.7
	c-1,0-1.9-0.3-2.7-0.9s-1.3-1.3-1.6-2.2s-0.4-2.2-0.4-4.3v-7.1c0-1.3-0.1-2.2-0.4-2.5s-0.7-0.6-1.5-0.6V52h7.3v12.2
	c0,1.3,0,2.1,0.1,2.5c0.1,0.3,0.3,0.6,0.6,0.9c0.3,0.1,0.6,0.3,0.9,0.3c0.4,0,0.9-0.1,1.2-0.3c0.4-0.3,1.2-1,1.8-2.1V56
	c0-1.3-0.1-2.2-0.4-2.5s-0.7-0.6-1.5-0.6v-0.7h7.4V51.8z"/>
<path d="M267.2,51.4l0.3,6.1h-0.6c-0.7-1.8-1.6-3.1-2.4-3.7c-0.9-0.6-1.6-1-2.5-1c-0.6,0-1,0.1-1.3,0.6c-0.3,0.3-0.6,0.7-0.6,1.2
	c0,0.3,0.1,0.7,0.4,1c0.4,0.6,1.5,1.5,3.4,2.7c1.9,1.3,3.1,2.4,3.7,3.3s0.9,1.9,0.9,3c0,1-0.3,1.9-0.7,3s-1.2,1.6-2.1,2.2
	c-0.9,0.6-1.9,0.7-3,0.7c-0.9,0-1.9-0.3-3.4-0.7c-0.4-0.1-0.6-0.1-0.7-0.1c-0.4,0-0.7,0.3-1,0.9H257l-0.3-6.4h0.6
	c0.6,1.6,1.3,3,2.4,3.9c1,0.9,1.9,1.3,2.8,1.3c0.6,0,1-0.1,1.5-0.6s0.6-0.9,0.6-1.3c0-0.6-0.1-1.2-0.6-1.6s-1.2-1.2-2.5-2.1
	c-1.9-1.3-3.3-2.4-3.9-3.1c-0.9-1-1.3-2.2-1.3-3.4c0-1.3,0.4-2.7,1.5-3.7c0.9-1.2,2.4-1.6,4.2-1.6c1,0,1.9,0.3,2.8,0.7
	c0.3,0.1,0.6,0.3,0.9,0.3s0.4,0,0.6-0.1c0.1-0.1,0.3-0.4,0.7-0.9h0.3V51.4z"/>
<path d="M276.7,45.3v6.5h4.3v1.9h-4.3v11c0,1,0,1.6,0.1,2.1c0.1,0.3,0.3,0.6,0.4,0.7c0.3,0.1,0.4,0.3,0.7,0.3c0.9,0,1.6-0.6,2.4-1.9
	l0.6,0.4c-1,2.4-2.7,3.7-5,3.7c-1.2,0-2.1-0.3-2.8-0.9c-0.7-0.6-1.3-1.3-1.5-2.1c-0.1-0.4-0.1-1.6-0.1-3.6v-9.6h-2.4v-0.7
	c1.6-1.2,3-2.4,4.2-3.6c1.2-1.2,2.1-2.7,3-4.2h0.4V45.3z"/>
<path d="M289.6,51.8v4c1.2-1.8,2.2-3.1,3.1-3.7s1.8-0.9,2.5-0.9s1.3,0.3,1.6,0.7c0.4,0.4,0.6,1,0.6,1.9s-0.1,1.5-0.6,1.9
	s-0.9,0.7-1.5,0.7c-0.7,0-1.3-0.1-1.8-0.6s-0.7-0.7-0.9-0.7c-0.1-0.1-0.3-0.1-0.4-0.1c-0.4,0-0.7,0.1-1,0.4c-0.6,0.4-0.9,1-1.2,1.9
	c-0.4,1.2-0.6,2.7-0.6,4.2v4.2v1c0,0.7,0,1.2,0.1,1.3c0.1,0.3,0.4,0.6,0.7,0.7s0.7,0.3,1.5,0.3v0.6h-9.6V69c0.7,0,1.3-0.3,1.6-0.6
	s0.4-1.3,0.4-2.8v-9.9c0-1,0-1.6-0.1-1.9s-0.3-0.6-0.6-0.7s-0.7-0.3-1.3-0.3V52h7.4V51.8z"/>
<path d="M307.6,67.1c-2.2,1.9-4.2,2.8-5.9,2.8c-1,0-1.9-0.3-2.5-1c-0.7-0.7-1-1.5-1-2.5c0-1.3,0.6-2.5,1.8-3.7
	c1.2-1,3.7-2.5,7.7-4.3v-1.8c0-1.3-0.1-2.2-0.3-2.5s-0.4-0.6-0.9-0.9s-0.9-0.4-1.3-0.4c-0.9,0-1.5,0.1-2.1,0.6
	c-0.3,0.3-0.4,0.4-0.4,0.7s0.1,0.6,0.6,1c0.4,0.6,0.7,1,0.7,1.6s-0.3,1.2-0.7,1.6s-1,0.6-1.8,0.6s-1.5-0.3-2.1-0.7s-0.7-1-0.7-1.6
	c0-0.9,0.3-1.8,1-2.7s1.8-1.5,3-1.9c1.3-0.4,2.7-0.7,4-0.7c1.6,0,3,0.3,4,1s1.6,1.5,1.9,2.4c0.1,0.6,0.3,1.8,0.3,3.7v7
	c0,0.9,0,1.3,0.1,1.5c0,0.1,0.1,0.3,0.3,0.4s0.3,0.1,0.4,0.1c0.3,0,0.7-0.3,1-0.7l0.6,0.4c-0.6,0.9-1.3,1.6-1.9,2.1
	c-0.7,0.4-1.5,0.6-2.4,0.6c-1,0-1.8-0.3-2.4-0.7C308,68.7,307.7,68,307.6,67.1L307.6,67.1z M307.6,65.8v-5.9c-1.5,0.9-2.7,1.9-3.4,3
	c-0.4,0.7-0.7,1.3-0.7,2.1c0,0.6,0.1,1,0.6,1.5c0.3,0.3,0.7,0.4,1.3,0.4S306.7,66.4,307.6,65.8L307.6,65.8z"/>
<path d="M323,43.8v22.3c0,1.3,0.1,2.1,0.4,2.4s0.9,0.6,1.8,0.6v0.7h-9.6V69c0.7,0,1.3-0.3,1.8-0.7c0.3-0.3,0.4-1,0.4-2.4V47.5
	c0-1.2-0.1-2.1-0.4-2.4s-0.9-0.6-1.6-0.6v-0.7H323L323,43.8z"/>
<path d="M331.3,43.2c0.9,0,1.5,0.3,2.1,0.9s0.9,1.3,0.9,2.1s-0.3,1.5-0.9,2.1s-1.3,0.9-2.1,0.9s-1.5-0.3-2.1-0.9s-0.9-1.3-0.9-2.1
	s0.3-1.5,0.9-2.1C329.7,43.5,330.5,43.2,331.3,43.2L331.3,43.2z M334,51.8v14.3c0,1.3,0.1,2.1,0.4,2.4s0.9,0.6,1.8,0.6v0.7h-9.7V69
	c0.7,0,1.3-0.3,1.8-0.7c0.3-0.3,0.4-1,0.4-2.4V55.5c0-1.3-0.1-2.1-0.4-2.4s-0.9-0.6-1.6-0.6v-0.7H334L334,51.8z"/>
<path d="M346.6,67.1c-2.2,1.9-4.2,2.8-5.9,2.8c-1,0-1.9-0.3-2.5-1c-0.7-0.7-1-1.5-1-2.5c0-1.3,0.6-2.5,1.8-3.7
	c1.2-1,3.7-2.5,7.7-4.3v-1.8c0-1.3-0.1-2.2-0.3-2.5s-0.4-0.6-0.9-0.9s-0.9-0.4-1.3-0.4c-0.9,0-1.5,0.1-2.1,0.6
	c-0.3,0.3-0.4,0.4-0.4,0.7s0.1,0.6,0.6,1c0.4,0.6,0.7,1,0.7,1.6s-0.3,1.2-0.7,1.6s-1,0.6-1.8,0.6s-1.5-0.3-2.1-0.7s-0.7-1-0.7-1.6
	c0-0.9,0.3-1.8,1-2.7s1.8-1.5,3-1.9c1.3-0.4,2.7-0.7,4-0.7c1.6,0,3,0.3,4,1s1.6,1.5,1.9,2.4c0.1,0.6,0.3,1.8,0.3,3.7v7
	c0,0.9,0,1.3,0.1,1.5c0,0.1,0.1,0.3,0.3,0.4s0.3,0.1,0.4,0.1c0.3,0,0.7-0.3,1-0.7l0.6,0.4c-0.6,0.9-1.3,1.6-1.9,2.1
	c-0.7,0.4-1.5,0.6-2.4,0.6c-1,0-1.8-0.3-2.4-0.7C347.1,68.7,346.6,68,346.6,67.1L346.6,67.1z M346.6,65.8v-5.9
	c-1.5,0.9-2.7,1.9-3.4,3c-0.4,0.7-0.7,1.3-0.7,2.1c0,0.6,0.1,1,0.6,1.5c0.3,0.3,0.7,0.4,1.3,0.4S345.7,66.4,346.6,65.8L346.6,65.8z"
	/>
<path d="M362.1,51.8v2.4c0.9-1,1.8-1.8,2.7-2.2s1.8-0.7,2.7-0.7c1.2,0,2.1,0.3,2.8,1c0.7,0.6,1.3,1.5,1.5,2.4
	c0.1,0.7,0.3,2.1,0.3,4.2v7c0,1.3,0.1,2.2,0.3,2.5c0.3,0.3,0.7,0.6,1.6,0.6v0.9h-9.1V69c0.7-0.1,1.2-0.3,1.5-0.9
	c0.1-0.3,0.3-1,0.3-2.4v-7.9c0-1.5,0-2.4-0.1-2.8s-0.3-0.7-0.6-0.9s-0.6-0.3-0.9-0.3c-1,0-2.1,0.7-3.1,2.4v9.6
	c0,1.3,0.1,2.2,0.3,2.5c0.3,0.3,0.7,0.6,1.3,0.7v0.6h-9.1V69c0.7-0.1,1.3-0.3,1.6-0.7c0.1-0.3,0.3-1,0.3-2.5V55.7
	c0-1.3-0.1-2.2-0.4-2.5s-0.7-0.6-1.5-0.6v-0.7H362.1L362.1,51.8z"/>
<path d="M409.3,43.2v9.2h-0.7c-0.9-2.5-2.1-4.5-3.9-5.6c-1.8-1.3-3.6-1.9-5.6-1.9c-1.9,0-3.6,0.6-4.9,1.6s-2.2,2.7-2.7,4.6
	c-0.6,1.9-0.7,4-0.7,5.9c0,2.5,0.3,4.6,0.9,6.5c0.6,1.9,1.5,3.3,2.8,4.2s2.8,1.3,4.6,1.3c0.6,0,1.3,0,1.9-0.1s1.3-0.3,2.1-0.6v-5.3
	c0-1,0-1.6-0.1-1.9s-0.4-0.6-0.9-0.9s-0.9-0.3-1.6-0.3h-0.6v-0.7h12.6v0.7c-0.9,0-1.6,0.1-2.1,0.4c-0.4,0.1-0.6,0.4-0.9,1
	c-0.1,0.3-0.1,0.9-0.1,1.8v5.3c-1.6,0.7-3.4,1.3-5.2,1.6c-1.8,0.4-3.7,0.6-5.6,0.6c-2.5,0-4.5-0.3-6.1-1s-3.1-1.5-4.3-2.7
	c-1.2-1-2.2-2.4-3-3.7c-0.9-1.8-1.3-3.7-1.3-5.9c0-3.9,1.3-7.3,4.2-9.9c2.7-2.7,6.2-4,10.4-4c1.3,0,2.4,0.1,3.4,0.3
	c0.6,0.1,1.5,0.4,2.7,0.9c1.3,0.4,2.1,0.7,2.2,0.7c0.3,0,0.7-0.1,1-0.4s0.6-0.7,0.9-1.5h0.7V43.2z"/>
<path d="M421.8,51.4c1.5,0,3,0.4,4.3,1.2s2.4,1.9,3,3.4c0.7,1.5,1,3.1,1,4.9c0,2.5-0.6,4.6-1.9,6.4c-1.5,2.1-3.7,3.1-6.4,3.1
	s-4.8-0.9-6.2-2.8s-2.2-4-2.2-6.5s0.7-4.8,2.2-6.7C417.2,52.3,419.1,51.4,421.8,51.4L421.8,51.4z M421.8,52.7
	c-0.6,0-1.2,0.3-1.6,0.7s-0.7,1.5-0.9,3s-0.1,3.4-0.1,6.1c0,1.3,0.1,2.7,0.3,3.9c0.1,0.9,0.4,1.6,0.9,2.1s1,0.7,1.6,0.7
	s1-0.1,1.5-0.4c0.4-0.4,0.9-1,1-1.8c0.3-1.2,0.4-3.7,0.4-7.3c0-2.2-0.1-3.7-0.3-4.5c-0.3-0.7-0.6-1.3-1-1.8
	C422.8,52.8,422.3,52.7,421.8,52.7L421.8,52.7z"/>
<path d="M438.5,70.2l-6.1-13.8c-0.7-1.6-1.3-2.7-1.6-3.1c-0.3-0.3-0.7-0.6-1.3-0.7v-0.7h9.5v0.7c-0.6,0-1,0.1-1.2,0.3
	c-0.3,0.3-0.4,0.6-0.4,1s0.3,1.3,0.9,2.7l3,6.7l2.4-5.8c0.7-1.6,1-2.8,1-3.6c0-0.4-0.1-0.7-0.4-0.9c-0.3-0.3-0.7-0.4-1.5-0.4v-0.7
	h5.8v0.7c-0.6,0.1-1,0.3-1.3,0.6s-0.9,1.3-1.6,3l-5.9,14.1H438.5L438.5,70.2z"/>
<path d="M462.6,60.1h-9.8c0.1,2.4,0.7,4.3,1.9,5.6c0.9,1,1.9,1.6,3.1,1.6c0.7,0,1.5-0.1,2.1-0.6s1.3-1.2,2.1-2.4l0.6,0.4
	c-1,1.9-2.1,3.4-3.3,4.2s-2.5,1.2-4,1.2c-2.7,0-4.6-1-6.1-3.1c-1-1.6-1.6-3.7-1.6-6.1c0-3,0.7-5.3,2.4-7.1s3.6-2.7,5.6-2.7
	c1.8,0,3.4,0.7,4.8,2.2C461.7,55.1,462.4,57.2,462.6,60.1L462.6,60.1z M457.8,58.9c0-2.1-0.1-3.4-0.3-4.2s-0.6-1.3-1-1.8
	c-0.3-0.3-0.6-0.3-1-0.3c-0.6,0-1.2,0.3-1.6,1c-0.7,1.2-1.2,2.7-1.2,4.6v0.7h5.2V58.9z"/>
<path d="M471,51.8v4c1.2-1.8,2.2-3.1,3.1-3.7s1.8-0.9,2.5-0.9s1.3,0.3,1.6,0.7c0.4,0.4,0.6,1,0.6,1.9s-0.1,1.5-0.6,1.9
	s-0.9,0.7-1.5,0.7c-0.7,0-1.3-0.1-1.8-0.6s-0.7-0.7-0.9-0.7c-0.1-0.1-0.3-0.1-0.4-0.1c-0.3,0-0.7,0.1-1,0.4c-0.6,0.4-0.9,1-1.2,1.9
	c-0.4,1.2-0.6,2.7-0.6,4.2v4.2v1c0,0.7,0,1.2,0.1,1.3c0.1,0.3,0.4,0.6,0.7,0.7s0.7,0.3,1.5,0.3v0.6h-9.6V69c0.7,0,1.3-0.3,1.6-0.6
	s0.4-1.3,0.4-2.8v-9.9c0-1,0-1.6-0.1-1.9s-0.3-0.6-0.6-0.7s-0.7-0.3-1.3-0.3V52h7.4V51.8z"/>
<path d="M487.5,51.8v2.4c0.9-1,1.8-1.8,2.7-2.2s1.8-0.7,2.7-0.7c1.2,0,2.1,0.3,2.8,1c0.7,0.6,1.3,1.5,1.5,2.4
	c0.1,0.7,0.3,2.1,0.3,4.2v7c0,1.3,0.1,2.2,0.3,2.5c0.3,0.3,0.7,0.6,1.6,0.6v0.9h-9.1V69c0.7-0.1,1.2-0.3,1.5-0.9
	c0.1-0.3,0.3-1,0.3-2.4v-7.9c0-1.5,0-2.4-0.1-2.8s-0.3-0.7-0.6-0.9s-0.6-0.3-0.9-0.3c-1,0-2.1,0.7-3.1,2.4v9.6
	c0,1.3,0.1,2.2,0.3,2.5c0.3,0.3,0.7,0.6,1.3,0.7v0.6h-9.1V69c0.7-0.1,1.3-0.3,1.6-0.7c0.1-0.3,0.3-1,0.3-2.5V55.7
	c0-1.3-0.1-2.2-0.4-2.5s-0.7-0.6-1.5-0.6v-0.7H487.5L487.5,51.8z"/>
<path d="M508.3,51.8v2.4c1-1,1.9-1.8,2.7-2.2c0.9-0.4,1.8-0.6,2.8-0.6c1.2,0,2.1,0.3,2.8,0.7s1.3,1.3,1.8,2.5c1-1.2,1.9-1.9,3-2.5
	c0.9-0.4,1.9-0.7,3-0.7c1.2,0,2.2,0.3,3,0.9s1.2,1.3,1.5,2.2s0.4,2.2,0.4,4.2v7.3c0,1.3,0.1,2.2,0.3,2.5c0.3,0.3,0.7,0.6,1.6,0.6
	v0.7H522V69c0.7,0,1.3-0.3,1.6-0.9c0.3-0.3,0.3-1.2,0.3-2.4V58c0-1.6,0-2.7-0.1-3c-0.1-0.4-0.3-0.7-0.6-0.9s-0.6-0.3-0.9-0.3
	c-0.6,0-1,0.1-1.6,0.6s-1.2,1-1.6,1.8v9.6c0,1.3,0.1,2.1,0.3,2.4c0.3,0.4,0.9,0.7,1.6,0.7v0.7h-9.2V69c0.4,0,0.9-0.1,1.2-0.3
	c0.3-0.3,0.4-0.4,0.6-0.7s0.1-1,0.1-2.1v-7.7c0-1.6,0-2.7-0.1-3s-0.3-0.7-0.6-0.9c-0.3-0.3-0.6-0.3-0.9-0.3c-0.4,0-1,0.1-1.3,0.4
	c-0.6,0.4-1.2,1-1.9,2.1v9.6c0,1.3,0.1,2.1,0.3,2.5c0.3,0.4,0.7,0.6,1.6,0.7v0.3h-9.2V69c0.7-0.1,1.3-0.3,1.6-0.7
	c0.1-0.3,0.3-1,0.3-2.5V55.7c0-1.3-0.1-2.2-0.4-2.5s-0.7-0.6-1.5-0.6v-0.7H508.3L508.3,51.8z"/>
<path d="M547,60.1h-9.8c0.1,2.4,0.7,4.3,1.9,5.6c0.9,1,1.9,1.6,3.1,1.6c0.7,0,1.5-0.1,2.1-0.6s1.3-1.2,2.1-2.4l0.6,0.4
	c-1,1.9-2.1,3.4-3.3,4.2s-2.5,1.2-4,1.2c-2.7,0-4.6-1-6.1-3.1c-1-1.6-1.6-3.7-1.6-6.1c0-3,0.7-5.3,2.4-7.1s3.6-2.7,5.6-2.7
	c1.8,0,3.4,0.7,4.8,2.2C546.3,55.1,546.9,57.2,547,60.1L547,60.1z M542.3,58.9c0-2.1-0.1-3.4-0.3-4.2s-0.6-1.3-1-1.8
	c-0.3-0.3-0.6-0.3-1-0.3c-0.6,0-1.2,0.3-1.6,1c-0.7,1.2-1.2,2.7-1.2,4.6v0.7h5.2V58.9z"/>
<path d="M555.1,51.8v2.4c0.9-1,1.8-1.8,2.7-2.2s1.8-0.7,2.7-0.7c1.2,0,2.1,0.3,2.8,1c0.7,0.6,1.3,1.5,1.5,2.4
	c0.1,0.7,0.3,2.1,0.3,4.2v7c0,1.3,0.1,2.2,0.3,2.5c0.3,0.3,0.7,0.6,1.6,0.6v0.9h-9.1V69c0.7-0.1,1.2-0.3,1.5-0.9
	c0.1-0.3,0.3-1,0.3-2.4v-7.9c0-1.5,0-2.4-0.1-2.8s-0.3-0.7-0.6-0.9s-0.6-0.3-0.9-0.3c-1,0-2.1,0.7-3.1,2.4v9.6
	c0,1.3,0.1,2.2,0.3,2.5c0.3,0.3,0.7,0.6,1.3,0.7v0.6h-9.1V69c0.7-0.1,1.3-0.3,1.6-0.7c0.1-0.3,0.3-1,0.3-2.5V55.7
	c0-1.3-0.1-2.2-0.4-2.5s-0.7-0.6-1.5-0.6v-0.7H555.1L555.1,51.8z"/>
<path d="M574.7,45.3v6.5h4.3v1.9h-4.3v11c0,1,0,1.6,0.1,2.1c0.1,0.3,0.3,0.6,0.4,0.7c0.3,0.1,0.4,0.3,0.7,0.3c0.9,0,1.6-0.6,2.4-1.9
	l0.6,0.4c-1,2.4-2.7,3.7-5,3.7c-1.2,0-2.1-0.3-2.8-0.9s-1.3-1.3-1.5-2.1c-0.1-0.4-0.1-1.6-0.1-3.6v-9.6h-2.4v-0.7
	c1.6-1.2,3-2.4,4.2-3.6s2.1-2.7,3-4.2h0.4V45.3z"/>
<path d="M64.7,112.4c-0.1,0.1-0.3,0.4-0.4,0.4"/>
<path d="M69.2,77.3c0.4,0,0.9-0.4,0.9-0.9s-0.4-0.9-0.9-0.9s-0.9,0.4-0.9,0.9S68.7,77.3,69.2,77.3L69.2,77.3z"/>
<path d="M112.7,37.9L112.7,37.9H79l0,0l0,0v27.3c0,2.7,1.2,4.9,2.7,5.6l12.9,7.7c0.3,0.3,0.7,0.6,1.2,0.6c0.4,0,0.7-0.1,1-0.4
	l13.2-7.9c1.5-0.7,2.7-3,2.7-5.6V37.9L112.7,37.9L112.7,37.9z M90.1,45.7h-3v-7h3V45.7L90.1,45.7z M88,48.1l0.4-0.4l-0.3-0.4h0.6
	l0.3-0.6l0.3,0.6H90l-0.3,0.4l0.4,0.4l-0.6,0.1v0.6l-0.4-0.4l-0.4,0.4v-0.6L88,48.1L88,48.1z M79.9,56.9v-6.7h3.6v6.7H79.9
	L79.9,56.9z M80.5,47.2h0.6l0.3-0.6l0.3,0.6h0.6L82,47.7l0.4,0.4l-0.6,0.1v0.6l-0.4-0.4l-0.4,0.4v-0.6l-0.6-0.1l0.4-0.4L80.5,47.2
	L80.5,47.2z M84.5,54h0.6l0.3-0.6l0.3,0.6h0.6L86,54.5l0.4,0.4h-0.6v0.6l-0.4-0.4l-0.4,0.4v-0.6h-0.6l0.4-0.4L84.5,54L84.5,54z
	 M86.9,48.7c0-0.1-0.3-0.3-0.3-0.3c-0.3,0-0.4,0.6-0.7,0.6c-0.1,0-0.3,0-0.3-0.1s0.4-0.3,0.6-0.4c-2.2,0-2.2,1-2.5,1
	c-0.6,0,0.4-1,0.7-1.3c-0.4,0-0.7-0.6-1.2-0.9c0.3-0.3,0.3-0.1,0.6,0c0-0.3,0.1-0.4,0.7-0.4c1,0,0.7,0.9,0.9,0.9s0-0.9,0.6-0.9
	c1,0,2.2,2.5,1,2.5C86.4,49.1,86.9,48.7,86.9,48.7L86.9,48.7z M84.3,41.4l0.4-0.4l-0.3-0.4h0.6l0.3-0.6l0.3,0.6h0.6L86,41l0.4,0.4
	l-0.6,0.1v0.6l-0.4-0.4l-0.4,0.4v-0.6L84.3,41.4L84.3,41.4z M83.4,38.7v7h-3.6v-7H83.4L83.4,38.7z M90.1,74.8l-8-4.9
	c-1.3-0.9-2.1-2.5-2.2-4.5v-7.7h10.2V74.8L90.1,74.8z M87.1,56.9v-6.7h3v6.7H87.1L87.1,56.9z M100.5,75.3l-3.7,2.2l0,0
	c-0.3,0.1-0.6,0.3-1,0.3c-0.4,0-0.7-0.1-1-0.3L91,75.3V57.7h9.5V75.3L100.5,75.3z M100.5,56.9H91V38.7h9.5V56.9L100.5,56.9z
	 M111.8,65.5c-0.1,1.9-0.9,3.6-2.2,4.5l-8.2,4.9V57.7h10.4V65.5L111.8,65.5z M111.8,56.9h-10.4V38.7h10.4V56.9L111.8,56.9z"/>
<path d="M89.5,64c0-0.1-1.3,0.4-0.9,0.4c0-0.3,0.7-1,1-1.3c0-0.4-0.6,0-1.2,0.3c1.9-2.8,0.7-1.6-0.4-1.5c1.8-1.8,1.3-1.8,0-1.2
	c1-0.7,1.2-1.8,1-1.9c-0.9,1.2-1.8,1-1.8,2.2c0,0.7-0.3,2.1-0.6,2.4c-0.4,0.6-0.1-2.1-1.5-2.1c-0.4,0-1.5,0-1.8,0.4
	c0.3,0,0.7,0.7,0.7,0.9c0,0.3,0.3,1-0.1,1s-1-0.9-1-1.3s0-0.3,0-1c0-1-1.8-2.7-2.5-2.7c0,0.7,1,0.9,1,1.9c-0.4,0-1-0.7-1-0.3
	s0.6,0.6,0.6,1s-0.7-0.1-0.7,0.3s0.4,0.3,0.4,0.7c-0.3-0.1-0.6,0-0.6,0.1s0.1,0.3,0.3,0.4c-0.1,0.1-0.1,0.3-0.1,0.9
	c0,2.2,1.3,3.1,2.4,3.1c0.7,0,0.6-0.4,0.7-0.7c0,0.3,0.4-0.1,0.4,0.4s-0.7,0.4-0.7,0.9c0,0.7,1,0,1,0.9c0,1-0.1,1-0.1,1.3
	s1.2-0.4,1-0.4c0.3,0.1,0.3,0.9,0.7,0.9c0.3,0,0.4-0.9,0.6-0.9c-0.1,0,1,0.7,1,0.4c0-1-0.4-0.6-0.4-1.3c0-0.6,1.3-0.4,1.2-0.9
	c-0.1-0.3-0.3-0.1-0.4-0.6c0,0.1-1-1.6,0.3-0.7C89.5,67.2,89.7,64.1,89.5,64L89.5,64z"/>
<path d="M125.6,71.1c0.6,0,1-0.4,1-1s-0.4-1-1-1s-1,0.4-1,1S125,71.1,125.6,71.1L125.6,71.1z"/>
<path d="M121.1,73.8c0.6,0,1-0.4,1-1c0-0.6-0.4-1-1-1c-0.6,0-1,0.4-1,1C120.1,73.3,120.6,73.8,121.1,73.8L121.1,73.8z"/>
<path d="M67.7,80c0.6,0,1-0.4,1-1s-0.4-1-1-1s-1,0.4-1,1S67.1,80,67.7,80L67.7,80z"/>
<path d="M71.3,80.3c0.6,0,1-0.4,1-1s-0.4-1-1-1c-0.6,0-1,0.4-1,1C70.1,79.9,70.5,80.3,71.3,80.3L71.3,80.3z"/>
<path d="M167.3,33.7c1.6,1.9,1.9,5,0.9,7.4c-0.6,0-0.6-0.9-0.6-1.3c-1.2-2.2-2.1-5-1-7.4C167.2,32.4,166.9,33.3,167.3,33.7
	L167.3,33.7z"/>
<path d="M26.3,36.4c-0.3,1.5-0.3,3.4,0,4.8c-0.3,0.3-0.3-0.3-0.6-0.3c-2.2-1.6-1.2-4.9-1.8-7.3c0.1-0.1,0.4-0.3,0.6-0.1
	C25.5,34.1,26.1,35.2,26.3,36.4L26.3,36.4z"/>
<path d="M172.4,36.5c0.3,0.6-0.3,1.3-0.7,1.6c-0.6,0.1-1.2-0.1-1.5-0.6c-0.1-0.6,0.1-1.2,0.7-1.5C171.5,35.9,171.9,36.1,172.4,36.5
	L172.4,36.5z"/>
<path d="M22.7,39.2c-0.1,0.6-0.3,1-0.7,1.3c-0.3,0-0.9,0-1.2-0.3s-0.4-0.9-0.3-1.2c0.3-0.4,0.7-0.4,1.2-0.6
	C22.1,38.6,22.6,38.7,22.7,39.2L22.7,39.2z"/>
<path d="M174.6,40.1c0.1,0.3,0.1,0.6,0,0.9c-0.4,0.6-1,0.7-1.6,0.6c-0.4-0.3-0.6-0.6-0.6-1c0.1-0.4,0.6-0.9,1-1
	C174,39.5,174.3,39.8,174.6,40.1L174.6,40.1z"/>
<path d="M171.3,40.2c0.4,0.3,0.1,0.9,0,1.2c-0.3,0.3-0.7,0.7-1.2,0.6c-0.3-0.3-0.6-0.3-0.7-0.7c0-0.6,0.3-1.2,0.9-1.3
	C170.6,39.8,170.9,40.1,171.3,40.2L171.3,40.2z"/>
<path d="M167,41.1c0,0.6,0,1.5-0.7,1.6c-0.7,0.3-1.2-0.3-1.3-0.9c0-0.6,0.3-1.2,0.9-1.5C166.3,40.4,166.7,40.7,167,41.1L167,41.1z"
	/>
<path d="M29.1,41.4c0.1,0.6-0.4,0.9-0.7,1.2c-0.4,0.1-0.9-0.3-1.2-0.6c-0.4-0.4,0.1-0.7,0.3-1.2C28.1,40.4,29,40.7,29.1,41.4
	L29.1,41.4z"/>
<path d="M25.5,41.6c0,0.4-0.3,0.9-0.6,1.2c-0.4,0.1-0.9-0.1-1.2-0.6c-0.3-0.6,0-1.2,0.6-1.3C24.9,40.5,25.4,41.1,25.5,41.6
	L25.5,41.6z"/>
<path d="M152.8,41.9c0.6,1.2,1,2.7,1.2,4.3c-0.3,1.2,0.1,2.7-0.6,3.4c-0.9-0.3-0.9-1.3-1.5-1.8c-1-2.1-0.1-4.5,0.3-6.5
	C152.6,41,152.6,41.6,152.8,41.9L152.8,41.9z"/>
<path d="M22.9,42.5c0.1,0.7-0.3,1-0.7,1.5c-0.7,0.1-1.2-0.3-1.5-0.9c0-0.6,0.3-1.2,0.7-1.5C22,41.7,22.6,42,22.9,42.5L22.9,42.5z"/>
<path d="M162,44.2c0.7,1.8,0.9,3.9,0.3,5.6l-0.3,0.3c-0.9-1.6-1.9-3.1-2.4-4.8c0-1.2,0.3-2.4,0.7-3.4c0.4-0.3,0.6,0,0.9,0.4
	C161.1,43.1,161.4,43.9,162,44.2L162,44.2z"/>
<path d="M169.4,43.2c0,0.6-0.3,1.2-0.9,1.5c-0.6,0.1-1.2,0-1.3-0.7c-0.1-0.6,0.1-1.2,0.6-1.5C168.5,42.2,169.1,42.8,169.4,43.2
	L169.4,43.2z"/>
<path d="M25.7,45c0,0.4-0.4,1-0.9,1.2c-0.4,0.3-0.9-0.3-1.2-0.4c-0.1-0.4-0.3-0.9,0-1.3c0.1-0.3,0.6-0.3,0.9-0.4
	C24.9,44.2,25.5,44.4,25.7,45L25.7,45z"/>
<path d="M28.2,44.7c0.3,0.6-0.4,0.9-0.6,1.2c-0.7,0.3-1-0.3-1.3-0.7c-0.1-0.6,0.3-0.9,0.6-1.3C27.6,43.6,27.9,44.2,28.2,44.7
	L28.2,44.7z"/>
<path d="M171.2,44.5c0,0.7-1.2,1.5-1.3,2.4c-0.6,1.6-2.1,2.8-3.7,3.3c-0.3,0.3-0.9,0.7-1.3,0.7c-0.1-1.2,0.9-2.2,1.6-3.3
	C167.6,46,169.2,45,171.2,44.5L171.2,44.5z"/>
<path d="M24.5,47.1c0.9,1,1.3,1.9,2.4,2.8c0,0.3-0.1,0.6-0.4,0.6c-2.8-0.1-4.9-3.1-6.2-5.2c0.1-0.6,0.9-0.1,1.3-0.1
	C22.6,45.7,23.8,46,24.5,47.1L24.5,47.1z"/>
<path d="M171.9,47.8c-0.1,2.5-1.3,5.2-3.7,6.4c-0.6,0.3-1.3,0.9-1.9,0.4c1.2-2.5,3.1-4.6,5.2-6.8H171.9L171.9,47.8z"/>
<path d="M160.6,49.6c0.1,0.9-0.3,1.5-1,1.8c-0.6,0-1-0.4-1.3-0.9c0-0.6,0.3-1.2,0.9-1.3c0.1-0.1,0.4-0.1,0.7-0.1
	S160.3,49.3,160.6,49.6L160.6,49.6z"/>
<path d="M21.2,50.2c1.2,0.7,2.1,1.8,3.1,2.8c-0.7,0.6-1.6,0-2.5,0c-1.9-0.7-3.4-2.4-5.3-3c0-0.6,0.9-0.4,1.2-0.6
	C19,49.3,20.1,49.9,21.2,50.2L21.2,50.2z"/>
<path d="M84.3,32.5c-3.3-1.3-5.5,2.1-8.9,1.8c-0.4,0.3-0.3,0.6-0.6,0.9c-0.1,0.1-0.4,0-0.6,0c-0.1-1.5-0.6-2.7-0.9-4.2
	c-0.3-0.6-0.1-1.5-0.4-2.1c-1.9-5.2,4.6-1.2,5.9-4.3c1.2-2.7-2.2-3-3.1-4.8v-0.6c-0.9-0.9-1.9-1.2-2.5-2.5c0.4-1.5,0.6-3.1,0.1-4.6
	c0-0.3-0.3-0.9-0.9-0.6c-1.2,1.5-1.9,2.8-3,4.3c-1.2-0.9-2.2-1.9-3.4-2.7c-0.9-0.1-1.8-1-2.7-0.6c-0.1,0.3,0,0.6,0.1,0.9
	c0,2.4,1.2,4.2,2.8,5.8l0.1,0.9c-1,2.4-0.7,5.2-1,7.9c-2.7,6.8-7,13.2-12.8,18c-3.4,3.9-7.4,7.4-7.9,12.6c-0.1,0.9,0.1,1.8-0.6,2.4
	c-1.9-0.7-3.9-1.6-5.5-3c-2.7-1.9-6.5-1.6-8.3-5c-0.7-1.3,0.1-2.7,0.9-3.7c1.9-1.9,1.8-5.3,0.6-7.6c-0.3,0-0.3,0.3-0.4,0.3
	c-0.1,3.6-3,5.9-1.9,9.8c0.3,1.2,0.9,1.8,1.2,3c-0.4-0.1-1-0.1-1.3-0.3c-1.3-0.1-2.5-0.7-4-0.6c-2.7,1.2-6.4-0.3-8.6,2.2
	c-0.3,0-0.9,0.1-0.7,0.6c1.3,0,2.5,0.3,3.9,0.3c2.1,0.3,3.4-1.3,4.9-2.1h0.3c0.6-0.6,1.6-0.3,2.4-0.3c3.7,0.4,6.5,2.2,9.6,4v0.3
	c-1.2,0.6-2.5,0.9-3.7,1.5c-1.3,1-2.8,2.4-3.3,4c-0.9,1.5,0.3,2.8,0.9,4c0,0.6,0.1,1.3,0.6,1.5c1.9-2.1,0.1-4.5,0.4-6.8
	c0.4-1.8,2.1-2.7,3.9-3.1c3.4-1.5,5.8,1.3,8.5,2.8c0,2.7,0.3,5.3-0.3,8c-0.9,0.3-1.9,0.4-2.8,0.4c-4.6,0.3-8.3,3-12.5,4.3
	c-1.9,0.6-4.2,0.6-5.9,1.3c1.5,0.4,3-0.1,4.6-0.1c5.8-0.9,10.2-5.3,16.5-4.5l0.1,0.1c-0.7,1.5-1.6,2.7-2.8,3.9
	c-0.1-0.6-0.3-1.2-0.9-1.5c-0.4-0.3-1,0-1.3,0.4c-0.1,0.3-0.1,0.6,0,0.9c0.3,0.6,0.7,0.6,1.3,0.9c-0.1,0.6-0.7,0.7-1.2,1.2
	c-1.6,2.8-5,1.6-7,3.6c-0.3,0.4-1.3,0.6-0.9,1.3c2.2,0.3,4.5-0.3,6.1-1.5c2.2-2.4,4.5-4.8,6.7-7.1c0.3,1.9-0.1,3.9-1.3,5.3
	c-0.6-0.3-0.9-0.7-1.6-0.9c-0.6,0.1-1,0.7-1,1.2c0.3,0.4,0.4,0.9,0.9,1.2c-1.9,1.5-4.6,1.5-6.8,2.2c-4.3,0.6-8.5,0.9-12.8,0.9
	c-2.1-0.1-4.5,0.6-6.4,0c-2.2,0.4-4.6-0.3-6.5,0.9c-0.3,0.3,0,0.6,0,0.9c2.7,1.8,6.4,0.3,9.5,0.9h23.2c1.8,0,3.4-0.1,4.8-0.9
	c3-1.8,4.6-4.8,6.2-7.9c0.6-1,1-2.4,1.2-3.6c0.6-2.1,2.4-3.4,4.5-3.6c0.3,3.1-0.3,6.2-1,9.1c-0.3,1.9-1.6,3.7-0.9,5.8
	c0.1,0.9,1.2,0.9,1.9,1c7.1-0.1,14.3-0.4,21.8,0.1c1.3,0.3,2.5,0.6,4,0.6c0.1-0.1,0.6-0.3,0.3-0.6c-0.1-0.6-0.6-1.5-1.5-1.6
	c-0.1-0.3-0.6-0.3-0.9-0.4c-3.7-2.1-8.3-1-12.8-0.9c-2.2,0.3-4.6,0.6-6.5-0.6c-0.9-1-0.3-4.5-0.3-4.5c0-1.3,3.3-10.7,3.7-11.4
	c0.1-0.9,0.4-1.8,0.3-2.7c0.4-1.2,0.3-2.7,0.3-4c0.3-1.9,1.2-3.7,1.8-5.5c0.3-0.9,0.6-1.8,1-2.7c0.3-1.2,0.4-2.2,1.2-3.1
	c1.9,1.2,3.9,1.2,4.8,3.4l0.7,4.9c0,0.3,0.3,0.9,0.6,0.6c1.5-1,1-3.3,1-4.8c0.3-1.8-0.9-2.7-1.5-4.3c0.1-0.7-0.4-2.2-0.4-2.2
	c-0.3-1.3-3.1-2.2-2.4-3.9c0.3-1.3,0.7-2.7,1.9-3.4c0.1,0.1,0.3,0.3,0.3,0.4l0.7-0.4v-4.9c1.9,0,4.8,0.3,6.7,0.3
	c0.6,0.1,0.9,0.6,1.5,0.6l0.4-0.6l4.8-0.9C87.4,34.9,86.3,32.5,84.3,32.5L84.3,32.5z"/>
<path d="M89.5,34.7c0.1,0,0.3,0,0.4-0.1L89.5,34.7L89.5,34.7z"/>
<path d="M38.2,51.2c0,0.7-0.3,1.2-0.9,1.3c-0.4-0.1-0.9-0.3-1.2-0.7c-0.3-0.6,0.3-1.2,0.9-1.3C37.6,50.6,38,50.6,38.2,51.2
	L38.2,51.2z"/>
<path d="M34.3,51.2c0.3,0.3,0.4,0.9,0.3,1.3c-0.4,0.3-1,0.6-1.5,0.1c-0.3-0.3-0.7-0.7-0.4-1.2C33.3,51.1,33.9,50.8,34.3,51.2
	L34.3,51.2z"/>
<path d="M161.2,52.8c0.3,0.6-0.3,1.2-0.7,1.3c-0.6-0.1-1.3-0.3-1.3-1c0-0.4,0.4-0.7,0.9-0.9S160.9,52.6,161.2,52.8L161.2,52.8z"/>
<path d="M164.3,52.7c0.1,0.3,0.6,0.7,0.1,1c-0.3,0.1-0.4,0.3-0.6,0.4c-0.6,0.1-1.2-0.1-1.5-0.7c-0.1-0.6,0.4-0.9,0.9-1.2
	C163.7,52.3,164,52.6,164.3,52.7L164.3,52.7z"/>
<path d="M19.6,53.4c-0.3,0.7-0.9,1-1.6,0.7c-0.1-0.1-0.3-0.4-0.4-0.7c0-0.4,0.1-0.9,0.6-1C18.9,52.6,19.5,52.8,19.6,53.4L19.6,53.4z
	"/>
<path d="M39.5,54.5c0,0.4-0.6,0.9-1,1.2c-0.6,0-1-0.4-1.3-0.9c0-0.4,0.3-1,0.7-1.2C38.5,53.3,39.2,53.7,39.5,54.5L39.5,54.5z"/>
<path d="M35.9,54c0.1,0.1,0.3,0.6,0.1,0.9c-0.3,0.3-0.9,0.9-1.5,0.4c-0.3-0.3-0.7-0.6-0.6-1.2c0.3-0.3,0.6-0.6,0.9-0.7
	C35.3,53.4,35.6,53.7,35.9,54L35.9,54z"/>
<path d="M173.4,54.8c0,0.4-0.4,0.9-0.7,1.2c-0.4,0.1-1,0-1.3-0.3c-0.3-0.1-0.3-0.6-0.3-0.9c0.3-0.4,0.7-0.6,1.2-0.7
	C172.7,54,173.1,54.3,173.4,54.8L173.4,54.8z"/>
<path d="M177.1,55.2c-0.1,0.6-0.6,1-1.2,1c-0.3,0-1-0.1-0.9-0.7c0-0.4,0.3-0.9,0.6-0.9C176.2,54.3,177,54.6,177.1,55.2L177.1,55.2z"
	/>
<path d="M26.3,56.1c0.1,0.7-0.1,1.2-0.7,1.5c-0.4,0.3-0.9,0-1.2-0.3c-0.1-0.3-0.4-0.9-0.1-1.2c0.1-0.6,0.6-0.4,1-0.6
	C25.7,55.5,26,55.7,26.3,56.1L26.3,56.1z"/>
<path d="M29.3,56.7c0.1,0.4-0.3,0.6-0.4,1c-0.3,0.1-0.7,0.3-1,0.1c-0.4-0.3-0.9-0.9-0.4-1.5C27.6,55.5,29,56,29.3,56.7L29.3,56.7z"
	/>
<path d="M169.8,56.4c0,0.6-0.4,1-0.9,1.3c-0.6,0.1-1-0.3-1.2-0.7c0-0.4,0.3-0.9,0.6-1.2C169.1,55.8,169.5,55.8,169.8,56.4
	L169.8,56.4z"/>
<path d="M174.7,57.3c-0.1,0.6,0,1.2-0.6,1.5c-0.4,0.1-1,0-1.5-0.3c-0.3-0.3-0.4-0.9-0.3-1.2c0.3-0.4,0.9-0.9,1.5-0.7
	C174.3,56.9,174.3,57.2,174.7,57.3L174.7,57.3z"/>
<path d="M24.1,58.5c0.3,0.4-0.3,0.6-0.4,0.9c-0.4,0.3-0.9,0-1.2-0.1c-0.4-0.3-0.3-0.9-0.1-1.2C22.7,57.2,23.9,57.9,24.1,58.5
	L24.1,58.5z"/>
<path d="M171,59.7c0.3,0,0.1,0.4,0,0.6c-1.5,0.7-3.6,0.9-4.8-0.3c-0.7-0.6-1.6-0.9-2.4-1.3c0.3-0.7,1.3-0.7,2.1-0.9
	C167.8,58,169.1,59.7,171,59.7L171,59.7z"/>
<path d="M26.9,59.1c0.1,0.4-0.3,0.6-0.3,1c-0.3,0.3-0.7,0.3-1,0.1c-0.6-0.3-0.7-1-0.4-1.5C25.8,58.2,26.6,58.5,26.9,59.1L26.9,59.1z
	"/>
<path d="M32.1,59.5c0.3,0.6-0.1,1-0.6,1.3s-0.7-0.1-1.2-0.1c-0.3-0.4-0.9-0.9-0.3-1.3C30.6,58.3,31.6,58.8,32.1,59.5L32.1,59.5z"/>
<path d="M100.2,62.1c-0.1,1.2-2.1-0.1-1.8,1.3c0.3,1.2,0.4,2.5,1.2,3.3c0.6,0.7,0.3,2.1,0.3,3c-0.4,0.9-1.3,1.5-2.2,1.9
	c-1.6-0.1-4.2,0.9-4.9-1.2c-0.3-0.9-0.9-1.8-0.9-2.8c0.1-0.1,0.4-0.1,0.6-0.3c0-0.4-0.4-0.6-0.4-1c1.9-0.3-0.7-2.1,0.9-2.1
	c1.3,1.3,3.6,0.9,4.8,2.5c0.3,0.3,0.4,0.6,0.9,0.7c-0.3-1.3-0.9-2.8-1.2-4.3c-0.1-0.7,0.1-1.5,0.7-1.9
	C98.7,60.3,99.6,61.3,100.2,62.1L100.2,62.1z"/>
<path d="M37.3,61.6c0.1,0.6-0.3,0.9-0.6,1.2c-0.6,0.3-0.9-0.3-1-0.6c-0.1-0.6,0.3-0.9,0.6-1.2C36.5,61,37,61.2,37.3,61.6L37.3,61.6z
	"/>
<path d="M73.6,62.2c0.7,2.4,0.4,4.8-0.7,6.7c0,0.4,0.1,1.2-0.6,1.2c-1.6-2.2-0.4-5.3,0.3-7.6C72.8,61.9,73.3,61.6,73.6,62.2
	L73.6,62.2z"/>
<path d="M124,63.4c0.9,1.6,0.9,3.9,0.1,5.5l-0.4,0.4c-0.6-1.3-1.2-2.7-1.3-4.2c0.3-1,0.6-2.1,0.7-3.1
	C123.8,61.8,123.8,62.8,124,63.4L124,63.4z"/>
<path d="M41.9,64c-0.3,0.7-1.3,0.9-1.9,1.3c-1.5,1-3.4,1.3-5.2,1c1.5-2.1,3.9-3.4,6.7-2.8C41.4,63.8,41.7,63.7,41.9,64L41.9,64z"/>
<path d="M17.7,66.1c2.2,1.5,2.8,3.7,4,5.8c0.1,0.3,0.7,0.3,0.6,0.7c-0.4,0.3-0.9-0.3-1.6-0.3c-2.2-1-3.7-3.6-3.6-6.1
	C17.1,66.1,17.4,66.1,17.7,66.1L17.7,66.1z"/>
<path d="M121.7,68c0,0.6,0,1.2-0.6,1.3c-0.6,0.1-1.2-0.1-1.3-0.7c-0.1-0.4,0.1-0.6,0.3-0.9C120.6,67.2,121.4,67.4,121.7,68L121.7,68
	z"/>
<path d="M146.5,71.1c0-1.2,0.3-2.2,0.4-3.3c0.1-0.3,0.3-0.7,0.3-1.2c1.5-1.9,4.3-1.3,6.5-1.2c0.9,0.4,1.9,0.4,3,0.6
	c0.4-0.3,1-0.3,1.5-0.3c1.9-1,0.6-3.3,0.7-4.9l-0.7-1.8c-0.1-0.3-0.3-0.7-0.4-1.2c-0.3-0.4-0.6-1.2-0.9-1.6c-1-2.7-3-4.2-4.6-6.2
	c-3-3.9-7.7-6.1-12.5-7.7c-4.6-1.6-9.4,0.4-13.5,1.9c-1.3-0.3-1.9-1.3-2.2-2.5c-0.3-2.2,0.3-4.5,1.2-6.2c0.1-1.5,1.2-2.7,1.6-4
	c1-3.3,2.2-6.5,2.4-10.2c0.1-2.2-1.5-3.7-3.1-4.8c-1.2-0.3-2.4-0.3-3.3,0.6c-0.7,1.6-2.4,2.7-3.9,3.4c-0.1,1,1.2,0.3,1.5,0.7
	c1.3,0.3,2.8-0.1,3.9,0.6c0.1,2.4-1.2,4.3-2.5,6.1c-1.9,3-4.2,5.9-5.3,9.2l-0.3-0.3l0.3,14.5c1.9,3.1,4.2,6.7,7.7,7.9
	c1.9,1.5,4.3,3.4,6.8,2.1c1.3-0.4,1.5,1.5,2.1,2.2c0.7,2.2-0.9,3.7-1,5.8l-1.5,3.3c-1.8,3.4-3.4,7.1-6.1,10.1c-0.9,0-1.5,0.9-2.2,1
	c-0.4,0.6-1.5,0.1-1.9,0.4c-1.8,0.7-4.5,0.3-5.6,2.1c0.1,0.1,0.3,0.3,0.4,0.3c3.6,0,7.6,0.3,11.4,0.1c0.4-0.1,0.9-0.6,0.9-1.2
	c-0.6-1,0.1-1.9,0.6-2.7c0.3-1.5,1.2-2.4,1.6-3.7c1.2-2.4,2.7-4.8,4-7.3l1.8-3c0.4-1,1.2-2.2,1.8-3.3c0.4-0.4,0.7-1,1-1.6
	c0-0.6-0.3-0.9-0.6-1.2c0.4-0.4,1-0.3,1.6-0.4c1.5,0.9,3,2.4,3.3,3.9l0.6,1.5l0.3,0.7l-0.1,1.9l0.3,1.8c0.3,2.8-0.3,5.8-0.6,8.6
	c-1,3.4-4.9,3.1-7.7,3.9c-0.7,0.4-2.1,0.3-2.1,1.5c3.4,0.7,7.4,0.3,11.1,0.3c0.6-0.3,0.7-0.7,1-1.3c0.1-0.7,0.9-1.5,0.6-2.2
	c-0.6-0.9,0-2.1-0.3-3.3c0.1-0.3,0.1-0.7,0-1.2c0.4-1.8,0.3-3.9,0.7-5.5V71.1L146.5,71.1z"/>
<path d="M175.5,68.7c-1.9,2.7-3.9,5.6-7.1,6.7c-0.3,0-0.4,0.1-0.6-0.1c1.9-2.1,3.1-5.5,6.2-6.2C174.4,68.7,175,68.6,175.5,68.7
	L175.5,68.7z"/>
<path d="M14.7,71.7c-0.3,0.3,0,0.7-0.6,0.9c-0.4,0.3-1,0-1.2-0.6c-0.3-0.6,0.3-1.2,0.7-1.3C14.1,71,14.7,71.1,14.7,71.7L14.7,71.7z"
	/>
<path d="M31.8,72.6c0.1,0.6-0.4,0.6-0.7,0.6c-2.5,0.9-5,0-6.8-1.8c0-0.3,0-0.4,0.3-0.6C26.9,71.6,29.7,71.1,31.8,72.6L31.8,72.6z"/>
<path d="M18,71.7c0.1,0.3,0.1,0.6,0.1,0.9c-0.3,0.6-0.9,0.6-1.5,0.6c-0.3-0.1-0.6-0.4-0.7-0.7c0-0.6,0.6-0.9,1-1.2
	C17.4,71.4,17.7,71.4,18,71.7L18,71.7z"/>
<path d="M73.2,72c0.1,0.6-0.3,0.9-0.7,1.2c-0.6,0.1-1-0.1-1.2-0.4c-0.1-0.4,0-1,0.4-1.2S73,71.6,73.2,72L73.2,72z"/>
<path d="M177.7,72.3c0.1,0.6-0.3,0.9-0.7,1.2c-0.3,0.1-0.7,0-1.2-0.1c0-0.3-0.4-0.6-0.3-0.9c0.3-0.6,0.7-0.7,1.3-0.7
	C177.3,72,177.4,72,177.7,72.3L177.7,72.3z"/>
<path d="M181.7,72c0.3,0.6,0,0.9-0.3,1.3c-0.3,0.4-0.7,0.6-1,0.3s-0.9-0.6-0.9-1c0-0.4,0.6-0.9,0.9-1C181,71.4,181.1,72,181.7,72
	L181.7,72z"/>
<path d="M12.3,73.8c0,0.4-0.3,0.6-0.4,1c-0.3,0.1-0.6,0.3-0.9,0.3c-0.4-0.1-0.7-0.6-0.9-0.9c0.1-0.6,0.4-1,1-1.2
	C11.6,73,12.2,73.2,12.3,73.8L12.3,73.8z"/>
<path d="M136.3,73.8c0.1,0.3,0,0.6,0,0.7c-0.3,0.4-0.9,0.9-1.5,0.6c-0.3-0.3-0.7-0.7-0.6-1.2C134.8,73.2,135.8,73,136.3,73.8
	L136.3,73.8z"/>
<path d="M21.8,74.7c-0.1,0.4-0.3,0.9-0.9,0.9s-0.7-0.4-1-0.6c0-0.6,0-1,0.4-1.3C21.1,73.3,21.8,73.9,21.8,74.7L21.8,74.7z"/>
<path d="M16.2,74.8c0.1,0.6-0.3,1-0.6,1.3c-0.7,0.3-1.3-0.3-1.6-0.9c0-0.6,0.4-1.2,1-1.3C15.6,73.9,15.9,74.5,16.2,74.8L16.2,74.8z"
	/>
<path d="M140.1,74.7c0.1,0.6,0,1.2-0.6,1.5c-0.7,0.3-1.3-0.3-1.6-0.9c0.3-0.4,0.3-1.2,1-1.2C139.6,74.1,139.8,74.2,140.1,74.7
	L140.1,74.7z"/>
<path d="M18.9,75c0.1,0.4-0.1,0.6-0.3,0.9c-0.3,0-0.4,0.3-0.9,0.3c-0.3-0.3-0.7-0.4-0.7-0.9c0-0.6,0.3-0.9,0.7-1.2
	C18.4,74.1,18.7,74.4,18.9,75L18.9,75z"/>
<path d="M174.6,75.4c-0.1,0.4-0.6,0.7-1,0.9s-0.7-0.3-1.2-0.4c-0.3-0.3-0.1-0.7,0-1C173,73.8,174.6,74.2,174.6,75.4L174.6,75.4z"/>
<path d="M179,75.6c-0.1,0.6-0.9,0.9-1.5,1c-0.6-0.3-1.2-0.6-0.7-1.3c0.3-0.3,0.3-0.4,0.7-0.6C178.3,74.5,178.7,75,179,75.6L179,75.6
	z"/>
<path d="M151,76c0.3,0.7-0.4,1-0.9,1.3c-0.4,0-0.7-0.3-1.2-0.4c-0.1-0.6,0.1-1.2,0.9-1.5C150.4,75.4,150.7,75.6,151,76L151,76z"/>
<path d="M134.8,76.7c0.3,0.1,0.1,0.6,0.1,0.7c-0.3,0.3-0.9,0.9-1.3,0.4c-0.4-0.3-0.7-0.6-0.6-1.2C133.3,76.2,134.5,76.2,134.8,76.7
	L134.8,76.7z"/>
<path d="M138.1,77.2c0,0.4,0,0.7-0.4,0.9c-0.4,0.4-0.9,0-1.3-0.1c-0.1-0.3-0.3-0.6,0-0.9c0.1-0.3,0.4-0.4,0.7-0.4
	C137.5,76.7,137.9,76.7,138.1,77.2L138.1,77.2z"/>
<path d="M38.2,77.2c0.3,0.3,0,0.7-0.1,1.2c-0.3,0.3-0.9,0.6-1.5,0.3s-0.6-1-0.4-1.5c0.3-0.1,0.3-0.6,0.9-0.6
	C37.6,76.7,37.9,76.9,38.2,77.2L38.2,77.2z"/>
<path d="M157.4,77.5c0.1,0.6-0.4,0.9-0.9,0.9c-0.7,0.3-1-0.3-1.3-0.7c0-0.3,0.3-0.6,0.4-0.9C156.3,76.5,156.9,77,157.4,77.5
	L157.4,77.5z"/>
<path d="M154.1,77.5c0.3,0.6-0.4,0.9-0.6,1.2c-0.4,0.1-0.9,0.1-1.3-0.3c-0.3-0.1-0.3-0.6-0.3-0.9c0.3-0.3,0.6-0.6,0.9-0.7
	C153.4,76.7,154,77,154.1,77.5L154.1,77.5z"/>
<path d="M180.7,78.2c0.1,0.9-0.9,0.4-1.3,0.6c-2.5,1.5-5.6,0.3-8-0.6c0.1-0.7,1-0.4,1.5-0.7c2.5-1.6,5.2,0.3,7.7,0.4L180.7,78.2
	L180.7,78.2z"/>
<path d="M19.6,77.5l-0.3,0.4c-2.2,1.3-5,2.2-7.6,1.3L11.4,79c2.2-1.6,5-2.1,7.9-1.6L19.6,77.5L19.6,77.5z"/>
<path d="M163.3,77.9c0,0.4-0.3,0.9-0.6,1.2c-0.6,0.1-1.3,0-1.5-0.6c-0.1-0.4,0.3-0.9,0.7-1.2C162.4,77.2,163.2,77.3,163.3,77.9
	L163.3,77.9z"/>
<path d="M30.1,78.1c-0.3,0.4-0.1,0.9-0.7,1.2s-1.3-0.3-1.5-0.7c-0.1-0.6,0.3-0.9,0.6-1.2C29.3,77,29.7,77.6,30.1,78.1L30.1,78.1z"/>
<path d="M25.8,78.4c0.1,0.4-0.1,0.6-0.3,0.9c-0.3,0.3-0.9,0.3-1.2,0.1c-0.4-0.3-0.9-0.7-0.6-1.5c0.3-0.3,0.6-0.4,0.9-0.6
	C25.2,77.6,25.8,77.8,25.8,78.4L25.8,78.4z"/>
<path d="M167.5,79.7c0,0.6-0.4,0.9-0.9,1c-0.4,0-0.9-0.3-1.2-0.6c-0.1-0.3-0.1-0.9,0.3-1.2c0.1-0.1,0.6-0.1,0.7-0.3
	C166.9,78.8,167.3,79.3,167.5,79.7L167.5,79.7z"/>
<path d="M21.5,79.1c0.1,0.4-0.3,0.6-0.3,1c-0.1,1-0.9,1.6-1.3,2.5c-1.2,1.3-2.7,1.3-4.3,1.8L15.3,84c1.8-2.2,3.6-3.9,5.9-5
	L21.5,79.1L21.5,79.1z"/>
<path d="M164.5,80.5c0.1,0.7-0.4,0.9-0.9,1.2c-0.6,0-0.9-0.3-1.2-0.7c-0.1-0.6,0.4-0.9,0.7-1.2C163.7,79.6,164.3,80,164.5,80.5
	L164.5,80.5z"/>
<path d="M28.4,80.5c0,0.1,0,0.3,0.1,0.3c0,0.6-0.6,0.9-0.9,1.2c-0.6,0-0.9-0.1-1.3-0.6c-0.3-0.6,0-1.2,0.6-1.3
	C27.5,79.9,28.1,79.9,28.4,80.5L28.4,80.5z"/>
<path d="M175.3,82.2c0.6,0,0.7-0.7,1.3-0.9s1.2,0.3,1.5,0.6c0.3,0.7-0.3,1-0.7,1.3s-1.3-0.3-1.2,0.4c0.4,0.3,0.7,0.7,0.9,1.2
	c-0.1,0.3-0.6,0.1-0.7,0c-1.8-0.7-3.6-1.9-4.3-3.7c-0.3-0.6-1.3-0.9-0.7-1.5C173,79.7,174.4,81.2,175.3,82.2L175.3,82.2z"/>
<path d="M181,80.3c0.3,0.3,0.1,0.9,0,1.2c-0.3,0.6-1.2,0.3-1.8,0.3c-0.3-0.3-0.6-0.6-0.4-1c0.3-0.3,0.4-0.6,0.9-0.7
	C180.2,79.9,180.5,80,181,80.3L181,80.3z"/>
<path d="M159.6,83.6c0.6,0.6,1,1.6,1.3,2.4c-0.1,0.1-0.4,0.1-0.6,0.1c-1.9-1.2-4.6-2.4-5.3-4.8c-0.1-0.3-0.6-0.6-0.6-0.9
	c1.5-0.3,3,0.9,4,1.6C158.9,82.7,159.4,83,159.6,83.6L159.6,83.6z"/>
<path d="M24.9,81.4c0.3,0.6-0.3,0.9-0.6,1.2c-0.6,0.1-1-0.1-1.3-0.4c-0.4-0.6,0.3-1.2,0.9-1.5C24.4,80.6,24.7,81.1,24.9,81.4
	L24.9,81.4z"/>
<path d="M167,82.7c0,0.3-0.4,0.6-0.6,0.9c-0.4,0-0.9,0.3-1.3-0.1c-0.1-0.3-0.4-0.7,0-1C165.7,81.5,166.6,82.1,167,82.7L167,82.7z"/>
<path d="M181.7,83.6c0.1,0.7-0.3,1.2-0.9,1.5c-0.6,0.1-1-0.3-1.5-0.6c-0.3-0.3,0-0.7,0-1.2c0.4-0.3,0.9-0.6,1.5-0.4
	C181.1,83.1,181.4,83.3,181.7,83.6L181.7,83.6z"/>
<path d="M140.9,91.7c0,0.7-1.3,0.6-1.8,1c-1.8,0.9-4,0.9-6.2,0.9v-0.3C135,91.4,138.1,90.9,140.9,91.7L140.9,91.7z"/>
<path d="M54.9,94.3c0,0.6-0.3,0.9-0.9,1c-0.4,0-0.9-0.3-1-0.6c-0.3-0.7,0.3-1,0.7-1.3C54.3,93.4,54.9,93.8,54.9,94.3L54.9,94.3z"/>
<path d="M139.8,94.9c-0.1,0.6-0.3,1.2-0.9,1.3s-0.9-0.1-1.3-0.4c-0.3-0.3-0.1-0.6-0.1-0.9C137.9,93.8,139.6,93.8,139.8,94.9
	L139.8,94.9z"/>
<path d="M151.6,95.2c-1.5,0.9-3.1,2.1-5,2.1h-3.1l-0.3-0.3c1.9-2.4,5.5-2.4,8.6-2.1v0.3H151.6z"/>
<path d="M38.9,96.5c0,0.6-0.3,0.9-0.7,1.2c-0.6,0.1-1-0.1-1.2-0.6c-0.3-0.6,0-1,0.4-1.3C38,95.3,38.6,96,38.9,96.5L38.9,96.5z"/>
<path d="M41.7,97.1c0.1,0.3-0.1,0.4-0.3,0.7c-0.3,0.1-0.9,0.3-1.2,0c-0.4-0.3-0.6-0.6-0.3-1c0.1-0.3,0.6-0.3,0.7-0.6
	C41.3,96.5,41.6,96.8,41.7,97.1L41.7,97.1z"/>
<path d="M19.3,103.2c-0.6,0.7-1.5-0.1-2.2-0.6c-2.1-1.2-1.9-3.6-4-4.9c0.3-0.7,0.7,0,1.2,0c0.3,0.3,0.9,0.4,1.2,0.6
	C17.4,99.5,17.8,101.4,19.3,103.2L19.3,103.2z"/>
<path d="M190.9,80.2c-0.9-1.8-2.5-2.4-4.5-2.4c-1.5,0.1-2.7,1.2-3.3,2.4c-0.3,1.3,0.1,2.5,1.2,3.3c0.4,0.1,0.9,0.1,1.2-0.3
	c0.3-0.7-0.6-0.7-0.6-1.3c-0.3-0.9,0-1.5,0.6-2.1s1.6-0.3,2.2-0.3c0.7,0.4,1.5,0.9,1.8,1.8c0.3,1,0.3,2.1,0,3.1
	c-0.6,1.5-2.1,2.7-3.7,3c-4.9,0.7-58.5,0.4-58.5,0.4c-6.2,0.6-13.5-1.2-18.9,2.1c-2.5,1.2-3.7,3.9-4.3,6.4c-1.6,1.5-3.3,3.1-4.6,4.8
	l-0.1-0.1c0.3-1.5,0.9-2.7,1.2-4.2c0.9-1.2,0.9-2.8,1.5-4.2c2.2-3.6,4.3-7.3,7.9-9.8c1.5-1.9,4-1.6,6.2-1.6c2.4,1.2,5.2,1.5,8.2,1.2
	c0.1-0.1,0.1-0.3,0.1-0.4c-0.9-0.7-2.2-1-3.1-1.8c-2.4-1.2-4.6,0.3-7.1,0.1c-0.1-0.1-0.3-0.1-0.1-0.3c2.2-1.6,4.8-2.8,7.3-3.9
	c2.1-1.2,4.3-1.8,6.4-2.5c0.9,0,1.8-0.7,2.5-0.3l3.1-0.9c0.1,0,0.3,0.3,0.4,0.1c2.7-0.9,5.9,0,9.1-0.1l0.4,0.3l2.8,0.7
	c1,0.1,1.5,1.3,2.7,1.5c0.6-0.9-0.6-1.2-0.9-1.8c1.3-0.3,2.8,0,4,0.6l-0.6,0.6c-0.3,0.6,0.1,1.2,0.7,1.3c0.4,0.1,0.7-0.1,1-0.3
	c0.7-0.6,0-1,0.1-1.5c4.3,0.7,8.6,1.8,12.5,3.6c1.2,0.3,2.2,1.2,3.4,1.2c-1.2-1.2-3-1.8-4.5-2.4c-1-0.6-2.4-0.6-3.1-1.5
	c0.1-0.3,0.6-0.1,0.7-0.4c1.9-0.3,3.7-1.8,5.2-3.3c0.1-0.3,0.7-0.3,0.7-0.7c-0.6-0.6-1.5,0.1-2.1,0.1c-2.5,0.4-3.6,3.4-5.9,3.9
	c-3-0.7-6.1-1.5-9.1-2.2c-1.5-0.3-3.1-0.3-4.5-0.9l-3.3-0.3h-5.9c0-0.1-0.3-0.1-0.1-0.3c2.1-0.6,4-1.8,6.1-2.4l15.7-7.3
	c1.6-1.5,3.1-3.1,4.5-4.9c0-0.4-0.3-0.9-0.6-1.2c-0.4-0.1-0.9-0.1-1.2,0.3c-0.7,0.6,0,1.2,0,1.8c-0.7,0.9-1.8,1.8-2.7,2.4
	c-0.3,0-16.2,7.3-16.2,7.3c-2.4,1-4.8,2.1-7.1,2.7l-4,0.6c-0.3,0.7-0.9,1.2-1.5,1.3c-0.9,0.1-1.6,0.7-2.7,0.7
	c-7.7,3-15.6,6.1-21.7,12.2c0.3-0.7,0.6-1.6,0.6-2.5c-0.1-0.9,0-1.9-0.6-2.7c-0.1-0.3-0.6-1.3-0.4-1.6l-0.9,0.6
	c-0.6,1.3-1,3.7-0.4,5c0.1,1,1,2.4,0.3,3.3c-2.8,3.4-4.5,7.6-6.2,11.6c-0.7-0.1-1-0.7-1.3-1.5c1.9-2.5,3.6-5.3,4.2-8.6
	c0.4-0.3,0.1-1,0.6-1.5c-0.1-0.9,0.6-1.9,0-2.7c0.4-1.3-1.8-2.5-0.4-3.3l-1,0.6c-2.5,3.3,1.3,8.3-1.6,11.6v0.3
	c-0.9,1-1.2,2.1-2.4,2.8c-1.5-0.6-1.9-2.2-2.8-3.4c-1.3-1.2-1.3-3.9-0.6-5.5c0.6-1.8-0.3-3.3-0.6-4.8l-0.6-0.3
	c-1.5,1.8-1.9,4.8-0.9,7c0.6,1,0.6,2.5,1.5,3.4c0.6,1.8,1.6,2.8,2.5,4.5c0.3,0.6-0.3,0.7-0.6,1c-0.6-0.4-0.6-1.3-1.2-1.8
	c-1.9-4.2-4.5-7.4-7.6-10.8c-0.1-0.6-0.6-1-0.3-1.6c1.2-1,1.3-3.1,0.7-4.5c-0.1-0.3-0.4-0.6-0.4-0.9L84.6,77
	c0.1,2.1-1.2,3.9-0.6,6.1v0.1c-6.1-4.6-12.8-8.6-19.6-11.9l-0.6,1.5c1.8,0.4,6.2,3.3,6.2,3.3c2.1,0.7,4,2.1,5.9,3.1
	c8,4.5,13.4,11.7,16.9,20c0,0.6,0.6,1.3,0.3,2.1c-1.2-1.9-3-3-4.5-4.5c-0.4-2.8-2.1-5.5-4.5-6.5c-0.9-1.3-2.8-1.5-4.3-1.8l-21.4-0.1
	C41.3,88.2,25.2,89.1,8,88.8c-2.4-0.3-5.3-1-6.1-3.6c-0.4-0.9-0.4-2.4,0-3.3c0.6-1.2,1.8-1.5,3-1.6c0.9,0.1,1.6,1,1.9,1.6
	c0,0.7-0.6,1.5-0.9,2.1c0,0.3,0.3,0.7,0.7,0.6c0.7-0.3,1.3-1.2,1.5-1.9c0-0.4,0.3-1-0.1-1.3c-0.3-1.2-1.6-2.1-2.8-2.4
	c-1.5-0.1-3,0.3-4,1.3c-1.5,1.2-1.3,3.3-0.9,5C1.2,88,4,89.8,6.7,90.1L64,90.4c5.6,0.3,11.9-0.6,17.5,0.4c2.1,0.6,4.3,2.2,4.8,4.5
	c0,0.1-0.3,0-0.4,0c-4.6-3-10.8-4.2-16.8-3.4c-2.4-0.1-4.5,0.7-6.5,1.3c-1.2,0.3-2.2-0.3-2.8-0.9c-2.1-1.9-5.8-1.8-8.6-1
	c0,0.1,0,0.3,0,0.4c2.8-0.3,4.6,2.2,7.1,2.5c0.6,0.1,1-0.6,1.6,0c-2.7,1.3-5.3,2.8-8.2,3.7c-0.9-0.1-1.3-1-2.1-1.5
	c-1.2-1.2-3.1-0.7-4.8-0.9c-0.6,0.1-1-0.3-1.3,0c0.4,0.9,1.5,1.5,2.5,1.9c1.5,0.6,3.1,0,4.6,0.9c-0.3,0.4-0.9,0.6-1.2,0.9
	c-2.8,1-5,3.6-8.2,3.4c-3.3,0.3-6.5-0.6-8.8-2.8c-0.9-2.4-3.4-3.6-5.9-3.4c-0.1,0.1-0.4,0.1-0.3,0.4c1.3,0.7,2.2,2.4,3.6,3.3
	c0.9,1,2.4,0,3.1,1.2c1.2,0.7,2.5,1.5,3.9,1.6c0.9,0.4,1.9,0.6,3.1,0.9l-0.4,0.3c-5.3,1.8-11.6,1.9-17.5,1.8c-1.8,0-3.4-0.6-5.2-0.6
	c0.3,0.3,0.9,0.6,1.5,0.9c-0.4,0.3-1,0.4-1.6,0.4c-0.7,0.1-1.5,0.3-2.2,0.6c-0.9,0-1.8,0.3-2.5,0.6c-1,1-2.2,2.2-3.4,2.7
	c0,0.3,0,0.6,0.3,0.6c1.2-0.4,2.5-0.1,3.7-0.6c1.9-0.1,3.1-2.4,4.6-3.3c1.6-1.3,4-1,5.9-0.7c1.2,0.3-0.1,0.7,0.3,1.5
	c0.4,0.4,0.9,0.9,1.5,0.7c0.1-0.1,0.3-0.3,0.4-0.3c0.3-0.4,0.3-1,0-1.5c0.9-0.6,1.9,0,2.8-0.3c2.2,0,4.5-0.6,6.7-0.6
	c0.3,0,0.7-0.4,1.2,0c-0.1,0.4-0.7,0.6-0.6,1.2s0.7,0.7,1.2,0.9c0.6-0.3,1.2-0.6,0.9-1.5c-0.1-0.4-0.6-0.4-0.9-0.6
	c1.2-0.6,2.7-0.7,3.9-1.3c0.9-0.1,1.8-0.4,2.5-0.9c0.7,0,1.5-0.7,2.1-0.4c-0.3,1-0.7,1.9-1.2,2.8c-0.9,3.1-1.6,7.3,0,10.4
	c0.1,0,0.3,0,0.3-0.1c-1.2-3.1-0.6-6.8,0.6-9.8c0.9-5,5.9-6.5,9.6-8.5l0.1,0.3c-1,2.7-2.5,5-2.2,8.3c0.1,0.6-0.3,1,0,1.5
	c1-0.6,1.6-1.8,2.2-2.7c0.4-2.7-1.2-5.9,1.6-8c4.9-1.9,9.4-4.5,15-4.5c0.1,0.1,0.6-0.1,0.6,0.3c-1.2,1.3-2.8,2.5-3.4,4.2
	c-1.9,2.7-1.8,7.1-1,10.2c0.6,1.8-1,2.8-1.8,4.3c-0.3,0.4-0.4,1.3-0.7,1.9l1.2,0.1c1-1,1.9-2.4,1.9-3.9c0.1,0.6,0.6,1,1.2,1.2
	c0.4-0.6-0.3-1.2-0.4-1.8c0.9-0.6,1.3,0.6,2.1,0.9c1.2,0.3,2.2,0.9,3.6,0.9l0.4-0.4c-1.3-2.1-3.9-2.4-6.1-2.5
	c-1.2-1.9-1.2-4.5-1-6.8c0.3-1.2,0.4-2.5,1.2-3.7c0.3-0.9,1.2-1.6,1.6-2.2c1-1,2.4-1.8,3.7-2.1h0.1c0,0.1,0,0.1,0,0.1
	c-1.6,1.2-1.8,3-2.7,4.5c-1,1.5-1.5,3.6-0.6,5.2c0.3,0.7,0.1,1.9,1,2.5c0.7-1,0.9-2.4,1.2-3.6c-0.1-1.9-1.3-3.9-0.3-5.6
	c0.6-1.5,1.8-2.1,3.1-2.7c3.3-0.3,6.1,1.3,8.9,2.7c0.6,0.4,1.6,0.7,1.8,1.6c0,1.6-0.9,3.3-2.2,4c-1.6,0.9-3.9,1-5.3,0
	c-0.9-0.9-1.2-2.4-0.9-3.6c0.6-0.7,1.5-1.3,2.5-0.9c0.6,0.3,1.2,0.9,1.9,0.6c0.3-0.1,0.4-0.6,0.3-0.9c-0.6-0.3-0.9-1.2-1.8-1.3
	c-1.2-0.1-2.5-0.1-3.3,0.6c-1.2,1-1.8,2.7-1.3,4.2c0.4,1.9,1.8,3.3,3.7,3.9c2.7,0.6,5.5-0.1,7.3-2.5c0.7-0.7,0.9-1.6,1.3-2.5
	c2.8,1.8,4.9,4.8,6.1,7.9c0,1,0.3,2.1,0,3l2.1,0.1c-0.1-0.4,0-1,0.1-1.5c0.7-3.9,3.1-7.1,6.1-9.8c1-0.6,0.7,0.7,1,1.2
	c0.9,2.2,3,3.9,5.2,4.5c2.5,0.4,4.9-0.1,6.4-2.1c0.7-1.5,1.8-3.6,0.4-5c-0.9-1-1.9-1.5-3.3-1.5c-1.5,0-2.5,1-3.3,2.2
	c0,0.4,0,1,0.3,1.2c0.3,0,0.7,0,0.9-0.3c0.1-0.9,0.9-1.3,1.6-1.8c0.6-0.3,1.3,0,1.9,0.3c0.6,0.6,0.7,1.5,0.9,2.4
	c-0.1,1.2-0.9,2.4-1.9,2.8c-1.8,0.9-4.2,0.4-5.6-0.6c-0.7-0.7-1.2-1.6-1.6-2.7c-0.1-0.9-0.4-1.8,0-2.7c2.5-1.5,5.3-2.7,8.5-3
	c1.2,0.3,2.2,1,3.1,1.9c2.7,2.8-0.6,6.8,1.3,9.8c0.7-0.1,0.7-1,1-1.6c0.9-2.1-0.3-4.5-0.7-6.5c-0.7-1.3-1.2-2.4-2.2-3.6
	c0.3-0.1,0.4-0.1,0.7-0.1c1.2,0.9,2.5,1.8,3.6,3.1c1.8,2.8,2.5,6.1,2.2,9.8c-0.4,1.8-2.4,2.7-3.9,3.3c-0.6,0.4-1.3,1.2-1.6,1.9
	c0.7,0.4,1.8,0,2.4-0.3c1.2-0.4,1.8-1.8,2.5-2.5c0.1,0,0,0.3,0.1,0.3c0,0.6-0.3,1.5,0.3,1.8c0.3-0.9,0.3-2.1,0.6-3
	c0.7,0.9,0.9,1.9,1.2,3c0.6,1,1.5,2.5,2.8,2.7c0.3-0.6,0-1-0.1-1.5c-0.1-1.5-1.5-2.2-2.2-3.3c-2.1-2.8-1.2-7.3-2.7-10.5
	c-0.6-1.8-1.8-3-3.1-4.5l0.3-0.3c2.8,0,5.3,0.9,8,1.5c3.3,1.6,8,1.2,9.5,5.5c0.6,2.4,1.8,4.6,3.4,6.4l0.1-0.1c0.3-0.6,0.3-1.6,0-2.2
	c-0.3-3-3-3.7-4.3-6.2l0.1-0.3c1.5,0.4,2.8,0.7,4.3,1.3c4.8,1.3,8,5.9,8.6,10.7c0,3.9-0.7,7-2.2,10.1c-0.1,0.4-1,1-0.4,1.5
	c0.6-0.4,0.7-1.2,1.2-1.8c1.9-3.3,3-7.7,1.9-11.9c0-0.7-0.9-1.3-0.6-2.1c0.3,0.3,0.6,0.4,1,0.6c0.3-0.3,0.9-0.3,1.2-0.6
	c0-0.3,0.3-0.7,0-1c-0.3-0.6-1.2-0.6-1.8-0.4c-0.3,0.3-0.6,0.9-0.7,1.3c-0.6-1-1.2-2.4-2.1-3.1l0.1-0.1c2.7,0.9,5,2.2,7.7,3
	c0.6,0.3,1.2,0.6,2.1,0.6c2.2,0.9,4.9,1.2,7.3,1.8c1.8-0.1,3.3,0.6,5,0.3V109l0,0c-0.6-0.9-2.1,0-2.8-0.6c-4-0.4-8-1.5-11.6-3
	c0-0.1,0.3-0.1,0.4-0.1c0.6-0.3,1-0.9,0.9-1.5c-0.3-0.4-0.7-0.6-1.3-0.6c-0.3,0.1-0.9,0.6-0.9,1s0.4,1,0.9,1.2c-0.1,0.1-0.3,0-0.6,0
	c-1.8-0.9-3.6-1.6-5.3-2.4c-0.6-0.1-1.2-0.6-1.8-0.7c-1.3-0.6-2.7-1.3-4-1.8c-3.7-1.9-8-3-11.9-4.5c-0.9-0.3-1.8-0.4-2.5-0.7
	c-1.5-0.4-3-0.7-4.5-1.2c-5-1.2-11.7-1.3-16,1.3c-0.7-0.3-1.2,0.9-1.5,0.1c1.2-3.3,4.9-4.3,8-4.5c23.6-0.3,45.7-0.4,69-0.7
	c2.7,0,5.3-0.9,6.8-3.4C191.5,84.2,191.7,81.8,190.9,80.2L190.9,80.2z M97.2,102c-0.3,0.7-0.7,1.3-0.6,2.1l-0.3,0.1
	c0.1-0.9-0.7-1.5-0.4-2.4c-0.4-0.7-0.4-1.6-0.9-2.4c-0.6-0.9,0.4-1.3,0.9-2.1c0.9,0.3,1.2,1.2,1.8,1.8C98,100.4,97.2,101.1,97.2,102
	L97.2,102z"/>
<path d="M161.1,98.3c0,0.1,0.3,0.3,0.3,0.6c-2.1,1.8-4.9,2.4-7.9,2.5c-0.3,0-0.4,0.3-0.7,0.1c-0.1-0.1-0.3-0.3-0.1-0.4
	C154.7,98.7,158,97.5,161.1,98.3L161.1,98.3z"/>
<path d="M151.7,99.2c0.3,0.9-0.3,1.3-0.9,1.6c-0.6,0-1-0.4-1.3-0.9c-0.1-0.4,0.3-0.7,0.4-1C150.4,98.4,151.4,98.4,151.7,99.2
	L151.7,99.2z"/>
<path d="M39.8,99.3c0.1,0.4,0,0.9-0.3,1.2c-0.3,0.4-0.9,0.4-1.2,0.4c-0.4,0-0.6-0.6-0.7-0.9c0-0.6,0.3-0.9,0.7-1.2
	C38.9,98.9,39.3,98.9,39.8,99.3L39.8,99.3z"/>
<path d="M29.3,103.2v0.4c-1.5,0.3-2.8,0-3.9-0.9c-0.9-1.2-1.8-2.4-3.1-3c0-0.1-0.3-0.4,0-0.6C25.2,99.2,27,101.5,29.3,103.2
	L29.3,103.2z"/>
<path d="M170.1,99.3c-1.3,2.1-2.5,4.5-4.9,5.3c-0.4,0-0.7,0.6-1.2,0.1c0.9-2.2,3-4.8,5.2-5.6C169.5,99.2,169.8,99.2,170.1,99.3
	L170.1,99.3z"/>
<path d="M43.2,100.1c0,0.6-0.4,0.7-0.9,1.2c-0.4,0-0.7-0.3-1-0.6c-0.3-0.6,0.3-0.9,0.6-1.2C42.3,99.2,42.9,99.6,43.2,100.1
	L43.2,100.1z"/>
<path d="M177.6,100.4c-0.6,0.7-0.3,1.9-0.9,2.7c-1.2,1.3-2.2,3-4,3.3c-0.3-0.6,0.4-1.2,0.7-1.8c0.9-1.8,1.9-3.9,3.9-4.6L177.6,100.4
	L177.6,100.4z"/>
<path d="M11,100.9c0.1,0.4,0.3,0.9,0,1.3c-0.3,0.3-0.9,0.4-1.3,0.3c-0.6-0.3-0.7-0.9-0.4-1.5S10.5,100.2,11,100.9L11,100.9z"/>
<path d="M7.6,101.5c0,0.3,0.3,0.6,0.1,0.9s-0.4,0.6-0.9,0.7c-0.6,0.1-1-0.3-1.3-0.7c0-0.6,0.1-1,0.6-1.2
	C6.7,100.9,7.3,101.2,7.6,101.5L7.6,101.5z"/>
<path d="M14.6,102c0.1,0.4,0.3,1.3-0.4,1.5c-0.9,0.3-1.3-0.3-1.8-0.7c0-0.6,0.3-0.9,0.7-1.2C13.5,101.4,14.1,101.5,14.6,102
	L14.6,102z"/>
<path d="M24.2,102.7c0,0.4,0,1-0.4,1.2c-0.3,0.3-0.9,0.1-1.2,0.1c-0.1-0.3-0.7-0.6-0.4-1c0.3-0.3,0.4-0.4,0.9-0.6
	C23.5,102.4,23.9,102.3,24.2,102.7L24.2,102.7z"/>
<path d="M183.2,103.2c-0.1,0.4-0.4,0.9-0.9,0.9c-0.6,0-1-0.1-1.3-0.6c-0.3-0.6,0.3-1,0.7-1.2C182.3,102.3,183,102.4,183.2,103.2
	L183.2,103.2z"/>
<path d="M172.4,103.5c0,0.4-0.4,0.9-0.7,1c-0.9,0.3-1.5-0.3-1.8-0.9c0.1-0.6,0.6-0.9,1-1C171.6,102.4,172.1,102.9,172.4,103.5
	L172.4,103.5z"/>
<path d="M179.6,103.3c0,0.4-0.3,0.9-0.6,1c-0.4,0.1-1,0.1-1.5-0.3c-0.6-0.4-0.1-0.9,0.3-1.2C178.6,102.6,179.5,102.6,179.6,103.3
	L179.6,103.3z"/>
<path d="M9.4,104.4c0.1,0.6-0.1,1.2-0.7,1.5c-0.6,0-1.2-0.3-1.3-0.9c0-0.6,0.1-1,0.6-1.2C8.6,103.6,9.1,103.9,9.4,104.4L9.4,104.4z"
	/>
<path d="M169.4,105c0.1,0.6-0.1,1.2-0.9,1.5c-0.4,0.1-0.7-0.1-1.2-0.4c-0.3-0.3-0.6-0.9,0-1.2C167.9,103.9,169.1,104.4,169.4,105
	L169.4,105z"/>
<path d="M41.1,105.7c0.3,0.6-0.4,0.7-0.6,1.2c-0.3,0.1-0.7,0.1-0.9,0c-0.3-0.3-0.6-0.7-0.4-1.2c0.3-0.3,0.4-0.4,0.7-0.6
	C40.5,104.7,40.7,105.3,41.1,105.7L41.1,105.7z"/>
<path d="M182.2,106c0.1,0.4-0.3,0.6-0.3,0.9c-0.3,0.3-0.9,0.3-1.3,0.3c-0.6-0.3-0.6-0.7-0.6-1.3c0.3-0.3,0.4-0.6,0.9-0.6
	S182,105.4,182.2,106L182.2,106z"/>
<path d="M178.4,106.3c0.3,0.7-0.4,1-0.9,1.2c-0.3,0-0.6-0.1-0.6,0.3c1.5,0.7,2.5,2.1,3.7,3.1v0.4c-2.1,0-4.3-0.6-5.8-2.2
	c-0.4-0.3-1.2-0.3-1.6-0.7c0.7-0.7,2.2-0.4,3.3-0.6c0.7-0.9-0.9-1.5,0.1-2.1c0.3,0,0.6-0.4,1-0.3C178,105.5,178.3,105.8,178.4,106.3
	L178.4,106.3z"/>
<path d="M154.4,106.3c0.1,0.3-0.3,0.6-0.3,0.9c-0.3,0.3-0.9,0.4-1.3,0.3c-0.3-0.4-0.7-0.7-0.6-1.3
	C152.6,105.3,154.2,105.4,154.4,106.3L154.4,106.3z"/>
<path d="M22.7,108.4c-0.1,0.6-0.4,0.9-1,0.9c-0.4,0-0.9-0.3-1-0.7c0-0.4,0.3-0.6,0.3-0.9C21.5,107.2,22.7,107.5,22.7,108.4
	L22.7,108.4z"/>
<path d="M27.5,107.6c0,0.9-0.9,1.3-1.2,2.1c-0.9,1.9-2.5,3.7-4.8,3.9c-0.3-0.6,0.7-1.2,1-1.8c0.9-2.1,2.8-3.1,4.6-4.3h0.3V107.6z"/>
<path d="M152.9,108.4c0,0.6-0.6,1.2-1,1.3c-0.6,0.1-0.9-0.3-1.2-0.4c-0.4-0.4-0.1-0.9,0-1.5C151.4,107.2,152.5,107.8,152.9,108.4
	L152.9,108.4z"/>
<path d="M156.6,108.8c0,0.6-0.4,1.2-1,1.3c-0.1-0.1-0.4,0-0.6-0.1c-0.4-0.3-0.7-0.6-0.7-1c0.3-0.3,0.4-0.7,0.9-0.9
	C155.6,108.1,156.5,108.1,156.6,108.8L156.6,108.8z"/>
<path d="M36.7,108.8c0,0.6-0.4,1-0.9,1.2c-0.6,0-0.9-0.3-1.2-0.7c-0.1-0.6,0.4-0.9,0.7-1.2C36.1,107.9,36.2,108.4,36.7,108.8
	L36.7,108.8z"/>
<path d="M40.7,109c-0.1,0.6-0.6,0.9-1.2,1c-0.4-0.1-0.9-0.3-1-0.7c0-0.6,0.4-0.9,0.9-1.2C39.9,108.1,40.5,108.4,40.7,109L40.7,109z"
	/>
<path d="M169.2,113.1c0.3,0.3,0.9,0.6,0.7,0.9c-0.9,0.4-1.6-0.6-2.5-0.9c-1.5-1.5-2.5-3-3.1-4.8c0.6-0.6,1.2,0.1,1.6,0.3
	C167.3,110,168.5,111.5,169.2,113.1L169.2,113.1z"/>
<path d="M171.5,109c0.1,0.4,0.1,0.9-0.1,1.3c-0.3,0.6-1.2,0.4-1.6,0.3c-0.3-0.3-0.9-0.9-0.4-1.3c0.1-0.4,0.7-0.6,1.2-0.7
	C170.7,108.5,171,108.8,171.5,109L171.5,109z"/>
<path d="M46,110.6c0,0.4,0.1,1.2-0.4,1.5c-0.6,0.1-1.2,0-1.5-0.7c-0.3-0.7,0.3-0.9,0.7-1.2C45.4,110,45.7,110.3,46,110.6L46,110.6z"
	/>
<path d="M156.5,114.5c0.9,1.2,1.5,2.7,1.5,4.2c-0.1,0.4,0.3,0.9,0,1.2h-0.3c-2.7-1.9-3.3-4.6-4.3-7.3c-0.3-0.1-0.3-0.3-0.3-0.6
	c0.6-0.6,1,0.6,1.6,0.7L156.5,114.5L156.5,114.5z"/>
<path d="M53.7,112.4C53.7,112.4,53.7,112.5,53.7,112.4c-2.2,1.8-5.6,2.8-8.3,1.2c0-0.1,0-0.4,0.3-0.6c1.8-0.6,3.4-1.3,5.2-1.2
	L53.7,112.4L53.7,112.4z"/>
<path d="M40.4,112.7c-1.9,1.2-3.9,3.7-6.2,4.3c-0.4,0.1-0.7,0.9-1.3,0.4c1-3.3,4.6-4.9,7.7-5.2v0.4H40.4z"/>
<path d="M152.9,115.3c0.1,0.4,0,1.2-0.4,1.2c-0.3,0.3-0.9,0.3-1.2,0c-0.6-0.3-0.6-0.7-0.6-1.2c0.1-0.4,0.6-0.4,0.9-0.6
	C152.3,114.9,152.6,114.9,152.9,115.3L152.9,115.3z"/>
<path d="M148,115.6c-0.3,0.9-1.3,1.3-2.1,1.5c-1.9,0.7-3.9-0.3-5.6-0.7c0-0.4,0.6-0.3,0.9-0.6c1.9-0.4,4-0.9,5.9-0.3
	C147.4,115.5,147.9,115.3,148,115.6L148,115.6z"/>
<path d="M40.4,117.4c-0.1,0.3-0.3,0.7-0.7,0.9s-0.9,0-1.2-0.3c-0.1-0.3-0.6-0.6-0.3-1c0.1-0.4,0.6-0.6,0.9-0.6
	C39.8,116.4,40.2,116.8,40.4,117.4L40.4,117.4z"/>
<path d="M43.8,117.9c-0.1,0.3-0.3,0.9-0.9,1.2c-0.4,0.1-0.9-0.1-1.2-0.4c-0.1-0.3-0.3-0.7-0.1-1.2c0.1-0.3,0.6-0.3,0.9-0.6
	C43.1,116.8,43.5,117.4,43.8,117.9L43.8,117.9z"/>
<path d="M151.9,118.5c0,0.4-0.1,0.7-0.4,1.2s-0.9,0.4-1.3,0.3c-0.4,0-0.6-0.6-0.7-0.9c-0.3-0.4,0.3-0.7,0.4-1.2
	C150.5,117.3,151.6,117.6,151.9,118.5L151.9,118.5z"/>
<path d="M154.4,118.3c0,0.3,0.3,0.6,0.1,0.9c-0.3,0.3-0.6,1-1.3,0.7c-0.3,0.1-0.6-0.3-0.7-0.4c-0.3-0.6,0-1.5,0.7-1.6
	C153.8,117.7,154.1,118.2,154.4,118.3L154.4,118.3z"/>
<path d="M41.7,120.1c0.1,0.6-0.1,1.2-0.6,1.6c-0.6,0.1-1.5,0.1-1.8-0.6c0-0.6,0-1.3,0.7-1.8C40.7,119.2,41.4,119.4,41.7,120.1
	L41.7,120.1z"/>
<path d="M45,119.8c-0.1,1.6-0.4,3.7-2.1,4.6c-0.9,0.1-1.9,1-2.8,0.4v-0.1C41.3,122.9,43.5,121.6,45,119.8L45,119.8z"/>
<path d="M142.7,121.3c0.3,0.3-0.1,0.6-0.3,0.9c-0.3,0.4-1,0.3-1.5,0c-0.4-0.1-0.4-0.7-0.3-1.2c0.1-0.3,0.4-0.6,0.7-0.6
	C141.8,120.4,142.4,120.8,142.7,121.3L142.7,121.3z"/>
<path d="M50.9,124c0.9,1.3,0.3,3.3,0.9,4.8c-1,0.1-1.5-1-2.1-1.6c-1.3-1.8-1.2-4.2-1.6-6.2c0.1-0.1,0.3-0.1,0.4-0.1
	c0.9,0.6,1.5,1.8,2.2,2.5C50.5,123.7,50.9,123.7,50.9,124L50.9,124z"/>
<path d="M145.5,121.7c0,0.4-0.6,0.6-0.9,0.9c-0.4,0-0.7-0.3-1.2-0.6c-0.1-0.6,0.3-0.7,0.6-1C144.7,120.7,145.3,121,145.5,121.7
	L145.5,121.7z"/>
<path d="M152.6,126.9c0,0.1,0,0.6-0.3,0.4H152c-1.6-1.5-3.4-3.3-3.1-5.6h0.3C150.7,123.1,152.5,124.5,152.6,126.9L152.6,126.9z"/>
<path d="M148.2,125.1c0,0.4-0.3,0.9-0.6,1.2c-0.6,0.1-1.6,0.1-1.8-0.7c0-0.6,0.6-0.9,0.9-1.2C147.4,124.1,147.9,124.5,148.2,125.1
	L148.2,125.1z"/>
<path d="M144.3,126.3c-0.9,2.2-3.1,3.3-4.6,5c-0.3-0.1-0.1-0.6-0.1-0.9c0.6-2.2,2.4-4.5,4.6-5.3C145,125.1,144,125.9,144.3,126.3
	L144.3,126.3z"/>
<path d="M148.6,128.1c0,0.6-0.6,0.7-0.9,1c-0.4,0-0.9-0.1-1.3-0.6c0-0.6,0.4-0.7,0.7-1C147.9,127.4,148.5,127.7,148.6,128.1
	L148.6,128.1z"/>
<path d="M104.8,20.5c0.7,0,1.5,0.6,1.5,1.5c0,0.7-0.6,1.5-1.5,1.5H87.4c-0.7,0-1.5-0.6-1.5-1.5c0-0.7,0.6-1.5,1.5-1.5H104.8
	L104.8,20.5z M92.5,23c1.6,0,0.1-2.1-0.9-2.1H90c-1.6,0-0.1,2.1,0.9,2.1H92.5L92.5,23z M99.6,23c1.6,0,0.1-2.1-0.9-2.1h-1.6
	c-1.6,0-0.1,2.1,0.9,2.1H99.6L99.6,23z M105,20.9h-0.6c-1.6,0-0.3,2.1,0.6,2.1C106.2,23,106.2,20.9,105,20.9L105,20.9z"/>
<path d="M103.3,40.5l3.3,1.3l3.3-1.3l-1.3,4.9l2.7-0.6l-0.9,3l0.9,2.8l-2.4-0.6l1,5.3l-3.3-1.3l-3.3,1.3l1.3-5.3l-2.7,0.7l0.7-3
	L102,45l2.5,0.4L103.3,40.5L103.3,40.5z M108.2,49.3c0.7,0,0.7-1,0.7-1.9c0-2.1-1.6,0-2.4-1.9c-0.6,1.6-2.2,0.1-2.2,1.8
	c0,1.2,0,1.9,1.2,1.9h2.7V49.3z M105,47.5c0,0.7,1,0.3,1.8,0.3s1.8,0.4,1.8-0.3c0-1-1-0.7-1.8-0.7S105,46.5,105,47.5L105,47.5z"/>
<polygon points="95.5,47.7 95.5,47.1 95,46.9 95.5,46.5 95.2,46 95.8,46 96.1,45.4 96.4,46 96.9,46 96.7,46.5 97.1,46.9 96.5,47.1 
	96.5,47.7 96.1,47.4 "/>
<polygon points="92.9,51.1 92.9,50.5 92.3,50.3 92.8,49.9 92.5,49.3 93.1,49.4 93.4,48.8 93.8,49.4 94.4,49.3 94.1,49.9 94.6,50.3 
	94,50.5 94,51.1 93.4,50.6 "/>
<polygon points="97.2,50.6 97.2,50 96.8,49.9 97.2,49.4 96.9,49 97.5,49 97.8,48.4 98.1,49 98.7,49 98.4,49.4 98.9,49.9 98.4,50 
	98.4,50.6 97.8,50.2 "/>
<polygon points="97.8,53.1 97.8,52.7 97.5,52.7 97.8,52.4 97.5,52.1 98,52.1 98.1,51.8 98.3,52.1 98.6,52.1 98.4,52.4 98.7,52.7 
	98.4,52.7 98.4,53.1 98.1,52.8 "/>
<polygon points="93.7,56 93.7,54.9 92.8,54.6 93.5,53.9 93.1,53 94.1,53.1 94.7,52.1 95.2,53.1 96.2,53 95.8,53.9 96.5,54.6 
	95.6,54.9 95.6,56 94.7,55.2 "/>
<polygon points="95.8,0 97.8,5 103.2,3.6 100.5,8.3 105,11.6 99.6,12.5 99.9,18 95.8,14.3 91.8,18 92,12.5 86.7,11.6 91.2,8.3 
	88.5,3.6 93.8,5 "/>
<path d="M76.9,114.3c-0.6,0.3-0.9,0.4-0.7,1l0.7,3.1c0.1,0.6,0.1,1.5-0.1,2.1c-0.4,0.7-1.5,1-2.1,1.3c-0.4,0.1-1.6,0.3-2.5,0
	c-0.6-0.3-1-0.6-1.2-1.6l-0.7-3.3c-0.1-0.9-0.4-0.7-1.2-0.7v-0.3l4-0.9v0.3c-0.7,0.1-1.2,0.3-0.9,1.2l0.7,3.3
	c0.1,0.6,0.4,1.9,2.1,1.5c2.1-0.4,1.8-1.9,1.6-2.7l-0.7-3c-0.1-0.6-0.3-0.9-1.3-0.7v-0.3l2.5-0.6L76.9,114.3L76.9,114.3z"/>
<path d="M82.7,115c-0.3-0.6-1.3-1.6-2.7-1.3c-0.6,0.1-1.2,0.6-1,1.2s0.4,0.7,1.5,0.9l1.9,0.3c0.4,0.1,1.5,0.4,1.6,1.5
	c0.1,0.9-0.3,2.2-2.5,2.7c-1,0.3-1.8,0-2.1,0.1c-0.3,0-0.3,0.3-0.3,0.4l-0.3,0.1l-0.6-2.4l0.3-0.1c0.4,0.9,1.3,1.9,2.8,1.6
	c1.3-0.3,1.2-1.3,1.2-1.5c-0.1-0.6-0.7-0.7-1.6-0.9l-0.9-0.1c-2.2-0.3-2.4-1.2-2.5-1.6c-0.1-0.6,0-2.1,2.2-2.5
	c0.9-0.1,1.6,0,1.9-0.1c0.3,0,0.3-0.1,0.3-0.4l0.3-0.1l0.4,2.1V115L82.7,115z"/>
<path d="M90.4,118.9l-4.3,0.4v-0.3c0.9-0.1,1.2-0.1,1-1l-0.4-5.3c-0.9,0.1-2.1,0.3-2.1,1.9h-0.3l-0.1-2.1l7.1-0.7l0.1,2.1h-0.3
	c-0.4-1.6-1.6-1.5-2.5-1.5l0.4,5.3c0.1,0.9,0.3,0.9,1.2,0.7L90.4,118.9L90.4,118.9z"/>
<path d="M100.5,118.9H98l-2.4-3.3h-0.3v1.9c0,0.7,0.3,0.9,1,0.9v0.3h-4.2v-0.3c0.9,0,1-0.1,1-0.9l0.1-4.5c0-0.9-0.3-0.9-1-0.9v-0.3
	l3.9,0.1c0.9,0,3.4,0.1,3.4,1.8c0,1.2-1.3,1.5-1.9,1.6l2.4,3c0.1,0.1,0.3,0.1,0.4,0.1V118.9L100.5,118.9z M95.3,115.3
	c1.6,0,2.2-0.1,2.2-1.5c0-1-0.4-1.5-1.5-1.5c-0.6,0-0.7,0.1-0.7,0.4V115.3L95.3,115.3z"/>
<path d="M108.4,119.9l-3.9-0.4v-0.3c0.7,0,0.9,0,1-0.3c0-0.3-0.3-1-0.4-1.3l-2.7-0.3c-0.4,0.7-0.6,1-0.7,1.2c0,0.4,0.6,0.4,0.9,0.6
	v0.3l-2.4-0.3v-0.3c0.6,0,0.9-0.3,1.3-1l3.3-5.2h0.3l2.1,5.6c0.4,1.2,0.6,1.5,1.2,1.5V119.9L108.4,119.9z M105,117.1l-0.9-2.5
	l-1.5,2.2L105,117.1L105,117.1z"/>
<path d="M115.4,121.3l-6.8-1.2v-0.3c0.7,0,1,0.1,1.2-0.4l0.9-4.8c0.1-0.6-0.3-0.7-0.9-0.9v-0.3l4.2,0.7v0.3
	c-0.9-0.1-1.2-0.1-1.3,0.7l-0.9,4.8c-0.1,0.4,0.1,0.6,0.9,0.7c1.8,0.3,2.5-0.4,3.4-1.3h0.3L115.4,121.3L115.4,121.3z"/>
<path d="M119.8,122.3l-4.2-0.9v-0.3c0.6,0.1,1,0.1,1.2-0.4l1-4.8c0.1-0.6-0.4-0.7-0.9-0.9v-0.3l4.2,0.9v0.3
	c-0.6-0.1-1.2-0.1-1.2,0.4l-1,4.8c-0.1,0.6,0.3,0.7,1,0.9L119.8,122.3L119.8,122.3z"/>
<path d="M128.3,123.4l-3.9-0.4v-0.3c0.7,0,0.9,0,1-0.3c0-0.3-0.3-1-0.4-1.3l-2.8-0.1c-0.4,0.7-0.6,1-0.6,1.2c0,0.4,0.6,0.4,0.9,0.6
	v0.3l-2.4-0.3v-0.3c0.6,0,0.9-0.3,1.3-1l3.3-5.2h0.3l2.1,5.5c0.4,1.2,0.6,1.5,1.2,1.5V123.4L128.3,123.4z M124.9,120.7l-0.9-2.5
	l-1.3,2.4L124.9,120.7L124.9,120.7z"/>
<path d="M97.5,42.2c0-2.4-1.3-0.1-2.1-2.2c-0.6,1.8-2.2,0.3-2.2,2.1c0,0.7,0.1,1.2,0.6,1.3v0.7c0,0.1,0.1,0.3,0.3,0.3h2.5
	c0.1,0,0.3-0.1,0.3-0.3v-0.7C97.2,43.1,97.5,42.6,97.5,42.2L97.5,42.2z M95.5,42.6c-0.7,0-1.6,0.4-1.6-0.3c0-1.2,0.7-0.9,1.5-0.9
	s1.8-0.3,1.8,0.9C97.1,43.1,96.1,42.6,95.5,42.6L95.5,42.6z"/>
<path d="M118.6,71.8c0.6,0,1-0.4,1-1s-0.4-1-1-1s-1,0.4-1,1C117.4,71.4,117.9,71.8,118.6,71.8L118.6,71.8z"/>
<path d="M113.3,35.9c0,0-0.6,0.9-0.6,1c0,0.3,0.3,0.6,0.6,0.6s0.6-0.3,0.6-0.6L113.3,35.9L113.3,35.9z"/>
<path d="M77.8,35.9c0,0-0.6,0.9-0.6,1c0,0.3,0.3,0.6,0.6,0.6s0.6-0.3,0.6-0.6C78.2,37,77.8,35.9,77.8,35.9L77.8,35.9z"/>
<path d="M86.7,35.9c0,0-0.4,0.9-0.4,1c0,0.3,0.3,0.6,0.6,0.6s0.6-0.3,0.6-0.6C87.1,37,86.7,35.9,86.7,35.9L86.7,35.9z"/>
<path d="M95.6,35.9c0,0-0.6,0.9-0.6,1c0,0.3,0.3,0.6,0.6,0.6s0.6-0.3,0.6-0.6C96.1,37,95.6,35.9,95.6,35.9L95.6,35.9z"/>
<path d="M104.5,35.9c0,0-0.6,0.9-0.6,1c0,0.3,0.3,0.6,0.6,0.6s0.6-0.3,0.6-0.6C105,37,104.5,35.9,104.5,35.9L104.5,35.9z"/>
<path d="M77.8,48.1c0,0,0.4,0.9,0.4,1c0,0.3-0.3,0.6-0.6,0.6s-0.6-0.3-0.6-0.6C77.2,49.1,77.8,48.1,77.8,48.1L77.8,48.1z"/>
<path d="M77.8,60c0,0,0.4,0.9,0.4,1c0,0.3-0.3,0.6-0.6,0.6s-0.6-0.3-0.6-0.6C77.2,61,77.8,60,77.8,60L77.8,60z"/>
<path d="M79.3,69.5c0,0,0.6,0.9,0.6,1c0,0.3-0.3,0.6-0.6,0.6s-0.6-0.3-0.6-0.6C78.7,70.4,79.3,69.5,79.3,69.5L79.3,69.5z"/>
<path d="M86.7,74.4c0,0,0.6,0.9,0.6,1c0,0.3-0.3,0.6-0.6,0.6s-0.6-0.3-0.6-0.6L86.7,74.4L86.7,74.4z"/>
<path d="M113.7,48.1c0,0-0.4,0.9-0.4,1c0,0.3,0.3,0.6,0.6,0.6s0.6-0.3,0.6-0.6C114.3,49.1,113.7,48.1,113.7,48.1L113.7,48.1z"/>
<path d="M113.7,60c0,0-0.4,0.9-0.4,1c0,0.3,0.3,0.6,0.6,0.6s0.6-0.3,0.6-0.6C114.3,61,113.7,60,113.7,60L113.7,60z"/>
<path d="M112.4,69.5c0,0-0.6,0.9-0.6,1c0,0.3,0.3,0.6,0.6,0.6s0.6-0.3,0.6-0.6C112.8,70.4,112.4,69.5,112.4,69.5L112.4,69.5z"/>
<path d="M105,74.4c0,0-0.4,0.9-0.4,1c0,0.3,0.3,0.6,0.6,0.6s0.6-0.3,0.6-0.6C105.4,75.4,105,74.4,105,74.4L105,74.4z"/>
<path d="M95.8,79.7c0,0-0.4,0.9-0.4,1c0,0.3,0.3,0.6,0.6,0.6s0.6-0.3,0.6-0.6C96.4,80.8,95.8,79.7,95.8,79.7L95.8,79.7z"/>
<path d="M110.3,62.1c0.1,0.1,0.4,0.3,0.7,0.1l0.3-0.9c0,0-0.4-0.4-0.6-0.4c-0.9,0.3-1.9,0.3-2.5,1.2c0,0.6,0.4,1.2,0.9,1.5
	c0.3-0.1,0.4,0.3,0.6,0.4c0,0.3-0.1,0.4-0.4,0.4c-0.7-0.7-1.8,0.3-2.4-0.6c0.3-0.9,0.7-1.8,0-2.5c0-0.1,0.3-0.3,0.1-0.4
	c-0.3-0.7-1.2-0.1-1.6-0.1c-0.9-0.1-1.5,0.3-2.1,1c0,0.3,0.1,0.6,0.4,0.9c0.3,0,0.3,0,0.4,0.3l-0.6,0.3c0.1,0.1,0.1,0.4,0.3,0.6
	c-0.4,0.1-0.7-0.4-0.9-0.7c0-0.4,0-1.2-0.6-1.3c-0.1,0-0.4,0.1-0.4,0.1c-0.1,0.1-0.3,0.6-0.3,0.9c0,0.4,0.1,1,0.1,1s1.8,1.3,2.1,2.1
	c-0.4,1-0.4,2.4-1.6,3c-0.3,0.3-0.3,0.6-0.3,0.9l0.3,0.3c0.7-0.4,2.1-0.4,2.1-1.8c0.3-0.4,0.6-1,1-1.5c0.6-0.1,1,0.1,1.3,0.6
	c-0.1,0.9-0.7,1.3-1.5,1.6c-0.1,0.1,0,0.3,0,0.4c0.3,0.4,0.9,0.3,1.2,0.1c0.9-0.6,1.3-1.8,2.2-2.1c0.1,0.6-1.2,0.7-0.3,1.3
	c0.4-0.1,1.2,0,1.5-0.6c-0.4-0.9,1.3-1.3,0.3-2.2c0-0.9,0.9-1.2,0.9-2.1c-0.3-0.9-1.3-0.9-1.6-1.8C109.4,61.8,110,61.8,110.3,62.1
	L110.3,62.1z"/>
<path d="M69.5,72.3c0.6,0,1-0.4,1-1s-0.4-1-1-1s-1,0.4-1,1C68.3,71.8,68.9,72.3,69.5,72.3L69.5,72.3z"/>
<path d="M11.7,106c0.6,0,1-0.4,1-1s-0.4-1-1-1s-1,0.4-1,1C10.7,105.4,11.1,106,11.7,106L11.7,106z"/>
<path d="M48.4,114.2L48.4,114.2L48.4,114.2l-0.1-0.1l0,0C48.3,114.2,48.3,114.2,48.4,114.2L48.4,114.2h-0.3l0,0l0,0V114l0,0l0,0h0.1
	C48.4,113.9,48.4,113.9,48.4,114.2C48.4,114,48.4,114,48.4,114.2L48.4,114.2L48.4,114.2L48.4,114.2L48.4,114.2z M48.3,114
	C48.4,114,48.4,114,48.3,114C48.4,114,48.4,113.9,48.3,114C48.3,113.9,48.3,113.9,48.3,114L48.3,114L48.3,114z"/>
<path d="M48.7,114C48.6,114,48.6,113.9,48.7,114C48.6,113.9,48.6,113.9,48.7,114C48.6,114,48.6,114,48.7,114L48.7,114
	C48.6,114,48.7,114,48.7,114C48.7,114.2,48.6,114.2,48.7,114C48.6,114.2,48.6,114.2,48.7,114C48.6,114.2,48.6,114.2,48.7,114
	l-0.1,0.1l0,0L48.7,114C48.6,114,48.6,114.2,48.7,114C48.6,114.2,48.6,114,48.7,114C48.6,114,48.6,114,48.7,114L48.7,114
	C48.6,114,48.6,114,48.7,114C48.6,114,48.6,113.9,48.7,114C48.6,113.9,48.6,113.9,48.7,114C48.6,113.9,48.6,113.9,48.7,114L48.7,114
	L48.7,114L48.7,114L48.7,114z"/>
<path d="M49,113.9L49,113.9l-0.1,0.1l0,0v-0.1l0,0v0.1l0,0v-0.1l0,0l0,0H49L49,113.9L49,113.9L49,113.9v0.1l0,0V113.9L49,113.9
	L49,113.9L49,113.9L49,113.9L49,113.9C48.8,113.9,48.8,113.9,49,113.9C48.8,114,48.8,114,49,113.9L49,113.9L49,113.9L49,113.9
	C49,114,49,114,49,113.9L49,113.9L49,113.9L49,113.9L49,113.9L49,113.9z"/>
<path d="M49,114.2C49,114.2,49.1,114.2,49,114.2C49.1,114,49.1,114,49,114.2C49.1,114,49.1,114,49,114.2C49,114,49,114,49,114.2
	c0-0.1,0-0.1,0.1-0.1c0,0,0.1,0,0.1,0.1C49.1,114,49.1,114.2,49,114.2L49,114.2L49,114.2z M49.1,114L49.1,114L49.1,114
	C49.1,114,49.1,113.9,49.1,114C49,113.9,49,114,49.1,114C49,114,49,114,49.1,114L49.1,114z"/>
<path d="M49.1,114C49.3,114,49.3,114,49.1,114C49.3,114,49.3,114,49.1,114C49.3,114.2,49.3,114.2,49.1,114
	C49.1,114.2,49.1,114.2,49.1,114C49.1,114.2,49.1,114,49.1,114S49.3,114.2,49.1,114C49.3,114.2,49.3,114.2,49.1,114
	C49.3,114,49.3,114,49.1,114C49.3,114,49.1,114,49.1,114L49.1,114L49.1,114L49.1,114L49.1,114L49.1,114L49.1,114z"/>
<path d="M116.2,34.6L116.2,34.6h-41l0,0l0,0v31.3c0,3.3,1.3,5.9,3.3,6.8l15.7,10.1c0.3,0.4,0.9,0.6,1.5,0.6c0.4,0,0.9-0.1,1.3-0.4
	L113,72.7c1.9-0.9,3.3-3.7,3.3-6.8V34.6L116.2,34.6L116.2,34.6z M115.2,66.4c-0.1,2.4-1,4.3-2.7,5.5l-15.6,9.8l0,0
	c-0.3,0.3-0.7,0.4-1.2,0.4c-0.4,0-0.9-0.1-1.2-0.4l-15.4-9.8c-1.6-1.2-2.4-3.1-2.7-5.5V35.6h38.7V66.4L115.2,66.4z"/>
<path d="M101.3,80.3l0.4-0.3C101.5,80,101.4,80.2,101.3,80.3L101.3,80.3z"/>
<path d="M70.4,123.1l-3.9,0.4v-0.3c0.7-0.1,0.9-0.1,0.9-0.4s-0.4-1-0.7-1.3l-2.7,0.3c-0.3,0.7-0.4,1.2-0.4,1.3c0,0.4,0.6,0.3,1,0.3
	v0.3l-2.4,0.3v-0.3c0.6-0.1,0.7-0.4,1-1.3l2.1-5.8h0.3l3.3,4.9c0.6,1,0.9,1.3,1.5,1.2V123.1L70.4,123.1z M66.4,121.1l-1.5-2.2
	l-0.9,2.5L66.4,121.1L66.4,121.1z"/>
<path d="M138.4,108.4c-0.7-1.8-2.2-3.1-4-3.7c-1.9-0.4-3.9-0.1-5.2,1.3c-2.1,1.8-0.6,4.6-0.6,6.8c0,0.4,0,0.9-0.4,1
	c-8.6-0.7-16.5-3-24.9-3.9c-1.9-0.3-3.9-0.3-5.8-0.6l-2.4-0.3c-7.4,0.3-14.7,0.6-21.7,2.4c-1.5,0.4-3.1,0.6-4.6,1.2
	c-1-0.1-1.9,0.6-3,0.3l-1.9,0.4c-0.1,0-0.4,0-0.6,0c-0.9-2.4,1.9-3.9,1-6.2c-0.7-1.3-2.2-2.7-4-2.4c-1.9-0.3-3.7,0.9-4.8,2.4
	c-1.3,3,0.3,6.1,0.9,8.9c-0.1,0.9,0.9,2.1,0,2.8c-1.9-1.3-4.3-2.1-6.7-1.3c-0.7,0.3-1.9-0.1-2.4,0.7c2.5,1.3,5.8,1.2,8.6,1
	c0.3-0.1,0.6-0.1,0.9,0c0.3,1.5-0.3,3.6,0.6,5c1,1.5,2.8,1.8,4.6,1.9c5.5-0.1,10.2-1.8,15.1-3c0.7,0,1.3-0.4,2.2-0.4
	c2.7-0.6,5.5-1,8.3-1.2c-1.2,1.6-1.9,3.4-2.5,5.3c-0.7,1.6,1.2,1.8,1.8,2.7c-1.8,0.6-3.1,1.8-4.9,2.5c-3.7-0.1-7,1.3-10.5,1.8
	c0,0.7,1.2,0.6,1.3,1.3c-0.1,0.6-0.7,0.6-1.2,0.9c0,0.3,0,0.4,0.3,0.4c0.3-0.4,1.2-0.1,1.5-0.6c1.2,0,2.2-0.3,3.3-0.4
	c1-0.4,2.1-0.4,3-1.2c1.2-0.3,1.9-1.2,3.3-1.5c1.8,0,3.4-0.6,5-0.7v0.3c-1.3,2.2-2.8,4.5-4.2,6.5c-0.3,0.4,0,0.9,0.4,0.9
	c0.9,0.3,1.6,0,2.2-0.3c1.2-2.1,2.4-4.2,3.4-6.4c0.4-2.1,1.9-3.1,3.4-4.5c0.3-0.1,0.6-0.4,0.9-0.1c-1.2,1.3-1.9,2.7-2.8,4.2
	c-0.4,1.6-0.6,3.9,0.9,5.2c0.7,0.6,1.8,0.4,2.7,0.4c2.2-1.2,5.2,0.7,7-1.5c1-0.1,1.2,1,1.8,1.6c1,0.3,2.1,1.3,3.1,0.6
	c0-0.6-0.7-1.2-1.2-1.8c-0.7-1.2-1.6-2.2-2.2-3.4c-0.3-0.9-0.9-1.3-0.9-2.2c1,0.3,1.9,1,3.1,1.2c1,0.4,2.2,0.3,3.1,0.9
	c0.7,1,1.9,1.6,3,2.2c1.5,0.7,3.1,0.9,4.6,1.5c0.6,0,1.5,0.6,1.9,0c-0.3-0.3-0.6-0.4-0.9-0.6c-0.1-0.7,1-0.3,1.5-0.9
	c-0.1-0.3-0.4-0.4-0.7-0.4c-0.9-0.4-3-0.6-3.6-0.9c-0.7-0.1-1.3-0.4-2.1-0.6c-3.6,0-5.5-3.3-8.3-4.5c0.6-0.6,1.6-1,2.1-1.9
	c0.6-0.9,0.7-2.2,0.1-3.1c-0.6-1.8-2.8-1.6-4.3-2.7l0.1-0.1c2.2-0.1,4.3,0.4,6.4,0.9c5.6,0.7,10.8,3,16.8,3c3.3,0,7.3,0.1,8.9-3
	c0.3-1.8,0.6-3.7,0.9-5.5C136.6,114.5,138.7,111.6,138.4,108.4L138.4,108.4z M74.7,135.4l-0.9-0.7c0.4-0.6,1.3-0.3,1.9-0.6
	c1.5-0.4,3.3-1,5-0.7C79.1,134.8,76.8,134.9,74.7,135.4L74.7,135.4z M111.5,134.5c1.3,0.6,4.3,1.2,6.2,1.5c-0.1,0.7-1.6,0-1.5,1.2
	c-1.8-0.7-4-1-5.3-2.5C111,134.6,111.2,134.5,111.5,134.5L111.5,134.5z M56.3,109.3c0.1-1,0.4-2.2,1.5-3c1.5-0.7,3.4-0.6,4.6,0.1
	c0.4,0.3,0.7,0.6,0.9,1.2c0.3,1-0.1,2.1-0.9,2.7h-0.6c0-0.9,0-1.9,0.3-2.7c0-0.7-0.6-0.7-1.2-1c-1-0.3-1.9,0.1-2.7,0.6
	c-0.6,0.7-1.2,1.6-0.7,2.7c0.4,0.6,0,1.5,0.3,2.2l-0.1,0.3C57,111.5,56,110.6,56.3,109.3L56.3,109.3z M58.9,111
	c0.9,0.6,2.1,0.3,3.1,0.6c0.1,0.6,0.1,1.5-0.3,2.1c-1-0.3-2.2-0.1-2.8-1C59.1,112.1,58.8,111.5,58.9,111L58.9,111z M58.8,109
	c0.1-0.4,0-1.2,0.6-1.3c0.4-0.1,1-0.1,1.2,0.3c0,0.7-0.1,1.5-0.3,2.1C59.4,110.1,59.1,109.7,58.8,109L58.8,109z M86.4,128.1
	c-0.3-2.1,0.6-3.9,1.9-5.3c0.9-0.1,1.8-0.3,2.5,0.1c-1.5,0.4-3.4,0.7-3.9,2.7c0,0.7-0.1,1.2,0.1,1.8c0.6,1.2,2.1,0.6,3,1.5
	c0,0.3-0.3,0.6-0.6,0.7C88.6,129,87.3,128.9,86.4,128.1L86.4,128.1z M84.3,132.1c1.5-0.6,2.8-1.8,4.5-1.3
	C87.6,131.7,85.8,132.1,84.3,132.1L84.3,132.1z M90,132.7c-0.9,1.9-1.8,3.7-2.8,5.6c-0.1,0.3-0.6,0.3-0.9,0.4c0-0.9,0.9-1.5,1.2-2.2
	c1.2-1.6,1.6-3.3,3-4.9C90.6,132,90,132.3,90,132.7L90,132.7z M91.3,129.3v0.3h-0.1L91.3,129.3L91.3,129.3L91.3,129.3
	C91.5,129.3,91.3,129.3,91.3,129.3L91.3,129.3L91.3,129.3z M90.9,127.7c-1-0.1-1.9-0.4-2.8-0.7c-0.6-0.6,0-1.2,0-1.9
	c0.9-1.3,3.1-1.9,4.3-0.7C92.2,125.6,91.6,126.8,90.9,127.7L90.9,127.7z M92.2,127.7c0.1-0.7,0.6-1.8,0.9-2.5
	C93.1,126,92.6,127.1,92.2,127.7L92.2,127.7z M92.8,122.9c-0.7-0.1-1.2-1-1.9-1c0.7-0.3,1.5-0.1,2.2,0
	C93.4,122.2,92.8,122.5,92.8,122.9L92.8,122.9z M93.5,124.7L93.5,124.7v-0.6l0,0V124.7L93.5,124.7z M93.5,127.4
	c0-0.3,0.1-0.6,0.1-0.9c0.3-0.3,0.6,0.3,0.7,0.4C94.3,127.2,94,127.5,93.5,127.4L93.5,127.4z M94.4,123.7c0.3-0.9,0.3-1.5,0.9-2.2
	c0.6,0,1.2,0,1.6,0.3c0.1,1.2,1.6,2.8,0,3.9c-0.6,0.3-1.3,0.7-1.9,0.3C94.3,125.1,94.1,124.5,94.4,123.7L94.4,123.7z M98.7,122
	c-0.1-0.6,0.6-0.1,0.7-0.3l1.8,0.1C100.4,121.7,99.2,124,98.7,122L98.7,122z M101.7,122.8c-0.7,0.3-1.2,1-1.9,1.2
	C100.1,123.4,101,122.8,101.7,122.8L101.7,122.8z M99.2,126.5v0.1l0,0V126.5L99.2,126.5L99.2,126.5z M99.3,130.2
	c0,0.1,0,0.3-0.1,0.4l-1.3-1C98.4,129.3,99,129.6,99.3,130.2L99.3,130.2z M97.7,128.3c0.1-0.1,0.4-0.1,0.6,0H97.7L97.7,128.3z
	 M96.9,127.4c0.3-0.3,0.6-0.9,0.9-0.9c0,0,0,0.1,0.1,0.1C97.7,126.9,97.4,127.2,96.9,127.4L96.9,127.4z M95.6,127.2h-0.3l0.3-0.3
	C95.9,127.1,95.6,127.2,95.6,127.2L95.6,127.2z M95.8,129.6c0.7-0.9,1.5,0.4,1.8,1.2c0.9,1.3,3.1,2.5,2.2,4.3c-1.2,1-2.8,0-4.2,0.9
	c-0.6,0-1.8,0.1-2.1-0.6C94.1,133.3,94.7,131.2,95.8,129.6L95.8,129.6z M94.1,130.6l0.3-0.4c-0.4,1.5-1.2,3-1.9,4.3
	C92,133,93.5,132,94.1,130.6L94.1,130.6z M96.7,137.8c-1.2,0-2.8,0.7-3.9-0.3c0-0.4-0.4-0.7-0.4-1.2c0.9-0.3,1.8,0.7,2.7,0
	c1.3,0,2.8-0.1,4.2,0.1c0.6,0.1,1.6-1,1.8,0.1C100.5,138.5,98.1,137.2,96.7,137.8L96.7,137.8z M100.1,129.2V129h0.1L100.1,129.2
	L100.1,129.2L100.1,129.2z M100.5,132.9c0,0.6,0.6,0.9,0.3,1.3C100.7,134,100.2,133.5,100.5,132.9L100.5,132.9z M102.1,136.4
	l-0.3,0.1c-0.3-0.3-0.1-0.9-0.1-1.2C102,135.7,102.3,136,102.1,136.4L102.1,136.4z M105,137.9c0,0.1-0.3,0.1-0.4,0
	c-1.8-2.2-2.5-4.6-3.7-7.1h0.3C102.4,133,103.6,135.7,105,137.9L105,137.9z M107.2,132.4c-0.1,0-0.1,0.1-0.1,0.3
	c-1.8,0-2.8-0.9-4.2-1.8v-0.3C104.5,130.6,105.9,131.7,107.2,132.4L107.2,132.4z M105.7,124.5c0.7,0.1,0.7,0.9,0.9,1.5
	c0,1.3-0.7,2.4-1.9,3c-0.6,0.3-1.6,0.4-2.2,0.3c1.5,0,3-0.6,3.6-2.1L105.7,124.5L105.7,124.5z M104.4,124.3c0.3,0.9,0.9,1.6,0.6,2.7
	c-0.6,1.2-1.8,1.2-2.8,1.3c-0.6,0-0.9-0.1-1.3-0.4c0-0.3,0-0.4-0.3-0.6c0.1-0.7-1.3-1.5-0.3-2.2
	C101.1,124.3,103.3,122.2,104.4,124.3L104.4,124.3z M134.4,119.9c-0.4,0.6,0,1.5-0.6,2.1c0,1-0.9,1.6-1.6,2.1
	c-7,1.5-14-0.9-20.6-2.1c-9.5-2.1-20.5-2.7-30.1-0.4c-4.6,0.9-8.9,1.9-13.4,3.1c-2.7,0.3-5.6,0.7-8.3,0c-2.1-1-1.2-3.7-1.9-5.6
	c0.1-1.5-0.4-2.7-0.4-4.2c-0.1-0.4-0.3-1-0.3-1.5c0.9,0.1,1.8,0.7,2.7,1c4.9,0.9,9.4-0.6,14-1.5c4.5-0.9,8.9-1.8,13.7-2.1
	c5.3,0,10.7-0.3,15.7,0.6c1.6,0,3.1,0.4,4.6,0.6c3.3,0.4,6.4,1.3,9.6,1.5c0.6,0.1,1.2,0.1,1.8,0.3c5.3,0.9,11.3,2.4,16.3,0
	C135.5,115.9,134.7,117.9,134.4,119.9L134.4,119.9z M132.7,112.7c0,0.9-0.9,0.7-1.3,1h-1.5c-0.3-0.4-0.1-1.2-0.1-1.6
	C130.6,112.4,131.8,112.4,132.7,112.7L132.7,112.7z M132,111.2c0.6-0.6-0.1-4.5,1.6-1.9c0,0.4,0,1.2-0.4,1.5
	C132.9,111,132.4,111.5,132,111.2L132,111.2z M136.7,110.6c-0.6,1-1.3,1.8-2.5,2.1c0-1.5,1.3-2.4,0.9-4c-0.7-1.2-2.2-1.5-3.7-1.2
	c-0.6,0.3-0.3,0.9-0.4,1.5l-0.3,1.9c-1.2,0-1.2-1-1.6-1.9c0-1.2,0.6-2.5,1.8-3.1c0.9-0.4,2.5-0.4,3.4,0.1c0.7,0.1,1.6,0.6,1.9,1.2
	C137.2,108.1,136.9,109.6,136.7,110.6L136.7,110.6z"/>
<line class="st0" x1="209.3" y1="88.6" x2="579" y2="88.6"/>
<path d="M209.3,129.3v-0.6h0.7c0.7,0,1.2-0.1,1.6-0.3s0.6-0.4,0.9-0.9c0.1-0.3,0.1-1,0.1-2.2v-15.4c0-1.2,0-1.9-0.1-2.2
	s-0.4-0.6-0.7-0.7c-0.4-0.3-0.9-0.3-1.6-0.3h-0.7V106H220c2.8,0,5,0.4,6.8,1.2c2.1,0.9,3.7,2.4,4.8,4.3c1,1.9,1.6,4,1.6,6.4
	c0,1.6-0.3,3.1-0.7,4.6c-0.6,1.3-1.2,2.5-2.1,3.4s-1.8,1.6-3,2.2c-1,0.6-2.5,1-4,1.3c-0.7,0.1-1.8,0.1-3.4,0.1h-10.7V129.3z
	 M218.2,107.2v18.4c0,1,0,1.6,0.1,1.8s0.3,0.4,0.4,0.4c0.3,0.1,0.7,0.3,1.3,0.3c1.9,0,3.4-0.6,4.5-1.9c1.3-1.8,2.1-4.6,2.1-8.3
	c0-3-0.4-5.5-1.5-7.3c-0.7-1.5-1.8-2.4-3-2.8C221.6,107.3,220.2,107,218.2,107.2L218.2,107.2z"/>
<path d="M249,120.7h-8.9c0.1,2.2,0.7,3.9,1.8,5c0.7,0.9,1.8,1.5,2.8,1.5c0.7,0,1.3-0.1,1.9-0.6s1.2-1,1.8-2.1l0.6,0.4
	c-0.9,1.8-1.9,3.1-3,3.9s-2.4,1-3.7,1.2c-2.4,0-4.3-0.9-5.5-2.8c-1-1.5-1.5-3.4-1.5-5.6c0-2.7,0.7-4.9,2.2-6.5s3.3-2.4,5.2-2.4
	c1.6,0,3.1,0.7,4.3,2.1C248.2,115.9,249,118,249,120.7L249,120.7z M244.7,119.5c0-1.9-0.1-3.1-0.3-3.9s-0.4-1.2-0.9-1.6
	c-0.3-0.1-0.6-0.3-1-0.3c-0.6,0-1,0.3-1.5,0.9c-0.7,1-1,2.4-1,4.3v0.6H244.7L244.7,119.5z"/>
<path d="M256.7,127.7v6.1c0,0.9,0,1.3,0.1,1.6s0.3,0.4,0.6,0.6s0.9,0.1,1.6,0.1v0.6h-9.2v-0.6c0.7,0,1.2-0.3,1.6-0.6
	c0.3-0.3,0.3-0.9,0.3-2.1v-16.9c0-1.2-0.1-1.9-0.4-2.2s-0.7-0.4-1.5-0.6v-0.6h6.8v2.1c0.6-0.9,1.2-1.5,1.8-1.8
	c0.9-0.6,1.8-0.9,2.8-0.9c1.2,0,2.2,0.4,3.3,1.2s1.8,1.8,2.2,3.1c0.4,1.3,0.7,2.8,0.7,4.3c0,1.6-0.3,3.1-0.7,4.5
	c-0.6,1.3-1.3,2.4-2.2,3.1c-1,0.7-2.1,1-3.4,1c-0.9,0-1.8-0.1-2.5-0.6C257.9,129,257.3,128.4,256.7,127.7L256.7,127.7z M256.7,125.9
	c1,1.5,2.1,2.1,3.3,2.1c0.6,0,1.2-0.3,1.5-1c0.6-1,0.9-2.8,0.9-5.6c0-2.8-0.3-4.8-1-5.8c-0.4-0.7-1-1-1.8-1c-1.2,0-2.1,0.9-2.8,2.5
	V125.9L256.7,125.9z"/>
<path d="M278.4,126.9c-1.9,1.8-3.7,2.7-5.3,2.7c-0.9,0-1.6-0.3-2.4-0.9c-0.6-0.6-0.9-1.3-0.9-2.2c0-1.2,0.6-2.4,1.6-3.4
	c1-1,3.4-2.4,7-4v-1.6c0-1.2,0-1.9-0.1-2.4c-0.1-0.3-0.4-0.6-0.7-0.9c-0.4-0.3-0.7-0.3-1.2-0.3c-0.7,0-1.3,0.1-1.9,0.4
	c-0.3,0.1-0.4,0.4-0.4,0.7s0.1,0.6,0.4,0.9c0.4,0.4,0.6,1,0.6,1.5c0,0.6-0.1,1-0.6,1.5c-0.4,0.4-1,0.6-1.6,0.6
	c-0.7,0-1.3-0.1-1.8-0.6s-0.7-0.9-0.7-1.5c0-0.9,0.3-1.6,1-2.4c0.6-0.7,1.6-1.3,2.8-1.8c1.2-0.4,2.4-0.6,3.7-0.6
	c1.5,0,2.8,0.3,3.7,1c0.9,0.6,1.5,1.3,1.8,2.1c0.1,0.4,0.3,1.6,0.3,3.4v6.4c0,0.7,0,1.2,0.1,1.3c0,0.1,0.1,0.3,0.3,0.4
	s0.3,0.1,0.4,0.1c0.3,0,0.6-0.1,0.9-0.6l0.6,0.4c-0.6,0.9-1.2,1.5-1.8,1.9s-1.3,0.6-2.1,0.6c-0.9,0-1.6-0.1-2.2-0.6
	C278.8,128.6,278.5,127.8,278.4,126.9L278.4,126.9z M278.4,125.7v-5.5c-1.3,0.9-2.4,1.6-3.1,2.7c-0.4,0.6-0.7,1.2-0.7,1.9
	c0,0.6,0.1,1,0.6,1.3c0.3,0.3,0.7,0.4,1.2,0.4C277,126.6,277.6,126.3,278.4,125.7L278.4,125.7z"/>
<path d="M292.9,113.1v3.7c1-1.6,2.1-2.8,2.8-3.4s1.6-0.9,2.4-0.9c0.6,0,1.2,0.1,1.5,0.6c0.4,0.4,0.6,0.9,0.6,1.6s-0.1,1.3-0.6,1.8
	s-0.9,0.6-1.3,0.6c-0.6,0-1.2-0.1-1.6-0.6s-0.7-0.6-0.7-0.6c-0.1,0-0.3-0.1-0.4-0.1c-0.3,0-0.6,0.1-0.9,0.4c-0.4,0.4-0.9,0.9-1,1.6
	c-0.4,1.2-0.6,2.4-0.6,3.7v3.7v1c0,0.6,0,1,0.1,1.3s0.3,0.6,0.6,0.7s0.7,0.3,1.3,0.3v0.6h-8.8v-0.6c0.7,0,1.2-0.3,1.5-0.6
	s0.4-1.2,0.4-2.7v-9.1c0-0.9,0-1.5-0.1-1.8s-0.3-0.6-0.4-0.7s-0.6-0.3-1.2-0.3V113h6.5V113.1z"/>
<path d="M308.5,107.2v5.9h3.9v1.8h-3.9V125c0,0.9,0,1.5,0.1,1.8s0.3,0.4,0.4,0.6s0.4,0.3,0.6,0.3c0.7,0,1.5-0.6,2.1-1.8l0.6,0.4
	c-0.9,2.2-2.5,3.4-4.6,3.4c-1,0-1.9-0.3-2.7-0.9s-1.2-1.2-1.3-1.9c-0.1-0.4-0.1-1.5-0.1-3.3v-8.8h-2.1v-0.6c1.5-1,2.7-2.1,3.7-3.3
	c1-1.2,1.9-2.4,2.7-3.9H308.5L308.5,107.2z"/>
<path d="M320.7,113.1v2.1c0.9-1,1.8-1.6,2.5-2.1s1.6-0.6,2.5-0.6c1,0,1.9,0.3,2.7,0.7s1.2,1.2,1.6,2.2c0.9-1,1.8-1.8,2.7-2.2
	s1.8-0.7,2.7-0.7c1.2,0,2.1,0.3,2.7,0.7c0.7,0.4,1.2,1.2,1.3,1.9c0.3,0.7,0.4,2.1,0.4,3.9v6.7c0,1.2,0.1,2.1,0.3,2.4
	c0.3,0.3,0.7,0.4,1.5,0.6v0.6H333v-0.6c0.6,0,1.2-0.3,1.5-0.7c0.1-0.3,0.3-1,0.3-2.2v-7c0-1.5,0-2.4-0.1-2.8s-0.3-0.7-0.6-0.9
	s-0.6-0.3-0.9-0.3c-0.4,0-1,0.1-1.5,0.6c-0.4,0.3-1,0.9-1.5,1.6v8.8c0,1.2,0.1,1.9,0.3,2.2c0.3,0.4,0.7,0.6,1.5,0.7v0.6h-8.5v-0.6
	c0.4,0,0.7-0.1,1-0.3s0.4-0.4,0.6-0.7s0.1-0.9,0.1-1.9v-7c0-1.5,0-2.4-0.1-2.8s-0.3-0.6-0.6-0.9c-0.3-0.1-0.6-0.3-0.9-0.3
	c-0.4,0-0.9,0.1-1.3,0.3c-0.6,0.3-1.2,1-1.8,1.8v8.8c0,1.2,0.1,1.9,0.3,2.2c0.3,0.3,0.7,0.6,1.5,0.6v0.6H314v-0.6
	c0.7,0,1.2-0.3,1.5-0.6c0.1-0.3,0.3-1,0.3-2.2v-9.2c0-1.2-0.1-1.9-0.3-2.2s-0.7-0.4-1.3-0.6V113h6.5V113.1z"/>
<path d="M356.3,120.7h-8.9c0.1,2.2,0.7,3.9,1.8,5c0.7,0.9,1.8,1.5,2.8,1.5c0.7,0,1.3-0.1,1.9-0.6s1.2-1,1.8-2.1l0.6,0.4
	c-0.9,1.8-1.9,3.1-3,3.9c-1,0.7-2.4,1-3.7,1.2c-2.4,0-4.3-0.9-5.5-2.8c-1-1.5-1.5-3.4-1.5-5.6c0-2.7,0.7-4.9,2.2-6.5
	s3.3-2.4,5.2-2.4c1.6,0,3.1,0.7,4.3,2.1C355.5,115.9,356.1,118,356.3,120.7L356.3,120.7z M352,119.5c0-1.9-0.1-3.1-0.3-3.9
	s-0.4-1.2-0.9-1.6c-0.3-0.1-0.6-0.3-1-0.3c-0.6,0-1,0.3-1.5,0.9c-0.7,1-1,2.4-1,4.3v0.6H352L352,119.5z"/>
<path d="M364.6,113.1v2.1c0.9-0.9,1.6-1.6,2.4-1.9c0.7-0.4,1.6-0.6,2.5-0.6c1,0,1.9,0.3,2.7,0.9s1.2,1.3,1.3,2.2
	c0.1,0.6,0.3,1.9,0.3,3.9v6.4c0,1.2,0.1,2.1,0.3,2.4c0.3,0.3,0.7,0.4,1.5,0.6v0.6h-8.2V129c0.6-0.1,1-0.3,1.3-0.7
	c0.1-0.3,0.3-1,0.3-2.2v-7.3c0-1.3,0-2.2-0.1-2.5s-0.3-0.6-0.6-0.7s-0.4-0.3-0.9-0.3c-1,0-1.9,0.7-2.8,2.1v8.8
	c0,1.2,0.1,1.9,0.3,2.4c0.3,0.3,0.6,0.6,1.3,0.6v0.6h-8.2V129c0.7,0,1.2-0.3,1.5-0.6c0.1-0.3,0.3-1,0.3-2.2V117
	c0-1.2-0.1-1.9-0.3-2.2s-0.7-0.4-1.3-0.6v-0.6h6.4V113.1z"/>
<path d="M383,107.2v5.9h3.9v1.8H383V125c0,0.9,0,1.5,0.1,1.8s0.3,0.4,0.4,0.6s0.4,0.3,0.6,0.3c0.7,0,1.5-0.6,2.1-1.8l0.6,0.4
	c-0.9,2.2-2.5,3.4-4.6,3.4c-1,0-1.9-0.3-2.7-0.9s-1.2-1.2-1.3-1.9c-0.2-0.4-0.2-1.5-0.2-3.3v-8.8H376v-0.6c1.5-1,2.7-2.1,3.7-3.3
	c1-1.2,1.9-2.4,2.7-3.9H383L383,107.2z"/>
<path d="M403.8,112.7c1.5,0,2.7,0.3,4,1s2.1,1.8,2.8,3.1c0.6,1.3,0.9,2.8,0.9,4.5c0,2.4-0.6,4.3-1.8,5.8c-1.5,1.9-3.4,2.8-5.9,2.8
	c-2.4,0-4.3-0.9-5.6-2.5c-1.3-1.8-1.9-3.7-1.9-5.9c0-2.4,0.7-4.3,2.1-6.1C399.6,113.4,401.6,112.7,403.8,112.7L403.8,112.7z
	 M403.9,113.9c-0.6,0-1,0.3-1.5,0.7s-0.7,1.3-0.9,2.7s-0.1,3.1-0.1,5.5c0,1.2,0.1,2.4,0.3,3.4c0.1,0.9,0.4,1.5,0.7,1.9
	s0.9,0.6,1.5,0.6c0.6,0,0.9-0.1,1.3-0.4c0.4-0.4,0.7-0.9,0.9-1.6c0.3-1,0.3-3.3,0.3-6.7c0-1.9-0.1-3.3-0.3-4s-0.6-1.3-1-1.6
	C404.8,114,404.4,113.9,403.9,113.9L403.9,113.9z"/>
<path d="M420.3,114.8V126c0,1,0.1,1.8,0.3,2.1c0.4,0.4,1,0.6,2.1,0.6v0.6H413v-0.6c0.7,0,1.2-0.1,1.5-0.3s0.6-0.4,0.6-0.6
	c0.1-0.3,0.1-0.9,0.1-1.8v-11.3h-2.4v-1.6h2.4v-1.2V111c0-1.6,0.6-3.1,1.8-4.2c1.2-1.2,2.8-1.6,5-1.6c1.5,0,2.5,0.3,3.1,0.7
	c0.7,0.6,1,1.2,1,1.8s-0.1,1-0.6,1.3s-1,0.6-1.6,0.6s-1-0.1-1.5-0.4c-0.3-0.3-0.6-0.6-0.6-1c0-0.1,0-0.3,0.1-0.6c0-0.1,0-0.4,0-0.6
	c0-0.3,0-0.4-0.1-0.6s-0.4-0.3-0.7-0.3s-0.6,0.1-0.9,0.4c-0.1,0.3-0.3,0.7-0.3,1.3v3.1v2.1h2.4v1.6H420.3L420.3,114.8z"/>
<path d="M441.3,118v7.3c0,1.2,0,1.9,0.1,2.2s0.4,0.6,0.7,0.7c0.4,0.1,0.9,0.3,1.6,0.3h0.7v0.6h-12.3v-0.6h0.7c0.7,0,1.2-0.1,1.6-0.3
	c0.3-0.1,0.6-0.4,0.7-0.9c0.1-0.3,0.1-1,0.1-2.2v-15.3c0-1.2,0-1.9-0.1-2.2s-0.4-0.6-0.7-0.7c-0.4-0.3-0.9-0.3-1.6-0.3h-0.7V106
	h12.3v0.6h-0.7c-0.7,0-1.2,0.1-1.6,0.3c-0.3,0.1-0.6,0.4-0.7,0.9c-0.1,0.3-0.1,1-0.1,2.2v6.7h8.3v-6.8c0-1.2,0-1.9-0.1-2.2
	s-0.4-0.6-0.7-0.7c-0.4-0.3-0.9-0.3-1.6-0.3h-0.7V106h12.3v0.6H458c-0.7,0-1.2,0.1-1.6,0.3c-0.3,0.1-0.6,0.4-0.7,0.9
	c-0.1,0.3-0.1,1-0.1,2.2v15.6c0,1.2,0,1.9,0.1,2.2s0.4,0.6,0.7,0.7c0.4,0.1,0.9,0.3,1.6,0.3h0.7v0.6h-12.3v-0.6h0.7
	c0.7,0,1.2-0.1,1.6-0.3c0.3-0.1,0.6-0.4,0.7-0.9c0.1-0.3,0.1-1,0.1-2.2v-7.3h-8.3V118z"/>
<path d="M472.5,120.7h-8.9c0.1,2.2,0.7,3.9,1.8,5c0.7,0.9,1.8,1.5,2.8,1.5c0.7,0,1.3-0.1,1.9-0.6s1.2-1,1.8-2.1l0.6,0.4
	c-0.9,1.8-1.9,3.1-3,3.9s-2.4,1-3.7,1.2c-2.4,0-4.3-0.9-5.5-2.8c-1-1.5-1.5-3.4-1.5-5.6c0-2.7,0.7-4.9,2.2-6.5s3.3-2.4,5.2-2.4
	c1.6,0,3.1,0.7,4.3,2.1C471.8,115.9,472.4,118,472.5,120.7L472.5,120.7z M468.2,119.5c0-1.9-0.1-3.1-0.3-3.9s-0.4-1.2-0.9-1.6
	c-0.3-0.1-0.6-0.3-1-0.3c-0.6,0-1,0.3-1.5,0.9c-0.7,1-1,2.4-1,4.3v0.6H468.2L468.2,119.5z"/>
<path d="M482.5,126.9c-1.9,1.8-3.7,2.7-5.3,2.7c-0.9,0-1.6-0.3-2.4-0.9c-0.6-0.6-0.9-1.3-0.9-2.2c0-1.2,0.6-2.4,1.6-3.4
	c1-1,3.4-2.4,7-4v-1.6c0-1.2,0-1.9-0.1-2.4c-0.1-0.3-0.4-0.6-0.7-0.9c-0.4-0.3-0.7-0.3-1.2-0.3c-0.7,0-1.3,0.1-1.9,0.4
	c-0.3,0.1-0.4,0.4-0.4,0.7s0.1,0.6,0.4,0.9c0.4,0.4,0.6,1,0.6,1.5c0,0.6-0.2,1-0.6,1.5s-1,0.6-1.6,0.6c-0.7,0-1.3-0.1-1.8-0.6
	s-0.7-0.9-0.7-1.5c0-0.9,0.3-1.6,1-2.4c0.6-0.7,1.6-1.3,2.8-1.8c1.2-0.4,2.4-0.6,3.7-0.6c1.5,0,2.8,0.3,3.7,1
	c0.9,0.6,1.5,1.3,1.8,2.1c0.1,0.4,0.3,1.6,0.3,3.4v6.4c0,0.7,0,1.2,0.1,1.3c0,0.1,0.1,0.3,0.3,0.4s0.3,0.1,0.4,0.1
	c0.3,0,0.6-0.1,0.9-0.6l0.6,0.4c-0.6,0.9-1.2,1.5-1.8,1.9s-1.3,0.6-2.1,0.6c-0.9,0-1.6-0.1-2.2-0.6
	C482.9,128.6,482.6,127.8,482.5,126.9L482.5,126.9z M482.5,125.7v-5.5c-1.3,0.9-2.4,1.6-3.1,2.7c-0.4,0.6-0.7,1.2-0.7,1.9
	c0,0.6,0.1,1,0.6,1.3c0.3,0.3,0.7,0.4,1.2,0.4C481,126.6,481.7,126.3,482.5,125.7L482.5,125.7z"/>
<path d="M497,105.8V126c0,1.2,0.1,1.9,0.4,2.2s0.7,0.4,1.6,0.6v0.6h-8.8v-0.6c0.7,0,1.2-0.3,1.6-0.6c0.3-0.3,0.3-1,0.3-2.1v-17.1
	c0-1.2-0.1-1.9-0.4-2.2s-0.7-0.4-1.5-0.6v-0.6h6.7V105.8z"/>
<path d="M505.9,107.2v5.9h3.9v1.8h-3.9V125c0,0.9,0,1.5,0.1,1.8s0.3,0.4,0.4,0.6s0.4,0.3,0.6,0.3c0.7,0,1.5-0.6,2.1-1.8l0.6,0.4
	c-0.9,2.2-2.5,3.4-4.6,3.4c-1,0-1.9-0.3-2.7-0.9s-1.2-1.2-1.3-1.9c-0.1-0.4-0.1-1.5-0.1-3.3v-8.8h-2.1v-0.6c1.5-1,2.7-2.1,3.7-3.3
	c1-1.2,1.9-2.4,2.7-3.9H505.9L505.9,107.2z"/>
<path d="M517.2,105.8v9.4c0.9-0.9,1.8-1.6,2.5-1.9c0.7-0.4,1.5-0.6,2.4-0.6c1,0,1.9,0.3,2.7,0.9s1.2,1.3,1.5,2.1s0.3,2.1,0.3,4v6.4
	c0,1.2,0.1,2.1,0.3,2.4c0.3,0.3,0.7,0.4,1.3,0.6v0.6h-8.3V129c0.6-0.1,1-0.3,1.3-0.7c0.1-0.3,0.3-1,0.3-2.2v-7.3
	c0-1.3,0-2.2-0.1-2.5s-0.3-0.6-0.6-0.7s-0.6-0.3-0.9-0.3c-0.4,0-0.9,0.1-1.3,0.4s-0.9,0.9-1.5,1.6v8.8c0,1.2,0.1,1.9,0.3,2.2
	c0.1,0.4,0.7,0.6,1.3,0.7v0.6h-8.3V129c0.7,0,1.2-0.3,1.5-0.6c0.1-0.3,0.3-1,0.3-2.2v-16.9c0-1.2-0.1-1.9-0.3-2.2s-0.7-0.4-1.3-0.6
	v-0.6H517.2L517.2,105.8z"/>
</svg>
