<svg xmlns="http://www.w3.org/2000/svg" width="595" height="842" viewBox="-8.5 -350.8 595 842"><style>.st0{stroke:#000;stroke-width:2;stroke-miterlimit:10}</style><path d="M225.4 62.3h-9.2l-1 2.5c-.3.9-.6 1.5-.6 2.1 0 .7.3 1.3.9 1.6.3.1 1.2.3 2.5.4v.7h-8.6V69c.9-.1 1.6-.6 2.2-1.2s1.3-1.9 2.2-3.9l9.4-20.6h.3l9.4 21.2c.9 2.1 1.6 3.3 2.2 3.9.4.4 1 .6 1.8.7v.6h-12.6V69h.4c1 0 1.8-.1 2.1-.4.3-.1.4-.4.4-.9 0-.3 0-.4-.1-.7 0-.1-.1-.6-.6-1.5l-1.1-3.2zm-.8-1.4l-3.9-8.9-4 8.9h7.9zm28.2-9.1v14c0 1.3.1 2.2.4 2.5s.7.6 1.5.6v.9h-7.3v-2.4c-.9 1-1.8 1.8-2.5 2.2-.9.4-1.8.7-2.8.7-1 0-1.9-.3-2.7-.9s-1.3-1.3-1.6-2.2-.4-2.2-.4-4.3v-7.1c0-1.3-.1-2.2-.4-2.5s-.7-.6-1.5-.6V52h7.3v12.2c0 1.3 0 2.1.1 2.5.1.3.3.6.6.9.3.1.6.3.9.3.4 0 .9-.1 1.2-.3.4-.3 1.2-1 1.8-2.1V56c0-1.3-.1-2.2-.4-2.5s-.7-.6-1.5-.6v-.7h7.4v-.4zm14.4-.4l.3 6.1h-.6c-.7-1.8-1.6-3.1-2.4-3.7-.9-.6-1.6-1-2.5-1-.6 0-1 .1-1.3.6-.3.3-.6.7-.6 1.2 0 .3.1.7.4 1 .4.6 1.5 1.5 3.4 2.7 1.9 1.3 3.1 2.4 3.7 3.3s.9 1.9.9 3c0 1-.3 1.9-.7 3s-1.2 1.6-2.1 2.2c-.9.6-1.9.7-3 .7-.9 0-1.9-.3-3.4-.7-.4-.1-.6-.1-.7-.1-.4 0-.7.3-1 .9h-.6l-.3-6.4h.6c.6 1.6 1.3 3 2.4 3.9 1 .9 1.9 1.3 2.8 1.3.6 0 1-.1 1.5-.6s.6-.9.6-1.3c0-.6-.1-1.2-.6-1.6s-1.2-1.2-2.5-2.1c-1.9-1.3-3.3-2.4-3.9-3.1-.9-1-1.3-2.2-1.3-3.4 0-1.3.4-2.7 1.5-3.7.9-1.2 2.4-1.6 4.2-1.6 1 0 1.9.3 2.8.7.3.1.6.3.9.3s.4 0 .6-.1c.1-.1.3-.4.7-.9h.3v-.6zm9.5-6.1v6.5h4.3v1.9h-4.3v11c0 1 0 1.6.1 2.1.1.3.3.6.4.7.3.1.4.3.7.3.9 0 1.6-.6 2.4-1.9l.6.4c-1 2.4-2.7 3.7-5 3.7-1.2 0-2.1-.3-2.8-.9-.7-.6-1.3-1.3-1.5-2.1-.1-.4-.1-1.6-.1-3.6v-9.6h-2.4v-.7c1.6-1.2 3-2.4 4.2-3.6 1.2-1.2 2.1-2.7 3-4.2h.4zm12.9 6.5v4c1.2-1.8 2.2-3.1 3.1-3.7s1.8-.9 2.5-.9 1.3.3 1.6.7c.4.4.6 1 .6 1.9s-.1 1.5-.6 1.9-.9.7-1.5.7c-.7 0-1.3-.1-1.8-.6s-.7-.7-.9-.7c-.1-.1-.3-.1-.4-.1-.4 0-.7.1-1 .4-.6.4-.9 1-1.2 1.9-.4 1.2-.6 2.7-.6 4.2v5.2c0 .7 0 1.2.1 1.3.1.3.4.6.7.7s.7.3 1.5.3v.6h-9.6V69c.7 0 1.3-.3 1.6-.6s.4-1.3.4-2.8v-9.9c0-1 0-1.6-.1-1.9s-.3-.6-.6-.7-.7-.3-1.3-.3V52h7.4v-.2zm18 15.3c-2.2 1.9-4.2 2.8-5.9 2.8-1 0-1.9-.3-2.5-1-.7-.7-1-1.5-1-2.5 0-1.3.6-2.5 1.8-3.7 1.2-1 3.7-2.5 7.7-4.3v-1.8c0-1.3-.1-2.2-.3-2.5s-.4-.6-.9-.9-.9-.4-1.3-.4c-.9 0-1.5.1-2.1.6-.3.3-.4.4-.4.7s.1.6.6 1c.4.6.7 1 .7 1.6s-.3 1.2-.7 1.6-1 .6-1.8.6-1.5-.3-2.1-.7-.7-1-.7-1.6c0-.9.3-1.8 1-2.7s1.8-1.5 3-1.9c1.3-.4 2.7-.7 4-.7 1.6 0 3 .3 4 1s1.6 1.5 1.9 2.4c.1.6.3 1.8.3 3.7v7c0 .9 0 1.3.1 1.5 0 .1.1.3.3.4s.3.1.4.1c.3 0 .7-.3 1-.7l.6.4c-.6.9-1.3 1.6-1.9 2.1-.7.4-1.5.6-2.4.6-1 0-1.8-.3-2.4-.7-.6-.4-.9-1.1-1-2zm0-1.3v-5.9c-1.5.9-2.7 1.9-3.4 3-.4.7-.7 1.3-.7 2.1 0 .6.1 1 .6 1.5.3.3.7.4 1.3.4s1.3-.5 2.2-1.1zm15.4-22v22.3c0 1.3.1 2.1.4 2.4s.9.6 1.8.6v.7h-9.6V69c.7 0 1.3-.3 1.8-.7.3-.3.4-1 .4-2.4V47.5c0-1.2-.1-2.1-.4-2.4s-.9-.6-1.6-.6v-.7h7.2zm8.3-.6c.9 0 1.5.3 2.1.9s.9 1.3.9 2.1-.3 1.5-.9 2.1-1.3.9-2.1.9-1.5-.3-2.1-.9-.9-1.3-.9-2.1.3-1.5.9-2.1c.5-.6 1.3-.9 2.1-.9zm2.7 8.6v14.3c0 1.3.1 2.1.4 2.4s.9.6 1.8.6v.7h-9.7V69c.7 0 1.3-.3 1.8-.7.3-.3.4-1 .4-2.4V55.5c0-1.3-.1-2.1-.4-2.4s-.9-.6-1.6-.6v-.7h7.3zm12.6 15.3c-2.2 1.9-4.2 2.8-5.9 2.8-1 0-1.9-.3-2.5-1-.7-.7-1-1.5-1-2.5 0-1.3.6-2.5 1.8-3.7 1.2-1 3.7-2.5 7.7-4.3v-1.8c0-1.3-.1-2.2-.3-2.5s-.4-.6-.9-.9-.9-.4-1.3-.4c-.9 0-1.5.1-2.1.6-.3.3-.4.4-.4.7s.1.6.6 1c.4.6.7 1 .7 1.6s-.3 1.2-.7 1.6-1 .6-1.8.6-1.5-.3-2.1-.7-.7-1-.7-1.6c0-.9.3-1.8 1-2.7s1.8-1.5 3-1.9c1.3-.4 2.7-.7 4-.7 1.6 0 3 .3 4 1s1.6 1.5 1.9 2.4c.1.6.3 1.8.3 3.7v7c0 .9 0 1.3.1 1.5 0 .1.1.3.3.4s.3.1.4.1c.3 0 .7-.3 1-.7l.6.4c-.6.9-1.3 1.6-1.9 2.1-.7.4-1.5.6-2.4.6-1 0-1.8-.3-2.4-.7-.5-.4-1-1.1-1-2zm0-1.3v-5.9c-1.5.9-2.7 1.9-3.4 3-.4.7-.7 1.3-.7 2.1 0 .6.1 1 .6 1.5.3.3.7.4 1.3.4s1.3-.5 2.2-1.1zm15.5-14v2.4c.9-1 1.8-1.8 2.7-2.2s1.8-.7 2.7-.7c1.2 0 2.1.3 2.8 1 .7.6 1.3 1.5 1.5 2.4.1.7.3 2.1.3 4.2v7c0 1.3.1 2.2.3 2.5.3.3.7.6 1.6.6v.9h-9.1V69c.7-.1 1.2-.3 1.5-.9.1-.3.3-1 .3-2.4v-7.9c0-1.5 0-2.4-.1-2.8s-.3-.7-.6-.9-.6-.3-.9-.3c-1 0-2.1.7-3.1 2.4v9.6c0 1.3.1 2.2.3 2.5.3.3.7.6 1.3.7v.6h-9.1V69c.7-.1 1.3-.3 1.6-.7.1-.3.3-1 .3-2.5V55.7c0-1.3-.1-2.2-.4-2.5s-.7-.6-1.5-.6v-.7h7.6v-.1zm47.2-8.6v9.2h-.7c-.9-2.5-2.1-4.5-3.9-5.6-1.8-1.3-3.6-1.9-5.6-1.9-1.9 0-3.6.6-4.9 1.6s-2.2 2.7-2.7 4.6c-.6 1.9-.7 4-.7 5.9 0 2.5.3 4.6.9 6.5.6 1.9 1.5 3.3 2.8 4.2s2.8 1.3 4.6 1.3c.6 0 1.3 0 1.9-.1s1.3-.3 2.1-.6V63c0-1 0-1.6-.1-1.9s-.4-.6-.9-.9-.9-.3-1.6-.3h-.6v-.7h12.6v.7c-.9 0-1.6.1-2.1.4-.4.1-.6.4-.9 1-.1.3-.1.9-.1 1.8v5.3c-1.6.7-3.4 1.3-5.2 1.6-1.8.4-3.7.6-5.6.6-2.5 0-4.5-.3-6.1-1s-3.1-1.5-4.3-2.7c-1.2-1-2.2-2.4-3-3.7-.9-1.8-1.3-3.7-1.3-5.9 0-3.9 1.3-7.3 4.2-9.9 2.7-2.7 6.2-4 10.4-4 1.3 0 2.4.1 3.4.3.6.1 1.5.4 2.7.9 1.3.4 2.1.7 2.2.7.3 0 .7-.1 1-.4s.6-.7.9-1.5h.7v-.2zm12.5 8.2c1.5 0 3 .4 4.3 1.2s2.4 1.9 3 3.4c.7 1.5 1 3.1 1 4.9 0 2.5-.6 4.6-1.9 6.4-1.5 2.1-3.7 3.1-6.4 3.1s-4.8-.9-6.2-2.8-2.2-4-2.2-6.5.7-4.8 2.2-6.7c1.6-2.1 3.5-3 6.2-3zm0 1.3c-.6 0-1.2.3-1.6.7s-.7 1.5-.9 3-.1 3.4-.1 6.1c0 1.3.1 2.7.3 3.9.1.9.4 1.6.9 2.1s1 .7 1.6.7 1-.1 1.5-.4c.4-.4.9-1 1-1.8.3-1.2.4-3.7.4-7.3 0-2.2-.1-3.7-.3-4.5-.3-.7-.6-1.3-1-1.8-.8-.6-1.3-.7-1.8-.7zm16.7 17.5l-6.1-13.8c-.7-1.6-1.3-2.7-1.6-3.1-.3-.3-.7-.6-1.3-.7v-.7h9.5v.7c-.6 0-1 .1-1.2.3-.3.3-.4.6-.4 1s.3 1.3.9 2.7l3 6.7 2.4-5.8c.7-1.6 1-2.8 1-3.6 0-.4-.1-.7-.4-.9-.3-.3-.7-.4-1.5-.4v-.7h5.8v.7c-.6.1-1 .3-1.3.6s-.9 1.3-1.6 3l-5.9 14.1h-1.3v-.1zm24.1-10.1h-9.8c.1 2.4.7 4.3 1.9 5.6.9 1 1.9 1.6 3.1 1.6.7 0 1.5-.1 2.1-.6s1.3-1.2 2.1-2.4l.6.4c-1 1.9-2.1 3.4-3.3 4.2s-2.5 1.2-4 1.2c-2.7 0-4.6-1-6.1-3.1-1-1.6-1.6-3.7-1.6-6.1 0-3 .7-5.3 2.4-7.1s3.6-2.7 5.6-2.7c1.8 0 3.4.7 4.8 2.2 1.3 1.8 2 3.9 2.2 6.8zm-4.8-1.2c0-2.1-.1-3.4-.3-4.2s-.6-1.3-1-1.8c-.3-.3-.6-.3-1-.3-.6 0-1.2.3-1.6 1-.7 1.2-1.2 2.7-1.2 4.6v.7h5.2zm13.2-7.1v4c1.2-1.8 2.2-3.1 3.1-3.7s1.8-.9 2.5-.9 1.3.3 1.6.7c.4.4.6 1 .6 1.9s-.1 1.5-.6 1.9-.9.7-1.5.7c-.7 0-1.3-.1-1.8-.6s-.7-.7-.9-.7c-.1-.1-.3-.1-.4-.1-.3 0-.7.1-1 .4-.6.4-.9 1-1.2 1.9-.4 1.2-.6 2.7-.6 4.2v5.2c0 .7 0 1.2.1 1.3.1.3.4.6.7.7s.7.3 1.5.3v.6h-9.6V69c.7 0 1.3-.3 1.6-.6s.4-1.3.4-2.8v-9.9c0-1 0-1.6-.1-1.9s-.3-.6-.6-.7-.7-.3-1.3-.3V52h7.4v-.2zm16.5 0v2.4c.9-1 1.8-1.8 2.7-2.2s1.8-.7 2.7-.7c1.2 0 2.1.3 2.8 1 .7.6 1.3 1.5 1.5 2.4.1.7.3 2.1.3 4.2v7c0 1.3.1 2.2.3 2.5.3.3.7.6 1.6.6v.9h-9.1V69c.7-.1 1.2-.3 1.5-.9.1-.3.3-1 .3-2.4v-7.9c0-1.5 0-2.4-.1-2.8s-.3-.7-.6-.9-.6-.3-.9-.3c-1 0-2.1.7-3.1 2.4v9.6c0 1.3.1 2.2.3 2.5.3.3.7.6 1.3.7v.6h-9.1V69c.7-.1 1.3-.3 1.6-.7.1-.3.3-1 .3-2.5V55.7c0-1.3-.1-2.2-.4-2.5s-.7-.6-1.5-.6v-.7h7.6v-.1zm20.8 0v2.4c1-1 1.9-1.8 2.7-2.2.9-.4 1.8-.6 2.8-.6 1.2 0 2.1.3 2.8.7s1.3 1.3 1.8 2.5c1-1.2 1.9-1.9 3-2.5.9-.4 1.9-.7 3-.7 1.2 0 2.2.3 3 .9s1.2 1.3 1.5 2.2.4 2.2.4 4.2V66c0 1.3.1 2.2.3 2.5.3.3.7.6 1.6.6v.7H522V69c.7 0 1.3-.3 1.6-.9.3-.3.3-1.2.3-2.4V58c0-1.6 0-2.7-.1-3-.1-.4-.3-.7-.6-.9s-.6-.3-.9-.3c-.6 0-1 .1-1.6.6s-1.2 1-1.6 1.8v9.6c0 1.3.1 2.1.3 2.4.3.4.9.7 1.6.7v.7h-9.2V69c.4 0 .9-.1 1.2-.3.3-.3.4-.4.6-.7s.1-1 .1-2.1v-7.7c0-1.6 0-2.7-.1-3s-.3-.7-.6-.9c-.3-.3-.6-.3-.9-.3-.4 0-1 .1-1.3.4-.6.4-1.2 1-1.9 2.1v9.6c0 1.3.1 2.1.3 2.5.3.4.7.6 1.6.7v.3h-9.2V69c.7-.1 1.3-.3 1.6-.7.1-.3.3-1 .3-2.5V55.7c0-1.3-.1-2.2-.4-2.5s-.7-.6-1.5-.6v-.7h6.7v-.1zm38.7 8.3h-9.8c.1 2.4.7 4.3 1.9 5.6.9 1 1.9 1.6 3.1 1.6.7 0 1.5-.1 2.1-.6s1.3-1.2 2.1-2.4l.6.4c-1 1.9-2.1 3.4-3.3 4.2s-2.5 1.2-4 1.2c-2.7 0-4.6-1-6.1-3.1-1-1.6-1.6-3.7-1.6-6.1 0-3 .7-5.3 2.4-7.1s3.6-2.7 5.6-2.7c1.8 0 3.4.7 4.8 2.2 1.5 1.8 2.1 3.9 2.2 6.8zm-4.7-1.2c0-2.1-.1-3.4-.3-4.2s-.6-1.3-1-1.8c-.3-.3-.6-.3-1-.3-.6 0-1.2.3-1.6 1-.7 1.2-1.2 2.7-1.2 4.6v.7h5.2zm12.8-7.1v2.4c.9-1 1.8-1.8 2.7-2.2s1.8-.7 2.7-.7c1.2 0 2.1.3 2.8 1 .7.6 1.3 1.5 1.5 2.4.1.7.3 2.1.3 4.2v7c0 1.3.1 2.2.3 2.5.3.3.7.6 1.6.6v.9h-9.1V69c.7-.1 1.2-.3 1.5-.9.1-.3.3-1 .3-2.4v-7.9c0-1.5 0-2.4-.1-2.8s-.3-.7-.6-.9-.6-.3-.9-.3c-1 0-2.1.7-3.1 2.4v9.6c0 1.3.1 2.2.3 2.5.3.3.7.6 1.3.7v.6h-9.1V69c.7-.1 1.3-.3 1.6-.7.1-.3.3-1 .3-2.5V55.7c0-1.3-.1-2.2-.4-2.5s-.7-.6-1.5-.6v-.7h7.6v-.1zm19.6-6.5v6.5h4.3v1.9h-4.3v11c0 1 0 1.6.1 2.1.1.3.3.6.4.7.3.1.4.3.7.3.9 0 1.6-.6 2.4-1.9l.6.4c-1 2.4-2.7 3.7-5 3.7-1.2 0-2.1-.3-2.8-.9s-1.3-1.3-1.5-2.1c-.1-.4-.1-1.6-.1-3.6v-9.6h-2.4v-.7c1.6-1.2 3-2.4 4.2-3.6s2.1-2.7 3-4.2h.4zm-510 67.1c-.1.1-.3.4-.4.4m4.9-35.5c.4 0 .9-.4.9-.9s-.4-.9-.9-.9-.9.4-.9.9.4.9.9.9zm43.5-39.4H79v27.3c0 2.7 1.2 4.9 2.7 5.6l12.9 7.7c.3.3.7.6 1.2.6.4 0 .7-.1 1-.4l13.2-7.9c1.5-.7 2.7-3 2.7-5.6V37.9zm-22.6 7.8h-3v-7h3v7zM88 48.1l.4-.4-.3-.4h.6l.3-.6.3.6h.7l-.3.4.4.4-.6.1v.6l-.4-.4-.4.4v-.6l-.7-.1zm-8.1 8.8v-6.7h3.6v6.7h-3.6zm.6-9.7h.6l.3-.6.3.6h.6l-.3.5.4.4-.6.1v.6l-.4-.4-.4.4v-.6l-.6-.1.4-.4-.3-.5zm4 6.8h.6l.3-.6.3.6h.6l-.3.5.4.4h-.6v.6l-.4-.4-.4.4v-.6h-.6l.4-.4-.3-.5zm2.4-5.3c0-.1-.3-.3-.3-.3-.3 0-.4.6-.7.6-.1 0-.3 0-.3-.1s.4-.3.6-.4c-2.2 0-2.2 1-2.5 1-.6 0 .4-1 .7-1.3-.4 0-.7-.6-1.2-.9.3-.3.3-.1.6 0 0-.3.1-.4.7-.4 1 0 .7.9.9.9s0-.9.6-.9c1 0 2.2 2.5 1 2.5-.6-.3-.1-.7-.1-.7zm-2.6-7.3l.4-.4-.3-.4h.6l.3-.6.3.6h.6l-.2.4.4.4-.6.1v.6l-.4-.4-.4.4v-.6l-.7-.1zm-.9-2.7v7h-3.6v-7h3.6zm6.7 36.1l-8-4.9c-1.3-.9-2.1-2.5-2.2-4.5v-7.7h10.2v17.1zm-3-17.9v-6.7h3v6.7h-3zm13.4 18.4l-3.7 2.2c-.3.1-.6.3-1 .3s-.7-.1-1-.3L91 75.3V57.7h9.5v17.6zm0-18.4H91V38.7h9.5v18.2zm11.3 8.6c-.1 1.9-.9 3.6-2.2 4.5l-8.2 4.9V57.7h10.4v7.8zm0-8.6h-10.4V38.7h10.4v18.2z"/><path d="M89.5 64c0-.1-1.3.4-.9.4 0-.3.7-1 1-1.3 0-.4-.6 0-1.2.3 1.9-2.8.7-1.6-.4-1.5 1.8-1.8 1.3-1.8 0-1.2 1-.7 1.2-1.8 1-1.9-.9 1.2-1.8 1-1.8 2.2 0 .7-.3 2.1-.6 2.4-.4.6-.1-2.1-1.5-2.1-.4 0-1.5 0-1.8.4.3 0 .7.7.7.9 0 .3.3 1-.1 1s-1-.9-1-1.3v-1c0-1-1.8-2.7-2.5-2.7 0 .7 1 .9 1 1.9-.4 0-1-.7-1-.3s.6.6.6 1-.7-.1-.7.3.4.3.4.7c-.3-.1-.6 0-.6.1s.1.3.3.4c-.1.1-.1.3-.1.9 0 2.2 1.3 3.1 2.4 3.1.7 0 .6-.4.7-.7 0 .3.4-.1.4.4s-.7.4-.7.9c0 .7 1 0 1 .9 0 1-.1 1-.1 1.3s1.2-.4 1-.4c.3.1.3.9.7.9.3 0 .4-.9.6-.9-.1 0 1 .7 1 .4 0-1-.4-.6-.4-1.3 0-.6 1.3-.4 1.2-.9-.1-.3-.3-.1-.4-.6 0 .1-1-1.6.3-.7 1.5 1.2 1.7-1.9 1.5-2zm36.1 7.1c.6 0 1-.4 1-1s-.4-1-1-1-1 .4-1 1 .4 1 1 1zm-4.5 2.7c.6 0 1-.4 1-1s-.4-1-1-1-1 .4-1 1c0 .5.5 1 1 1zM67.7 80c.6 0 1-.4 1-1s-.4-1-1-1-1 .4-1 1 .4 1 1 1zm3.6.3c.6 0 1-.4 1-1s-.4-1-1-1-1 .4-1 1c-.2.6.2 1 1 1zm96-46.6c1.6 1.9 1.9 5 .9 7.4-.6 0-.6-.9-.6-1.3-1.2-2.2-2.1-5-1-7.4.6 0 .3.9.7 1.3zm-141 2.7c-.3 1.5-.3 3.4 0 4.8-.3.3-.3-.3-.6-.3-2.2-1.6-1.2-4.9-1.8-7.3.1-.1.4-.3.6-.1 1 .6 1.6 1.7 1.8 2.9zm146.1.1c.3.6-.3 1.3-.7 1.6-.6.1-1.2-.1-1.5-.6-.1-.6.1-1.2.7-1.5.6-.1 1 .1 1.5.5zM22.7 39.2c-.1.6-.3 1-.7 1.3-.3 0-.9 0-1.2-.3s-.4-.9-.3-1.2c.3-.4.7-.4 1.2-.6.4.2.9.3 1 .8zm151.9.9c.1.3.1.6 0 .9-.4.6-1 .7-1.6.6-.4-.3-.6-.6-.6-1 .1-.4.6-.9 1-1 .6-.1.9.2 1.2.5zm-3.3.1c.4.3.1.9 0 1.2-.3.3-.7.7-1.2.6-.3-.3-.6-.3-.7-.7 0-.6.3-1.2.9-1.3.3-.2.6.1 1 .2zm-4.3.9c0 .6 0 1.5-.7 1.6-.7.3-1.2-.3-1.3-.9 0-.6.3-1.2.9-1.5.4.1.8.4 1.1.8zm-137.9.3c.1.6-.4.9-.7 1.2-.4.1-.9-.3-1.2-.6-.4-.4.1-.7.3-1.2.6-.4 1.5-.1 1.6.6zm-3.6.2c0 .4-.3.9-.6 1.2-.4.1-.9-.1-1.2-.6-.3-.6 0-1.2.6-1.3.6-.4 1.1.2 1.2.7zm127.3.3c.6 1.2 1 2.7 1.2 4.3-.3 1.2.1 2.7-.6 3.4-.9-.3-.9-1.3-1.5-1.8-1-2.1-.1-4.5.3-6.5.4-.3.4.3.6.6zm-129.9.6c.1.7-.3 1-.7 1.5-.7.1-1.2-.3-1.5-.9 0-.6.3-1.2.7-1.5.6.1 1.2.4 1.5.9zM162 44.2c.7 1.8.9 3.9.3 5.6l-.3.3c-.9-1.6-1.9-3.1-2.4-4.8 0-1.2.3-2.4.7-3.4.4-.3.6 0 .9.4-.1.8.2 1.6.8 1.9zm7.4-1c0 .6-.3 1.2-.9 1.5-.6.1-1.2 0-1.3-.7-.1-.6.1-1.2.6-1.5.7-.3 1.3.3 1.6.7zM25.7 45c0 .4-.4 1-.9 1.2-.4.3-.9-.3-1.2-.4-.1-.4-.3-.9 0-1.3.1-.3.6-.3.9-.4.4.1 1 .3 1.2.9zm2.5-.3c.3.6-.4.9-.6 1.2-.7.3-1-.3-1.3-.7-.1-.6.3-.9.6-1.3.7-.3 1 .3 1.3.8zm143-.2c0 .7-1.2 1.5-1.3 2.4-.6 1.6-2.1 2.8-3.7 3.3-.3.3-.9.7-1.3.7-.1-1.2.9-2.2 1.6-3.3 1.1-1.6 2.7-2.6 4.7-3.1zM24.5 47.1c.9 1 1.3 1.9 2.4 2.8 0 .3-.1.6-.4.6-2.8-.1-4.9-3.1-6.2-5.2.1-.6.9-.1 1.3-.1 1 .5 2.2.8 2.9 1.9zm147.4.7c-.1 2.5-1.3 5.2-3.7 6.4-.6.3-1.3.9-1.9.4 1.2-2.5 3.1-4.6 5.2-6.8h.4zm-11.3 1.8c.1.9-.3 1.5-1 1.8-.6 0-1-.4-1.3-.9 0-.6.3-1.2.9-1.3.1-.1.4-.1.7-.1s.4.2.7.5zm-139.4.6c1.2.7 2.1 1.8 3.1 2.8-.7.6-1.6 0-2.5 0-1.9-.7-3.4-2.4-5.3-3 0-.6.9-.4 1.2-.6 1.3-.1 2.4.5 3.5.8z"/><path d="M84.3 32.5c-3.3-1.3-5.5 2.1-8.9 1.8-.4.3-.3.6-.6.9-.1.1-.4 0-.6 0-.1-1.5-.6-2.7-.9-4.2-.3-.6-.1-1.5-.4-2.1-1.9-5.2 4.6-1.2 5.9-4.3 1.2-2.7-2.2-3-3.1-4.8v-.6c-.9-.9-1.9-1.2-2.5-2.5.4-1.5.6-3.1.1-4.6 0-.3-.3-.9-.9-.6-1.2 1.5-1.9 2.8-3 4.3-1.2-.9-2.2-1.9-3.4-2.7-.9-.1-1.8-1-2.7-.6-.1.3 0 .6.1.9 0 2.4 1.2 4.2 2.8 5.8l.1.9c-1 2.4-.7 5.2-1 7.9-2.7 6.8-7 13.2-12.8 18-3.4 3.9-7.4 7.4-7.9 12.6-.1.9.1 1.8-.6 2.4-1.9-.7-3.9-1.6-5.5-3-2.7-1.9-6.5-1.6-8.3-5-.7-1.3.1-2.7.9-3.7 1.9-1.9 1.8-5.3.6-7.6-.3 0-.3.3-.4.3-.1 3.6-3 5.9-1.9 9.8.3 1.2.9 1.8 1.2 3-.4-.1-1-.1-1.3-.3-1.3-.1-2.5-.7-4-.6-2.7 1.2-6.4-.3-8.6 2.2-.3 0-.9.1-.7.6 1.3 0 2.5.3 3.9.3 2.1.3 3.4-1.3 4.9-2.1h.3c.6-.6 1.6-.3 2.4-.3 3.7.4 6.5 2.2 9.6 4v.3c-1.2.6-2.5.9-3.7 1.5-1.3 1-2.8 2.4-3.3 4-.9 1.5.3 2.8.9 4 0 .6.1 1.3.6 1.5 1.9-2.1.1-4.5.4-6.8.4-1.8 2.1-2.7 3.9-3.1 3.4-1.5 5.8 1.3 8.5 2.8 0 2.7.3 5.3-.3 8-.9.3-1.9.4-2.8.4-4.6.3-8.3 3-12.5 4.3-1.9.6-4.2.6-5.9 1.3 1.5.4 3-.1 4.6-.1 5.8-.9 10.2-5.3 16.5-4.5l.1.1c-.7 1.5-1.6 2.7-2.8 3.9-.1-.6-.3-1.2-.9-1.5-.4-.3-1 0-1.3.4-.1.3-.1.6 0 .9.3.6.7.6 1.3.9-.1.6-.7.7-1.2 1.2-1.6 2.8-5 1.6-7 3.6-.3.4-1.3.6-.9 1.3 2.2.3 4.5-.3 6.1-1.5 2.2-2.4 4.5-4.8 6.7-7.1.3 1.9-.1 3.9-1.3 5.3-.6-.3-.9-.7-1.6-.9-.6.1-1 .7-1 1.2.3.4.4.9.9 1.2-1.9 1.5-4.6 1.5-6.8 2.2-4.3.6-8.5.9-12.8.9-2.1-.1-4.5.6-6.4 0-2.2.4-4.6-.3-6.5.9-.3.3 0 .6 0 .9 2.7 1.8 6.4.3 9.5.9h23.2c1.8 0 3.4-.1 4.8-.9 3-1.8 4.6-4.8 6.2-7.9.6-1 1-2.4 1.2-3.6.6-2.1 2.4-3.4 4.5-3.6.3 3.1-.3 6.2-1 9.1-.3 1.9-1.6 3.7-.9 5.8.1.9 1.2.9 1.9 1 7.1-.1 14.3-.4 21.8.1 1.3.3 2.5.6 4 .6.1-.1.6-.3.3-.6-.1-.6-.6-1.5-1.5-1.6-.1-.3-.6-.3-.9-.4-3.7-2.1-8.3-1-12.8-.9-2.2.3-4.6.6-6.5-.6-.9-1-.3-4.5-.3-4.5 0-1.3 3.3-10.7 3.7-11.4.1-.9.4-1.8.3-2.7.4-1.2.3-2.7.3-4 .3-1.9 1.2-3.7 1.8-5.5.3-.9.6-1.8 1-2.7.3-1.2.4-2.2 1.2-3.1 1.9 1.2 3.9 1.2 4.8 3.4l.7 4.9c0 .3.3.9.6.6 1.5-1 1-3.3 1-4.8.3-1.8-.9-2.7-1.5-4.3.1-.7-.4-2.2-.4-2.2-.3-1.3-3.1-2.2-2.4-3.9.3-1.3.7-2.7 1.9-3.4.1.1.3.3.3.4l.7-.4V35c1.9 0 4.8.3 6.7.3.6.1.9.6 1.5.6l.4-.6 4.8-.9c-2.1.5-3.2-1.9-5.2-1.9zm5.2 2.2c.1 0 .3 0 .4-.1l-.4.1z"/><path d="M38.2 51.2c0 .7-.3 1.2-.9 1.3-.4-.1-.9-.3-1.2-.7-.3-.6.3-1.2.9-1.3.6.1 1 .1 1.2.7zm-3.9 0c.3.3.4.9.3 1.3-.4.3-1 .6-1.5.1-.3-.3-.7-.7-.4-1.2.6-.3 1.2-.6 1.6-.2zm126.9 1.6c.3.6-.3 1.2-.7 1.3-.6-.1-1.3-.3-1.3-1 0-.4.4-.7.9-.9s.8.4 1.1.6zm3.1-.1c.1.3.6.7.1 1-.3.1-.4.3-.6.4-.6.1-1.2-.1-1.5-.7-.1-.6.4-.9.9-1.2.5.1.8.4 1.1.5zm-144.7.7c-.3.7-.9 1-1.6.7-.1-.1-.3-.4-.4-.7 0-.4.1-.9.6-1 .7.2 1.3.4 1.4 1zm19.9 1.1c0 .4-.6.9-1 1.2-.6 0-1-.4-1.3-.9 0-.4.3-1 .7-1.2.6-.3 1.3.1 1.6.9zm-3.6-.5c.1.1.3.6.1.9-.3.3-.9.9-1.5.4-.3-.3-.7-.6-.6-1.2.3-.3.6-.6.9-.7.5 0 .8.3 1.1.6zm137.5.8c0 .4-.4.9-.7 1.2-.4.1-1 0-1.3-.3-.3-.1-.3-.6-.3-.9.3-.4.7-.6 1.2-.7.4-.1.8.2 1.1.7zm3.7.4c-.1.6-.6 1-1.2 1-.3 0-1-.1-.9-.7 0-.4.3-.9.6-.9.6-.3 1.4 0 1.5.6zm-150.8.9c.1.7-.1 1.2-.7 1.5-.4.3-.9 0-1.2-.3-.1-.3-.4-.9-.1-1.2.1-.6.6-.4 1-.6.4 0 .7.2 1 .6zm3 .6c.1.4-.3.6-.4 1-.3.1-.7.3-1 .1-.4-.3-.9-.9-.4-1.5.1-.8 1.5-.3 1.8.4zm140.5-.3c0 .6-.4 1-.9 1.3-.6.1-1-.3-1.2-.7 0-.4.3-.9.6-1.2.8 0 1.2 0 1.5.6zm4.9.9c-.1.6 0 1.2-.6 1.5-.4.1-1 0-1.5-.3-.3-.3-.4-.9-.3-1.2.3-.4.9-.9 1.5-.7.5.3.5.6.9.7zM24.1 58.5c.3.4-.3.6-.4.9-.4.3-.9 0-1.2-.1-.4-.3-.3-.9-.1-1.2.3-.9 1.5-.2 1.7.4zM171 59.7c.3 0 .1.4 0 .6-1.5.7-3.6.9-4.8-.3-.7-.6-1.6-.9-2.4-1.3.3-.7 1.3-.7 2.1-.9 1.9.2 3.2 1.9 5.1 1.9zm-144.1-.6c.1.4-.3.6-.3 1-.3.3-.7.3-1 .1-.6-.3-.7-1-.4-1.5.6-.5 1.4-.2 1.7.4zm5.2.4c.3.6-.1 1-.6 1.3s-.7-.1-1.2-.1c-.3-.4-.9-.9-.3-1.3.6-1.1 1.6-.6 2.1.1zm68.1 2.6c-.1 1.2-2.1-.1-1.8 1.3.3 1.2.4 2.5 1.2 3.3.6.7.3 2.1.3 3-.4.9-1.3 1.5-2.2 1.9-1.6-.1-4.2.9-4.9-1.2-.3-.9-.9-1.8-.9-2.8.1-.1.4-.1.6-.3 0-.4-.4-.6-.4-1 1.9-.3-.7-2.1.9-2.1 1.3 1.3 3.6.9 4.8 2.5.3.3.4.6.9.7-.3-1.3-.9-2.8-1.2-4.3-.1-.7.1-1.5.7-1.9.5-.9 1.4.1 2 .9zm-62.9-.5c.1.6-.3.9-.6 1.2-.6.3-.9-.3-1-.6-.1-.6.3-.9.6-1.2.2 0 .7.2 1 .6zm36.3.6c.7 2.4.4 4.8-.7 6.7 0 .4.1 1.2-.6 1.2-1.6-2.2-.4-5.3.3-7.6.2-.6.7-.9 1-.3zm50.4 1.2c.9 1.6.9 3.9.1 5.5l-.4.4c-.6-1.3-1.2-2.7-1.3-4.2.3-1 .6-2.1.7-3.1.7-.2.7.8.9 1.4zm-82.1.6c-.3.7-1.3.9-1.9 1.3-1.5 1-3.4 1.3-5.2 1 1.5-2.1 3.9-3.4 6.7-2.8-.1.3.2.2.4.5zm-24.2 2.1c2.2 1.5 2.8 3.7 4 5.8.1.3.7.3.6.7-.4.3-.9-.3-1.6-.3-2.2-1-3.7-3.6-3.6-6.1 0-.1.3-.1.6-.1zm104 1.9c0 .6 0 1.2-.6 1.3-.6.1-1.2-.1-1.3-.7-.1-.4.1-.6.3-.9.5-.5 1.3-.3 1.6.3z"/><path d="M146.5 71.1c0-1.2.3-2.2.4-3.3.1-.3.3-.7.3-1.2 1.5-1.9 4.3-1.3 6.5-1.2.9.4 1.9.4 3 .6.4-.3 1-.3 1.5-.3 1.9-1 .6-3.3.7-4.9l-.7-1.8c-.1-.3-.3-.7-.4-1.2-.3-.4-.6-1.2-.9-1.6-1-2.7-3-4.2-4.6-6.2-3-3.9-7.7-6.1-12.5-7.7-4.6-1.6-9.4.4-13.5 1.9-1.3-.3-1.9-1.3-2.2-2.5-.3-2.2.3-4.5 1.2-6.2.1-1.5 1.2-2.7 1.6-4 1-3.3 2.2-6.5 2.4-10.2.1-2.2-1.5-3.7-3.1-4.8-1.2-.3-2.4-.3-3.3.6-.7 1.6-2.4 2.7-3.9 3.4-.1 1 1.2.3 1.5.7 1.3.3 2.8-.1 3.9.6.1 2.4-1.2 4.3-2.5 6.1-1.9 3-4.2 5.9-5.3 9.2l-.3-.3.3 14.5c1.9 3.1 4.2 6.7 7.7 7.9 1.9 1.5 4.3 3.4 6.8 2.1 1.3-.4 1.5 1.5 2.1 2.2.7 2.2-.9 3.7-1 5.8l-1.5 3.3c-1.8 3.4-3.4 7.1-6.1 10.1-.9 0-1.5.9-2.2 1-.4.6-1.5.1-1.9.4-1.8.7-4.5.3-5.6 2.1.1.1.3.3.4.3 3.6 0 7.6.3 11.4.1.4-.1.9-.6.9-1.2-.6-1 .1-1.9.6-2.7.3-1.5 1.2-2.4 1.6-3.7 1.2-2.4 2.7-4.8 4-7.3l1.8-3c.4-1 1.2-2.2 1.8-3.3.4-.4.7-1 1-1.6 0-.6-.3-.9-.6-1.2.4-.4 1-.3 1.6-.4 1.5.9 3 2.4 3.3 3.9l.6 1.5.3.7-.1 1.9.3 1.8c.3 2.8-.3 5.8-.6 8.6-1 3.4-4.9 3.1-7.7 3.9-.7.4-2.1.3-2.1 1.5 3.4.7 7.4.3 11.1.3.6-.3.7-.7 1-1.3.1-.7.9-1.5.6-2.2-.6-.9 0-2.1-.3-3.3.1-.3.1-.7 0-1.2.4-1.8.3-3.9.7-5.5v-1.7zm29-2.4c-1.9 2.7-3.9 5.6-7.1 6.7-.3 0-.4.1-.6-.1 1.9-2.1 3.1-5.5 6.2-6.2.4-.4 1-.5 1.5-.4zm-160.8 3c-.3.3 0 .7-.6.9-.4.3-1 0-1.2-.6-.3-.6.3-1.2.7-1.3.5.3 1.1.4 1.1 1zm17.1.9c.1.6-.4.6-.7.6-2.5.9-5 0-6.8-1.8 0-.3 0-.4.3-.6 2.3.8 5.1.3 7.2 1.8zM18 71.7c.1.3.1.6.1.9-.3.6-.9.6-1.5.6-.3-.1-.6-.4-.7-.7 0-.6.6-.9 1-1.2.5.1.8.1 1.1.4zm55.2.3c.1.6-.3.9-.7 1.2-.6.1-1-.1-1.2-.4-.1-.4 0-1 .4-1.2s1.3 0 1.5.4zm104.5.3c.1.6-.3.9-.7 1.2-.3.1-.7 0-1.2-.1 0-.3-.4-.6-.3-.9.3-.6.7-.7 1.3-.7.5.2.6.2.9.5zm4-.3c.3.6 0 .9-.3 1.3s-.7.6-1 .3-.9-.6-.9-1 .6-.9.9-1c.6-.2.7.4 1.3.4zM12.3 73.8c0 .4-.3.6-.4 1-.3.1-.6.3-.9.3-.4-.1-.7-.6-.9-.9.1-.6.4-1 1-1.2.5 0 1.1.2 1.2.8z"/><path d="M136.3 73.8c.1.3 0 .6 0 .7-.3.4-.9.9-1.5.6-.3-.3-.7-.7-.6-1.2.6-.7 1.6-.9 2.1-.1zm-114.5.9c-.1.4-.3.9-.9.9s-.7-.4-1-.6c0-.6 0-1 .4-1.3.8-.4 1.5.2 1.5 1zm-5.6.1c.1.6-.3 1-.6 1.3-.7.3-1.3-.3-1.6-.9 0-.6.4-1.2 1-1.3.6 0 .9.6 1.2.9zm123.9-.1c.1.6 0 1.2-.6 1.5-.7.3-1.3-.3-1.6-.9.3-.4.3-1.2 1-1.2s.9.1 1.2.6zM18.9 75c.1.4-.1.6-.3.9-.3 0-.4.3-.9.3-.3-.3-.7-.4-.7-.9 0-.6.3-.9.7-1.2.7 0 1 .3 1.2.9zm155.7.4c-.1.4-.6.7-1 .9s-.7-.3-1.2-.4c-.3-.3-.1-.7 0-1 .6-1.1 2.2-.7 2.2.5zm4.4.2c-.1.6-.9.9-1.5 1-.6-.3-1.2-.6-.7-1.3.3-.3.3-.4.7-.6.8-.2 1.2.3 1.5.9zm-28 .4c.3.7-.4 1-.9 1.3-.4 0-.7-.3-1.2-.4-.1-.6.1-1.2.9-1.5.6 0 .9.2 1.2.6zm-16.2.7c.3.1.1.6.1.7-.3.3-.9.9-1.3.4-.4-.3-.7-.6-.6-1.2.3-.4 1.5-.4 1.8.1zm3.3.5c0 .4 0 .7-.4.9-.4.4-.9 0-1.3-.1-.1-.3-.3-.6 0-.9.1-.3.4-.4.7-.4.4 0 .8 0 1 .5zm-99.9 0c.3.3 0 .7-.1 1.2-.3.3-.9.6-1.5.3s-.6-1-.4-1.5c.3-.1.3-.6.9-.6.5.1.8.3 1.1.6zm119.2.3c.1.6-.4.9-.9.9-.7.3-1-.3-1.3-.7 0-.3.3-.6.4-.9.7-.3 1.3.2 1.8.7zm-3.3 0c.3.6-.4.9-.6 1.2-.4.1-.9.1-1.3-.3-.3-.1-.3-.6-.3-.9.3-.3.6-.6.9-.7.6-.1 1.2.2 1.3.7zm26.6.7c.1.9-.9.4-1.3.6-2.5 1.5-5.6.3-8-.6.1-.7 1-.4 1.5-.7 2.5-1.6 5.2.3 7.7.4l.1.3zm-161.1-.7l-.3.4c-2.2 1.3-5 2.2-7.6 1.3l-.3-.2c2.2-1.6 5-2.1 7.9-1.6l.3.1zm143.7.4c0 .4-.3.9-.6 1.2-.6.1-1.3 0-1.5-.6-.1-.4.3-.9.7-1.2.5-.1 1.3 0 1.4.6zm-133.2.2c-.3.4-.1.9-.7 1.2s-1.3-.3-1.5-.7c-.1-.6.3-.9.6-1.2.8-.4 1.2.2 1.6.7zm-4.3.3c.1.4-.1.6-.3.9-.3.3-.9.3-1.2.1-.4-.3-.9-.7-.6-1.5.3-.3.6-.4.9-.6.6.3 1.2.5 1.2 1.1zm141.7 1.3c0 .6-.4.9-.9 1-.4 0-.9-.3-1.2-.6-.1-.3-.1-.9.3-1.2.1-.1.6-.1.7-.3.5.2.9.7 1.1 1.1zm-146-.6c.1.4-.3.6-.3 1-.1 1-.9 1.6-1.3 2.5-1.2 1.3-2.7 1.3-4.3 1.8l-.3-.4c1.8-2.2 3.6-3.9 5.9-5l.3.1zm143 1.4c.1.7-.4.9-.9 1.2-.6 0-.9-.3-1.2-.7-.1-.6.4-.9.7-1.2.6-.2 1.2.2 1.4.7zm-136.1 0c0 .1 0 .3.1.3 0 .6-.6.9-.9 1.2-.6 0-.9-.1-1.3-.6-.3-.6 0-1.2.6-1.3.6-.2 1.2-.2 1.5.4zm146.9 1.7c.6 0 .7-.7 1.3-.9s1.2.3 1.5.6c.3.7-.3 1-.7 1.3s-1.3-.3-1.2.4c.4.3.7.7.9 1.2-.1.3-.6.1-.7 0-1.8-.7-3.6-1.9-4.3-3.7-.3-.6-1.3-.9-.7-1.5 1.6.1 3 1.6 3.9 2.6zm5.7-1.9c.3.3.1.9 0 1.2-.3.6-1.2.3-1.8.3-.3-.3-.6-.6-.4-1 .3-.3.4-.6.9-.7.5-.2.8-.1 1.3.2zm-21.4 3.3c.6.6 1 1.6 1.3 2.4-.1.1-.4.1-.6.1-1.9-1.2-4.6-2.4-5.3-4.8-.1-.3-.6-.6-.6-.9 1.5-.3 3 .9 4 1.6.5.7 1 1 1.2 1.6zM24.9 81.4c.3.6-.3.9-.6 1.2-.6.1-1-.1-1.3-.4-.4-.6.3-1.2.9-1.5.5-.1.8.4 1 .7zM167 82.7c0 .3-.4.6-.6.9-.4 0-.9.3-1.3-.1-.1-.3-.4-.7 0-1 .6-1 1.5-.4 1.9.2zm14.7.9c.1.7-.3 1.2-.9 1.5-.6.1-1-.3-1.5-.6-.3-.3 0-.7 0-1.2.4-.3.9-.6 1.5-.4.3.2.6.4.9.7zm-40.8 8.1c0 .7-1.3.6-1.8 1-1.8.9-4 .9-6.2.9v-.3c2.1-1.9 5.2-2.4 8-1.6zm-86 2.6c0 .6-.3.9-.9 1-.4 0-.9-.3-1-.6-.3-.7.3-1 .7-1.3.6 0 1.2.4 1.2.9zm84.9.6c-.1.6-.3 1.2-.9 1.3s-.9-.1-1.3-.4c-.3-.3-.1-.6-.1-.9.4-1.1 2.1-1.1 2.3 0zm11.8.3c-1.5.9-3.1 2.1-5 2.1h-3.1l-.3-.3c1.9-2.4 5.5-2.4 8.6-2.1v.3h-.2zM38.9 96.5c0 .6-.3.9-.7 1.2-.6.1-1-.1-1.2-.6-.3-.6 0-1 .4-1.3.6-.5 1.2.2 1.5.7zm2.8.6c.1.3-.1.4-.3.7-.3.1-.9.3-1.2 0-.4-.3-.6-.6-.3-1 .1-.3.6-.3.7-.6.7.3 1 .6 1.1.9zm-22.4 6.1c-.6.7-1.5-.1-2.2-.6-2.1-1.2-1.9-3.6-4-4.9.3-.7.7 0 1.2 0 .3.3.9.4 1.2.6 1.9 1.2 2.3 3.1 3.8 4.9z"/><path d="M190.9 80.2c-.9-1.8-2.5-2.4-4.5-2.4-1.5.1-2.7 1.2-3.3 2.4-.3 1.3.1 2.5 1.2 3.3.4.1.9.1 1.2-.3.3-.7-.6-.7-.6-1.3-.3-.9 0-1.5.6-2.1s1.6-.3 2.2-.3c.7.4 1.5.9 1.8 1.8.3 1 .3 2.1 0 3.1-.6 1.5-2.1 2.7-3.7 3-4.9.7-58.5.4-58.5.4-6.2.6-13.5-1.2-18.9 2.1-2.5 1.2-3.7 3.9-4.3 6.4-1.6 1.5-3.3 3.1-4.6 4.8l-.1-.1c.3-1.5.9-2.7 1.2-4.2.9-1.2.9-2.8 1.5-4.2 2.2-3.6 4.3-7.3 7.9-9.8 1.5-1.9 4-1.6 6.2-1.6 2.4 1.2 5.2 1.5 8.2 1.2.1-.1.1-.3.1-.4-.9-.7-2.2-1-3.1-1.8-2.4-1.2-4.6.3-7.1.1-.1-.1-.3-.1-.1-.3 2.2-1.6 4.8-2.8 7.3-3.9 2.1-1.2 4.3-1.8 6.4-2.5.9 0 1.8-.7 2.5-.3l3.1-.9c.1 0 .3.3.4.1 2.7-.9 5.9 0 9.1-.1l.4.3 2.8.7c1 .1 1.5 1.3 2.7 1.5.6-.9-.6-1.2-.9-1.8 1.3-.3 2.8 0 4 .6l-.6.6c-.3.6.1 1.2.7 1.3.4.1.7-.1 1-.3.7-.6 0-1 .1-1.5 4.3.7 8.6 1.8 12.5 3.6 1.2.3 2.2 1.2 3.4 1.2-1.2-1.2-3-1.8-4.5-2.4-1-.6-2.4-.6-3.1-1.5.1-.3.6-.1.7-.4 1.9-.3 3.7-1.8 5.2-3.3.1-.3.7-.3.7-.7-.6-.6-1.5.1-2.1.1-2.5.4-3.6 3.4-5.9 3.9-3-.7-6.1-1.5-9.1-2.2-1.5-.3-3.1-.3-4.5-.9l-3.3-.3h-5.9c0-.1-.3-.1-.1-.3 2.1-.6 4-1.8 6.1-2.4l15.7-7.3c1.6-1.5 3.1-3.1 4.5-4.9 0-.4-.3-.9-.6-1.2-.4-.1-.9-.1-1.2.3-.7.6 0 1.2 0 1.8-.7.9-1.8 1.8-2.7 2.4-.3 0-16.2 7.3-16.2 7.3-2.4 1-4.8 2.1-7.1 2.7l-4 .6c-.3.7-.9 1.2-1.5 1.3-.9.1-1.6.7-2.7.7-7.7 3-15.6 6.1-21.7 12.2.3-.7.6-1.6.6-2.5-.1-.9 0-1.9-.6-2.7-.1-.3-.6-1.3-.4-1.6l-.9.6c-.6 1.3-1 3.7-.4 5 .1 1 1 2.4.3 3.3-2.8 3.4-4.5 7.6-6.2 11.6-.7-.1-1-.7-1.3-1.5 1.9-2.5 3.6-5.3 4.2-8.6.4-.3.1-1 .6-1.5-.1-.9.6-1.9 0-2.7.4-1.3-1.8-2.5-.4-3.3l-1 .6c-2.5 3.3 1.3 8.3-1.6 11.6v.3c-.9 1-1.2 2.1-2.4 2.8-1.5-.6-1.9-2.2-2.8-3.4-1.3-1.2-1.3-3.9-.6-5.5.6-1.8-.3-3.3-.6-4.8l-.6-.3c-1.5 1.8-1.9 4.8-.9 7 .6 1 .6 2.5 1.5 3.4.6 1.8 1.6 2.8 2.5 4.5.3.6-.3.7-.6 1-.6-.4-.6-1.3-1.2-1.8-1.9-4.2-4.5-7.4-7.6-10.8-.1-.6-.6-1-.3-1.6 1.2-1 1.3-3.1.7-4.5-.1-.3-.4-.6-.4-.9l-.8-.8c.1 2.1-1.2 3.9-.6 6.1v.1c-6.1-4.6-12.8-8.6-19.6-11.9l-.6 1.5c1.8.4 6.2 3.3 6.2 3.3 2.1.7 4 2.1 5.9 3.1 8 4.5 13.4 11.7 16.9 20 0 .6.6 1.3.3 2.1-1.2-1.9-3-3-4.5-4.5-.4-2.8-2.1-5.5-4.5-6.5-.9-1.3-2.8-1.5-4.3-1.8l-21.4-.1c-17.1-.2-33.2.7-50.4.4-2.4-.3-5.3-1-6.1-3.6-.4-.9-.4-2.4 0-3.3.6-1.2 1.8-1.5 3-1.6.9.1 1.6 1 1.9 1.6 0 .7-.6 1.5-.9 2.1 0 .3.3.7.7.6.7-.3 1.3-1.2 1.5-1.9 0-.4.3-1-.1-1.3-.3-1.2-1.6-2.1-2.8-2.4-1.5-.1-3 .3-4 1.3-1.5 1.2-1.3 3.3-.9 5 .9 2.7 3.7 4.5 6.4 4.8l57.3.3c5.6.3 11.9-.6 17.5.4 2.1.6 4.3 2.2 4.8 4.5 0 .1-.3 0-.4 0-4.6-3-10.8-4.2-16.8-3.4-2.4-.1-4.5.7-6.5 1.3-1.2.3-2.2-.3-2.8-.9-2.1-1.9-5.8-1.8-8.6-1v.4c2.8-.3 4.6 2.2 7.1 2.5.6.1 1-.6 1.6 0-2.7 1.3-5.3 2.8-8.2 3.7-.9-.1-1.3-1-2.1-1.5-1.2-1.2-3.1-.7-4.8-.9-.6.1-1-.3-1.3 0 .4.9 1.5 1.5 2.5 1.9 1.5.6 3.1 0 4.6.9-.3.4-.9.6-1.2.9-2.8 1-5 3.6-8.2 3.4-3.3.3-6.5-.6-8.8-2.8-.9-2.4-3.4-3.6-5.9-3.4-.1.1-.4.1-.3.4 1.3.7 2.2 2.4 3.6 3.3.9 1 2.4 0 3.1 1.2 1.2.7 2.5 1.5 3.9 1.6.9.4 1.9.6 3.1.9l-.4.3c-5.3 1.8-11.6 1.9-17.5 1.8-1.8 0-3.4-.6-5.2-.6.3.3.9.6 1.5.9-.4.3-1 .4-1.6.4-.7.1-1.5.3-2.2.6-.9 0-1.8.3-2.5.6-1 1-2.2 2.2-3.4 2.7 0 .3 0 .6.3.6 1.2-.4 2.5-.1 3.7-.6 1.9-.1 3.1-2.4 4.6-3.3 1.6-1.3 4-1 5.9-.7 1.2.3-.1.7.3 1.5.4.4.9.9 1.5.7.1-.1.3-.3.4-.3.3-.4.3-1 0-1.5.9-.6 1.9 0 2.8-.3 2.2 0 4.5-.6 6.7-.6.3 0 .7-.4 1.2 0-.1.4-.7.6-.6 1.2s.7.7 1.2.9c.6-.3 1.2-.6.9-1.5-.1-.4-.6-.4-.9-.6 1.2-.6 2.7-.7 3.9-1.3.9-.1 1.8-.4 2.5-.9.7 0 1.5-.7 2.1-.4-.3 1-.7 1.9-1.2 2.8-.9 3.1-1.6 7.3 0 10.4.1 0 .3 0 .3-.1-1.2-3.1-.6-6.8.6-9.8.9-5 5.9-6.5 9.6-8.5l.1.3c-1 2.7-2.5 5-2.2 8.3.1.6-.3 1 0 1.5 1-.6 1.6-1.8 2.2-2.7.4-2.7-1.2-5.9 1.6-8 4.9-1.9 9.4-4.5 15-4.5.1.1.6-.1.6.3-1.2 1.3-2.8 2.5-3.4 4.2-1.9 2.7-1.8 7.1-1 10.2.6 1.8-1 2.8-1.8 4.3-.3.4-.4 1.3-.7 1.9l1.2.1c1-1 1.9-2.4 1.9-3.9.1.6.6 1 1.2 1.2.4-.6-.3-1.2-.4-1.8.9-.6 1.3.6 2.1.9 1.2.3 2.2.9 3.6.9l.4-.4c-1.3-2.1-3.9-2.4-6.1-2.5-1.2-1.9-1.2-4.5-1-6.8.3-1.2.4-2.5 1.2-3.7.3-.9 1.2-1.6 1.6-2.2 1-1 2.4-1.8 3.7-2.1h.1v.1c-1.6 1.2-1.8 3-2.7 4.5-1 1.5-1.5 3.6-.6 5.2.3.7.1 1.9 1 2.5.7-1 .9-2.4 1.2-3.6-.1-1.9-1.3-3.9-.3-5.6.6-1.5 1.8-2.1 3.1-2.7 3.3-.3 6.1 1.3 8.9 2.7.6.4 1.6.7 1.8 1.6 0 1.6-.9 3.3-2.2 4-1.6.9-3.9 1-5.3 0-.9-.9-1.2-2.4-.9-3.6.6-.7 1.5-1.3 2.5-.9.6.3 1.2.9 1.9.6.3-.1.4-.6.3-.9-.6-.3-.9-1.2-1.8-1.3-1.2-.1-2.5-.1-3.3.6-1.2 1-1.8 2.7-1.3 4.2.4 1.9 1.8 3.3 3.7 3.9 2.7.6 5.5-.1 7.3-2.5.7-.7.9-1.6 1.3-2.5 2.8 1.8 4.9 4.8 6.1 7.9 0 1 .3 2.1 0 3l2.1.1c-.1-.4 0-1 .1-1.5.7-3.9 3.1-7.1 6.1-9.8 1-.6.7.7 1 1.2.9 2.2 3 3.9 5.2 4.5 2.5.4 4.9-.1 6.4-2.1.7-1.5 1.8-3.6.4-5-.9-1-1.9-1.5-3.3-1.5-1.5 0-2.5 1-3.3 2.2 0 .4 0 1 .3 1.2.3 0 .7 0 .9-.3.1-.9.9-1.3 1.6-1.8.6-.3 1.3 0 1.9.3.6.6.7 1.5.9 2.4-.1 1.2-.9 2.4-1.9 2.8-1.8.9-4.2.4-5.6-.6-.7-.7-1.2-1.6-1.6-2.7-.1-.9-.4-1.8 0-2.7 2.5-1.5 5.3-2.7 8.5-3 1.2.3 2.2 1 3.1 1.9 2.7 2.8-.6 6.8 1.3 9.8.7-.1.7-1 1-1.6.9-2.1-.3-4.5-.7-6.5-.7-1.3-1.2-2.4-2.2-3.6.3-.1.4-.1.7-.1 1.2.9 2.5 1.8 3.6 3.1 1.8 2.8 2.5 6.1 2.2 9.8-.4 1.8-2.4 2.7-3.9 3.3-.6.4-1.3 1.2-1.6 1.9.7.4 1.8 0 2.4-.3 1.2-.4 1.8-1.8 2.5-2.5.1 0 0 .3.1.3 0 .6-.3 1.5.3 1.8.3-.9.3-2.1.6-3 .7.9.9 1.9 1.2 3 .6 1 1.5 2.5 2.8 2.7.3-.6 0-1-.1-1.5-.1-1.5-1.5-2.2-2.2-3.3-2.1-2.8-1.2-7.3-2.7-10.5-.6-1.8-1.8-3-3.1-4.5l.3-.3c2.8 0 5.3.9 8 1.5 3.3 1.6 8 1.2 9.5 5.5.6 2.4 1.8 4.6 3.4 6.4l.1-.1c.3-.6.3-1.6 0-2.2-.3-3-3-3.7-4.3-6.2l.1-.3c1.5.4 2.8.7 4.3 1.3 4.8 1.3 8 5.9 8.6 10.7 0 3.9-.7 7-2.2 10.1-.1.4-1 1-.4 1.5.6-.4.7-1.2 1.2-1.8 1.9-3.3 3-7.7 1.9-11.9 0-.7-.9-1.3-.6-2.1.3.3.6.4 1 .6.3-.3.9-.3 1.2-.6 0-.3.3-.7 0-1-.3-.6-1.2-.6-1.8-.4-.3.3-.6.9-.7 1.3-.6-1-1.2-2.4-2.1-3.1l.1-.1c2.7.9 5 2.2 7.7 3 .6.3 1.2.6 2.1.6 2.2.9 4.9 1.2 7.3 1.8 1.8-.1 3.3.6 5 .3v-.3c-.6-.9-2.1 0-2.8-.6-4-.4-8-1.5-11.6-3 0-.1.3-.1.4-.1.6-.3 1-.9.9-1.5-.3-.4-.7-.6-1.3-.6-.3.1-.9.6-.9 1s.4 1 .9 1.2c-.1.1-.3 0-.6 0-1.8-.9-3.6-1.6-5.3-2.4-.6-.1-1.2-.6-1.8-.7-1.3-.6-2.7-1.3-4-1.8-3.7-1.9-8-3-11.9-4.5-.9-.3-1.8-.4-2.5-.7-1.5-.4-3-.7-4.5-1.2-5-1.2-11.7-1.3-16 1.3-.7-.3-1.2.9-1.5.1 1.2-3.3 4.9-4.3 8-4.5 23.6-.3 45.7-.4 69-.7 2.7 0 5.3-.9 6.8-3.4.5-2.7.7-5.1-.1-6.7zM97.2 102c-.3.7-.7 1.3-.6 2.1l-.3.1c.1-.9-.7-1.5-.4-2.4-.4-.7-.4-1.6-.9-2.4-.6-.9.4-1.3.9-2.1.9.3 1.2 1.2 1.8 1.8.3 1.3-.5 2-.5 2.9z"/><path d="M161.1 98.3c0 .1.3.3.3.6-2.1 1.8-4.9 2.4-7.9 2.5-.3 0-.4.3-.7.1-.1-.1-.3-.3-.1-.4 2-2.4 5.3-3.6 8.4-2.8zm-9.4.9c.3.9-.3 1.3-.9 1.6-.6 0-1-.4-1.3-.9-.1-.4.3-.7.4-1 .5-.5 1.5-.5 1.8.3zm-111.9.1c.1.4 0 .9-.3 1.2-.3.4-.9.4-1.2.4-.4 0-.6-.6-.7-.9 0-.6.3-.9.7-1.2.6.1 1 .1 1.5.5zm-10.5 3.9v.4c-1.5.3-2.8 0-3.9-.9-.9-1.2-1.8-2.4-3.1-3 0-.1-.3-.4 0-.6 2.9.1 4.7 2.4 7 4.1zm140.8-3.9c-1.3 2.1-2.5 4.5-4.9 5.3-.4 0-.7.6-1.2.1.9-2.2 3-4.8 5.2-5.6.3.1.6.1.9.2zm-126.9.8c0 .6-.4.7-.9 1.2-.4 0-.7-.3-1-.6-.3-.6.3-.9.6-1.2.4-.3 1 .1 1.3.6zm134.4.3c-.6.7-.3 1.9-.9 2.7-1.2 1.3-2.2 3-4 3.3-.3-.6.4-1.2.7-1.8.9-1.8 1.9-3.9 3.9-4.6l.3.4zm-166.6.5c.1.4.3.9 0 1.3-.3.3-.9.4-1.3.3-.6-.3-.7-.9-.4-1.5s1.2-.8 1.7-.1zm-3.4.6c0 .3.3.6.1.9s-.4.6-.9.7c-.6.1-1-.3-1.3-.7 0-.6.1-1 .6-1.2.6-.3 1.2 0 1.5.3zm7 .5c.1.4.3 1.3-.4 1.5-.9.3-1.3-.3-1.8-.7 0-.6.3-.9.7-1.2.4-.2 1-.1 1.5.4zm9.6.7c0 .4 0 1-.4 1.2-.3.3-.9.1-1.2.1-.1-.3-.7-.6-.4-1 .3-.3.4-.4.9-.6.4 0 .8-.1 1.1.3zm159 .5c-.1.4-.4.9-.9.9-.6 0-1-.1-1.3-.6-.3-.6.3-1 .7-1.2.6 0 1.3.1 1.5.9zm-10.8.3c0 .4-.4.9-.7 1-.9.3-1.5-.3-1.8-.9.1-.6.6-.9 1-1 .7-.2 1.2.3 1.5.9zm7.2-.2c0 .4-.3.9-.6 1-.4.1-1 .1-1.5-.3-.6-.4-.1-.9.3-1.2.8-.2 1.7-.2 1.8.5zM9.4 104.4c.1.6-.1 1.2-.7 1.5-.6 0-1.2-.3-1.3-.9 0-.6.1-1 .6-1.2.6-.2 1.1.1 1.4.6zm160 .6c.1.6-.1 1.2-.9 1.5-.4.1-.7-.1-1.2-.4-.3-.3-.6-.9 0-1.2.6-1 1.8-.5 2.1.1zm-128.3.7c.3.6-.4.7-.6 1.2-.3.1-.7.1-.9 0-.3-.3-.6-.7-.4-1.2.3-.3.4-.4.7-.6.6-.4.8.2 1.2.6zm141.1.3c.1.4-.3.6-.3.9-.3.3-.9.3-1.3.3-.6-.3-.6-.7-.6-1.3.3-.3.4-.6.9-.6s1.1.1 1.3.7zm-3.8.3c.3.7-.4 1-.9 1.2-.3 0-.6-.1-.6.3 1.5.7 2.5 2.1 3.7 3.1v.4c-2.1 0-4.3-.6-5.8-2.2-.4-.3-1.2-.3-1.6-.7.7-.7 2.2-.4 3.3-.6.7-.9-.9-1.5.1-2.1.3 0 .6-.4 1-.3.4.1.7.4.8.9zm-24 0c.1.3-.3.6-.3.9-.3.3-.9.4-1.3.3-.3-.4-.7-.7-.6-1.3.4-.9 2-.8 2.2.1zm-131.7 2.1c-.1.6-.4.9-1 .9-.4 0-.9-.3-1-.7 0-.4.3-.6.3-.9.5-.5 1.7-.2 1.7.7zm4.8-.8c0 .9-.9 1.3-1.2 2.1-.9 1.9-2.5 3.7-4.8 3.9-.3-.6.7-1.2 1-1.8.9-2.1 2.8-3.1 4.6-4.3h.3v.1zm125.4.8c0 .6-.6 1.2-1 1.3-.6.1-.9-.3-1.2-.4-.4-.4-.1-.9 0-1.5.7-.6 1.8 0 2.2.6zm3.7.4c0 .6-.4 1.2-1 1.3-.1-.1-.4 0-.6-.1-.4-.3-.7-.6-.7-1 .3-.3.4-.7.9-.9.4 0 1.3 0 1.4.7zm-119.9 0c0 .6-.4 1-.9 1.2-.6 0-.9-.3-1.2-.7-.1-.6.4-.9.7-1.2.8-.2.9.3 1.4.7zm4 .2c-.1.6-.6.9-1.2 1-.4-.1-.9-.3-1-.7 0-.6.4-.9.9-1.2.5 0 1.1.3 1.3.9zm128.5 4.1c.3.3.9.6.7.9-.9.4-1.6-.6-2.5-.9-1.5-1.5-2.5-3-3.1-4.8.6-.6 1.2.1 1.6.3 1.4 1.4 2.6 2.9 3.3 4.5zm2.3-4.1c.1.4.1.9-.1 1.3-.3.6-1.2.4-1.6.3-.3-.3-.9-.9-.4-1.3.1-.4.7-.6 1.2-.7.1-.1.4.2.9.4zM46 110.6c0 .4.1 1.2-.4 1.5-.6.1-1.2 0-1.5-.7-.3-.7.3-.9.7-1.2.6-.2.9.1 1.2.4zm110.5 3.9c.9 1.2 1.5 2.7 1.5 4.2-.1.4.3.9 0 1.2h-.3c-2.7-1.9-3.3-4.6-4.3-7.3-.3-.1-.3-.3-.3-.6.6-.6 1 .6 1.6.7l1.8 1.8zm-102.8-2.1s0 .1 0 0c-2.2 1.8-5.6 2.8-8.3 1.2 0-.1 0-.4.3-.6 1.8-.6 3.4-1.3 5.2-1.2l2.8.6zm-13.3.3c-1.9 1.2-3.9 3.7-6.2 4.3-.4.1-.7.9-1.3.4 1-3.3 4.6-4.9 7.7-5.2v.4h-.2zm112.5 2.6c.1.4 0 1.2-.4 1.2-.3.3-.9.3-1.2 0-.6-.3-.6-.7-.6-1.2.1-.4.6-.4.9-.6.7.2 1 .2 1.3.6zm-4.9.3c-.3.9-1.3 1.3-2.1 1.5-1.9.7-3.9-.3-5.6-.7 0-.4.6-.3.9-.6 1.9-.4 4-.9 5.9-.3.3 0 .8-.2.9.1zm-107.6 1.8c-.1.3-.3.7-.7.9s-.9 0-1.2-.3c-.1-.3-.6-.6-.3-1 .1-.4.6-.6.9-.6.7 0 1.1.4 1.3 1zm3.4.5c-.1.3-.3.9-.9 1.2-.4.1-.9-.1-1.2-.4-.1-.3-.3-.7-.1-1.2.1-.3.6-.3.9-.6.6-.1 1 .5 1.3 1zm108.1.6c0 .4-.1.7-.4 1.2s-.9.4-1.3.3c-.4 0-.6-.6-.7-.9-.3-.4.3-.7.4-1.2.6-.6 1.7-.3 2 .6zm2.5-.2c0 .3.3.6.1.9-.3.3-.6 1-1.3.7-.3.1-.6-.3-.7-.4-.3-.6 0-1.5.7-1.6.6-.2.9.3 1.2.4zm-112.7 1.8c.1.6-.1 1.2-.6 1.6-.6.1-1.5.1-1.8-.6 0-.6 0-1.3.7-1.8.7-.1 1.4.1 1.7.8zm3.3-.3c-.1 1.6-.4 3.7-2.1 4.6-.9.1-1.9 1-2.8.4v-.1c1.2-1.8 3.4-3.1 4.9-4.9zm97.7 1.5c.3.3-.1.6-.3.9-.3.4-1 .3-1.5 0-.4-.1-.4-.7-.3-1.2.1-.3.4-.6.7-.6.5 0 1.1.4 1.4.9zM50.9 124c.9 1.3.3 3.3.9 4.8-1 .1-1.5-1-2.1-1.6-1.3-1.8-1.2-4.2-1.6-6.2.1-.1.3-.1.4-.1.9.6 1.5 1.8 2.2 2.5-.2.3.2.3.2.6zm94.6-2.3c0 .4-.6.6-.9.9-.4 0-.7-.3-1.2-.6-.1-.6.3-.7.6-1 .7-.3 1.3 0 1.5.7zm7.1 5.2c0 .1 0 .6-.3.4h-.3c-1.6-1.5-3.4-3.3-3.1-5.6h.3c1.5 1.4 3.3 2.8 3.4 5.2zm-4.4-1.8c0 .4-.3.9-.6 1.2-.6.1-1.6.1-1.8-.7 0-.6.6-.9.9-1.2.7-.3 1.2.1 1.5.7zm-3.9 1.2c-.9 2.2-3.1 3.3-4.6 5-.3-.1-.1-.6-.1-.9.6-2.2 2.4-4.5 4.6-5.3.8 0-.2.8.1 1.2zm4.3 1.8c0 .6-.6.7-.9 1-.4 0-.9-.1-1.3-.6 0-.6.4-.7.7-1 .8-.1 1.4.2 1.5.6zM104.8 20.5c.7 0 1.5.6 1.5 1.5 0 .7-.6 1.5-1.5 1.5H87.4c-.7 0-1.5-.6-1.5-1.5 0-.7.6-1.5 1.5-1.5h17.4zM92.5 23c1.6 0 .1-2.1-.9-2.1H90c-1.6 0-.1 2.1.9 2.1h1.6zm7.1 0c1.6 0 .1-2.1-.9-2.1h-1.6c-1.6 0-.1 2.1.9 2.1h1.6zm5.4-2.1h-.6c-1.6 0-.3 2.1.6 2.1 1.2 0 1.2-2.1 0-2.1zm-1.7 19.6l3.3 1.3 3.3-1.3-1.3 4.9 2.7-.6-.9 3 .9 2.8-2.4-.6 1 5.3-3.3-1.3-3.3 1.3 1.3-5.3-2.7.7.7-3-.6-2.7 2.5.4-1.2-4.9zm4.9 8.8c.7 0 .7-1 .7-1.9 0-2.1-1.6 0-2.4-1.9-.6 1.6-2.2.1-2.2 1.8 0 1.2 0 1.9 1.2 1.9h2.7v.1zm-3.2-1.8c0 .7 1 .3 1.8.3s1.8.4 1.8-.3c0-1-1-.7-1.8-.7s-1.8-.3-1.8.7zm-9.5.2v-.6l-.5-.2.5-.4-.3-.5h.6l.3-.6.3.6h.5l-.2.5.4.4-.6.2v.6l-.4-.3zm-2.6 3.4v-.6l-.6-.2.5-.4-.3-.6.6.1.3-.6.4.6.6-.1-.3.6.5.4-.6.2v.6l-.6-.5zm4.3-.5V50l-.4-.1.4-.5-.3-.4h.6l.3-.6.3.6h.6l-.3.4.5.5-.5.1v.6l-.6-.4zm.6 2.5v-.4h-.3l.3-.3-.3-.3h.5l.1-.3.2.3h.3l-.2.3.3.3h-.3v.4l-.3-.3zM93.7 56v-1.1l-.9-.3.7-.7-.4-.9 1 .1.6-1 .5 1 1-.1-.4.9.7.7-.9.3V56l-.9-.8zm2.1-56l2 5 5.4-1.4-2.7 4.7 4.5 3.3-5.4.9.3 5.5-4.1-3.7-4 3.7.2-5.5-5.3-.9 4.5-3.3-2.7-4.7L93.8 5zM76.9 114.3c-.6.3-.9.4-.7 1l.7 3.1c.1.6.1 1.5-.1 2.1-.4.7-1.5 1-2.1 1.3-.4.1-1.6.3-2.5 0-.6-.3-1-.6-1.2-1.6l-.7-3.3c-.1-.9-.4-.7-1.2-.7v-.3l4-.9v.3c-.7.1-1.2.3-.9 1.2l.7 3.3c.1.6.4 1.9 2.1 1.5 2.1-.4 1.8-1.9 1.6-2.7l-.7-3c-.1-.6-.3-.9-1.3-.7v-.3l2.5-.6-.2.3zm5.8.7c-.3-.6-1.3-1.6-2.7-1.3-.6.1-1.2.6-1 1.2s.4.7 1.5.9l1.9.3c.4.1 1.5.4 1.6 1.5.1.9-.3 2.2-2.5 2.7-1 .3-1.8 0-2.1.1-.3 0-.3.3-.3.4l-.3.1-.6-2.4.3-.1c.4.9 1.3 1.9 2.8 1.6 1.3-.3 1.2-1.3 1.2-1.5-.1-.6-.7-.7-1.6-.9l-.9-.1c-2.2-.3-2.4-1.2-2.5-1.6-.1-.6 0-2.1 2.2-2.5.9-.1 1.6 0 1.9-.1.3 0 .3-.1.3-.4l.3-.1.4 2.1v.1h.1zm7.7 3.9l-4.3.4v-.3c.9-.1 1.2-.1 1-1l-.4-5.3c-.9.1-2.1.3-2.1 1.9h-.3l-.1-2.1 7.1-.7.1 2.1h-.3c-.4-1.6-1.6-1.5-2.5-1.5l.4 5.3c.1.9.3.9 1.2.7l.2.5zm10.1 0H98l-2.4-3.3h-.3v1.9c0 .7.3.9 1 .9v.3h-4.2v-.3c.9 0 1-.1 1-.9l.1-4.5c0-.9-.3-.9-1-.9v-.3l3.9.1c.9 0 3.4.1 3.4 1.8 0 1.2-1.3 1.5-1.9 1.6l2.4 3c.1.1.3.1.4.1v.5h.1zm-5.2-3.6c1.6 0 2.2-.1 2.2-1.5 0-1-.4-1.5-1.5-1.5-.6 0-.7.1-.7.4v2.6z"/><path d="M108.4 119.9l-3.9-.4v-.3c.7 0 .9 0 1-.3 0-.3-.3-1-.4-1.3l-2.7-.3c-.4.7-.6 1-.7 1.2 0 .4.6.4.9.6v.3l-2.4-.3v-.3c.6 0 .9-.3 1.3-1l3.3-5.2h.3l2.1 5.6c.4 1.2.6 1.5 1.2 1.5v.2zm-3.4-2.8l-.9-2.5-1.5 2.2 2.4.3zm10.4 4.2l-6.8-1.2v-.3c.7 0 1 .1 1.2-.4l.9-4.8c.1-.6-.3-.7-.9-.9v-.3l4.2.7v.3c-.9-.1-1.2-.1-1.3.7l-.9 4.8c-.1.4.1.6.9.7 1.8.3 2.5-.4 3.4-1.3h.3l-1 2z"/><path d="M119.8 122.3l-4.2-.9v-.3c.6.1 1 .1 1.2-.4l1-4.8c.1-.6-.4-.7-.9-.9v-.3l4.2.9v.3c-.6-.1-1.2-.1-1.2.4l-1 4.8c-.1.6.3.7 1 .9l-.1.3zm8.5 1.1l-3.9-.4v-.3c.7 0 .9 0 1-.3 0-.3-.3-1-.4-1.3l-2.8-.1c-.4.7-.6 1-.6 1.2 0 .4.6.4.9.6v.3l-2.4-.3v-.3c.6 0 .9-.3 1.3-1l3.3-5.2h.3l2.1 5.5c.4 1.2.6 1.5 1.2 1.5v.1zm-3.4-2.7l-.9-2.5-1.3 2.4 2.2.1zM97.5 42.2c0-2.4-1.3-.1-2.1-2.2-.6 1.8-2.2.3-2.2 2.1 0 .7.1 1.2.6 1.3v.7c0 .1.1.3.3.3h2.5c.1 0 .3-.1.3-.3v-.7c.3-.3.6-.8.6-1.2zm-2 .4c-.7 0-1.6.4-1.6-.3 0-1.2.7-.9 1.5-.9s1.8-.3 1.8.9c-.1.8-1.1.3-1.7.3zm23.1 29.2c.6 0 1-.4 1-1s-.4-1-1-1-1 .4-1 1c-.2.6.3 1 1 1zm-5.3-35.9s-.6.9-.6 1c0 .3.3.6.6.6s.6-.3.6-.6l-.6-1zm-35.5 0s-.6.9-.6 1c0 .3.3.6.6.6s.6-.3.6-.6c-.2.1-.6-1-.6-1zm8.9 0s-.4.9-.4 1c0 .3.3.6.6.6s.6-.3.6-.6c-.4.1-.8-1-.8-1zm8.9 0s-.6.9-.6 1c0 .3.3.6.6.6s.6-.3.6-.6c-.1.1-.6-1-.6-1zm8.9 0s-.6.9-.6 1c0 .3.3.6.6.6s.6-.3.6-.6c-.1.1-.6-1-.6-1zM77.8 48.1s.4.9.4 1c0 .3-.3.6-.6.6s-.6-.3-.6-.6c.2 0 .8-1 .8-1zm0 11.9s.4.9.4 1c0 .3-.3.6-.6.6s-.6-.3-.6-.6c.2 0 .8-1 .8-1zm1.5 9.5s.6.9.6 1c0 .3-.3.6-.6.6s-.6-.3-.6-.6c0-.1.6-1 .6-1zm7.4 4.9s.6.9.6 1c0 .3-.3.6-.6.6s-.6-.3-.6-.6l.6-1zm27-26.3s-.4.9-.4 1c0 .3.3.6.6.6s.6-.3.6-.6c-.2 0-.8-1-.8-1zm0 11.9s-.4.9-.4 1c0 .3.3.6.6.6s.6-.3.6-.6c-.2 0-.8-1-.8-1zm-1.3 9.5s-.6.9-.6 1c0 .3.3.6.6.6s.6-.3.6-.6c-.2-.1-.6-1-.6-1zm-7.4 4.9s-.4.9-.4 1c0 .3.3.6.6.6s.6-.3.6-.6c-.4 0-.8-1-.8-1zm-9.2 5.3s-.4.9-.4 1c0 .3.3.6.6.6s.6-.3.6-.6c-.2.1-.8-1-.8-1zm14.5-17.6c.1.1.4.3.7.1l.3-.9s-.4-.4-.6-.4c-.9.3-1.9.3-2.5 1.2 0 .6.4 1.2.9 1.5.3-.1.4.3.6.4 0 .3-.1.4-.4.4-.7-.7-1.8.3-2.4-.6.3-.9.7-1.8 0-2.5 0-.1.3-.3.1-.4-.3-.7-1.2-.1-1.6-.1-.9-.1-1.5.3-2.1 1 0 .3.1.6.4.9.3 0 .3 0 .4.3l-.6.3c.1.1.1.4.3.6-.4.1-.7-.4-.9-.7 0-.4 0-1.2-.6-1.3-.1 0-.4.1-.4.1-.1.1-.3.6-.3.9 0 .4.1 1 .1 1s1.8 1.3 2.1 2.1c-.4 1-.4 2.4-1.6 3-.3.3-.3.6-.3.9l.3.3c.7-.4 2.1-.4 2.1-1.8.3-.4.6-1 1-1.5.6-.1 1 .1 1.3.6-.1.9-.7 1.3-1.5 1.6-.1.1 0 .3 0 .4.3.4.9.3 1.2.1.9-.6 1.3-1.8 2.2-2.1.1.6-1.2.7-.3 1.3.4-.1 1.2 0 1.5-.6-.4-.9 1.3-1.3.3-2.2 0-.9.9-1.2.9-2.1-.3-.9-1.3-.9-1.6-1.8.1-.3.7-.3 1 0zM69.5 72.3c.6 0 1-.4 1-1s-.4-1-1-1-1 .4-1 1c-.2.5.4 1 1 1zM11.7 106c.6 0 1-.4 1-1s-.4-1-1-1-1 .4-1 1c0 .4.4 1 1 1zm36.7 8.2l-.1-.1c0 .1 0 .1.1.1h-.3v-.2h.1c.2-.1.2-.1.2.2 0-.2 0-.2 0 0zm-.1-.2c.1 0 .1 0 0 0 .1 0 .1-.1 0 0 0-.1 0-.1 0 0zm.4 0c-.1 0-.1-.1 0 0-.1-.1-.1-.1 0 0-.1 0-.1 0 0 0-.1 0 0 0 0 0 0 .2-.1.2 0 0-.1.2-.1.2 0 0-.1.2-.1.2 0 0l-.1.1.1-.1c-.1 0-.1.2 0 0-.1.2-.1 0 0 0-.1 0-.1 0 0 0-.1 0-.1 0 0 0-.1 0-.1-.1 0 0-.1-.1-.1-.1 0 0-.1-.1-.1-.1 0 0zm.3-.1l-.1.1v-.1.1-.1h.1v.1-.1c-.2 0-.2 0 0 0-.2.1-.2.1 0 0 0 .1 0 .1 0 0zm0 .3s.1 0 0 0c.1-.2.1-.2 0 0 .1-.2.1-.2 0 0 0-.2 0-.2 0 0 0-.1 0-.1.1-.1 0 0 .1 0 .1.1-.1-.2-.1 0-.2 0zm.1-.2s0-.1 0 0c-.1-.1-.1 0 0 0-.1 0-.1 0 0 0z"/><path d="M49.1 114c.2 0 .2 0 0 0 .2 0 .2 0 0 0 .2.2.2.2 0 0 0 .2 0 .2 0 0 0 .2 0 0 0 0s.2.2 0 0c.2.2.2.2 0 0 .2 0 .2 0 0 0 .2 0 0 0 0 0zm67.1-79.4h-41v31.3c0 3.3 1.3 5.9 3.3 6.8l15.7 10.1c.3.4.9.6 1.5.6.4 0 .9-.1 1.3-.4l16-10.3c1.9-.9 3.3-3.7 3.3-6.8V34.6h-.1zm-1 31.8c-.1 2.4-1 4.3-2.7 5.5l-15.6 9.8c-.3.3-.7.4-1.2.4-.4 0-.9-.1-1.2-.4l-15.4-9.8c-1.6-1.2-2.4-3.1-2.7-5.5V35.6h38.7v30.8h.1z"/><path d="M101.3 80.3l.4-.3c-.2 0-.3.2-.4.3zm-30.9 42.8l-3.9.4v-.3c.7-.1.9-.1.9-.4s-.4-1-.7-1.3l-2.7.3c-.3.7-.4 1.2-.4 1.3 0 .4.6.3 1 .3v.3l-2.4.3v-.3c.6-.1.7-.4 1-1.3l2.1-5.8h.3l3.3 4.9c.6 1 .9 1.3 1.5 1.2v.4zm-4-2l-1.5-2.2-.9 2.5 2.4-.3z"/><path d="M138.4 108.4c-.7-1.8-2.2-3.1-4-3.7-1.9-.4-3.9-.1-5.2 1.3-2.1 1.8-.6 4.6-.6 6.8 0 .4 0 .9-.4 1-8.6-.7-16.5-3-24.9-3.9-1.9-.3-3.9-.3-5.8-.6l-2.4-.3c-7.4.3-14.7.6-21.7 2.4-1.5.4-3.1.6-4.6 1.2-1-.1-1.9.6-3 .3l-1.9.4h-.6c-.9-2.4 1.9-3.9 1-6.2-.7-1.3-2.2-2.7-4-2.4-1.9-.3-3.7.9-4.8 2.4-1.3 3 .3 6.1.9 8.9-.1.9.9 2.1 0 2.8-1.9-1.3-4.3-2.1-6.7-1.3-.7.3-1.9-.1-2.4.7 2.5 1.3 5.8 1.2 8.6 1 .3-.1.6-.1.9 0 .3 1.5-.3 3.6.6 5 1 1.5 2.8 1.8 4.6 1.9 5.5-.1 10.2-1.8 15.1-3 .7 0 1.3-.4 2.2-.4 2.7-.6 5.5-1 8.3-1.2-1.2 1.6-1.9 3.4-2.5 5.3-.7 1.6 1.2 1.8 1.8 2.7-1.8.6-3.1 1.8-4.9 2.5-3.7-.1-7 1.3-10.5 1.8 0 .7 1.2.6 1.3 1.3-.1.6-.7.6-1.2.9 0 .3 0 .4.3.4.3-.4 1.2-.1 1.5-.6 1.2 0 2.2-.3 3.3-.4 1-.4 2.1-.4 3-1.2 1.2-.3 1.9-1.2 3.3-1.5 1.8 0 3.4-.6 5-.7v.3c-1.3 2.2-2.8 4.5-4.2 6.5-.3.4 0 .9.4.9.9.3 1.6 0 2.2-.3 1.2-2.1 2.4-4.2 3.4-6.4.4-2.1 1.9-3.1 3.4-4.5.3-.1.6-.4.9-.1-1.2 1.3-1.9 2.7-2.8 4.2-.4 1.6-.6 3.9.9 5.2.7.6 1.8.4 2.7.4 2.2-1.2 5.2.7 7-1.5 1-.1 1.2 1 1.8 1.6 1 .3 2.1 1.3 3.1.6 0-.6-.7-1.2-1.2-1.8-.7-1.2-1.6-2.2-2.2-3.4-.3-.9-.9-1.3-.9-2.2 1 .3 1.9 1 3.1 1.2 1 .4 2.2.3 3.1.9.7 1 1.9 1.6 3 2.2 1.5.7 3.1.9 4.6 1.5.6 0 1.5.6 1.9 0-.3-.3-.6-.4-.9-.6-.1-.7 1-.3 1.5-.9-.1-.3-.4-.4-.7-.4-.9-.4-3-.6-3.6-.9-.7-.1-1.3-.4-2.1-.6-3.6 0-5.5-3.3-8.3-4.5.6-.6 1.6-1 2.1-1.9.6-.9.7-2.2.1-3.1-.6-1.8-2.8-1.6-4.3-2.7l.1-.1c2.2-.1 4.3.4 6.4.9 5.6.7 10.8 3 16.8 3 3.3 0 7.3.1 8.9-3 .3-1.8.6-3.7.9-5.5 1.5-2.5 3.6-5.4 3.3-8.6zm-63.7 27l-.9-.7c.4-.6 1.3-.3 1.9-.6 1.5-.4 3.3-1 5-.7-1.6 1.4-3.9 1.5-6 2zm36.8-.9c1.3.6 4.3 1.2 6.2 1.5-.1.7-1.6 0-1.5 1.2-1.8-.7-4-1-5.3-2.5.1-.1.3-.2.6-.2zm-55.2-25.2c.1-1 .4-2.2 1.5-3 1.5-.7 3.4-.6 4.6.1.4.3.7.6.9 1.2.3 1-.1 2.1-.9 2.7h-.6c0-.9 0-1.9.3-2.7 0-.7-.6-.7-1.2-1-1-.3-1.9.1-2.7.6-.6.7-1.2 1.6-.7 2.7.4.6 0 1.5.3 2.2l-.1.3c-.7-.9-1.7-1.8-1.4-3.1zm2.6 1.7c.9.6 2.1.3 3.1.6.1.6.1 1.5-.3 2.1-1-.3-2.2-.1-2.8-1 .2-.6-.1-1.2 0-1.7zm-.1-2c.1-.4 0-1.2.6-1.3.4-.1 1-.1 1.2.3 0 .7-.1 1.5-.3 2.1-.9 0-1.2-.4-1.5-1.1zm27.6 19.1c-.3-2.1.6-3.9 1.9-5.3.9-.1 1.8-.3 2.5.1-1.5.4-3.4.7-3.9 2.7 0 .7-.1 1.2.1 1.8.6 1.2 2.1.6 3 1.5 0 .3-.3.6-.6.7-.8-.6-2.1-.7-3-1.5zm-2.1 4c1.5-.6 2.8-1.8 4.5-1.3-1.2.9-3 1.3-4.5 1.3zm5.7.6c-.9 1.9-1.8 3.7-2.8 5.6-.1.3-.6.3-.9.4 0-.9.9-1.5 1.2-2.2 1.2-1.6 1.6-3.3 3-4.9.1.4-.5.7-.5 1.1zm1.3-3.4v.3h-.1l.1-.3c.2 0 0 0 0 0zm-.4-1.6c-1-.1-1.9-.4-2.8-.7-.6-.6 0-1.2 0-1.9.9-1.3 3.1-1.9 4.3-.7-.2 1.2-.8 2.4-1.5 3.3zm1.3 0c.1-.7.6-1.8.9-2.5 0 .8-.5 1.9-.9 2.5zm.6-4.8c-.7-.1-1.2-1-1.9-1 .7-.3 1.5-.1 2.2 0 .3.3-.3.6-.3 1zm.7 1.8v-.6.6zm0 2.7c0-.3.1-.6.1-.9.3-.3.6.3.7.4 0 .3-.3.6-.8.5zm.9-3.7c.3-.9.3-1.5.9-2.2.6 0 1.2 0 1.6.3.1 1.2 1.6 2.8 0 3.9-.6.3-1.3.7-1.9.3-.7-.9-.9-1.5-.6-2.3zm4.3-1.7c-.1-.6.6-.1.7-.3l1.8.1c-.8-.1-2 2.2-2.5.2zm3 .8c-.7.3-1.2 1-1.9 1.2.3-.6 1.2-1.2 1.9-1.2zm-2.5 3.7v.1-.1zm.1 3.7c0 .1 0 .3-.1.4l-1.3-1c.5-.3 1.1 0 1.4.6zm-1.6-1.9c.1-.1.4-.1.6 0h-.6zm-.8-.9c.3-.3.6-.9.9-.9 0 0 0 .1.1.1-.2.3-.5.6-1 .8zm-1.3-.2h-.3l.3-.3c.3.2 0 .3 0 .3zm.2 2.4c.7-.9 1.5.4 1.8 1.2.9 1.3 3.1 2.5 2.2 4.3-1.2 1-2.8 0-4.2.9-.6 0-1.8.1-2.1-.6.6-2.1 1.2-4.2 2.3-5.8zm-1.7 1l.3-.4c-.4 1.5-1.2 3-1.9 4.3-.5-1.5 1-2.5 1.6-3.9zm2.6 7.2c-1.2 0-2.8.7-3.9-.3 0-.4-.4-.7-.4-1.2.9-.3 1.8.7 2.7 0 1.3 0 2.8-.1 4.2.1.6.1 1.6-1 1.8.1-.6 2-3 .7-4.4 1.3zm3.4-8.6v-.2h.1l-.1.2zm.4 3.7c0 .6.6.9.3 1.3-.1-.2-.6-.7-.3-1.3zm1.6 3.5l-.3.1c-.3-.3-.1-.9-.1-1.2.3.4.6.7.4 1.1zm2.9 1.5c0 .1-.3.1-.4 0-1.8-2.2-2.5-4.6-3.7-7.1h.3c1.2 2.2 2.4 4.9 3.8 7.1zm2.2-5.5c-.1 0-.1.1-.1.3-1.8 0-2.8-.9-4.2-1.8v-.3c1.6 0 3 1.1 4.3 1.8zm-1.5-7.9c.7.1.7.9.9 1.5 0 1.3-.7 2.4-1.9 3-.6.3-1.6.4-2.2.3 1.5 0 3-.6 3.6-2.1l-.4-2.7zm-1.3-.2c.3.9.9 1.6.6 2.7-.6 1.2-1.8 1.2-2.8 1.3-.6 0-.9-.1-1.3-.4 0-.3 0-.4-.3-.6.1-.7-1.3-1.5-.3-2.2.8-.8 3-2.9 4.1-.8zm30-4.4c-.4.6 0 1.5-.6 2.1 0 1-.9 1.6-1.6 2.1-7 1.5-14-.9-20.6-2.1-9.5-2.1-20.5-2.7-30.1-.4-4.6.9-8.9 1.9-13.4 3.1-2.7.3-5.6.7-8.3 0-2.1-1-1.2-3.7-1.9-5.6.1-1.5-.4-2.7-.4-4.2-.1-.4-.3-1-.3-1.5.9.1 1.8.7 2.7 1 4.9.9 9.4-.6 14-1.5 4.5-.9 8.9-1.8 13.7-2.1 5.3 0 10.7-.3 15.7.6 1.6 0 3.1.4 4.6.6 3.3.4 6.4 1.3 9.6 1.5.6.1 1.2.1 1.8.3 5.3.9 11.3 2.4 16.3 0-.1 2.1-.9 4.1-1.2 6.1zm-1.7-7.2c0 .9-.9.7-1.3 1h-1.5c-.3-.4-.1-1.2-.1-1.6.8.3 2 .3 2.9.6zm-.7-1.5c.6-.6-.1-4.5 1.6-1.9 0 .4 0 1.2-.4 1.5-.3.2-.8.7-1.2.4zm4.7-.6c-.6 1-1.3 1.8-2.5 2.1 0-1.5 1.3-2.4.9-4-.7-1.2-2.2-1.5-3.7-1.2-.6.3-.3.9-.4 1.5l-.3 1.9c-1.2 0-1.2-1-1.6-1.9 0-1.2.6-2.5 1.8-3.1.9-.4 2.5-.4 3.4.1.7.1 1.6.6 1.9 1.2 1 .9.7 2.4.5 3.4z"/><path class="st0" d="M209.3 88.6H579"/><path d="M209.3 129.3v-.6h.7c.7 0 1.2-.1 1.6-.3s.6-.4.9-.9c.1-.3.1-1 .1-2.2v-15.4c0-1.2 0-1.9-.1-2.2s-.4-.6-.7-.7c-.4-.3-.9-.3-1.6-.3h-.7v-.7H220c2.8 0 5 .4 6.8 1.2 2.1.9 3.7 2.4 4.8 4.3 1 1.9 1.6 4 1.6 6.4 0 1.6-.3 3.1-.7 4.6-.6 1.3-1.2 2.5-2.1 3.4s-1.8 1.6-3 2.2c-1 .6-2.5 1-4 1.3-.7.1-1.8.1-3.4.1h-10.7v-.2zm8.9-22.1v18.4c0 1 0 1.6.1 1.8s.3.4.4.4c.3.1.7.3 1.3.3 1.9 0 3.4-.6 4.5-1.9 1.3-1.8 2.1-4.6 2.1-8.3 0-3-.4-5.5-1.5-7.3-.7-1.5-1.8-2.4-3-2.8-.5-.5-1.9-.8-3.9-.6zm30.8 13.5h-8.9c.1 2.2.7 3.9 1.8 5 .7.9 1.8 1.5 2.8 1.5.7 0 1.3-.1 1.9-.6s1.2-1 1.8-2.1l.6.4c-.9 1.8-1.9 3.1-3 3.9s-2.4 1-3.7 1.2c-2.4 0-4.3-.9-5.5-2.8-1-1.5-1.5-3.4-1.5-5.6 0-2.7.7-4.9 2.2-6.5s3.3-2.4 5.2-2.4c1.6 0 3.1.7 4.3 2.1 1.2 1.1 2 3.2 2 5.9zm-4.3-1.2c0-1.9-.1-3.1-.3-3.9s-.4-1.2-.9-1.6c-.3-.1-.6-.3-1-.3-.6 0-1 .3-1.5.9-.7 1-1 2.4-1 4.3v.6h4.7zm12 8.2v6.1c0 .9 0 1.3.1 1.6s.3.4.6.6.9.1 1.6.1v.6h-9.2v-.6c.7 0 1.2-.3 1.6-.6.3-.3.3-.9.3-2.1v-16.9c0-1.2-.1-1.9-.4-2.2s-.7-.4-1.5-.6v-.6h6.8v2.1c.6-.9 1.2-1.5 1.8-1.8.9-.6 1.8-.9 2.8-.9 1.2 0 2.2.4 3.3 1.2s1.8 1.8 2.2 3.1c.4 1.3.7 2.8.7 4.3 0 1.6-.3 3.1-.7 4.5-.6 1.3-1.3 2.4-2.2 3.1-1 .7-2.1 1-3.4 1-.9 0-1.8-.1-2.5-.6-.7-.1-1.3-.7-1.9-1.4zm0-1.8c1 1.5 2.1 2.1 3.3 2.1.6 0 1.2-.3 1.5-1 .6-1 .9-2.8.9-5.6s-.3-4.8-1-5.8c-.4-.7-1-1-1.8-1-1.2 0-2.1.9-2.8 2.5v8.8h-.1zm21.7 1c-1.9 1.8-3.7 2.7-5.3 2.7-.9 0-1.6-.3-2.4-.9-.6-.6-.9-1.3-.9-2.2 0-1.2.6-2.4 1.6-3.4s3.4-2.4 7-4v-1.6c0-1.2 0-1.9-.1-2.4-.1-.3-.4-.6-.7-.9-.4-.3-.7-.3-1.2-.3-.7 0-1.3.1-1.9.4-.3.1-.4.4-.4.7s.1.6.4.9c.4.4.6 1 .6 1.5 0 .6-.1 1-.6 1.5-.4.4-1 .6-1.6.6-.7 0-1.3-.1-1.8-.6s-.7-.9-.7-1.5c0-.9.3-1.6 1-2.4.6-.7 1.6-1.3 2.8-1.8 1.2-.4 2.4-.6 3.7-.6 1.5 0 2.8.3 3.7 1 .9.6 1.5 1.3 1.8 2.1.1.4.3 1.6.3 3.4v6.4c0 .7 0 1.2.1 1.3 0 .1.1.3.3.4s.3.1.4.1c.3 0 .6-.1.9-.6l.6.4c-.6.9-1.2 1.5-1.8 1.9s-1.3.6-2.1.6c-.9 0-1.6-.1-2.2-.6-1.1-.4-1.4-1.2-1.5-2.1zm0-1.2v-5.5c-1.3.9-2.4 1.6-3.1 2.7-.4.6-.7 1.2-.7 1.9 0 .6.1 1 .6 1.3.3.3.7.4 1.2.4.6.1 1.2-.2 2-.8zm14.5-12.6v3.7c1-1.6 2.1-2.8 2.8-3.4s1.6-.9 2.4-.9c.6 0 1.2.1 1.5.6.4.4.6.9.6 1.6s-.1 1.3-.6 1.8-.9.6-1.3.6c-.6 0-1.2-.1-1.6-.6s-.7-.6-.7-.6c-.1 0-.3-.1-.4-.1-.3 0-.6.1-.9.4-.4.4-.9.9-1 1.6-.4 1.2-.6 2.4-.6 3.7v4.7c0 .6 0 1 .1 1.3s.3.6.6.7.7.3 1.3.3v.6h-8.8v-.6c.7 0 1.2-.3 1.5-.6s.4-1.2.4-2.7v-9.1c0-.9 0-1.5-.1-1.8s-.3-.6-.4-.7-.6-.3-1.2-.3v-.3h6.5v.1zm15.6-5.9v5.9h3.9v1.8h-3.9V125c0 .9 0 1.5.1 1.8s.3.4.4.6.4.3.6.3c.7 0 1.5-.6 2.1-1.8l.6.4c-.9 2.2-2.5 3.4-4.6 3.4-1 0-1.9-.3-2.7-.9s-1.2-1.2-1.3-1.9c-.1-.4-.1-1.5-.1-3.3v-8.8h-2.1v-.6c1.5-1 2.7-2.1 3.7-3.3 1-1.2 1.9-2.4 2.7-3.9h.6v.2zm12.2 5.9v2.1c.9-1 1.8-1.6 2.5-2.1s1.6-.6 2.5-.6c1 0 1.9.3 2.7.7s1.2 1.2 1.6 2.2c.9-1 1.8-1.8 2.7-2.2s1.8-.7 2.7-.7c1.2 0 2.1.3 2.7.7.7.4 1.2 1.2 1.3 1.9.3.7.4 2.1.4 3.9v6.7c0 1.2.1 2.1.3 2.4.3.3.7.4 1.5.6v.6H333v-.6c.6 0 1.2-.3 1.5-.7.1-.3.3-1 .3-2.2v-7c0-1.5 0-2.4-.1-2.8s-.3-.7-.6-.9-.6-.3-.9-.3c-.4 0-1 .1-1.5.6-.4.3-1 .9-1.5 1.6v8.8c0 1.2.1 1.9.3 2.2.3.4.7.6 1.5.7v.6h-8.5v-.6c.4 0 .7-.1 1-.3s.4-.4.6-.7.1-.9.1-1.9v-7c0-1.5 0-2.4-.1-2.8s-.3-.6-.6-.9c-.3-.1-.6-.3-.9-.3-.4 0-.9.1-1.3.3-.6.3-1.2 1-1.8 1.8v8.8c0 1.2.1 1.9.3 2.2.3.3.7.6 1.5.6v.6H314v-.6c.7 0 1.2-.3 1.5-.6.1-.3.3-1 .3-2.2v-9.2c0-1.2-.1-1.9-.3-2.2s-.7-.4-1.3-.6v-.7h6.5v.1zm35.6 7.6h-8.9c.1 2.2.7 3.9 1.8 5 .7.9 1.8 1.5 2.8 1.5.7 0 1.3-.1 1.9-.6s1.2-1 1.8-2.1l.6.4c-.9 1.8-1.9 3.1-3 3.9-1 .7-2.4 1-3.7 1.2-2.4 0-4.3-.9-5.5-2.8-1-1.5-1.5-3.4-1.5-5.6 0-2.7.7-4.9 2.2-6.5s3.3-2.4 5.2-2.4c1.6 0 3.1.7 4.3 2.1 1.2 1.1 1.8 3.2 2 5.9zm-4.3-1.2c0-1.9-.1-3.1-.3-3.9s-.4-1.2-.9-1.6c-.3-.1-.6-.3-1-.3-.6 0-1 .3-1.5.9-.7 1-1 2.4-1 4.3v.6h4.7zm12.6-6.4v2.1c.9-.9 1.6-1.6 2.4-1.9.7-.4 1.6-.6 2.5-.6 1 0 1.9.3 2.7.9s1.2 1.3 1.3 2.2c.1.6.3 1.9.3 3.9v6.4c0 1.2.1 2.1.3 2.4.3.3.7.4 1.5.6v.6h-8.2v-.7c.6-.1 1-.3 1.3-.7.1-.3.3-1 .3-2.2v-7.3c0-1.3 0-2.2-.1-2.5s-.3-.6-.6-.7-.4-.3-.9-.3c-1 0-1.9.7-2.8 2.1v8.8c0 1.2.1 1.9.3 2.4.3.3.6.6 1.3.6v.6H358v-.8c.7 0 1.2-.3 1.5-.6.1-.3.3-1 .3-2.2V117c0-1.2-.1-1.9-.3-2.2s-.7-.4-1.3-.6v-.6h6.4v-.5zm18.4-5.9v5.9h3.9v1.8H383V125c0 .9 0 1.5.1 1.8s.3.4.4.6.4.3.6.3c.7 0 1.5-.6 2.1-1.8l.6.4c-.9 2.2-2.5 3.4-4.6 3.4-1 0-1.9-.3-2.7-.9s-1.2-1.2-1.3-1.9c-.2-.4-.2-1.5-.2-3.3v-8.8h-2v-.6c1.5-1 2.7-2.1 3.7-3.3 1-1.2 1.9-2.4 2.7-3.9h.6v.2zm20.8 5.5c1.5 0 2.7.3 4 1s2.1 1.8 2.8 3.1c.6 1.3.9 2.8.9 4.5 0 2.4-.6 4.3-1.8 5.8-1.5 1.9-3.4 2.8-5.9 2.8-2.4 0-4.3-.9-5.6-2.5-1.3-1.8-1.9-3.7-1.9-5.9 0-2.4.7-4.3 2.1-6.1 1.2-2 3.2-2.7 5.4-2.7zm.1 1.2c-.6 0-1 .3-1.5.7s-.7 1.3-.9 2.7-.1 3.1-.1 5.5c0 1.2.1 2.4.3 3.4.1.9.4 1.5.7 1.9s.9.6 1.5.6.9-.1 1.3-.4c.4-.4.7-.9.9-1.6.3-1 .3-3.3.3-6.7 0-1.9-.1-3.3-.3-4s-.6-1.3-1-1.6c-.3-.4-.7-.5-1.2-.5zm16.4.9V126c0 1 .1 1.8.3 2.1.4.4 1 .6 2.1.6v.6H413v-.6c.7 0 1.2-.1 1.5-.3s.6-.4.6-.6c.1-.3.1-.9.1-1.8v-11.3h-2.4v-1.6h2.4V111c0-1.6.6-3.1 1.8-4.2 1.2-1.2 2.8-1.6 5-1.6 1.5 0 2.5.3 3.1.7.7.6 1 1.2 1 1.8s-.1 1-.6 1.3-1 .6-1.6.6-1-.1-1.5-.4c-.3-.3-.6-.6-.6-1 0-.1 0-.3.1-.6v-.6c0-.3 0-.4-.1-.6s-.4-.3-.7-.3-.6.1-.9.4c-.1.3-.3.7-.3 1.3v5.2h2.4v1.6h-2v.2zm21 3.2v7.3c0 1.2 0 1.9.1 2.2s.4.6.7.7c.4.1.9.3 1.6.3h.7v.6h-12.3v-.6h.7c.7 0 1.2-.1 1.6-.3.3-.1.6-.4.7-.9.1-.3.1-1 .1-2.2v-15.3c0-1.2 0-1.9-.1-2.2s-.4-.6-.7-.7c-.4-.3-.9-.3-1.6-.3h-.7v-.6h12.3v.6h-.7c-.7 0-1.2.1-1.6.3-.3.1-.6.4-.7.9-.1.3-.1 1-.1 2.2v6.7h8.3v-6.8c0-1.2 0-1.9-.1-2.2s-.4-.6-.7-.7c-.4-.3-.9-.3-1.6-.3h-.7v-.7h12.3v.6h-.8c-.7 0-1.2.1-1.6.3-.3.1-.6.4-.7.9-.1.3-.1 1-.1 2.2v15.6c0 1.2 0 1.9.1 2.2s.4.6.7.7c.4.1.9.3 1.6.3h.7v.6h-12.3v-.6h.7c.7 0 1.2-.1 1.6-.3.3-.1.6-.4.7-.9.1-.3.1-1 .1-2.2v-7.3h-8.3v-.1zm31.2 2.7h-8.9c.1 2.2.7 3.9 1.8 5 .7.9 1.8 1.5 2.8 1.5.7 0 1.3-.1 1.9-.6s1.2-1 1.8-2.1l.6.4c-.9 1.8-1.9 3.1-3 3.9s-2.4 1-3.7 1.2c-2.4 0-4.3-.9-5.5-2.8-1-1.5-1.5-3.4-1.5-5.6 0-2.7.7-4.9 2.2-6.5s3.3-2.4 5.2-2.4c1.6 0 3.1.7 4.3 2.1 1.3 1.1 1.9 3.2 2 5.9zm-4.3-1.2c0-1.9-.1-3.1-.3-3.9s-.4-1.2-.9-1.6c-.3-.1-.6-.3-1-.3-.6 0-1 .3-1.5.9-.7 1-1 2.4-1 4.3v.6h4.7zm14.3 7.4c-1.9 1.8-3.7 2.7-5.3 2.7-.9 0-1.6-.3-2.4-.9-.6-.6-.9-1.3-.9-2.2 0-1.2.6-2.4 1.6-3.4s3.4-2.4 7-4v-1.6c0-1.2 0-1.9-.1-2.4-.1-.3-.4-.6-.7-.9-.4-.3-.7-.3-1.2-.3-.7 0-1.3.1-1.9.4-.3.1-.4.4-.4.7s.1.6.4.9c.4.4.6 1 .6 1.5 0 .6-.2 1-.6 1.5s-1 .6-1.6.6c-.7 0-1.3-.1-1.8-.6s-.7-.9-.7-1.5c0-.9.3-1.6 1-2.4.6-.7 1.6-1.3 2.8-1.8 1.2-.4 2.4-.6 3.7-.6 1.5 0 2.8.3 3.7 1 .9.6 1.5 1.3 1.8 2.1.1.4.3 1.6.3 3.4v6.4c0 .7 0 1.2.1 1.3 0 .1.1.3.3.4s.3.1.4.1c.3 0 .6-.1.9-.6l.6.4c-.6.9-1.2 1.5-1.8 1.9s-1.3.6-2.1.6c-.9 0-1.6-.1-2.2-.6-1.1-.4-1.4-1.2-1.5-2.1zm0-1.2v-5.5c-1.3.9-2.4 1.6-3.1 2.7-.4.6-.7 1.2-.7 1.9 0 .6.1 1 .6 1.3.3.3.7.4 1.2.4.5.1 1.2-.2 2-.8zm14.5-19.9V126c0 1.2.1 1.9.4 2.2s.7.4 1.6.6v.6h-8.8v-.6c.7 0 1.2-.3 1.6-.6.3-.3.3-1 .3-2.1V109c0-1.2-.1-1.9-.4-2.2s-.7-.4-1.5-.6v-.6h6.7v.2zm8.9 1.4v5.9h3.9v1.8h-3.9V125c0 .9 0 1.5.1 1.8s.3.4.4.6.4.3.6.3c.7 0 1.5-.6 2.1-1.8l.6.4c-.9 2.2-2.5 3.4-4.6 3.4-1 0-1.9-.3-2.7-.9s-1.2-1.2-1.3-1.9c-.1-.4-.1-1.5-.1-3.3v-8.8h-2.1v-.6c1.5-1 2.7-2.1 3.7-3.3 1-1.2 1.9-2.4 2.7-3.9h.6v.2zm11.3-1.4v9.4c.9-.9 1.8-1.6 2.5-1.9.7-.4 1.5-.6 2.4-.6 1 0 1.9.3 2.7.9s1.2 1.3 1.5 2.1.3 2.1.3 4v6.4c0 1.2.1 2.1.3 2.4.3.3.7.4 1.3.6v.6h-8.3v-.7c.6-.1 1-.3 1.3-.7.1-.3.3-1 .3-2.2v-7.3c0-1.3 0-2.2-.1-2.5s-.3-.6-.6-.7-.6-.3-.9-.3c-.4 0-.9.1-1.3.4s-.9.9-1.5 1.6v8.8c0 1.2.1 1.9.3 2.2.1.4.7.6 1.3.7v.6h-8.3v-.6c.7 0 1.2-.3 1.5-.6.1-.3.3-1 .3-2.2v-16.9c0-1.2-.1-1.9-.3-2.2s-.7-.4-1.3-.6v-.6h6.6v-.1z"/></svg>