<svg xmlns="http://www.w3.org/2000/svg" id="health_crest" viewBox="0 0 401 94.5">
<style>.st0{fill:#fff}.st1{fill:#000}</style>
	<path class="st1" d="M157.5,42h-6.2l-0.7,1.7c-0.2,0.6-0.4,1-0.4,1.4c0,0.5,0.2,0.9,0.6,1.1c0.2,0.1,0.8,0.2,1.7,0.3V47h-5.8v-0.5
		c0.6-0.1,1.1-0.4,1.5-0.8c0.4-0.4,0.9-1.3,1.5-2.6l6.3-13.9h0.2l6.3,14.3c0.6,1.4,1.1,2.2,1.5,2.6c0.3,0.3,0.7,0.4,1.2,0.5V47h-8.5
		v-0.5h0.3c0.7,0,1.2-0.1,1.4-0.3c0.2-0.1,0.3-0.3,0.3-0.6c0-0.2,0-0.3-0.1-0.5c0-0.1-0.1-0.4-0.4-1L157.5,42L157.5,42z M157,41
		l-2.6-6l-2.7,6H157L157,41z"/>
	<path d="M176,34.9v9.4c0,0.9,0.1,1.5,0.3,1.7c0.2,0.2,0.5,0.4,1,0.4V47h-4.9v-1.6c-0.6,0.7-1.2,1.2-1.7,1.5
		c-0.6,0.3-1.2,0.5-1.9,0.5c-0.7,0-1.3-0.2-1.8-0.6c-0.5-0.4-0.9-0.9-1.1-1.5c-0.2-0.6-0.3-1.5-0.3-2.9v-4.8c0-0.9-0.1-1.5-0.3-1.7
		c-0.2-0.2-0.5-0.4-1-0.4v-0.5h4.9v8.2c0,0.9,0,1.4,0.1,1.7c0.1,0.2,0.2,0.4,0.4,0.6c0.2,0.1,0.4,0.2,0.6,0.2c0.3,0,0.6-0.1,0.8-0.2
		c0.3-0.2,0.8-0.7,1.2-1.4v-6.4c0-0.9-0.1-1.5-0.3-1.7c-0.2-0.2-0.5-0.4-1-0.4v-0.5H176L176,34.9z"/>
	<path d="M185.7,34.6l0.2,4.1h-0.4c-0.5-1.2-1.1-2.1-1.6-2.5c-0.6-0.4-1.1-0.7-1.7-0.7c-0.4,0-0.7,0.1-0.9,0.4
		c-0.2,0.2-0.4,0.5-0.4,0.8c0,0.2,0.1,0.5,0.3,0.7c0.3,0.4,1,1,2.3,1.8c1.3,0.9,2.1,1.6,2.5,2.2c0.4,0.6,0.6,1.3,0.6,2
		c0,0.7-0.2,1.3-0.5,2s-0.8,1.1-1.4,1.5s-1.3,0.5-2,0.5c-0.6,0-1.3-0.2-2.3-0.5c-0.3-0.1-0.4-0.1-0.5-0.1c-0.3,0-0.5,0.2-0.7,0.6
		h-0.4l-0.2-4.3h0.4c0.4,1.1,0.9,2,1.6,2.6c0.7,0.6,1.3,0.9,1.9,0.9c0.4,0,0.7-0.1,1-0.4c0.3-0.3,0.4-0.6,0.4-0.9
		c0-0.4-0.1-0.8-0.4-1.1c-0.3-0.3-0.8-0.8-1.7-1.4c-1.3-0.9-2.2-1.6-2.6-2.1c-0.6-0.7-0.9-1.5-0.9-2.3c0-0.9,0.3-1.8,1-2.5
		c0.6-0.8,1.6-1.1,2.8-1.1c0.7,0,1.3,0.2,1.9,0.5c0.2,0.1,0.4,0.2,0.6,0.2c0.2,0,0.3,0,0.4-0.1c0.1-0.1,0.2-0.3,0.5-0.6H185.7
		L185.7,34.6z"/>
	<path d="M192.1,30.5v4.4h2.9v1.3h-2.9v7.4c0,0.7,0,1.1,0.1,1.4c0.1,0.2,0.2,0.4,0.3,0.5c0.2,0.1,0.3,0.2,0.5,0.2
		c0.6,0,1.1-0.4,1.6-1.3l0.4,0.3c-0.7,1.6-1.8,2.5-3.4,2.5c-0.8,0-1.4-0.2-1.9-0.6c-0.5-0.4-0.9-0.9-1-1.4c-0.1-0.3-0.1-1.1-0.1-2.4
		v-6.5h-1.6v-0.5c1.1-0.8,2-1.6,2.8-2.4c0.8-0.8,1.4-1.8,2-2.8H192.1L192.1,30.5z"/>
	<path d="M200.8,34.9v2.7c0.8-1.2,1.5-2.1,2.1-2.5c0.6-0.4,1.2-0.6,1.7-0.6c0.5,0,0.9,0.2,1.1,0.5c0.3,0.3,0.4,0.7,0.4,1.3
		c0,0.6-0.1,1-0.4,1.3c-0.3,0.3-0.6,0.5-1,0.5c-0.5,0-0.9-0.1-1.2-0.4c-0.3-0.3-0.5-0.5-0.6-0.5c-0.1-0.1-0.2-0.1-0.3-0.1
		c-0.3,0-0.5,0.1-0.7,0.3c-0.4,0.3-0.6,0.7-0.8,1.3c-0.3,0.8-0.4,1.8-0.4,2.8v2.8l0,0.7c0,0.5,0,0.8,0.1,0.9
		c0.1,0.2,0.3,0.4,0.5,0.5c0.2,0.1,0.5,0.2,1,0.2V47h-6.5v-0.5c0.5,0,0.9-0.2,1.1-0.4c0.2-0.2,0.3-0.9,0.3-1.9v-6.7
		c0-0.7,0-1.1-0.1-1.3c-0.1-0.2-0.2-0.4-0.4-0.5s-0.5-0.2-0.9-0.2v-0.5H200.8L200.8,34.9z"/>
	<path class="st1" d="M212.9,45.2c-1.5,1.3-2.8,1.9-4,1.9c-0.7,0-1.3-0.2-1.7-0.7c-0.5-0.5-0.7-1-0.7-1.7c0-0.9,0.4-1.7,1.2-2.5
		c0.8-0.7,2.5-1.7,5.2-2.9v-1.2c0-0.9-0.1-1.5-0.2-1.7c-0.1-0.2-0.3-0.4-0.6-0.6c-0.3-0.2-0.6-0.3-0.9-0.3c-0.6,0-1,0.1-1.4,0.4
		c-0.2,0.2-0.3,0.3-0.3,0.5c0,0.2,0.1,0.4,0.4,0.7c0.3,0.4,0.5,0.7,0.5,1.1c0,0.4-0.2,0.8-0.5,1.1c-0.3,0.3-0.7,0.4-1.2,0.4
		c-0.5,0-1-0.2-1.4-0.5c-0.4-0.3-0.5-0.7-0.5-1.1c0-0.6,0.2-1.2,0.7-1.8c0.5-0.6,1.2-1,2-1.3c0.9-0.3,1.8-0.5,2.7-0.5
		c1.1,0,2,0.2,2.7,0.7c0.7,0.5,1.1,1,1.3,1.6c0.1,0.4,0.2,1.2,0.2,2.5V44c0,0.6,0,0.9,0.1,1c0,0.1,0.1,0.2,0.2,0.3
		c0.1,0.1,0.2,0.1,0.3,0.1c0.2,0,0.5-0.2,0.7-0.5l0.4,0.3c-0.4,0.6-0.9,1.1-1.3,1.4c-0.5,0.3-1,0.4-1.6,0.4c-0.7,0-1.2-0.2-1.6-0.5
		C213.2,46.3,213,45.8,212.9,45.2L212.9,45.2z M212.9,44.3v-4c-1,0.6-1.8,1.3-2.3,2c-0.3,0.5-0.5,0.9-0.5,1.4c0,0.4,0.1,0.7,0.4,1
		c0.2,0.2,0.5,0.3,0.9,0.3C211.8,45,212.3,44.7,212.9,44.3L212.9,44.3z"/>
	<path d="M223.3,29.5v15c0,0.9,0.1,1.4,0.3,1.6c0.2,0.2,0.6,0.4,1.2,0.4V47h-6.5v-0.5c0.5,0,0.9-0.2,1.2-0.5
		c0.2-0.2,0.3-0.7,0.3-1.6V32c0-0.8-0.1-1.4-0.3-1.6c-0.2-0.2-0.6-0.4-1.1-0.4v-0.5H223.3L223.3,29.5z"/>
	<path class="st1" d="M228.9,29.1c0.6,0,1,0.2,1.4,0.6c0.4,0.4,0.6,0.9,0.6,1.4s-0.2,1-0.6,1.4c-0.4,0.4-0.9,0.6-1.4,0.6
		s-1-0.2-1.4-0.6s-0.6-0.9-0.6-1.4s0.2-1,0.6-1.4C227.8,29.3,228.3,29.1,228.9,29.1L228.9,29.1z M230.7,34.9v9.6
		c0,0.9,0.1,1.4,0.3,1.6c0.2,0.2,0.6,0.4,1.2,0.4V47h-6.5v-0.5c0.5,0,0.9-0.2,1.2-0.5c0.2-0.2,0.3-0.7,0.3-1.6v-7
		c0-0.9-0.1-1.4-0.3-1.6c-0.2-0.2-0.6-0.4-1.1-0.4v-0.5H230.7L230.7,34.9z"/>
	<path class="st1" d="M239.2,45.2c-1.5,1.3-2.8,1.9-4,1.9c-0.7,0-1.3-0.2-1.7-0.7c-0.5-0.5-0.7-1-0.7-1.7c0-0.9,0.4-1.7,1.2-2.5
		c0.8-0.7,2.5-1.7,5.2-2.9v-1.2c0-0.9-0.1-1.5-0.2-1.7c-0.1-0.2-0.3-0.4-0.6-0.6c-0.3-0.2-0.6-0.3-0.9-0.3c-0.6,0-1,0.1-1.4,0.4
		c-0.2,0.2-0.3,0.3-0.3,0.5c0,0.2,0.1,0.4,0.4,0.7c0.3,0.4,0.5,0.7,0.5,1.1c0,0.4-0.2,0.8-0.5,1.1c-0.3,0.3-0.7,0.4-1.2,0.4
		c-0.5,0-1-0.2-1.4-0.5c-0.4-0.3-0.5-0.7-0.5-1.1c0-0.6,0.2-1.2,0.7-1.8c0.5-0.6,1.2-1,2-1.3c0.9-0.3,1.8-0.5,2.7-0.5
		c1.1,0,2,0.2,2.7,0.7c0.7,0.5,1.1,1,1.3,1.6c0.1,0.4,0.2,1.2,0.2,2.5V44c0,0.6,0,0.9,0.1,1c0,0.1,0.1,0.2,0.2,0.3s0.2,0.1,0.3,0.1
		c0.2,0,0.5-0.2,0.7-0.5l0.4,0.3c-0.4,0.6-0.9,1.1-1.3,1.4c-0.5,0.3-1,0.4-1.6,0.4c-0.7,0-1.2-0.2-1.6-0.5
		C239.5,46.3,239.2,45.8,239.2,45.2L239.2,45.2z M239.2,44.3v-4c-1,0.6-1.8,1.3-2.3,2c-0.3,0.5-0.5,0.9-0.5,1.4c0,0.4,0.1,0.7,0.4,1
		c0.2,0.2,0.5,0.3,0.9,0.3C238.1,45,238.6,44.7,239.2,44.3L239.2,44.3z"/>
	<path d="M249.6,34.9v1.6c0.6-0.7,1.2-1.2,1.8-1.5c0.6-0.3,1.2-0.5,1.8-0.5c0.8,0,1.4,0.2,1.9,0.7c0.5,0.4,0.9,1,1,1.6
		c0.1,0.5,0.2,1.4,0.2,2.8v4.7c0,0.9,0.1,1.5,0.2,1.7c0.2,0.2,0.5,0.4,1.1,0.4V47h-6.1v-0.5c0.5-0.1,0.8-0.2,1-0.6
		c0.1-0.2,0.2-0.7,0.2-1.6V39c0-1,0-1.6-0.1-1.9c-0.1-0.3-0.2-0.5-0.4-0.6c-0.2-0.1-0.4-0.2-0.6-0.2c-0.7,0-1.4,0.5-2.1,1.6v6.5
		c0,0.9,0.1,1.5,0.2,1.7c0.2,0.2,0.5,0.4,0.9,0.5V47h-6.1v-0.5c0.5-0.1,0.9-0.2,1.1-0.5c0.1-0.2,0.2-0.7,0.2-1.7v-6.8
		c0-0.9-0.1-1.5-0.3-1.7c-0.2-0.2-0.5-0.4-1-0.4v-0.5H249.6L249.6,34.9z"/>
	<path d="M281.4,29.1v6.2h-0.5c-0.6-1.7-1.4-3-2.6-3.8c-1.2-0.9-2.4-1.3-3.8-1.3c-1.3,0-2.4,0.4-3.3,1.1c-0.9,0.7-1.5,1.8-1.8,3.1
		c-0.4,1.3-0.5,2.7-0.5,4c0,1.7,0.2,3.1,0.6,4.4c0.4,1.3,1,2.2,1.9,2.8c0.9,0.6,1.9,0.9,3.1,0.9c0.4,0,0.9,0,1.3-0.1
		c0.4-0.1,0.9-0.2,1.4-0.4v-3.6c0-0.7,0-1.1-0.1-1.3c-0.1-0.2-0.3-0.4-0.6-0.6c-0.3-0.2-0.6-0.2-1.1-0.2H275v-0.5h8.5v0.5
		c-0.6,0-1.1,0.1-1.4,0.3c-0.3,0.1-0.4,0.3-0.6,0.7c-0.1,0.2-0.1,0.6-0.1,1.2v3.6c-1.1,0.5-2.3,0.9-3.5,1.1
		c-1.2,0.3-2.5,0.4-3.8,0.4c-1.7,0-3-0.2-4.1-0.7c-1.1-0.5-2.1-1-2.9-1.8c-0.8-0.7-1.5-1.6-2-2.5c-0.6-1.2-0.9-2.5-0.9-4
		c0-2.6,0.9-4.9,2.8-6.7c1.8-1.8,4.2-2.7,7-2.7c0.9,0,1.6,0.1,2.3,0.2c0.4,0.1,1,0.3,1.8,0.6c0.9,0.3,1.4,0.5,1.5,0.5
		c0.2,0,0.5-0.1,0.7-0.3c0.2-0.2,0.4-0.5,0.6-1H281.4L281.4,29.1z"/>
	<path class="st1" d="M289.8,34.6c1,0,2,0.3,2.9,0.8s1.6,1.3,2,2.3c0.5,1,0.7,2.1,0.7,3.3c0,1.7-0.4,3.1-1.3,4.3
		c-1,1.4-2.5,2.1-4.3,2.1c-1.8,0-3.2-0.6-4.2-1.9s-1.5-2.7-1.5-4.4c0-1.7,0.5-3.2,1.5-4.5C286.7,35.2,288,34.6,289.8,34.6
		L289.8,34.6z M289.8,35.5c-0.4,0-0.8,0.2-1.1,0.5c-0.3,0.3-0.5,1-0.6,2c-0.1,1-0.1,2.3-0.1,4.1c0,0.9,0.1,1.8,0.2,2.6
		c0.1,0.6,0.3,1.1,0.6,1.4s0.7,0.5,1.1,0.5c0.4,0,0.7-0.1,1-0.3c0.3-0.3,0.6-0.7,0.7-1.2c0.2-0.8,0.3-2.5,0.3-4.9
		c0-1.5-0.1-2.5-0.2-3c-0.2-0.5-0.4-0.9-0.7-1.2C290.5,35.6,290.2,35.5,289.8,35.5L289.8,35.5z"/>
	<path d="M301.1,47.3l-4.1-9.3c-0.5-1.1-0.9-1.8-1.1-2.1c-0.2-0.2-0.5-0.4-0.9-0.5v-0.5h6.4v0.5c-0.4,0-0.7,0.1-0.8,0.2
		c-0.2,0.2-0.3,0.4-0.3,0.7c0,0.3,0.2,0.9,0.6,1.8l2,4.5l1.6-3.9c0.5-1.1,0.7-1.9,0.7-2.4c0-0.3-0.1-0.5-0.3-0.6
		c-0.2-0.2-0.5-0.3-1-0.3v-0.5h3.9v0.5c-0.4,0.1-0.7,0.2-0.9,0.4c-0.2,0.2-0.6,0.9-1.1,2l-4,9.5H301.1L301.1,47.3z"/>
	<path class="st1" d="M317.3,40.5h-6.6c0.1,1.6,0.5,2.9,1.3,3.8c0.6,0.7,1.3,1.1,2.1,1.1c0.5,0,1-0.1,1.4-0.4
		c0.4-0.3,0.9-0.8,1.4-1.6l0.4,0.3c-0.7,1.3-1.4,2.3-2.2,2.8c-0.8,0.5-1.7,0.8-2.7,0.8c-1.8,0-3.1-0.7-4.1-2.1
		c-0.7-1.1-1.1-2.5-1.1-4.1c0-2,0.5-3.6,1.6-4.8c1.1-1.2,2.4-1.8,3.8-1.8c1.2,0,2.3,0.5,3.2,1.5C316.7,37.1,317.2,38.5,317.3,40.5
		L317.3,40.5z M314.1,39.7c0-1.4-0.1-2.3-0.2-2.8c-0.1-0.5-0.4-0.9-0.7-1.2c-0.2-0.2-0.4-0.2-0.7-0.2c-0.4,0-0.8,0.2-1.1,0.7
		c-0.5,0.8-0.8,1.8-0.8,3.1v0.5H314.1L314.1,39.7z"/>
	<path d="M323,34.9v2.7c0.8-1.2,1.5-2.1,2.1-2.5c0.6-0.4,1.2-0.6,1.7-0.6c0.5,0,0.9,0.2,1.1,0.5c0.3,0.3,0.4,0.7,0.4,1.3
		c0,0.6-0.1,1-0.4,1.3c-0.3,0.3-0.6,0.5-1,0.5c-0.5,0-0.9-0.1-1.2-0.4c-0.3-0.3-0.5-0.5-0.6-0.5c-0.1-0.1-0.2-0.1-0.3-0.1
		c-0.2,0-0.5,0.1-0.7,0.3c-0.4,0.3-0.6,0.7-0.8,1.3c-0.3,0.8-0.4,1.8-0.4,2.8v2.8l0,0.7c0,0.5,0,0.8,0.1,0.9
		c0.1,0.2,0.3,0.4,0.5,0.5c0.2,0.1,0.5,0.2,1,0.2V47h-6.5v-0.5c0.5,0,0.9-0.2,1.1-0.4c0.2-0.2,0.3-0.9,0.3-1.9v-6.7
		c0-0.7,0-1.1-0.1-1.3c-0.1-0.2-0.2-0.4-0.4-0.5c-0.2-0.1-0.5-0.2-0.9-0.2v-0.5H323L323,34.9z"/>
	<path d="M334.1,34.9v1.6c0.6-0.7,1.2-1.2,1.8-1.5c0.6-0.3,1.2-0.5,1.8-0.5c0.8,0,1.4,0.2,1.9,0.7c0.5,0.4,0.9,1,1,1.6
		c0.1,0.5,0.2,1.4,0.2,2.8v4.7c0,0.9,0.1,1.5,0.2,1.7c0.2,0.2,0.5,0.4,1.1,0.4V47h-6.1v-0.5c0.5-0.1,0.8-0.2,1-0.6
		c0.1-0.2,0.2-0.7,0.2-1.6V39c0-1,0-1.6-0.1-1.9s-0.2-0.5-0.4-0.6c-0.2-0.1-0.4-0.2-0.6-0.2c-0.7,0-1.4,0.5-2.1,1.6v6.5
		c0,0.9,0.1,1.5,0.2,1.7c0.2,0.2,0.5,0.4,0.9,0.5V47h-6.1v-0.5c0.5-0.1,0.9-0.2,1.1-0.5c0.1-0.2,0.2-0.7,0.2-1.7v-6.8
		c0-0.9-0.1-1.5-0.3-1.7c-0.2-0.2-0.5-0.4-1-0.4v-0.5H334.1L334.1,34.9z"/>
	<path d="M348.1,34.9v1.6c0.7-0.7,1.3-1.2,1.8-1.5c0.6-0.3,1.2-0.4,1.9-0.4c0.8,0,1.4,0.2,1.9,0.5s0.9,0.9,1.2,1.7
		c0.7-0.8,1.3-1.3,2-1.7c0.6-0.3,1.3-0.5,2-0.5c0.8,0,1.5,0.2,2,0.6c0.5,0.4,0.8,0.9,1,1.5c0.2,0.6,0.3,1.5,0.3,2.8v4.9
		c0,0.9,0.1,1.5,0.2,1.7c0.2,0.2,0.5,0.4,1.1,0.4V47h-6.2v-0.5c0.5,0,0.9-0.2,1.1-0.6c0.2-0.2,0.2-0.8,0.2-1.6v-5.2
		c0-1.1,0-1.8-0.1-2c-0.1-0.3-0.2-0.5-0.4-0.6c-0.2-0.1-0.4-0.2-0.6-0.2c-0.4,0-0.7,0.1-1.1,0.4c-0.4,0.3-0.8,0.7-1.1,1.2v6.5
		c0,0.9,0.1,1.4,0.2,1.6c0.2,0.3,0.6,0.5,1.1,0.5V47h-6.2v-0.5c0.3,0,0.6-0.1,0.8-0.2c0.2-0.2,0.3-0.3,0.4-0.5
		c0.1-0.2,0.1-0.7,0.1-1.4v-5.2c0-1.1,0-1.8-0.1-2s-0.2-0.5-0.4-0.6c-0.2-0.2-0.4-0.2-0.6-0.2c-0.3,0-0.7,0.1-0.9,0.3
		c-0.4,0.3-0.8,0.7-1.3,1.4v6.5c0,0.9,0.1,1.4,0.2,1.7c0.2,0.3,0.5,0.4,1.1,0.5V47h-6.2v-0.5c0.5-0.1,0.9-0.2,1.1-0.5
		c0.1-0.2,0.2-0.7,0.2-1.7v-6.8c0-0.9-0.1-1.5-0.3-1.7c-0.2-0.2-0.5-0.4-1-0.4v-0.5H348.1L348.1,34.9z"/>
	<path class="st1" d="M374.2,40.5h-6.6c0.1,1.6,0.5,2.9,1.3,3.8c0.6,0.7,1.3,1.1,2.1,1.1c0.5,0,1-0.1,1.4-0.4
		c0.4-0.3,0.9-0.8,1.4-1.6l0.4,0.3c-0.7,1.3-1.4,2.3-2.2,2.8c-0.8,0.5-1.7,0.8-2.7,0.8c-1.8,0-3.1-0.7-4.1-2.1
		c-0.7-1.1-1.1-2.5-1.1-4.1c0-2,0.5-3.6,1.6-4.8c1.1-1.2,2.4-1.8,3.8-1.8c1.2,0,2.3,0.5,3.2,1.5C373.7,37.1,374.1,38.5,374.2,40.5
		L374.2,40.5z M371,39.7c0-1.4-0.1-2.3-0.2-2.8c-0.1-0.5-0.4-0.9-0.7-1.2c-0.2-0.2-0.4-0.2-0.7-0.2c-0.4,0-0.8,0.2-1.1,0.7
		c-0.5,0.8-0.8,1.8-0.8,3.1v0.5H371L371,39.7z"/>
	<path d="M379.6,34.9v1.6c0.6-0.7,1.2-1.2,1.8-1.5c0.6-0.3,1.2-0.5,1.8-0.5c0.8,0,1.4,0.2,1.9,0.7c0.5,0.4,0.9,1,1,1.6
		c0.1,0.5,0.2,1.4,0.2,2.8v4.7c0,0.9,0.1,1.5,0.2,1.7c0.2,0.2,0.5,0.4,1.1,0.4V47h-6.1v-0.5c0.5-0.1,0.8-0.2,1-0.6
		c0.1-0.2,0.2-0.7,0.2-1.6V39c0-1,0-1.6-0.1-1.9c-0.1-0.3-0.2-0.5-0.4-0.6c-0.2-0.1-0.4-0.2-0.6-0.2c-0.7,0-1.4,0.5-2.1,1.6v6.5
		c0,0.9,0.1,1.5,0.2,1.7c0.2,0.2,0.5,0.4,0.9,0.5V47h-6.1v-0.5c0.5-0.1,0.9-0.2,1.1-0.5c0.1-0.2,0.2-0.7,0.2-1.7v-6.8
		c0-0.9-0.1-1.5-0.3-1.7c-0.2-0.2-0.5-0.4-1-0.4v-0.5H379.6L379.6,34.9z"/>
	<path d="M392.8,30.5v4.4h2.9v1.3h-2.9v7.4c0,0.7,0,1.1,0.1,1.4c0.1,0.2,0.2,0.4,0.3,0.5c0.2,0.1,0.3,0.2,0.5,0.2
		c0.6,0,1.1-0.4,1.6-1.3l0.4,0.3c-0.7,1.6-1.8,2.5-3.4,2.5c-0.8,0-1.4-0.2-1.9-0.6c-0.5-0.4-0.9-0.9-1-1.4c-0.1-0.3-0.1-1.1-0.1-2.4
		v-6.5h-1.6v-0.5c1.1-0.8,2-1.6,2.8-2.4c0.8-0.8,1.4-1.8,2-2.8H392.8L392.8,30.5z"/>
	<path d="M49.3,75.7c-0.1,0.1-0.2,0.3-0.3,0.3"/>
	<path d="M52.3,52.1c0.3,0,0.6-0.3,0.6-0.6s-0.3-0.6-0.6-0.6s-0.6,0.3-0.6,0.6S52,52.1,52.3,52.1L52.3,52.1z"/>
	<path d="M81.6,25.5L81.6,25.5l-22.7,0v0h0l0,18.4c0,1.8,0.8,3.3,1.8,3.8l8.7,5.2c0.2,0.2,0.5,0.4,0.8,0.4c0.3,0,0.5-0.1,0.7-0.3
		l8.9-5.3c1-0.5,1.8-2,1.8-3.8L81.6,25.5L81.6,25.5L81.6,25.5z M66.4,30.8h-2v-4.7h2V30.8L66.4,30.8z M65,32.4l0.3-0.3l-0.2-0.3
		l0.4,0l0.2-0.4l0.2,0.4l0.4,0l-0.2,0.3l0.3,0.3L66,32.5v0.4l-0.3-0.3l-0.3,0.3v-0.4L65,32.4L65,32.4z M59.5,38.3v-4.5h2.4v4.5H59.5
		L59.5,38.3z M59.9,31.8l0.4,0l0.2-0.4l0.2,0.4l0.4,0l-0.2,0.3l0.3,0.3l-0.4,0.1v0.4l-0.3-0.3l-0.3,0.3v-0.4l-0.4-0.1l0.3-0.3
		L59.9,31.8L59.9,31.8z M62.6,36.4l0.4,0l0.2-0.4l0.2,0.4l0.4,0l-0.2,0.3l0.3,0.3L63.5,37v0.4l-0.3-0.3l-0.3,0.3V37L62.5,37l0.3-0.3
		L62.6,36.4L62.6,36.4z M64.2,32.8c0-0.1-0.2-0.2-0.2-0.2c-0.2,0-0.3,0.4-0.5,0.4c-0.1,0-0.2,0-0.2-0.1c0-0.1,0.3-0.2,0.4-0.3
		c-1.5,0-1.5,0.7-1.7,0.7c-0.4,0,0.3-0.7,0.5-0.9c-0.3,0-0.5-0.4-0.8-0.6c0.2-0.2,0.2-0.1,0.4,0c0-0.2,0.1-0.3,0.5-0.3
		c0.7,0,0.5,0.6,0.6,0.6s0-0.6,0.4-0.6c0.7,0,1.5,1.7,0.7,1.7C63.9,33.1,64.2,32.8,64.2,32.8L64.2,32.8z M62.5,27.9l0.3-0.3
		l-0.2-0.3l0.4,0l0.2-0.4l0.2,0.4l0.4,0l-0.2,0.3l0.3,0.3l-0.4,0.1v0.4l-0.3-0.3l-0.3,0.3v-0.4L62.5,27.9L62.5,27.9z M61.9,26.1v4.7
		h-2.4v-4.7H61.9L61.9,26.1z M66.4,50.4L61,47.1c-0.9-0.6-1.4-1.7-1.5-3v-5.2h6.9V50.4L66.4,50.4z M64.4,38.3v-4.5h2v4.5H64.4
		L64.4,38.3z M73.4,50.7l-2.5,1.5h0c-0.2,0.1-0.4,0.2-0.7,0.2c-0.3,0-0.5-0.1-0.7-0.2L67,50.7V38.9h6.4V50.7L73.4,50.7z M73.4,38.3
		H67V26.1h6.4V38.3L73.4,38.3z M81,44.1c-0.1,1.3-0.6,2.4-1.5,3L74,50.4V38.9H81V44.1L81,44.1z M81,38.3H74V26.1H81V38.3L81,38.3z"
		/>
	<path d="M66,43.1c0-0.1-0.9,0.3-0.6,0.3c0-0.2,0.5-0.7,0.7-0.9c0-0.3-0.4,0-0.8,0.2c1.3-1.9,0.5-1.1-0.3-1c1.2-1.2,0.9-1.2,0-0.8
		c0.7-0.5,0.8-1.2,0.7-1.3c-0.6,0.8-1.2,0.7-1.2,1.5c0,0.5-0.2,1.4-0.4,1.6c-0.3,0.4-0.1-1.4-1-1.4c-0.3,0-1,0-1.2,0.3
		c0.2,0,0.5,0.5,0.5,0.6c0,0.2,0.2,0.7-0.1,0.7s-0.7-0.6-0.7-0.9c0-0.3,0-0.2,0-0.7c0-0.7-1.2-1.8-1.7-1.8c0,0.5,0.7,0.6,0.7,1.3
		c-0.3,0-0.7-0.5-0.7-0.2c0,0.3,0.4,0.4,0.4,0.7s-0.5-0.1-0.5,0.2c0,0.3,0.3,0.2,0.3,0.5c-0.2-0.1-0.4,0-0.4,0.1
		c0,0.1,0.1,0.2,0.2,0.3c-0.1,0.1-0.1,0.2-0.1,0.6c0,1.5,0.9,2.1,1.6,2.1c0.5,0,0.4-0.3,0.5-0.5c0,0.2,0.3-0.1,0.3,0.3
		c0,0.4-0.5,0.3-0.5,0.6c0,0.5,0.7,0,0.7,0.6c0,0.7-0.1,0.7-0.1,0.9c0,0.2,0.8-0.3,0.7-0.3c0.2,0.1,0.2,0.6,0.5,0.6
		c0.2,0,0.3-0.6,0.4-0.6c-0.1,0,0.7,0.5,0.7,0.3c0-0.7-0.3-0.4-0.3-0.9c0-0.4,0.9-0.3,0.8-0.6c-0.1-0.2-0.2-0.1-0.3-0.4
		c0,0.1-0.7-1.1,0.2-0.5C66,45.3,66.1,43.2,66,43.1L66,43.1z"/>
	<path d="M90.3,47.9c0.4,0,0.7-0.3,0.7-0.7c0-0.4-0.3-0.7-0.7-0.7c-0.4,0-0.7,0.3-0.7,0.7C89.6,47.6,89.9,47.9,90.3,47.9L90.3,47.9z
		"/>
	<path d="M87.3,49.7c0.4,0,0.7-0.3,0.7-0.7s-0.3-0.7-0.7-0.7c-0.4,0-0.7,0.3-0.7,0.7S86.9,49.7,87.3,49.7L87.3,49.7z"/>
	<path d="M51.3,53.9c0.4,0,0.7-0.3,0.7-0.7c0-0.4-0.3-0.7-0.7-0.7c-0.4,0-0.7,0.3-0.7,0.7C50.6,53.6,50.9,53.9,51.3,53.9L51.3,53.9z
		"/>
	<path d="M53.7,54.1c0.4,0,0.7-0.3,0.7-0.7c0-0.4-0.3-0.7-0.7-0.7s-0.7,0.3-0.7,0.7C52.9,53.8,53.2,54.1,53.7,54.1L53.7,54.1z"/>
	<path d="M118.4,22.7c1.1,1.3,1.3,3.4,0.6,5c-0.4,0-0.4-0.6-0.4-0.9c-0.8-1.5-1.4-3.4-0.7-5C118.3,21.8,118.1,22.4,118.4,22.7
		L118.4,22.7z"/>
	<path d="M23.4,24.5c-0.2,1-0.2,2.3,0,3.2c-0.2,0.2-0.2-0.2-0.4-0.2c-1.5-1.1-0.8-3.3-1.2-4.9c0.1-0.1,0.3-0.2,0.4-0.1
		C22.9,23,23.3,23.7,23.4,24.5L23.4,24.5z"/>
	<path d="M121.8,24.6c0.2,0.4-0.2,0.9-0.5,1.1c-0.4,0.1-0.8-0.1-1-0.4c-0.1-0.4,0.1-0.8,0.5-1C121.2,24.2,121.5,24.3,121.8,24.6
		L121.8,24.6z"/>
	<path d="M21,26.4c-0.1,0.4-0.2,0.7-0.5,0.9c-0.2,0-0.6,0-0.8-0.2c-0.2-0.2-0.3-0.6-0.2-0.8c0.2-0.3,0.5-0.3,0.8-0.4
		C20.6,26,20.9,26.1,21,26.4L21,26.4z"/>
	<path d="M123.3,27c0.1,0.2,0.1,0.4,0,0.6c-0.3,0.4-0.7,0.5-1.1,0.4c-0.3-0.2-0.4-0.4-0.4-0.7c0.1-0.3,0.4-0.6,0.7-0.7
		C122.9,26.6,123.1,26.8,123.3,27L123.3,27z"/>
	<path d="M121.1,27.1c0.3,0.2,0.1,0.6,0,0.8c-0.2,0.2-0.5,0.5-0.8,0.4c-0.2-0.2-0.4-0.2-0.5-0.5c0-0.4,0.2-0.8,0.6-0.9
		C120.6,26.8,120.8,27,121.1,27.1L121.1,27.1z"/>
	<path d="M118.2,27.7c0,0.4,0,1-0.5,1.1c-0.5,0.2-0.8-0.2-0.9-0.6c0-0.4,0.2-0.8,0.6-1C117.7,27.2,118,27.4,118.2,27.7L118.2,27.7z"
		/>
	<path d="M25.3,27.9c0.1,0.4-0.3,0.6-0.5,0.8c-0.3,0.1-0.6-0.2-0.8-0.4c-0.3-0.3,0.1-0.5,0.2-0.8C24.6,27.2,25.2,27.4,25.3,27.9
		L25.3,27.9z"/>
	<path d="M22.9,28c0,0.3-0.2,0.6-0.4,0.8c-0.3,0.1-0.6-0.1-0.8-0.4c-0.2-0.4,0-0.8,0.4-0.9C22.5,27.3,22.8,27.7,22.9,28L22.9,28z"/>
	<path d="M108.6,28.2c0.4,0.8,0.7,1.8,0.8,2.9c-0.2,0.8,0.1,1.8-0.4,2.3c-0.6-0.2-0.6-0.9-1-1.2c-0.7-1.4-0.1-3,0.2-4.4
		C108.5,27.6,108.5,28,108.6,28.2L108.6,28.2z"/>
	<path d="M21.1,28.6c0.1,0.5-0.2,0.7-0.5,1c-0.5,0.1-0.8-0.2-1-0.6c0-0.4,0.2-0.8,0.5-1C20.5,28.1,20.9,28.3,21.1,28.6L21.1,28.6z"
		/>
	<path d="M114.8,29.8c0.5,1.2,0.6,2.6,0.2,3.8l-0.2,0.2c-0.6-1.1-1.3-2.1-1.6-3.2c0-0.8,0.2-1.6,0.5-2.3c0.3-0.2,0.4,0,0.6,0.3
		C114.2,29,114.4,29.6,114.8,29.8L114.8,29.8z"/>
	<path d="M119.8,29.1c0,0.4-0.2,0.8-0.6,1c-0.4,0.1-0.8,0-0.9-0.5c-0.1-0.4,0.1-0.8,0.4-1C119.2,28.4,119.6,28.8,119.8,29.1
		L119.8,29.1z"/>
	<path d="M23,30.3c0,0.3-0.3,0.7-0.6,0.8c-0.3,0.2-0.6-0.2-0.8-0.3c-0.1-0.3-0.2-0.6,0-0.9c0.1-0.2,0.4-0.2,0.6-0.3
		C22.5,29.8,22.9,29.9,23,30.3L23,30.3z"/>
	<path d="M24.7,30.1c0.2,0.4-0.3,0.6-0.4,0.8c-0.5,0.2-0.7-0.2-0.9-0.5c-0.1-0.4,0.2-0.6,0.4-0.9C24.3,29.4,24.5,29.8,24.7,30.1
		L24.7,30.1z"/>
	<path d="M121,30c0,0.5-0.8,1-0.9,1.6c-0.4,1.1-1.4,1.9-2.5,2.2c-0.2,0.2-0.6,0.5-0.9,0.5c-0.1-0.8,0.6-1.5,1.1-2.2
		C118.6,31,119.7,30.3,121,30L121,30z"/>
	<path d="M22.2,31.7c0.6,0.7,0.9,1.3,1.6,1.9c0,0.2-0.1,0.4-0.3,0.4c-1.9-0.1-3.3-2.1-4.2-3.5c0.1-0.4,0.6-0.1,0.9-0.1
		C20.9,30.8,21.7,31,22.2,31.7L22.2,31.7z"/>
	<path d="M121.5,32.2c-0.1,1.7-0.9,3.5-2.5,4.3c-0.4,0.2-0.9,0.6-1.3,0.3c0.8-1.7,2.1-3.1,3.5-4.6H121.5L121.5,32.2z"/>
	<path d="M113.9,33.4c0.1,0.6-0.2,1-0.7,1.2c-0.4,0-0.7-0.3-0.9-0.6c0-0.4,0.2-0.8,0.6-0.9c0.1-0.1,0.3-0.1,0.5-0.1
		C113.6,33,113.7,33.2,113.9,33.4L113.9,33.4z"/>
	<path d="M20,33.8c0.8,0.5,1.4,1.2,2.1,1.9c-0.5,0.4-1.1,0-1.7,0c-1.3-0.5-2.3-1.6-3.6-2c0-0.4,0.6-0.3,0.8-0.4
		C18.5,33.2,19.2,33.6,20,33.8L20,33.8z"/>
	<path d="M62.5,21.9c-2.2-0.9-3.7,1.4-6,1.2c-0.3,0.2-0.2,0.4-0.4,0.6c-0.1,0.1-0.3,0-0.4,0c-0.1-1-0.4-1.8-0.6-2.8
		c-0.2-0.4-0.1-1-0.3-1.4c-1.3-3.5,3.1-0.8,4-2.9c0.8-1.8-1.5-2-2.1-3.2V13c-0.6-0.6-1.3-0.8-1.7-1.7c0.3-1,0.4-2.1,0.1-3.1
		c0-0.2-0.2-0.6-0.6-0.4c-0.8,1-1.3,1.9-2,2.9c-0.8-0.6-1.5-1.3-2.3-1.8c-0.6-0.1-1.2-0.7-1.8-0.4c-0.1,0.2,0,0.4,0.1,0.6
		c0,1.6,0.8,2.8,1.9,3.9l0.1,0.6c-0.7,1.6-0.5,3.5-0.7,5.3c-1.8,4.6-4.7,8.9-8.6,12.1c-2.3,2.6-5,5-5.3,8.5
		c-0.1,0.6,0.1,1.2-0.4,1.6c-1.3-0.5-2.6-1.1-3.7-2c-1.8-1.3-4.4-1.1-5.6-3.4c-0.5-0.9,0.1-1.8,0.6-2.5c1.3-1.3,1.2-3.6,0.4-5.1
		c-0.2,0-0.2,0.2-0.3,0.2c-0.1,2.4-2,4-1.3,6.6c0.2,0.8,0.6,1.2,0.8,2c-0.3-0.1-0.7-0.1-0.9-0.2c-0.9-0.1-1.7-0.5-2.7-0.4
		c-1.8,0.8-4.3-0.2-5.8,1.5c-0.2,0-0.6,0.1-0.5,0.4c0.9,0,1.7,0.2,2.6,0.2c1.4,0.2,2.3-0.9,3.3-1.4h0.2c0.4-0.4,1.1-0.2,1.6-0.2
		c2.5,0.3,4.4,1.5,6.5,2.7v0.2c-0.8,0.4-1.7,0.6-2.5,1c-0.9,0.7-1.9,1.6-2.2,2.7c-0.6,1,0.2,1.9,0.6,2.7c0,0.4,0.1,0.9,0.4,1
		c1.3-1.4,0.1-3,0.3-4.6c0.3-1.2,1.4-1.8,2.6-2.1c2.3-1,3.9,0.9,5.7,1.9c0,1.8,0.2,3.6-0.2,5.4c-0.6,0.2-1.3,0.3-1.9,0.3
		c-3.1,0.2-5.6,2-8.4,2.9c-1.3,0.4-2.8,0.4-4,0.9c1,0.3,2-0.1,3.1-0.1c3.9-0.6,6.9-3.6,11.1-3l0.1,0.1c-0.5,1-1.1,1.8-1.9,2.6
		c-0.1-0.4-0.2-0.8-0.6-1c-0.3-0.2-0.7,0-0.9,0.3c-0.1,0.2-0.1,0.4,0,0.6c0.2,0.4,0.5,0.4,0.9,0.6c-0.1,0.4-0.5,0.5-0.8,0.8
		c-1.1,1.9-3.4,1.1-4.7,2.4c-0.2,0.3-0.9,0.4-0.6,0.9c1.5,0.2,3-0.2,4.1-1c1.5-1.6,3-3.2,4.5-4.8c0.2,1.3-0.1,2.6-0.9,3.6
		c-0.4-0.2-0.6-0.5-1.1-0.6c-0.4,0.1-0.7,0.5-0.7,0.8c0.2,0.3,0.3,0.6,0.6,0.8c-1.3,1-3.1,1-4.6,1.5c-2.9,0.4-5.7,0.6-8.6,0.6
		c-1.4-0.1-3,0.4-4.3,0c-1.5,0.3-3.1-0.2-4.4,0.6c-0.2,0.2,0,0.4,0,0.6c1.8,1.2,4.3,0.2,6.4,0.6h15.6c1.2,0,2.3-0.1,3.2-0.6
		c2-1.2,3.1-3.2,4.2-5.3c0.4-0.7,0.7-1.6,0.8-2.4c0.4-1.4,1.6-2.3,3-2.4c0.2,2.1-0.2,4.2-0.7,6.1c-0.2,1.3-1.1,2.5-0.6,3.9
		c0.1,0.6,0.8,0.6,1.3,0.7c4.8-0.1,9.6-0.3,14.7,0.1c0.9,0.2,1.7,0.4,2.7,0.4c0.1-0.1,0.4-0.2,0.2-0.4c-0.1-0.4-0.4-1-1-1.1
		c-0.1-0.2-0.4-0.2-0.6-0.3c-2.5-1.4-5.6-0.7-8.6-0.6c-1.5,0.2-3.1,0.4-4.4-0.4c-0.6-0.7-0.2-3-0.2-3c0-0.9,2.2-7.2,2.5-7.7
		c0.1-0.6,0.3-1.2,0.2-1.8c0.3-0.8,0.2-1.8,0.2-2.7c0.2-1.3,0.8-2.5,1.2-3.7c0.2-0.6,0.4-1.2,0.7-1.8c0.2-0.8,0.3-1.5,0.8-2.1
		c1.3,0.8,2.6,0.8,3.2,2.3l0.5,3.3c0,0.2,0.2,0.6,0.4,0.4c1-0.7,0.7-2.2,0.7-3.2c0.2-1.2-0.6-1.8-1-2.9C56.9,33,56.5,32,56.5,32
		c-0.2-0.9-2.1-1.5-1.6-2.6c0.2-0.9,0.5-1.8,1.3-2.3c0.1,0.1,0.2,0.2,0.2,0.3l0.5-0.3l0-3.3c1.3,0,3.2,0.2,4.5,0.2
		c0.4,0.1,0.6,0.4,1,0.4l0.3-0.4l3.2-0.6C64.6,23.5,63.8,21.9,62.5,21.9L62.5,21.9z"/>
	<path d="M66,23.4c0.1,0,0.2,0,0.3-0.1L66,23.4L66,23.4z"/>
	<path d="M31.4,34.5c0,0.5-0.2,0.8-0.6,0.9c-0.3-0.1-0.6-0.2-0.8-0.5c-0.2-0.4,0.2-0.8,0.6-0.9C31,34.1,31.3,34.1,31.4,34.5
		L31.4,34.5z"/>
	<path d="M28.8,34.5c0.2,0.2,0.3,0.6,0.2,0.9c-0.3,0.2-0.7,0.4-1,0.1c-0.2-0.2-0.5-0.5-0.3-0.8C28.1,34.4,28.5,34.2,28.8,34.5
		L28.8,34.5z"/>
	<path d="M84.1,34.9C84.1,34.9,84.1,35,84.1,34.9"/>
	<path d="M114.3,35.6c0.2,0.4-0.2,0.8-0.5,0.9c-0.4-0.1-0.9-0.2-0.9-0.7c0-0.3,0.3-0.5,0.6-0.6C113.8,35.1,114.1,35.4,114.3,35.6
		L114.3,35.6z"/>
	<path d="M116.4,35.5c0.1,0.2,0.4,0.5,0.1,0.7c-0.2,0.1-0.3,0.2-0.4,0.3c-0.4,0.1-0.8-0.1-1-0.5c-0.1-0.4,0.3-0.6,0.6-0.8
		C116,35.2,116.2,35.4,116.4,35.5L116.4,35.5z"/>
	<path d="M18.9,36c-0.2,0.5-0.6,0.7-1.1,0.5c-0.1-0.1-0.2-0.3-0.3-0.5c0-0.3,0.1-0.6,0.4-0.7C18.4,35.4,18.8,35.6,18.9,36L18.9,36z"
		/>
	<path d="M32.3,36.7c0,0.3-0.4,0.6-0.7,0.8c-0.4,0-0.7-0.3-0.9-0.6c0-0.3,0.2-0.7,0.5-0.8C31.6,35.9,32.1,36.2,32.3,36.7L32.3,36.7z
		"/>
	<path d="M29.9,36.4c0.1,0.1,0.2,0.4,0.1,0.6c-0.2,0.2-0.6,0.6-1,0.3c-0.2-0.2-0.5-0.4-0.4-0.8c0.2-0.2,0.4-0.4,0.6-0.5
		C29.5,36,29.7,36.2,29.9,36.4L29.9,36.4z"/>
	<path d="M122.5,36.9c0,0.3-0.3,0.6-0.5,0.8c-0.3,0.1-0.7,0-0.9-0.2c-0.2-0.1-0.2-0.4-0.2-0.6c0.2-0.3,0.5-0.4,0.8-0.5
		C122,36.4,122.3,36.6,122.5,36.9L122.5,36.9z"/>
	<path d="M125,37.2c-0.1,0.4-0.4,0.7-0.8,0.7c-0.2,0-0.7-0.1-0.6-0.5c0-0.3,0.2-0.6,0.4-0.6C124.4,36.6,124.9,36.8,125,37.2
		L125,37.2z"/>
	<path d="M23.4,37.8c0.1,0.5-0.1,0.8-0.5,1c-0.3,0.2-0.6,0-0.8-0.2C22,38.4,21.8,38,22,37.8c0.1-0.4,0.4-0.3,0.7-0.4
		C23,37.4,23.2,37.5,23.4,37.8L23.4,37.8z"/>
	<path d="M25.4,38.2c0.1,0.3-0.2,0.4-0.3,0.7c-0.2,0.1-0.5,0.2-0.7,0.1c-0.3-0.2-0.6-0.6-0.3-1C24.3,37.4,25.2,37.7,25.4,38.2
		L25.4,38.2z"/>
	<path d="M120.1,38c0,0.4-0.3,0.7-0.6,0.9c-0.4,0.1-0.7-0.2-0.8-0.5c0-0.3,0.2-0.6,0.4-0.8C119.6,37.6,119.9,37.6,120.1,38L120.1,38
		z"/>
	<path d="M123.4,38.6c-0.1,0.4,0,0.8-0.4,1c-0.3,0.1-0.7,0-1-0.2c-0.2-0.2-0.3-0.6-0.2-0.8c0.2-0.3,0.6-0.6,1-0.5
		C123.1,38.3,123.1,38.5,123.4,38.6L123.4,38.6z"/>
	<path d="M21.9,39.4c0.2,0.3-0.2,0.4-0.3,0.6c-0.3,0.2-0.6,0-0.8-0.1c-0.3-0.2-0.2-0.6-0.1-0.8C21,38.5,21.8,39,21.9,39.4L21.9,39.4
		z"/>
	<path d="M120.9,40.2c0.2,0,0.1,0.3,0,0.4c-1,0.5-2.4,0.6-3.2-0.2c-0.5-0.4-1.1-0.6-1.6-0.9c0.2-0.5,0.9-0.5,1.4-0.6
		C118.7,39.1,119.6,40.2,120.9,40.2L120.9,40.2z"/>
	<path d="M23.8,39.8c0.1,0.3-0.2,0.4-0.2,0.7c-0.2,0.2-0.5,0.2-0.7,0.1c-0.4-0.2-0.5-0.7-0.3-1C23.1,39.2,23.6,39.4,23.8,39.8
		L23.8,39.8z"/>
	<path d="M27.3,40.1c0.2,0.4-0.1,0.7-0.4,0.9c-0.3,0.2-0.5-0.1-0.8-0.1c-0.2-0.3-0.6-0.6-0.2-0.9C26.3,39.3,27,39.6,27.3,40.1
		L27.3,40.1z"/>
	<path d="M73.2,41.8c-0.1,0.8-1.4-0.1-1.2,0.9c0.2,0.8,0.3,1.7,0.8,2.2c0.4,0.5,0.2,1.4,0.2,2c-0.3,0.6-0.9,1-1.5,1.3
		c-1.1-0.1-2.8,0.6-3.3-0.8c-0.2-0.6-0.6-1.2-0.6-1.9c0.1-0.1,0.3-0.1,0.4-0.2c0-0.3-0.3-0.4-0.3-0.7c1.3-0.2-0.5-1.4,0.6-1.4
		c0.9,0.9,2.4,0.6,3.2,1.7c0.2,0.2,0.3,0.4,0.6,0.5c-0.2-0.9-0.6-1.9-0.8-2.9c-0.1-0.5,0.1-1,0.5-1.3C72.2,40.6,72.8,41.3,73.2,41.8
		L73.2,41.8z"/>
	<path d="M30.8,41.5c0.1,0.4-0.2,0.6-0.4,0.8c-0.4,0.2-0.6-0.2-0.7-0.4c-0.1-0.4,0.2-0.6,0.4-0.8C30.3,41.1,30.6,41.2,30.8,41.5
		L30.8,41.5z"/>
	<path d="M55.3,41.9c0.5,1.6,0.3,3.2-0.5,4.5c0,0.3,0.1,0.8-0.4,0.8c-1.1-1.5-0.3-3.6,0.2-5.1C54.7,41.7,55.1,41.5,55.3,41.9
		L55.3,41.9z"/>
	<path d="M89.2,42.7c0.6,1.1,0.6,2.6,0.1,3.7L89,46.7c-0.4-0.9-0.8-1.8-0.9-2.8c0.2-0.7,0.4-1.4,0.5-2.1
		C89.1,41.6,89.1,42.3,89.2,42.7L89.2,42.7z"/>
	<path d="M33.9,43.1c-0.2,0.5-0.9,0.6-1.3,0.9c-1,0.7-2.3,0.9-3.5,0.7c1-1.4,2.6-2.3,4.5-1.9C33.6,43,33.8,42.9,33.9,43.1L33.9,43.1
		z"/>
	<path d="M17.6,44.5c1.5,1,1.9,2.5,2.7,3.9c0.1,0.2,0.5,0.2,0.4,0.5c-0.3,0.2-0.6-0.2-1.1-0.2c-1.5-0.7-2.5-2.4-2.4-4.1
		C17.2,44.5,17.4,44.5,17.6,44.5L17.6,44.5z"/>
	<path d="M87.7,45.8c0,0.4,0,0.8-0.4,0.9c-0.4,0.1-0.8-0.1-0.9-0.5c-0.1-0.3,0.1-0.4,0.2-0.6C86.9,45.3,87.5,45.4,87.7,45.8
		L87.7,45.8z"/>
	<path d="M104.4,47.9c0-0.8,0.2-1.5,0.3-2.2c0.1-0.2,0.2-0.5,0.2-0.8c1-1.3,2.9-0.9,4.4-0.8c0.6,0.3,1.3,0.3,2,0.4
		c0.3-0.2,0.7-0.2,1-0.2c1.3-0.7,0.4-2.2,0.5-3.3l-0.5-1.2c-0.1-0.2-0.2-0.5-0.3-0.8c-0.2-0.3-0.4-0.8-0.6-1.1
		c-0.7-1.8-2-2.8-3.1-4.2c-2-2.6-5.2-4.1-8.4-5.2c-3.1-1.1-6.3,0.3-9.1,1.3c-0.9-0.2-1.3-0.9-1.5-1.7c-0.2-1.5,0.2-3,0.8-4.2
		c0.1-1,0.8-1.8,1.1-2.7c0.7-2.2,1.5-4.4,1.6-6.9c0.1-1.5-1-2.5-2.1-3.2c-0.8-0.2-1.6-0.2-2.2,0.4c-0.5,1.1-1.6,1.8-2.6,2.3
		c-0.1,0.7,0.8,0.2,1,0.5c0.9,0.2,1.9-0.1,2.6,0.4c0.1,1.6-0.8,2.9-1.7,4.1c-1.3,2-2.8,4-3.6,6.2l-0.2-0.2l0.2,9.8
		c1.3,2.1,2.8,4.5,5.2,5.3c1.3,1,2.9,2.3,4.6,1.4c0.9-0.3,1,1,1.4,1.5c0.5,1.5-0.6,2.5-0.7,3.9l-1,2.2c-1.2,2.3-2.3,4.8-4.1,6.8
		c-0.6,0-1,0.6-1.5,0.7c-0.3,0.4-1,0.1-1.3,0.3c-1.2,0.5-3,0.2-3.8,1.4c0.1,0.1,0.2,0.2,0.3,0.2c2.4,0,5.1,0.2,7.7,0.1
		c0.3-0.1,0.6-0.4,0.6-0.8c-0.4-0.7,0.1-1.3,0.4-1.8c0.2-1,0.8-1.6,1.1-2.5c0.8-1.6,1.8-3.2,2.7-4.9l1.2-2c0.3-0.7,0.8-1.5,1.2-2.2
		c0.3-0.3,0.5-0.7,0.7-1.1c0-0.4-0.2-0.6-0.4-0.8c0.3-0.3,0.7-0.2,1.1-0.3c1,0.6,2,1.6,2.2,2.6l0.4,1l0.2,0.5l-0.1,1.3l0.2,1.2
		c0.2,1.9-0.2,3.9-0.4,5.8c-0.7,2.3-3.3,2.1-5.2,2.6c-0.5,0.3-1.4,0.2-1.4,1c2.3,0.5,5,0.2,7.5,0.2c0.4-0.2,0.5-0.5,0.7-0.9
		c0.1-0.5,0.6-1,0.4-1.5c-0.4-0.6,0-1.4-0.2-2.2c0.1-0.2,0.1-0.5,0-0.8c0.3-1.2,0.2-2.6,0.5-3.7L104.4,47.9L104.4,47.9z"/>
	<path d="M123.9,46.3c-1.3,1.8-2.6,3.8-4.8,4.5c-0.2,0-0.3,0.1-0.4-0.1c1.3-1.4,2.1-3.7,4.2-4.2C123.2,46.3,123.6,46.2,123.9,46.3
		L123.9,46.3z"/>
	<path d="M15.6,48.3c-0.2,0.2,0,0.5-0.4,0.6c-0.3,0.2-0.7,0-0.8-0.4c-0.2-0.4,0.2-0.8,0.5-0.9C15.2,47.8,15.6,47.9,15.6,48.3
		L15.6,48.3z"/>
	<path d="M27.1,48.9c0.1,0.4-0.3,0.4-0.5,0.4c-1.7,0.6-3.4,0-4.6-1.2c0-0.2,0-0.3,0.2-0.4C23.8,48.2,25.7,47.9,27.1,48.9L27.1,48.9z
		"/>
	<path d="M17.8,48.3c0.1,0.2,0.1,0.4,0.1,0.6c-0.2,0.4-0.6,0.4-1,0.4c-0.2-0.1-0.4-0.3-0.5-0.5c0-0.4,0.4-0.6,0.7-0.8
		C17.4,48.1,17.6,48.1,17.8,48.3L17.8,48.3z"/>
	<path d="M55,48.5c0.1,0.4-0.2,0.6-0.5,0.8c-0.4,0.1-0.7-0.1-0.8-0.3c-0.1-0.3,0-0.7,0.3-0.8C54.3,48.1,54.9,48.2,55,48.5L55,48.5z"
		/>
	<path d="M125.4,48.7c0.1,0.4-0.2,0.6-0.5,0.8c-0.2,0.1-0.5,0-0.8-0.1c0-0.2-0.3-0.4-0.2-0.6c0.2-0.4,0.5-0.5,0.9-0.5
		C125.1,48.5,125.2,48.5,125.4,48.7L125.4,48.7z"/>
	<path d="M128.1,48.5c0.2,0.4,0,0.6-0.2,0.9c-0.2,0.3-0.5,0.4-0.7,0.2c-0.2-0.2-0.6-0.4-0.6-0.7c0-0.3,0.4-0.6,0.6-0.7
		C127.6,48.1,127.7,48.5,128.1,48.5L128.1,48.5z"/>
	<path d="M14,49.7c0,0.3-0.2,0.4-0.3,0.7c-0.2,0.1-0.4,0.2-0.6,0.2c-0.3-0.1-0.5-0.4-0.6-0.6c0.1-0.4,0.3-0.7,0.7-0.8
		C13.5,49.2,13.9,49.3,14,49.7L14,49.7z"/>
	<path d="M97.5,49.7c0.1,0.2,0,0.4,0,0.5c-0.2,0.3-0.6,0.6-1,0.4c-0.2-0.2-0.5-0.5-0.4-0.8C96.5,49.3,97.2,49.2,97.5,49.7L97.5,49.7
		z"/>
	<path d="M20.4,50.3c-0.1,0.3-0.2,0.6-0.6,0.6c-0.4,0-0.5-0.3-0.7-0.4c0-0.4,0-0.7,0.3-0.9C19.9,49.4,20.4,49.8,20.4,50.3L20.4,50.3
		z"/>
	<path d="M16.6,50.4c0.1,0.4-0.2,0.7-0.4,0.9c-0.5,0.2-0.9-0.2-1.1-0.6c0-0.4,0.3-0.8,0.7-0.9C16.2,49.8,16.4,50.2,16.6,50.4
		L16.6,50.4z"/>
	<path d="M100.1,50.3c0.1,0.4,0,0.8-0.4,1c-0.5,0.2-0.9-0.2-1.1-0.6c0.2-0.3,0.2-0.8,0.7-0.8C99.7,49.9,99.9,50,100.1,50.3
		L100.1,50.3z"/>
	<path d="M18.4,50.5c0.1,0.3-0.1,0.4-0.2,0.6c-0.2,0-0.3,0.2-0.6,0.2c-0.2-0.2-0.5-0.3-0.5-0.6c0-0.4,0.2-0.6,0.5-0.8
		C18.1,49.9,18.3,50.1,18.4,50.5L18.4,50.5z"/>
	<path d="M123.3,50.8c-0.1,0.3-0.4,0.5-0.7,0.6c-0.3,0.1-0.5-0.2-0.8-0.3c-0.2-0.2-0.1-0.5,0-0.7C122.2,49.7,123.3,50,123.3,50.8
		L123.3,50.8z"/>
	<path d="M126.3,50.9c-0.1,0.4-0.6,0.6-1,0.7c-0.4-0.2-0.8-0.4-0.5-0.9c0.2-0.2,0.2-0.3,0.5-0.4C125.8,50.2,126.1,50.5,126.3,50.9
		L126.3,50.9z"/>
	<path d="M107.4,51.2c0.2,0.5-0.3,0.7-0.6,0.9c-0.3,0-0.5-0.2-0.8-0.3c-0.1-0.4,0.1-0.8,0.6-1C107,50.8,107.2,50.9,107.4,51.2
		L107.4,51.2z"/>
	<path d="M96.5,51.7c0.2,0.1,0.1,0.4,0.1,0.5c-0.2,0.2-0.6,0.6-0.9,0.3c-0.3-0.2-0.5-0.4-0.4-0.8C95.5,51.3,96.3,51.3,96.5,51.7
		L96.5,51.7z"/>
	<path d="M98.7,52c0,0.3,0,0.5-0.3,0.6c-0.3,0.3-0.6,0-0.9-0.1c-0.1-0.2-0.2-0.4,0-0.6c0.1-0.2,0.3-0.3,0.5-0.3
		C98.3,51.7,98.6,51.7,98.7,52L98.7,52z"/>
	<path d="M31.4,52c0.2,0.2,0,0.5-0.1,0.8c-0.2,0.2-0.6,0.4-1,0.2c-0.4-0.2-0.4-0.7-0.3-1c0.2-0.1,0.2-0.4,0.6-0.4
		C31,51.7,31.2,51.8,31.4,52L31.4,52z"/>
	<path d="M111.7,52.2c0.1,0.4-0.3,0.6-0.6,0.6c-0.5,0.2-0.7-0.2-0.9-0.5c0-0.2,0.2-0.4,0.3-0.6C111,51.5,111.4,51.9,111.7,52.2
		L111.7,52.2z"/>
	<path d="M109.5,52.2c0.2,0.4-0.3,0.6-0.4,0.8c-0.3,0.1-0.6,0.1-0.9-0.2c-0.2-0.1-0.2-0.4-0.2-0.6c0.2-0.2,0.4-0.4,0.6-0.5
		C109,51.7,109.4,51.9,109.5,52.2L109.5,52.2z"/>
	<path d="M127.4,52.7c0.1,0.6-0.6,0.3-0.9,0.4c-1.7,1-3.8,0.2-5.4-0.4c0.1-0.5,0.7-0.3,1-0.5c1.7-1.1,3.5,0.2,5.2,0.3L127.4,52.7
		L127.4,52.7z"/>
	<path d="M18.9,52.2l-0.2,0.3c-1.5,0.9-3.4,1.5-5.1,0.9l-0.2-0.2c1.5-1.1,3.4-1.4,5.3-1.1L18.9,52.2L18.9,52.2z"/>
	<path d="M115.7,52.5c0,0.3-0.2,0.6-0.4,0.8c-0.4,0.1-0.9,0-1-0.4c-0.1-0.3,0.2-0.6,0.5-0.8C115.1,52,115.6,52.1,115.7,52.5
		L115.7,52.5z"/>
	<path d="M26,52.6c-0.2,0.3-0.1,0.6-0.5,0.8c-0.4,0.2-0.9-0.2-1-0.5c-0.1-0.4,0.2-0.6,0.4-0.8C25.4,51.9,25.7,52.3,26,52.6L26,52.6z
		"/>
	<path d="M23.1,52.8c0.1,0.3-0.1,0.4-0.2,0.6c-0.2,0.2-0.6,0.2-0.8,0.1c-0.3-0.2-0.6-0.5-0.4-1c0.2-0.2,0.4-0.3,0.6-0.4
		C22.7,52.3,23.1,52.4,23.1,52.8L23.1,52.8z"/>
	<path d="M118.5,53.7c0,0.4-0.3,0.6-0.6,0.7c-0.3,0-0.6-0.2-0.8-0.4c-0.1-0.2-0.1-0.6,0.2-0.8c0.1-0.1,0.4-0.1,0.5-0.2
		C118.1,53.1,118.4,53.4,118.5,53.7L118.5,53.7z"/>
	<path d="M20.2,53.3c0.1,0.3-0.2,0.4-0.2,0.7c-0.1,0.7-0.6,1.1-0.9,1.7c-0.8,0.9-1.8,0.9-2.9,1.2l-0.2-0.3c1.2-1.5,2.4-2.6,4-3.4
		L20.2,53.3L20.2,53.3z"/>
	<path d="M116.5,54.2c0.1,0.5-0.3,0.6-0.6,0.8c-0.4,0-0.6-0.2-0.8-0.5c-0.1-0.4,0.3-0.6,0.5-0.8C116,53.6,116.4,53.9,116.5,54.2
		L116.5,54.2z"/>
	<path d="M24.8,54.2c0,0.1,0,0.2,0.1,0.2c0,0.4-0.4,0.6-0.6,0.8c-0.4,0-0.6-0.1-0.9-0.4c-0.2-0.4,0-0.8,0.4-0.9
		C24.2,53.8,24.6,53.8,24.8,54.2L24.8,54.2z"/>
	<path d="M123.8,55.4c0.4,0,0.5-0.5,0.9-0.6c0.4-0.1,0.8,0.2,1,0.4c0.2,0.5-0.2,0.7-0.5,0.9c-0.3,0.2-0.9-0.2-0.8,0.3
		c0.3,0.2,0.5,0.5,0.6,0.8c-0.1,0.2-0.4,0.1-0.5,0c-1.2-0.5-2.4-1.3-2.9-2.5c-0.2-0.4-0.9-0.6-0.5-1
		C122.2,53.7,123.2,54.7,123.8,55.4L123.8,55.4z"/>
	<path d="M127.6,54.1c0.2,0.2,0.1,0.6,0,0.8c-0.2,0.4-0.8,0.2-1.2,0.2c-0.2-0.2-0.4-0.4-0.3-0.7c0.2-0.2,0.3-0.4,0.6-0.5
		C127.1,53.8,127.3,53.9,127.6,54.1L127.6,54.1z"/>
	<path d="M113.2,56.3c0.4,0.4,0.7,1.1,0.9,1.6c-0.1,0.1-0.3,0.1-0.4,0.1c-1.3-0.8-3.1-1.6-3.6-3.2c-0.1-0.2-0.4-0.4-0.4-0.6
		c1-0.2,2,0.6,2.7,1.1C112.7,55.7,113.1,55.9,113.2,56.3L113.2,56.3z"/>
	<path d="M22.5,54.8c0.2,0.4-0.2,0.6-0.4,0.8c-0.4,0.1-0.7-0.1-0.9-0.3c-0.3-0.4,0.2-0.8,0.6-1C22.1,54.3,22.3,54.6,22.5,54.8
		L22.5,54.8z"/>
	<path d="M118.2,55.7c0,0.2-0.3,0.4-0.4,0.6c-0.3,0-0.6,0.2-0.9-0.1c-0.1-0.2-0.3-0.5,0-0.7C117.3,54.9,117.9,55.3,118.2,55.7
		L118.2,55.7z"/>
	<path d="M128.1,56.3c0.1,0.5-0.2,0.8-0.6,1c-0.4,0.1-0.7-0.2-1-0.4c-0.2-0.2,0-0.5,0-0.8c0.3-0.2,0.6-0.4,1-0.3
		C127.7,56,127.9,56.1,128.1,56.3L128.1,56.3z"/>
	<path d="M100.6,61.8c0,0.5-0.9,0.4-1.2,0.7c-1.2,0.6-2.7,0.6-4.2,0.6v-0.2C96.6,61.6,98.7,61.2,100.6,61.8L100.6,61.8z"/>
	<path d="M42.7,63.5c0,0.4-0.2,0.6-0.6,0.7c-0.3,0-0.6-0.2-0.7-0.4c-0.2-0.5,0.2-0.7,0.5-0.9C42.3,62.9,42.7,63.2,42.7,63.5
		L42.7,63.5z"/>
	<path d="M99.9,63.9c-0.1,0.4-0.2,0.8-0.6,0.9c-0.4,0.1-0.6-0.1-0.9-0.3c-0.2-0.2-0.1-0.4-0.1-0.6C98.6,63.2,99.7,63.2,99.9,63.9
		L99.9,63.9z"/>
	<path d="M107.8,64.1c-1,0.6-2.1,1.4-3.4,1.4l-2.1,0l-0.2-0.2c1.3-1.6,3.7-1.6,5.8-1.4V64.1L107.8,64.1z"/>
	<path d="M31.9,65c0,0.4-0.2,0.6-0.5,0.8c-0.4,0.1-0.7-0.1-0.8-0.4c-0.2-0.4,0-0.7,0.3-0.9C31.3,64.2,31.7,64.7,31.9,65L31.9,65z"/>
	<path d="M33.8,65.4c0.1,0.2-0.1,0.3-0.2,0.5c-0.2,0.1-0.6,0.2-0.8,0c-0.3-0.2-0.4-0.4-0.2-0.7c0.1-0.2,0.4-0.2,0.5-0.4
		C33.5,65,33.7,65.2,33.8,65.4L33.8,65.4z"/>
	<path d="M18.7,69.5c-0.4,0.5-1-0.1-1.5-0.4c-1.4-0.8-1.3-2.4-2.7-3.3c0.2-0.5,0.5,0,0.8,0c0.2,0.2,0.6,0.3,0.8,0.4
		C17.4,67,17.7,68.3,18.7,69.5L18.7,69.5z"/>
	<path d="M134.3,54c-0.6-1.2-1.7-1.6-3-1.6c-1,0.1-1.8,0.8-2.2,1.6c-0.2,0.9,0.1,1.7,0.8,2.2c0.3,0.1,0.6,0.1,0.8-0.2
		c0.2-0.5-0.4-0.5-0.4-0.9c-0.2-0.6,0-1,0.4-1.4c0.4-0.4,1.1-0.2,1.5-0.2c0.5,0.3,1,0.6,1.2,1.2c0.2,0.7,0.2,1.4,0,2.1
		c-0.4,1-1.4,1.8-2.5,2c-3.3,0.5-39.4,0.3-39.4,0.3c-4.2,0.4-9.1-0.8-12.7,1.4c-1.7,0.8-2.5,2.6-2.9,4.3c-1.1,1-2.2,2.1-3.1,3.2
		l-0.1-0.1c0.2-1,0.6-1.8,0.8-2.8c0.6-0.8,0.6-1.9,1-2.8c1.5-2.4,2.9-4.9,5.3-6.6c1-1.3,2.7-1.1,4.2-1.1c1.6,0.8,3.5,1,5.5,0.8
		c0.1-0.1,0.1-0.2,0.1-0.3c-0.6-0.5-1.5-0.7-2.1-1.2c-1.6-0.8-3.1,0.2-4.8,0.1c-0.1-0.1-0.2-0.1-0.1-0.2c1.5-1.1,3.2-1.9,4.9-2.6
		c1.4-0.8,2.9-1.2,4.3-1.7c0.6,0,1.2-0.5,1.7-0.2l2.1-0.6c0.1,0,0.2,0.2,0.3,0.1c1.8-0.6,4,0,6.1-0.1l0.3,0.2l1.9,0.5
		c0.7,0.1,1,0.9,1.8,1c0.4-0.6-0.4-0.8-0.6-1.2c0.9-0.2,1.9,0,2.7,0.4l-0.4,0.4c-0.2,0.4,0.1,0.8,0.5,0.9c0.3,0.1,0.5-0.1,0.7-0.2
		c0.5-0.4,0-0.7,0.1-1c2.9,0.5,5.8,1.2,8.4,2.4c0.8,0.2,1.5,0.8,2.3,0.8c-0.8-0.8-2-1.2-3-1.6c-0.7-0.4-1.6-0.4-2.1-1
		c0.1-0.2,0.4-0.1,0.5-0.3c1.3-0.2,2.5-1.2,3.5-2.2c0.1-0.2,0.5-0.2,0.5-0.5c-0.4-0.4-1,0.1-1.4,0.1c-1.7,0.3-2.4,2.3-4,2.6
		c-2-0.5-4.1-1-6.1-1.5c-1-0.2-2.1-0.2-3-0.6l-2.2-0.2h-4c0-0.1-0.2-0.1-0.1-0.2c1.4-0.4,2.7-1.2,4.1-1.6l10.6-4.9
		c1.1-1,2.1-2.1,3-3.3c0-0.3-0.2-0.6-0.4-0.8c-0.3-0.1-0.6-0.1-0.8,0.2c-0.5,0.4,0,0.8,0,1.2c-0.5,0.6-1.2,1.2-1.8,1.6
		c-0.2,0-10.9,4.9-10.9,4.9c-1.6,0.7-3.2,1.4-4.8,1.8L94.6,47c-0.2,0.5-0.6,0.8-1,0.9c-0.6,0.1-1.1,0.5-1.8,0.5
		c-5.2,2-10.5,4.1-14.6,8.2c0.2-0.5,0.4-1.1,0.4-1.7c-0.1-0.6,0-1.3-0.4-1.8c-0.1-0.2-0.4-0.9-0.3-1.1l-0.6,0.4
		c-0.4,0.9-0.7,2.5-0.3,3.4c0.1,0.7,0.7,1.6,0.2,2.2c-1.9,2.3-3,5.1-4.2,7.8c-0.5-0.1-0.7-0.5-0.9-1c1.3-1.7,2.4-3.6,2.8-5.8
		c0.3-0.2,0.1-0.7,0.4-1c-0.1-0.6,0.4-1.3,0-1.8c0.3-0.9-1.2-1.7-0.3-2.2l-0.7,0.4c-1.7,2.2,0.9,5.6-1.1,7.8v0.2
		c-0.6,0.7-0.8,1.4-1.6,1.9c-1-0.4-1.3-1.5-1.9-2.3c-0.9-0.8-0.9-2.6-0.4-3.7c0.4-1.2-0.2-2.2-0.4-3.2l-0.4-0.2
		c-1,1.2-1.3,3.2-0.6,4.7c0.4,0.7,0.4,1.7,1,2.3c0.4,1.2,1.1,1.9,1.7,3c0.2,0.4-0.2,0.5-0.4,0.7c-0.4-0.3-0.4-0.9-0.8-1.2
		c-1.3-2.8-3-5-5.1-7.3c-0.1-0.4-0.4-0.7-0.2-1.1c0.8-0.7,0.9-2.1,0.5-3c-0.1-0.2-0.3-0.4-0.3-0.6l-0.6-0.5c0.1,1.4-0.8,2.6-0.4,4.1
		v0.1c-4.1-3.1-8.6-5.8-13.2-8l-0.4,1c1.2,0.3,4.2,2.2,4.2,2.2c1.4,0.5,2.7,1.4,4,2.1c5.4,3,9,7.9,11.4,13.5c0,0.4,0.4,0.9,0.2,1.4
		c-0.8-1.3-2-2-3-3c-0.3-1.9-1.4-3.7-3-4.4c-0.6-0.9-1.9-1-2.9-1.2l-14.4-0.1c-11.7-0.2-22.5,0.4-34.1,0.2c-1.6-0.2-3.6-0.7-4.1-2.4
		c-0.3-0.6-0.3-1.6,0-2.2c0.4-0.8,1.2-1,2-1.1c0.6,0.1,1.1,0.7,1.3,1.1c0,0.5-0.4,1-0.6,1.4c0,0.2,0.2,0.5,0.5,0.4
		c0.5-0.2,0.9-0.8,1-1.3c0-0.3,0.2-0.7-0.1-0.9c-0.2-0.8-1.1-1.4-1.9-1.6c-1-0.1-2,0.2-2.7,0.9c-1,0.8-0.9,2.2-0.6,3.4
		c0.6,1.8,2.5,3,4.3,3.2l38.6,0.2c3.8,0.2,8-0.4,11.8,0.3c1.4,0.4,2.9,1.5,3.2,3c0,0.1-0.2,0-0.3,0c-3.1-2-7.3-2.8-11.3-2.3
		c-1.6-0.1-3,0.5-4.4,0.9c-0.8,0.2-1.5-0.2-1.9-0.6c-1.4-1.3-3.9-1.2-5.8-0.7c0,0.1,0,0.2,0,0.3c1.9-0.2,3.1,1.5,4.8,1.7
		c0.4,0.1,0.7-0.4,1.1,0c-1.8,0.9-3.6,1.9-5.5,2.5c-0.6-0.1-0.9-0.7-1.4-1c-0.8-0.8-2.1-0.5-3.2-0.6c-0.4,0.1-0.7-0.2-0.9,0
		c0.3,0.6,1,1,1.7,1.3c1,0.4,2.1,0,3.1,0.6c-0.2,0.3-0.6,0.4-0.8,0.6c-1.9,0.7-3.4,2.4-5.5,2.3c-2.2,0.2-4.4-0.4-5.9-1.9
		c-0.6-1.6-2.3-2.4-4-2.3c-0.1,0.1-0.3,0.1-0.2,0.3c0.9,0.5,1.5,1.6,2.4,2.2c0.6,0.7,1.6,0,2.1,0.8c0.8,0.5,1.7,1,2.6,1.1
		c0.6,0.3,1.3,0.4,2.1,0.6l-0.3,0.2c-3.6,1.2-7.8,1.3-11.8,1.2c-1.2,0-2.3-0.4-3.5-0.4c0.2,0.2,0.6,0.4,1,0.6
		c-0.3,0.2-0.7,0.3-1.1,0.3c-0.5,0.1-1,0.2-1.5,0.4c-0.6,0-1.2,0.2-1.7,0.4c-0.7,0.7-1.5,1.5-2.3,1.8c0,0.2,0,0.4,0.2,0.4
		c0.8-0.3,1.7-0.1,2.5-0.4c1.3-0.1,2.1-1.6,3.1-2.2c1.1-0.9,2.7-0.7,4-0.5c0.8,0.2-0.1,0.5,0.2,1c0.3,0.3,0.6,0.6,1,0.5
		c0.1-0.1,0.2-0.2,0.3-0.2c0.2-0.3,0.2-0.7,0-1c0.6-0.4,1.3,0,1.9-0.2c1.5,0,3-0.4,4.5-0.4c0.2,0,0.5-0.3,0.8,0
		c-0.1,0.3-0.5,0.4-0.4,0.8c0.1,0.4,0.5,0.5,0.8,0.6c0.4-0.2,0.8-0.4,0.6-1c-0.1-0.3-0.4-0.3-0.6-0.4c0.8-0.4,1.8-0.5,2.6-0.9
		c0.6-0.1,1.2-0.3,1.7-0.6c0.5,0,1-0.5,1.4-0.3c-0.2,0.7-0.5,1.3-0.8,1.9c-0.6,2.1-1.1,4.9,0,7c0.1,0,0.2,0,0.2-0.1
		c-0.8-2.1-0.4-4.6,0.4-6.6c0.6-3.4,4-4.4,6.5-5.7l0.1,0.2c-0.7,1.8-1.7,3.4-1.5,5.6c0.1,0.4-0.2,0.7,0,1c0.7-0.4,1.1-1.2,1.5-1.8
		c0.3-1.8-0.8-4,1.1-5.4c3.3-1.3,6.3-3,10.1-3c0.1,0.1,0.4-0.1,0.4,0.2c-0.8,0.9-1.9,1.7-2.3,2.8c-1.3,1.8-1.2,4.8-0.7,6.9
		c0.4,1.2-0.7,1.9-1.2,2.9c-0.2,0.3-0.3,0.9-0.5,1.3l0.8,0.1c0.7-0.7,1.3-1.6,1.3-2.6c0.1,0.4,0.4,0.7,0.8,0.8
		c0.3-0.4-0.2-0.8-0.3-1.2c0.6-0.4,0.9,0.4,1.4,0.6c0.8,0.2,1.5,0.6,2.4,0.6l0.3-0.3c-0.9-1.4-2.6-1.6-4.1-1.7
		c-0.8-1.3-0.8-3-0.7-4.6c0.2-0.8,0.3-1.7,0.8-2.5c0.2-0.6,0.8-1.1,1.1-1.5c0.7-0.7,1.6-1.2,2.5-1.4h0.1c0,0.1,0,0.1,0,0.1
		c-1.1,0.8-1.2,2-1.8,3c-0.7,1-1,2.4-0.4,3.5c0.2,0.5,0.1,1.3,0.7,1.7c0.5-0.7,0.6-1.6,0.8-2.4c-0.1-1.3-0.9-2.6-0.2-3.8
		c0.4-1,1.2-1.4,2.1-1.8c2.2-0.2,4.1,0.9,6,1.8c0.4,0.3,1.1,0.5,1.2,1.1c0,1.1-0.6,2.2-1.5,2.7c-1.1,0.6-2.6,0.7-3.6,0
		c-0.6-0.6-0.8-1.6-0.6-2.4c0.4-0.5,1-0.9,1.7-0.6c0.4,0.2,0.8,0.6,1.3,0.4c0.2-0.1,0.3-0.4,0.2-0.6c-0.4-0.2-0.6-0.8-1.2-0.9
		c-0.8-0.1-1.7-0.1-2.2,0.4c-0.8,0.7-1.2,1.8-0.9,2.8c0.3,1.3,1.2,2.2,2.5,2.6c1.8,0.4,3.7-0.1,4.9-1.7c0.5-0.5,0.6-1.1,0.9-1.7
		c1.9,1.2,3.3,3.2,4.1,5.3c0,0.7,0.2,1.4,0,2l1.4,0.1c-0.1-0.3,0-0.7,0.1-1c0.5-2.6,2.1-4.8,4.1-6.6c0.7-0.4,0.5,0.5,0.7,0.8
		c0.6,1.5,2,2.6,3.5,3c1.7,0.3,3.3-0.1,4.3-1.4c0.5-1,1.2-2.4,0.3-3.4c-0.6-0.7-1.3-1-2.2-1c-1,0-1.7,0.7-2.2,1.5
		c0,0.3,0,0.7,0.2,0.8c0.2,0,0.5,0,0.6-0.2c0.1-0.6,0.6-0.9,1.1-1.2c0.4-0.2,0.9,0,1.3,0.2c0.4,0.4,0.5,1,0.6,1.6
		c-0.1,0.8-0.6,1.6-1.3,1.9c-1.2,0.6-2.8,0.3-3.8-0.4c-0.5-0.5-0.8-1.1-1.1-1.8c-0.1-0.6-0.3-1.2,0-1.8c1.7-1,3.6-1.8,5.7-2
		c0.8,0.2,1.5,0.7,2.1,1.3c1.8,1.9-0.4,4.6,0.9,6.6c0.5-0.1,0.5-0.7,0.7-1.1c0.6-1.4-0.2-3-0.5-4.4c-0.5-0.9-0.8-1.6-1.5-2.4
		c0.2-0.1,0.3-0.1,0.5-0.1c0.8,0.6,1.7,1.2,2.4,2.1c1.2,1.9,1.7,4.1,1.5,6.6c-0.3,1.2-1.6,1.8-2.6,2.2c-0.4,0.3-0.9,0.8-1.1,1.3
		c0.5,0.3,1.2,0,1.6-0.2c0.8-0.3,1.2-1.2,1.7-1.7c0.1,0,0,0.2,0.1,0.2c0,0.4-0.2,1,0.2,1.2c0.2-0.6,0.2-1.4,0.4-2
		c0.5,0.6,0.6,1.3,0.8,2c0.4,0.7,1,1.7,1.9,1.8c0.2-0.4,0-0.7-0.1-1c-0.1-1-1-1.5-1.5-2.2c-1.4-1.9-0.8-4.9-1.8-7.1
		c-0.4-1.2-1.2-2-2.1-3l0.2-0.2c1.9,0,3.6,0.6,5.4,1c2.2,1.1,5.4,0.8,6.4,3.7c0.4,1.6,1.2,3.1,2.3,4.3l0.1-0.1
		c0.2-0.4,0.2-1.1,0-1.5c-0.2-2-2-2.5-2.9-4.2l0.1-0.2c1,0.3,1.9,0.5,2.9,0.9c3.2,0.9,5.4,4,5.8,7.2c0,2.6-0.5,4.7-1.5,6.8
		c-0.1,0.3-0.7,0.7-0.3,1c0.4-0.3,0.5-0.8,0.8-1.2c1.3-2.2,2-5.2,1.3-8c0-0.5-0.6-0.9-0.4-1.4c0.2,0.2,0.4,0.3,0.7,0.4
		c0.2-0.2,0.6-0.2,0.8-0.4c0-0.2,0.2-0.5,0-0.7c-0.2-0.4-0.8-0.4-1.2-0.3c-0.2,0.2-0.4,0.6-0.5,0.9c-0.4-0.7-0.8-1.6-1.4-2.1
		l0.1-0.1c1.8,0.6,3.4,1.5,5.2,2c0.4,0.2,0.8,0.4,1.4,0.4c1.5,0.6,3.3,0.8,4.9,1.2c1.2-0.1,2.2,0.4,3.4,0.2v-0.1l0,0
		c-0.4-0.6-1.4,0-1.9-0.4c-2.7-0.3-5.4-1-7.8-2c0-0.1,0.2-0.1,0.3-0.1c0.4-0.2,0.7-0.6,0.6-1c-0.2-0.3-0.5-0.4-0.9-0.4
		c-0.2,0.1-0.6,0.4-0.6,0.7c0,0.3,0.3,0.7,0.6,0.8c-0.1,0.1-0.2,0-0.4,0c-1.2-0.6-2.4-1.1-3.6-1.6c-0.4-0.1-0.8-0.4-1.2-0.5
		c-0.9-0.4-1.8-0.9-2.7-1.2c-2.5-1.3-5.4-2-8-3c-0.6-0.2-1.2-0.3-1.7-0.5c-1-0.3-2-0.5-3-0.8c-3.4-0.8-7.9-0.9-10.8,0.9
		c-0.5-0.2-0.8,0.6-1,0.1c0.8-2.2,3.3-2.9,5.4-3c15.9-0.2,30.8-0.3,46.5-0.5c1.8,0,3.6-0.6,4.6-2.3C134.7,56.7,134.8,55.1,134.3,54
		L134.3,54z M71.2,68.7c-0.2,0.5-0.5,0.9-0.4,1.4l-0.2,0.1c0.1-0.6-0.5-1-0.3-1.6C70,68.1,70,67.5,69.7,67c-0.4-0.6,0.3-0.9,0.6-1.4
		c0.6,0.2,0.8,0.8,1.2,1.2C71.7,67.6,71.2,68.1,71.2,68.7L71.2,68.7z"/>
	<path d="M114.2,66.2c0,0.1,0.2,0.2,0.2,0.4c-1.4,1.2-3.3,1.6-5.3,1.7c-0.2,0-0.3,0.2-0.5,0.1c-0.1-0.1-0.2-0.2-0.1-0.3
		C109.9,66.5,112.1,65.7,114.2,66.2L114.2,66.2z"/>
	<path d="M107.9,66.8c0.2,0.6-0.2,0.9-0.6,1.1c-0.4,0-0.7-0.3-0.9-0.6c-0.1-0.3,0.2-0.5,0.3-0.7C107,66.3,107.7,66.3,107.9,66.8
		L107.9,66.8z"/>
	<path d="M32.5,66.9c0.1,0.3,0,0.6-0.2,0.8C32.1,68,31.7,68,31.5,68c-0.3,0-0.4-0.4-0.5-0.6c0-0.4,0.2-0.6,0.5-0.8
		C31.9,66.6,32.2,66.6,32.5,66.9L32.5,66.9z"/>
	<path d="M25.4,69.5v0.3c-1,0.2-1.9,0-2.6-0.6c-0.6-0.8-1.2-1.6-2.1-2c0-0.1-0.2-0.3,0-0.4C22.7,66.8,23.9,68.4,25.4,69.5L25.4,69.5
		z"/>
	<path d="M120.3,66.9c-0.9,1.4-1.7,3-3.3,3.6c-0.3,0-0.5,0.4-0.8,0.1c0.6-1.5,2-3.2,3.5-3.8C119.9,66.8,120.1,66.8,120.3,66.9
		L120.3,66.9z"/>
	<path d="M34.8,67.4c0,0.4-0.3,0.5-0.6,0.8c-0.3,0-0.5-0.2-0.7-0.4c-0.2-0.4,0.2-0.6,0.4-0.8C34.2,66.8,34.6,67.1,34.8,67.4
		L34.8,67.4z"/>
	<path d="M125.3,67.6c-0.4,0.5-0.2,1.3-0.6,1.8c-0.8,0.9-1.5,2-2.7,2.2c-0.2-0.4,0.3-0.8,0.5-1.2c0.6-1.2,1.3-2.6,2.6-3.1
		L125.3,67.6L125.3,67.6z"/>
	<path d="M13.1,68c0.1,0.3,0.2,0.6,0,0.9c-0.2,0.2-0.6,0.3-0.9,0.2c-0.4-0.2-0.5-0.6-0.3-1C12.1,67.7,12.8,67.5,13.1,68L13.1,68z"/>
	<path d="M10.8,68.4c0,0.2,0.2,0.4,0.1,0.6c-0.1,0.2-0.3,0.4-0.6,0.5c-0.4,0.1-0.7-0.2-0.9-0.5c0-0.4,0.1-0.7,0.4-0.8
		C10.2,68,10.6,68.2,10.8,68.4L10.8,68.4z"/>
	<path d="M15.5,68.7c0.1,0.3,0.2,0.9-0.3,1c-0.6,0.2-0.9-0.2-1.2-0.5c0-0.4,0.2-0.6,0.5-0.8C14.8,68.3,15.2,68.4,15.5,68.7
		L15.5,68.7z"/>
	<path d="M22,69.2c0,0.3,0,0.7-0.3,0.8c-0.2,0.2-0.6,0.1-0.8,0.1c-0.1-0.2-0.5-0.4-0.3-0.7c0.2-0.2,0.3-0.3,0.6-0.4
		C21.5,69,21.8,68.9,22,69.2L22,69.2z"/>
	<path d="M129.1,69.5c-0.1,0.3-0.3,0.6-0.6,0.6c-0.4,0-0.7-0.1-0.9-0.4c-0.2-0.4,0.2-0.7,0.5-0.8C128.5,68.9,129,69,129.1,69.5
		L129.1,69.5z"/>
	<path d="M121.8,69.7c0,0.3-0.3,0.6-0.5,0.7c-0.6,0.2-1-0.2-1.2-0.6c0.1-0.4,0.4-0.6,0.7-0.7C121.3,69,121.6,69.3,121.8,69.7
		L121.8,69.7z"/>
	<path d="M126.7,69.6c0,0.3-0.2,0.6-0.4,0.7c-0.3,0.1-0.7,0.1-1-0.2c-0.4-0.3-0.1-0.6,0.2-0.8C126,69.1,126.6,69.1,126.7,69.6
		L126.7,69.6z"/>
	<path d="M12,70.3c0.1,0.4-0.1,0.8-0.5,1c-0.4,0-0.8-0.2-0.9-0.6c0-0.4,0.1-0.7,0.4-0.8C11.5,69.8,11.8,70,12,70.3L12,70.3z"/>
	<path d="M119.8,70.7c0.1,0.4-0.1,0.8-0.6,1c-0.3,0.1-0.5-0.1-0.8-0.3c-0.2-0.2-0.4-0.6,0-0.8C118.8,70,119.6,70.3,119.8,70.7
		L119.8,70.7z"/>
	<path d="M33.4,71.2c0.2,0.4-0.3,0.5-0.4,0.8c-0.2,0.1-0.5,0.1-0.6,0c-0.2-0.2-0.4-0.5-0.3-0.8c0.2-0.2,0.3-0.3,0.5-0.4
		C33,70.5,33.1,70.9,33.4,71.2L33.4,71.2z"/>
	<path d="M128.4,71.4c0.1,0.3-0.2,0.4-0.2,0.6c-0.2,0.2-0.6,0.2-0.9,0.2c-0.4-0.2-0.4-0.5-0.4-0.9c0.2-0.2,0.3-0.4,0.6-0.4
		C127.8,70.9,128.3,71,128.4,71.4L128.4,71.4z"/>
	<path d="M125.9,71.6c0.2,0.5-0.3,0.7-0.6,0.8c-0.2,0-0.4-0.1-0.4,0.2c1,0.5,1.7,1.4,2.5,2.1V75c-1.4,0-2.9-0.4-3.9-1.5
		c-0.3-0.2-0.8-0.2-1.1-0.5c0.5-0.5,1.5-0.3,2.2-0.4c0.5-0.6-0.6-1,0.1-1.4c0.2,0,0.4-0.3,0.7-0.2C125.6,71.1,125.8,71.3,125.9,71.6
		L125.9,71.6z"/>
	<path d="M109.7,71.6c0.1,0.2-0.2,0.4-0.2,0.6c-0.2,0.2-0.6,0.3-0.9,0.2c-0.2-0.3-0.5-0.5-0.4-0.9C108.5,70.9,109.6,71,109.7,71.6
		L109.7,71.6z"/>
	<path d="M21,73c-0.1,0.4-0.3,0.6-0.7,0.6c-0.3,0-0.6-0.2-0.7-0.5c0-0.3,0.2-0.4,0.2-0.6C20.2,72.2,21,72.4,21,73L21,73z"/>
	<path d="M24.2,72.5c0,0.6-0.6,0.9-0.8,1.4c-0.6,1.3-1.7,2.5-3.2,2.6c-0.2-0.4,0.5-0.8,0.7-1.2c0.6-1.4,1.9-2.1,3.1-2.9H24.2
		L24.2,72.5z"/>
	<path d="M108.7,73c0,0.4-0.4,0.8-0.7,0.9c-0.4,0.1-0.6-0.2-0.8-0.3c-0.3-0.3-0.1-0.6,0-1C107.7,72.2,108.4,72.6,108.7,73L108.7,73z
		"/>
	<path d="M111.2,73.3c0,0.4-0.3,0.8-0.7,0.9c-0.1-0.1-0.3,0-0.4-0.1c-0.3-0.2-0.5-0.4-0.5-0.7c0.2-0.2,0.3-0.5,0.6-0.6
		C110.5,72.8,111.1,72.8,111.2,73.3L111.2,73.3z"/>
	<path d="M30.4,73.3c0,0.4-0.3,0.7-0.6,0.8c-0.4,0-0.6-0.2-0.8-0.5c-0.1-0.4,0.3-0.6,0.5-0.8C30,72.7,30.1,73,30.4,73.3L30.4,73.3z"
		/>
	<path d="M33.1,73.4c-0.1,0.4-0.4,0.6-0.8,0.7c-0.3-0.1-0.6-0.2-0.7-0.5c0-0.4,0.3-0.6,0.6-0.8C32.6,72.8,33,73,33.1,73.4L33.1,73.4
		z"/>
	<path d="M119.7,76.2c0.2,0.2,0.6,0.4,0.5,0.6c-0.6,0.3-1.1-0.4-1.7-0.6c-1-1-1.7-2-2.1-3.2c0.4-0.4,0.8,0.1,1.1,0.2
		C118.4,74.1,119.2,75.1,119.7,76.2L119.7,76.2z"/>
	<path d="M121.2,73.4c0.1,0.3,0.1,0.6-0.1,0.9c-0.2,0.4-0.8,0.3-1.1,0.2c-0.2-0.2-0.6-0.6-0.3-0.9c0.1-0.3,0.5-0.4,0.8-0.5
		C120.7,73.1,120.9,73.3,121.2,73.4L121.2,73.4z"/>
	<path d="M36.7,74.5c0,0.3,0.1,0.8-0.3,1c-0.4,0.1-0.8,0-1-0.5c-0.2-0.5,0.2-0.6,0.5-0.8C36.3,74.1,36.5,74.3,36.7,74.5L36.7,74.5z"
		/>
	<path d="M111.1,77.1c0.6,0.8,1,1.8,1,2.8c-0.1,0.3,0.2,0.6,0,0.8h-0.2c-1.8-1.3-2.2-3.1-2.9-4.9c-0.2-0.1-0.2-0.2-0.2-0.4
		c0.4-0.4,0.7,0.4,1.1,0.5L111.1,77.1L111.1,77.1z"/>
	<path d="M41.9,75.7C41.9,75.7,41.9,75.8,41.9,75.7c-1.5,1.2-3.8,1.9-5.6,0.8c0-0.1,0-0.3,0.2-0.4c1.2-0.4,2.3-0.9,3.5-0.8
		L41.9,75.7L41.9,75.7z"/>
	<path d="M32.9,75.9c-1.3,0.8-2.6,2.5-4.2,2.9c-0.3,0.1-0.5,0.6-0.9,0.3c0.7-2.2,3.1-3.3,5.2-3.5V75.9L32.9,75.9z"/>
	<path d="M108.7,77.7c0.1,0.3,0,0.8-0.3,0.8c-0.2,0.2-0.6,0.2-0.8,0c-0.4-0.2-0.4-0.5-0.4-0.8c0.1-0.3,0.4-0.3,0.6-0.4
		C108.3,77.4,108.5,77.4,108.7,77.7L108.7,77.7z"/>
	<path d="M105.4,77.9c-0.2,0.6-0.9,0.9-1.4,1c-1.3,0.5-2.6-0.2-3.8-0.5c0-0.3,0.4-0.2,0.6-0.4c1.3-0.3,2.7-0.6,4-0.2
		C105,77.8,105.3,77.7,105.4,77.9L105.4,77.9z"/>
	<path d="M32.9,79.1c-0.1,0.2-0.2,0.5-0.5,0.6c-0.3,0.1-0.6,0-0.8-0.2c-0.1-0.2-0.4-0.4-0.2-0.7c0.1-0.3,0.4-0.4,0.6-0.4
		C32.5,78.4,32.8,78.7,32.9,79.1L32.9,79.1z"/>
	<path d="M35.2,79.4c-0.1,0.2-0.2,0.6-0.6,0.8c-0.3,0.1-0.6-0.1-0.8-0.3c-0.1-0.2-0.2-0.5-0.1-0.8c0.1-0.2,0.4-0.2,0.6-0.4
		C34.7,78.7,35,79.1,35.2,79.4L35.2,79.4z"/>
	<path d="M108,79.8c0,0.3-0.1,0.5-0.3,0.8c-0.2,0.3-0.6,0.3-0.9,0.2c-0.3,0-0.4-0.4-0.5-0.6c-0.2-0.3,0.2-0.5,0.3-0.8
		C107.1,79,107.8,79.2,108,79.8L108,79.8z"/>
	<path d="M109.7,79.7c0,0.2,0.2,0.4,0.1,0.6c-0.2,0.2-0.4,0.7-0.9,0.5c-0.2,0.1-0.4-0.2-0.5-0.3c-0.2-0.4,0-1,0.5-1.1
		C109.3,79.3,109.5,79.6,109.7,79.7L109.7,79.7z"/>
	<path d="M33.8,80.9c0.1,0.4-0.1,0.8-0.4,1.1c-0.4,0.1-1,0.1-1.2-0.4c0-0.4,0-0.9,0.5-1.2C33.1,80.3,33.6,80.4,33.8,80.9L33.8,80.9z
		"/>
	<path d="M36,80.7c-0.1,1.1-0.3,2.5-1.4,3.1c-0.6,0.1-1.3,0.7-1.9,0.3V84C33.5,82.8,35,81.9,36,80.7L36,80.7z"/>
	<path d="M101.8,81.7c0.2,0.2-0.1,0.4-0.2,0.6c-0.2,0.3-0.7,0.2-1,0c-0.3-0.1-0.3-0.5-0.2-0.8c0.1-0.2,0.3-0.4,0.5-0.4
		C101.2,81.1,101.6,81.4,101.8,81.7L101.8,81.7z"/>
	<path d="M40,83.5c0.6,0.9,0.2,2.2,0.6,3.2c-0.7,0.1-1-0.7-1.4-1.1c-0.9-1.2-0.8-2.8-1.1-4.2c0.1-0.1,0.2-0.1,0.3-0.1
		c0.6,0.4,1,1.2,1.5,1.7C39.7,83.3,40,83.3,40,83.5L40,83.5z"/>
	<path d="M103.7,82c0,0.3-0.4,0.4-0.6,0.6c-0.3,0-0.5-0.2-0.8-0.4c-0.1-0.4,0.2-0.5,0.4-0.7C103.2,81.3,103.6,81.5,103.7,82
		L103.7,82z"/>
	<path d="M108.5,85.5c0,0.1,0,0.4-0.2,0.3h-0.2c-1.1-1-2.3-2.2-2.1-3.8l0.2,0C107.2,82.9,108.4,83.9,108.5,85.5L108.5,85.5z"/>
	<path d="M105.5,84.3c0,0.3-0.2,0.6-0.4,0.8c-0.4,0.1-1.1,0.1-1.2-0.5c0-0.4,0.4-0.6,0.6-0.8C105,83.6,105.3,83.9,105.5,84.3
		L105.5,84.3z"/>
	<path d="M102.9,85.1c-0.6,1.5-2.1,2.2-3.1,3.4c-0.2-0.1-0.1-0.4-0.1-0.6c0.4-1.5,1.6-3,3.1-3.6C103.4,84.3,102.7,84.8,102.9,85.1
		L102.9,85.1z"/>
	<path d="M105.8,86.3c0,0.4-0.4,0.5-0.6,0.7c-0.3,0-0.6-0.1-0.9-0.4c0-0.4,0.3-0.5,0.5-0.7C105.3,85.8,105.7,86,105.8,86.3
		L105.8,86.3z"/>
	<path d="M76.3,13.8c0.5,0,1,0.4,1,1c0,0.5-0.4,1-1,1H64.6c-0.5,0-1-0.4-1-1c0-0.5,0.4-1,1-1H76.3L76.3,13.8z M68,15.5
		c1.1,0,0.1-1.4-0.6-1.4h-1.1c-1.1,0-0.1,1.4,0.6,1.4H68L68,15.5z M72.8,15.5c1.1,0,0.1-1.4-0.6-1.4h-1.1c-1.1,0-0.1,1.4,0.6,1.4
		H72.8L72.8,15.5z M76.4,14.1h-0.4c-1.1,0-0.2,1.4,0.4,1.4C77.2,15.5,77.2,14.1,76.4,14.1L76.4,14.1z"/>
	<path d="M75.3,27.3l2.2,0.9l2.2-0.9l-0.9,3.3l1.8-0.4l-0.6,2l0.6,1.9l-1.6-0.4l0.7,3.6l-2.2-0.9l-2.2,0.9l0.9-3.6l-1.8,0.5l0.5-2
		l-0.5-1.9l1.7,0.3L75.3,27.3L75.3,27.3z M78.6,33.2c0.5,0,0.5-0.7,0.5-1.3c0-1.4-1.1,0-1.6-1.3c-0.4,1.1-1.5,0.1-1.5,1.2
		c0,0.8,0,1.3,0.8,1.3H78.6L78.6,33.2z M76.4,32c0,0.5,0.7,0.2,1.2,0.2c0.5,0,1.2,0.3,1.2-0.2c0-0.7-0.7-0.5-1.2-0.5
		C77.1,31.5,76.4,31.3,76.4,32L76.4,32z"/>
	<polygon points="70,32.1 70,31.7 69.7,31.6 70,31.3 69.8,31 70.2,31 70.4,30.6 70.6,31 71,31 70.8,31.3 71.1,31.6 70.7,31.7
		70.7,32.1 70.4,31.9 70,32.1 	"/>
	<polygon points="68.3,34.4 68.3,34 67.9,33.9 68.2,33.6 68,33.2 68.4,33.3 68.6,32.9 68.9,33.3 69.3,33.2 69.1,33.6 69.4,33.9
		69,34 69,34.4 68.6,34.1 68.3,34.4 	"/>
	<polygon points="71.2,34.1 71.2,33.7 70.9,33.6 71.2,33.3 71,33 71.4,33 71.6,32.6 71.8,33 72.2,33 72,33.3 72.3,33.6 72,33.7
		72,34.1 71.6,33.8 71.2,34.1 	"/>
	<polygon points="71.6,35.8 71.6,35.5 71.4,35.5 71.6,35.3 71.4,35.1 71.7,35.1 71.8,34.9 71.9,35.1 72.1,35.1 72,35.3 72.2,35.5
		72,35.5 72,35.8 71.8,35.6 71.6,35.8 	"/>
	<polygon points="68.8,37.7 68.8,37 68.2,36.8 68.7,36.3 68.4,35.7 69.1,35.8 69.5,35.1 69.8,35.8 70.5,35.7 70.2,36.3 70.7,36.8
		70.1,37 70.1,37.7 69.5,37.2 68.8,37.7 	"/>
	<polygon points="70.2,0 71.6,3.4 75.2,2.4 73.4,5.6 76.4,7.8 72.8,8.4 73,12.1 70.2,9.6 67.5,12.1 67.7,8.4 64.1,7.8 67.1,5.6
		65.3,2.4 68.9,3.4 70.2,0 	"/>
	<path d="M57.5,77c-0.4,0.2-0.6,0.3-0.5,0.7l0.5,2.1c0.1,0.4,0.1,1-0.1,1.4c-0.3,0.5-1,0.7-1.4,0.9c-0.3,0.1-1.1,0.2-1.7,0
		c-0.4-0.2-0.7-0.4-0.8-1.1l-0.5-2.2c-0.1-0.6-0.3-0.5-0.8-0.5l0-0.2l2.7-0.6l0,0.2c-0.5,0.1-0.8,0.2-0.6,0.8l0.5,2.2
		c0.1,0.4,0.3,1.3,1.4,1c1.4-0.3,1.2-1.3,1.1-1.8l-0.5-2c-0.1-0.4-0.2-0.6-0.9-0.5l0-0.2l1.7-0.4L57.5,77L57.5,77z"/>
	<path d="M61.4,77.5c-0.2-0.4-0.9-1.1-1.8-0.9c-0.4,0.1-0.8,0.4-0.7,0.8c0.1,0.4,0.3,0.5,1,0.6l1.3,0.2c0.3,0.1,1,0.3,1.1,1
		c0.1,0.6-0.2,1.5-1.7,1.8c-0.7,0.2-1.2,0-1.4,0.1c-0.2,0-0.2,0.2-0.2,0.3l-0.2,0.1l-0.4-1.6l0.2-0.1c0.3,0.6,0.9,1.3,1.9,1.1
		c0.9-0.2,0.8-0.9,0.8-1c-0.1-0.4-0.5-0.5-1.1-0.6l-0.6-0.1c-1.5-0.2-1.6-0.8-1.7-1.1c-0.1-0.4,0-1.4,1.5-1.7c0.6-0.1,1.1,0,1.3-0.1
		c0.2,0,0.2-0.1,0.2-0.3l0.2-0.1l0.3,1.4L61.4,77.5L61.4,77.5z"/>
	<path d="M66.6,80.1l-2.9,0.3l0-0.2c0.6-0.1,0.8-0.1,0.7-0.7l-0.3-3.6c-0.6,0.1-1.4,0.2-1.4,1.3l-0.2,0l-0.1-1.4l4.8-0.5l0.1,1.4
		l-0.2,0c-0.3-1.1-1.1-1-1.7-1l0.3,3.6c0.1,0.6,0.2,0.6,0.8,0.5L66.6,80.1L66.6,80.1z"/>
	<path d="M73.4,80.1l-1.7,0l-1.6-2.2l-0.2,0l0,1.3c0,0.5,0.2,0.6,0.7,0.6l0,0.2L67.8,80l0-0.2c0.6,0,0.7-0.1,0.7-0.6l0.1-3
		c0-0.6-0.2-0.6-0.7-0.6l0-0.2l2.6,0.1c0.6,0,2.3,0.1,2.3,1.2c0,0.8-0.9,1-1.3,1.1l1.6,2c0.1,0.1,0.2,0.1,0.3,0.1L73.4,80.1
		L73.4,80.1z M69.9,77.7c1.1,0,1.5-0.1,1.5-1c0-0.7-0.3-1-1-1c-0.4,0-0.5,0.1-0.5,0.3L69.9,77.7L69.9,77.7z"/>
	<path d="M78.7,80.8l-2.6-0.3l0-0.2c0.5,0,0.6,0,0.7-0.2c0-0.2-0.2-0.7-0.3-0.9l-1.8-0.2c-0.3,0.5-0.4,0.7-0.5,0.8
		c0,0.3,0.4,0.3,0.6,0.4l0,0.2l-1.6-0.2l0-0.2c0.4,0,0.6-0.2,0.9-0.7l2.2-3.5l0.2,0l1.4,3.8c0.3,0.8,0.4,1,0.8,1L78.7,80.8
		L78.7,80.8z M76.4,78.9l-0.6-1.7l-1,1.5L76.4,78.9L76.4,78.9z"/>
	<path d="M83.4,81.7l-4.6-0.8l0-0.2c0.5,0,0.7,0.1,0.8-0.3l0.6-3.2c0.1-0.4-0.2-0.5-0.6-0.6l0-0.2l2.8,0.5l0,0.2
		c-0.6-0.1-0.8-0.1-0.9,0.5l-0.6,3.2c-0.1,0.3,0.1,0.4,0.6,0.5c1.2,0.2,1.7-0.3,2.3-0.9l0.2,0L83.4,81.7L83.4,81.7z"/>
	<path d="M86.4,82.4l-2.8-0.6l0-0.2c0.4,0.1,0.7,0.1,0.8-0.3l0.7-3.2c0.1-0.4-0.3-0.5-0.6-0.6l0-0.2l2.8,0.6l0,0.2
		c-0.4-0.1-0.8-0.1-0.8,0.3l-0.7,3.2c-0.1,0.4,0.2,0.5,0.7,0.6L86.4,82.4L86.4,82.4z"/>
	<path d="M92.1,83.1l-2.6-0.3l0-0.2c0.5,0,0.6,0,0.7-0.2c0-0.2-0.2-0.7-0.3-0.9L88,81.4c-0.3,0.5-0.4,0.7-0.4,0.8
		c0,0.3,0.4,0.3,0.6,0.4l0,0.2l-1.6-0.2l0-0.2c0.4,0,0.6-0.2,0.9-0.7l2.2-3.5l0.2,0l1.4,3.7c0.3,0.8,0.4,1,0.8,1L92.1,83.1
		L92.1,83.1z M89.8,81.3l-0.6-1.7l-0.9,1.6L89.8,81.3L89.8,81.3z"/>
	<path d="M71.4,28.4c0-1.6-0.9-0.1-1.4-1.5c-0.4,1.2-1.5,0.2-1.5,1.4c0,0.5,0.1,0.8,0.4,0.9v0.5c0,0.1,0.1,0.2,0.2,0.2h1.7
		c0.1,0,0.2-0.1,0.2-0.2v-0.5C71.2,29,71.4,28.7,71.4,28.4L71.4,28.4z M70,28.7c-0.5,0-1.1,0.3-1.1-0.2c0-0.8,0.5-0.6,1-0.6
		c0.5,0,1.2-0.2,1.2,0.6C71.1,29,70.4,28.7,70,28.7L70,28.7z"/>
	<path d="M85.6,48.4c0.4,0,0.7-0.3,0.7-0.7c0-0.4-0.3-0.7-0.7-0.7c-0.4,0-0.7,0.3-0.7,0.7C84.8,48.1,85.1,48.4,85.6,48.4L85.6,48.4z
		"/>
	<path d="M82,24.2c0,0-0.4,0.6-0.4,0.7c0,0.2,0.2,0.4,0.4,0.4c0.2,0,0.4-0.2,0.4-0.4C82.4,24.9,82,24.2,82,24.2L82,24.2z"/>
	<path d="M58.1,24.2c0,0-0.4,0.6-0.4,0.7c0,0.2,0.2,0.4,0.4,0.4c0.2,0,0.4-0.2,0.4-0.4C58.4,24.9,58.1,24.2,58.1,24.2L58.1,24.2z"/>
	<path d="M64.1,24.2c0,0-0.3,0.6-0.3,0.7c0,0.2,0.2,0.4,0.4,0.4c0.2,0,0.4-0.2,0.4-0.4C64.4,24.9,64.1,24.2,64.1,24.2L64.1,24.2z"/>
	<path d="M70.1,24.2c0,0-0.4,0.6-0.4,0.7c0,0.2,0.2,0.4,0.4,0.4s0.4-0.2,0.4-0.4C70.4,24.9,70.1,24.2,70.1,24.2L70.1,24.2z"/>
	<path d="M76.1,24.2c0,0-0.4,0.6-0.4,0.7c0,0.2,0.2,0.4,0.4,0.4c0.2,0,0.4-0.2,0.4-0.4C76.4,24.9,76.1,24.2,76.1,24.2L76.1,24.2z"/>
	<path d="M58.1,32.4c0,0,0.3,0.6,0.3,0.7c0,0.2-0.2,0.4-0.4,0.4c-0.2,0-0.4-0.2-0.4-0.4C57.7,33.1,58.1,32.4,58.1,32.4L58.1,32.4z"
		/>
	<path d="M58.1,40.4c0,0,0.3,0.6,0.3,0.7c0,0.2-0.2,0.4-0.4,0.4c-0.2,0-0.4-0.2-0.4-0.4C57.7,41.1,58.1,40.4,58.1,40.4L58.1,40.4z"
		/>
	<path d="M59.1,46.8c0,0,0.4,0.6,0.4,0.7c0,0.2-0.2,0.4-0.4,0.4c-0.2,0-0.4-0.2-0.4-0.4C58.7,47.4,59.1,46.8,59.1,46.8L59.1,46.8z"
		/>
	<path d="M64.1,50.1c0,0,0.4,0.6,0.4,0.7c0,0.2-0.2,0.4-0.4,0.4c-0.2,0-0.4-0.2-0.4-0.4C63.7,50.8,64.1,50.1,64.1,50.1L64.1,50.1z"
		/>
	<path d="M82.3,32.4c0,0-0.3,0.6-0.3,0.7c0,0.2,0.2,0.4,0.4,0.4s0.4-0.2,0.4-0.4C82.7,33.1,82.3,32.4,82.3,32.4L82.3,32.4z"/>
	<path d="M82.3,40.4c0,0-0.3,0.6-0.3,0.7c0,0.2,0.2,0.4,0.4,0.4s0.4-0.2,0.4-0.4C82.7,41.1,82.3,40.4,82.3,40.4L82.3,40.4z"/>
	<path d="M81.4,46.8c0,0-0.4,0.6-0.4,0.7c0,0.2,0.2,0.4,0.4,0.4c0.2,0,0.4-0.2,0.4-0.4C81.7,47.4,81.4,46.8,81.4,46.8L81.4,46.8z"/>
	<path d="M76.4,50.1c0,0-0.3,0.6-0.3,0.7c0,0.2,0.2,0.4,0.4,0.4c0.2,0,0.4-0.2,0.4-0.4C76.7,50.8,76.4,50.1,76.4,50.1L76.4,50.1z"/>
	<path d="M70.2,53.7c0,0-0.3,0.6-0.3,0.7c0,0.2,0.2,0.4,0.4,0.4c0.2,0,0.4-0.2,0.4-0.4C70.6,54.4,70.2,53.7,70.2,53.7L70.2,53.7z"/>
	<path d="M80,41.8c0.1,0.1,0.3,0.2,0.5,0.1l0.2-0.6c0,0-0.3-0.3-0.4-0.3c-0.6,0.2-1.3,0.2-1.7,0.8c0,0.4,0.3,0.8,0.6,1
		c0.2-0.1,0.3,0.2,0.4,0.3c0,0.2-0.1,0.3-0.3,0.3c-0.5-0.5-1.2,0.2-1.6-0.4c0.2-0.6,0.5-1.2,0-1.7c0-0.1,0.2-0.2,0.1-0.3
		c-0.2-0.5-0.8-0.1-1.1-0.1c-0.6-0.1-1,0.2-1.4,0.7c0,0.2,0.1,0.4,0.3,0.6c0.2,0,0.2,0,0.3,0.2l-0.4,0.2c0.1,0.1,0.1,0.3,0.2,0.4
		c-0.3,0.1-0.5-0.3-0.6-0.5c0-0.3,0-0.8-0.4-0.9c-0.1,0-0.3,0.1-0.3,0.1c-0.1,0.1-0.2,0.4-0.2,0.6c0,0.3,0.1,0.7,0.1,0.7
		s1.2,0.9,1.4,1.4c-0.3,0.7-0.3,1.6-1.1,2c-0.2,0.2-0.2,0.4-0.2,0.6l0.2,0.2c0.5-0.3,1.4-0.3,1.4-1.2c0.2-0.3,0.4-0.7,0.7-1
		c0.4-0.1,0.7,0.1,0.9,0.4c-0.1,0.6-0.5,0.9-1,1.1c-0.1,0.1,0,0.2,0,0.3c0.2,0.3,0.6,0.2,0.8,0.1c0.6-0.4,0.9-1.2,1.5-1.4
		c0.1,0.4-0.8,0.5-0.2,0.9c0.3-0.1,0.8,0,1-0.4c-0.3-0.6,0.9-0.9,0.2-1.5c0-0.6,0.6-0.8,0.6-1.4c-0.2-0.6-0.9-0.6-1.1-1.2
		C79.4,41.6,79.8,41.6,80,41.8L80,41.8z"/>
	<path d="M52.5,48.7c0.4,0,0.7-0.3,0.7-0.7c0-0.4-0.3-0.7-0.7-0.7c-0.4,0-0.7,0.3-0.7,0.7C51.7,48.4,52.1,48.7,52.5,48.7L52.5,48.7z
		"/>
	<path d="M13.6,71.4c0.4,0,0.7-0.3,0.7-0.7c0-0.4-0.3-0.7-0.7-0.7s-0.7,0.3-0.7,0.7C12.9,71,13.2,71.4,13.6,71.4L13.6,71.4z"/>
	<path d="M38.3,76.9L38.3,76.9L38.3,76.9l-0.1-0.1v0C38.2,76.9,38.2,76.9,38.3,76.9L38.3,76.9h-0.2v0c0,0,0,0,0,0v-0.1c0,0,0,0,0,0
		v0h0.1C38.3,76.7,38.3,76.7,38.3,76.9C38.3,76.8,38.3,76.8,38.3,76.9L38.3,76.9C38.3,76.9,38.3,76.9,38.3,76.9L38.3,76.9L38.3,76.9
		z M38.2,76.8C38.3,76.8,38.3,76.8,38.2,76.8C38.3,76.8,38.3,76.7,38.2,76.8C38.2,76.7,38.2,76.7,38.2,76.8L38.2,76.8L38.2,76.8z"/>
	<path d="M38.5,76.8C38.4,76.8,38.4,76.7,38.5,76.8C38.4,76.7,38.4,76.7,38.5,76.8C38.4,76.8,38.4,76.8,38.5,76.8L38.5,76.8
		C38.4,76.8,38.5,76.8,38.5,76.8C38.5,76.9,38.4,76.9,38.5,76.8C38.4,76.9,38.4,76.9,38.5,76.8C38.4,76.9,38.4,76.9,38.5,76.8
		l-0.1,0.1v0L38.5,76.8C38.4,76.8,38.4,76.9,38.5,76.8C38.4,76.9,38.4,76.8,38.5,76.8C38.4,76.8,38.4,76.8,38.5,76.8L38.5,76.8
		C38.4,76.8,38.4,76.8,38.5,76.8C38.4,76.8,38.4,76.7,38.5,76.8C38.4,76.7,38.4,76.7,38.5,76.8C38.4,76.7,38.4,76.7,38.5,76.8
		L38.5,76.8L38.5,76.8L38.5,76.8L38.5,76.8z"/>
	<path d="M38.7,76.7C38.7,76.7,38.7,76.7,38.7,76.7l-0.1,0.1h0l0-0.1h0l0,0.1h0l0-0.1c0,0,0,0,0,0v0h0.1v0c0,0,0,0,0,0c0,0,0,0,0,0
		l0,0.1h0l0-0.1l0,0c0,0,0,0,0,0v0L38.7,76.7L38.7,76.7C38.6,76.7,38.6,76.7,38.7,76.7C38.6,76.8,38.6,76.8,38.7,76.7L38.7,76.7
		L38.7,76.7L38.7,76.7C38.7,76.8,38.7,76.8,38.7,76.7C38.7,76.7,38.7,76.7,38.7,76.7L38.7,76.7L38.7,76.7L38.7,76.7L38.7,76.7z"/>
	<path d="M38.7,76.9C38.7,76.9,38.8,76.9,38.7,76.9C38.8,76.8,38.8,76.8,38.7,76.9C38.8,76.8,38.8,76.8,38.7,76.9
		C38.7,76.8,38.7,76.8,38.7,76.9c0-0.1,0-0.1,0.1-0.1c0,0,0.1,0,0.1,0.1C38.8,76.8,38.8,76.9,38.7,76.9L38.7,76.9L38.7,76.9z
		 M38.8,76.8C38.8,76.8,38.8,76.8,38.8,76.8C38.8,76.8,38.8,76.8,38.8,76.8C38.8,76.8,38.8,76.7,38.8,76.8
		C38.7,76.7,38.7,76.8,38.8,76.8C38.7,76.8,38.7,76.8,38.8,76.8L38.8,76.8z"/>
	<path d="M38.8,76.8C38.9,76.8,38.9,76.8,38.8,76.8C38.9,76.8,38.9,76.8,38.8,76.8C38.9,76.9,38.9,76.9,38.8,76.8
		C38.8,76.9,38.8,76.9,38.8,76.8C38.8,76.9,38.8,76.8,38.8,76.8C38.8,76.8,38.9,76.9,38.8,76.8C38.9,76.9,38.9,76.9,38.8,76.8
		C38.9,76.8,38.9,76.8,38.8,76.8C38.9,76.8,38.8,76.8,38.8,76.8L38.8,76.8L38.8,76.8L38.8,76.8L38.8,76.8L38.8,76.8L38.8,76.8z"/>
	<path d="M84,23.3L84,23.3l-27.6,0v0h0l0,21.1c0,2.2,0.9,4,2.2,4.6l10.6,6.8c0.2,0.3,0.6,0.4,1,0.4c0.3,0,0.6-0.1,0.9-0.3L81.8,49
		c1.3-0.6,2.2-2.5,2.2-4.6L84,23.3L84,23.3L84,23.3z M83.3,44.7c-0.1,1.6-0.7,2.9-1.8,3.7L71,55H71c-0.2,0.2-0.5,0.3-0.8,0.3
		c-0.3,0-0.6-0.1-0.8-0.3L59,48.4c-1.1-0.8-1.6-2.1-1.8-3.7V24h26.1V44.7L83.3,44.7z"/>
	<path d="M73.9,54.1l0.3-0.2C74.1,53.9,74,54,73.9,54.1L73.9,54.1z"/>
	<path d="M53.1,82.9l-2.6,0.3l0-0.2c0.5-0.1,0.6-0.1,0.6-0.3c0-0.2-0.3-0.7-0.5-0.9l-1.8,0.2c-0.2,0.5-0.3,0.8-0.3,0.9
		c0,0.3,0.4,0.2,0.7,0.2l0,0.2l-1.6,0.2l0-0.2c0.4-0.1,0.5-0.3,0.7-0.9l1.4-3.9l0.2,0l2.2,3.3c0.4,0.7,0.6,0.9,1,0.8L53.1,82.9
		L53.1,82.9z M50.4,81.6l-1-1.5l-0.6,1.7L50.4,81.6L50.4,81.6z"/>
	<path d="M98.9,73c-0.5-1.2-1.5-2.1-2.7-2.5c-1.3-0.3-2.6-0.1-3.5,0.9c-1.4,1.2-0.4,3.1-0.4,4.6c0,0.3,0,0.6-0.3,0.7
		c-5.8-0.5-11.1-2-16.8-2.6c-1.3-0.2-2.6-0.2-3.9-0.4l-1.6-0.2c-5,0.2-9.9,0.4-14.6,1.6c-1,0.3-2.1,0.4-3.1,0.8
		c-0.7-0.1-1.3,0.4-2,0.2l-1.3,0.3c-0.1,0-0.3,0-0.4,0c-0.6-1.6,1.3-2.6,0.7-4.2c-0.5-0.9-1.5-1.8-2.7-1.6c-1.3-0.2-2.5,0.6-3.2,1.6
		c-0.9,2,0.2,4.1,0.6,6c-0.1,0.6,0.6,1.4,0,1.9c-1.3-0.9-2.9-1.4-4.5-0.9c-0.5,0.2-1.3-0.1-1.6,0.5c1.7,0.9,3.9,0.8,5.8,0.7
		c0.2-0.1,0.4-0.1,0.6,0c0.2,1-0.2,2.4,0.4,3.4c0.7,1,1.9,1.2,3.1,1.3c3.7-0.1,6.9-1.2,10.2-2c0.5,0,0.9-0.3,1.5-0.3
		c1.8-0.4,3.7-0.7,5.6-0.8c-0.8,1.1-1.3,2.3-1.7,3.6c-0.5,1.1,0.8,1.2,1.2,1.8c-1.2,0.4-2.1,1.2-3.3,1.7c-2.5-0.1-4.7,0.9-7.1,1.2
		c0,0.5,0.8,0.4,0.9,0.9c-0.1,0.4-0.5,0.4-0.8,0.6c0,0.2,0,0.3,0.2,0.3c0.2-0.3,0.8-0.1,1-0.4c0.8,0,1.5-0.2,2.2-0.3
		c0.7-0.3,1.4-0.3,2-0.8c0.8-0.2,1.3-0.8,2.2-1c1.2,0,2.3-0.4,3.4-0.5v0.2c-0.9,1.5-1.9,3-2.8,4.4c-0.2,0.3,0,0.6,0.3,0.6
		c0.6,0.2,1.1,0,1.5-0.2c0.8-1.4,1.6-2.8,2.3-4.3c0.3-1.4,1.3-2.1,2.3-3c0.2-0.1,0.4-0.3,0.6-0.1c-0.8,0.9-1.3,1.8-1.9,2.8
		c-0.3,1.1-0.4,2.6,0.6,3.5c0.5,0.4,1.2,0.3,1.8,0.3c1.5-0.8,3.5,0.5,4.7-1c0.7-0.1,0.8,0.7,1.2,1.1c0.7,0.2,1.4,0.9,2.1,0.4
		c0-0.4-0.5-0.8-0.8-1.2c-0.5-0.8-1.1-1.5-1.5-2.3c-0.2-0.6-0.6-0.9-0.6-1.5c0.7,0.2,1.3,0.7,2.1,0.8c0.7,0.3,1.5,0.2,2.1,0.6
		c0.5,0.7,1.3,1.1,2,1.5c1,0.5,2.1,0.6,3.1,1c0.4,0,1,0.4,1.3,0c-0.2-0.2-0.4-0.3-0.6-0.4c-0.1-0.5,0.7-0.2,1-0.6
		c-0.1-0.2-0.3-0.3-0.5-0.3c-0.6-0.3-2-0.4-2.4-0.6c-0.5-0.1-0.9-0.3-1.4-0.4c-2.4,0-3.7-2.2-5.6-3c0.4-0.4,1.1-0.7,1.4-1.3
		c0.4-0.6,0.5-1.5,0.1-2.1c-0.4-1.2-1.9-1.1-2.9-1.8l0.1-0.1c1.5-0.1,2.9,0.3,4.3,0.6c3.8,0.5,7.3,2,11.3,2c2.2,0,4.9,0.1,6-2
		c0.2-1.2,0.4-2.5,0.6-3.7C97.7,77.1,99.1,75.2,98.9,73L98.9,73z M56,91.2l-0.6-0.5c0.3-0.4,0.9-0.2,1.3-0.4c1-0.3,2.2-0.7,3.4-0.5
		C59,90.8,57.4,90.9,56,91.2L56,91.2z M80.8,90.6c0.9,0.4,2.9,0.8,4.2,1c-0.1,0.5-1.1,0-1,0.8c-1.2-0.5-2.7-0.7-3.6-1.7
		C80.5,90.7,80.6,90.6,80.8,90.6L80.8,90.6z M43.6,73.6c0.1-0.7,0.3-1.5,1-2c1-0.5,2.3-0.4,3.1,0.1c0.3,0.2,0.5,0.4,0.6,0.8
		c0.2,0.7-0.1,1.4-0.6,1.8h-0.4c0-0.6,0-1.3,0.2-1.8c0-0.5-0.4-0.5-0.8-0.7c-0.7-0.2-1.3,0.1-1.8,0.4c-0.4,0.5-0.8,1.1-0.5,1.8
		c0.3,0.4,0,1,0.2,1.5l-0.1,0.2C44.1,75.1,43.4,74.5,43.6,73.6L43.6,73.6z M45.4,74.8c0.6,0.4,1.4,0.2,2.1,0.4
		c0.1,0.4,0.1,1-0.2,1.4c-0.7-0.2-1.5-0.1-1.9-0.7C45.5,75.5,45.3,75.1,45.4,74.8L45.4,74.8z M45.3,73.4c0.1-0.3,0-0.8,0.4-0.9
		c0.3-0.1,0.7-0.1,0.8,0.2c0,0.5-0.1,1-0.2,1.4C45.7,74.2,45.5,73.9,45.3,73.4L45.3,73.4z M63.9,86.3c-0.2-1.4,0.4-2.6,1.3-3.6
		c0.6-0.1,1.2-0.2,1.7,0.1c-1,0.3-2.3,0.5-2.6,1.8c0,0.5-0.1,0.8,0.1,1.2c0.4,0.8,1.4,0.4,2,1c0,0.2-0.2,0.4-0.4,0.5
		C65.4,86.9,64.5,86.8,63.9,86.3L63.9,86.3z M62.5,89c1-0.4,1.9-1.2,3-0.9C64.7,88.7,63.5,89,62.5,89L62.5,89z M66.3,89.4
		c-0.6,1.3-1.2,2.5-1.9,3.8c-0.1,0.2-0.4,0.2-0.6,0.3c0-0.6,0.6-1,0.8-1.5c0.8-1.1,1.1-2.2,2-3.3C66.7,88.9,66.3,89.1,66.3,89.4
		L66.3,89.4z M67.2,87.1v0.2h-0.1L67.2,87.1L67.2,87.1L67.2,87.1C67.3,87.1,67.2,87.1,67.2,87.1L67.2,87.1L67.2,87.1z M66.9,86
		c-0.7-0.1-1.3-0.3-1.9-0.5c-0.4-0.4,0-0.8,0-1.3c0.6-0.9,2.1-1.3,2.9-0.5C67.8,84.6,67.4,85.4,66.9,86L66.9,86z M67.8,86
		c0.1-0.5,0.4-1.2,0.6-1.7C68.4,84.9,68.1,85.6,67.8,86L67.8,86z M68.2,82.8c-0.5-0.1-0.8-0.7-1.3-0.7c0.5-0.2,1-0.1,1.5,0
		C68.6,82.3,68.2,82.5,68.2,82.8L68.2,82.8z M68.7,84L68.7,84l0-0.4h0V84L68.7,84z M68.7,85.8c0-0.2,0.1-0.4,0.1-0.6
		c0.2-0.2,0.4,0.2,0.5,0.3C69.2,85.7,69,85.9,68.7,85.8L68.7,85.8z M69.3,83.3c0.2-0.6,0.2-1,0.6-1.5c0.4,0,0.8,0,1.1,0.2
		c0.1,0.8,1.1,1.9,0,2.6c-0.4,0.2-0.9,0.5-1.3,0.2C69.2,84.3,69.1,83.9,69.3,83.3L69.3,83.3z M72.2,82.2c-0.1-0.4,0.4-0.1,0.5-0.2
		l1.2,0.1C73.3,82,72.5,83.5,72.2,82.2L72.2,82.2z M74.2,82.7c-0.5,0.2-0.8,0.7-1.3,0.8C73.1,83.1,73.7,82.7,74.2,82.7L74.2,82.7z
		 M72.5,85.2v0.1h0L72.5,85.2L72.5,85.2L72.5,85.2z M72.6,87.7c0,0.1,0,0.2-0.1,0.3l-0.9-0.7C72,87.1,72.4,87.3,72.6,87.7L72.6,87.7
		z M71.5,86.4c0.1-0.1,0.3-0.1,0.4,0H71.5L71.5,86.4z M71,85.8c0.2-0.2,0.4-0.6,0.6-0.6c0,0,0,0.1,0.1,0.1
		C71.5,85.5,71.3,85.7,71,85.8L71,85.8z M70.1,85.7h-0.2l0.2-0.2C70.3,85.6,70.1,85.7,70.1,85.7L70.1,85.7z M70.2,87.3
		c0.5-0.6,1,0.3,1.2,0.8c0.6,0.9,2.1,1.7,1.5,2.9c-0.8,0.7-1.9,0-2.8,0.6c-0.4,0-1.2,0.1-1.4-0.4C69.1,89.8,69.5,88.4,70.2,87.3
		L70.2,87.3z M69.1,88l0.2-0.3c-0.3,1-0.8,2-1.3,2.9C67.7,89.6,68.7,88.9,69.1,88L69.1,88z M70.8,92.8c-0.8,0-1.9,0.5-2.6-0.2
		c0-0.3-0.3-0.5-0.3-0.8c0.6-0.2,1.2,0.5,1.8,0c0.9,0,1.9-0.1,2.8,0.1c0.4,0.1,1.1-0.7,1.2,0.1C73.4,93.3,71.8,92.4,70.8,92.8
		L70.8,92.8z M73.1,87v-0.1h0.1L73.1,87L73.1,87L73.1,87z M73.4,89.5c0,0.4,0.4,0.6,0.2,0.9C73.5,90.3,73.2,89.9,73.4,89.5
		L73.4,89.5z M74.5,91.9L74.3,92c-0.2-0.2-0.1-0.6-0.1-0.8C74.4,91.4,74.6,91.6,74.5,91.9L74.5,91.9z M76.4,92.9
		c0,0.1-0.2,0.1-0.3,0c-1.2-1.5-1.7-3.1-2.5-4.8l0.2,0C74.7,89.6,75.5,91.4,76.4,92.9L76.4,92.9z M77.9,89.2c-0.1,0-0.1,0.1-0.1,0.2
		c-1.2,0-1.9-0.6-2.8-1.2l0-0.2C76.1,88,77,88.7,77.9,89.2L77.9,89.2z M76.9,83.9c0.5,0.1,0.5,0.6,0.6,1c0,0.9-0.5,1.6-1.3,2
		c-0.4,0.2-1.1,0.3-1.5,0.2c1,0,2-0.4,2.4-1.4L76.9,83.9L76.9,83.9z M76,83.7c0.2,0.6,0.6,1.1,0.4,1.8c-0.4,0.8-1.2,0.8-1.9,0.9
		c-0.4,0-0.6-0.1-0.9-0.3c0-0.2,0-0.3-0.2-0.4c0.1-0.5-0.9-1-0.2-1.5C73.8,83.7,75.3,82.3,76,83.7L76,83.7z M96.2,80.8
		c-0.3,0.4,0,1-0.4,1.4c0,0.7-0.6,1.1-1.1,1.4c-4.7,1-9.4-0.6-13.9-1.4c-6.4-1.4-13.8-1.8-20.3-0.3c-3.1,0.6-6,1.3-9,2.1
		c-1.8,0.2-3.8,0.5-5.6,0c-1.4-0.7-0.8-2.5-1.3-3.8c0.1-1-0.3-1.8-0.3-2.8c-0.1-0.3-0.2-0.7-0.2-1c0.6,0.1,1.2,0.5,1.8,0.7
		c3.3,0.6,6.3-0.4,9.4-1c3-0.6,6-1.2,9.2-1.4c3.6,0,7.2-0.2,10.6,0.4c1.1,0,2.1,0.3,3.1,0.4c2.2,0.3,4.3,0.9,6.5,1
		c0.4,0.1,0.8,0.1,1.2,0.2c3.6,0.6,7.6,1.6,11,0C97,78.1,96.4,79.4,96.2,80.8L96.2,80.8z M95.1,75.9c0,0.6-0.6,0.5-0.9,0.7h-1
		c-0.2-0.3-0.1-0.8-0.1-1.1C93.7,75.7,94.5,75.7,95.1,75.9L95.1,75.9z M94.6,74.9c0.4-0.4-0.1-3,1.1-1.3c0,0.3,0,0.8-0.3,1
		C95.2,74.8,94.9,75.1,94.6,74.9L94.6,74.9z M97.8,74.5c-0.4,0.7-0.9,1.2-1.7,1.4c0-1,0.9-1.6,0.6-2.7c-0.5-0.8-1.5-1-2.5-0.8
		c-0.4,0.2-0.2,0.6-0.3,1l-0.2,1.3c-0.8,0-0.8-0.7-1.1-1.3c0-0.8,0.4-1.7,1.2-2.1c0.6-0.3,1.7-0.3,2.3,0.1c0.5,0.1,1.1,0.4,1.3,0.8
		C98.1,72.8,97.9,73.8,97.8,74.5L97.8,74.5z"/>
	<line class="st0" x1="146.7" y1="59.7" x2="395.7" y2="59.7"/>
	<path class="st1" d="M146.7,87.1v-0.4h0.5c0.5,0,0.8-0.1,1.1-0.2c0.3-0.1,0.4-0.3,0.6-0.6c0.1-0.2,0.1-0.7,0.1-1.5V74
		c0-0.8,0-1.3-0.1-1.5s-0.3-0.4-0.5-0.5c-0.3-0.2-0.6-0.2-1.1-0.2h-0.5v-0.4h7.1c1.9,0,3.4,0.3,4.6,0.8c1.4,0.6,2.5,1.6,3.2,2.9
		c0.7,1.3,1.1,2.7,1.1,4.3c0,1.1-0.2,2.1-0.5,3.1c-0.4,0.9-0.8,1.7-1.4,2.3c-0.6,0.6-1.2,1.1-2,1.5c-0.7,0.4-1.7,0.7-2.7,0.9
		c-0.5,0.1-1.2,0.1-2.3,0.1H146.7L146.7,87.1z M152.7,72.2v12.4c0,0.7,0,1.1,0.1,1.2s0.2,0.3,0.3,0.3c0.2,0.1,0.5,0.2,0.9,0.2
		c1.3,0,2.3-0.4,3-1.3c0.9-1.2,1.4-3.1,1.4-5.6c0-2-0.3-3.7-1-4.9c-0.5-1-1.2-1.6-2-1.9C155,72.3,154,72.1,152.7,72.2L152.7,72.2z"
		/>
	<path class="st1" d="M173.4,81.3h-6c0.1,1.5,0.5,2.6,1.2,3.4c0.5,0.6,1.2,1,1.9,1c0.5,0,0.9-0.1,1.3-0.4c0.4-0.3,0.8-0.7,1.2-1.4
		l0.4,0.3c-0.6,1.2-1.3,2.1-2,2.6c-0.7,0.5-1.6,0.7-2.5,0.8c-1.6,0-2.9-0.6-3.7-1.9c-0.7-1-1-2.3-1-3.8c0-1.8,0.5-3.3,1.5-4.4
		c1-1.1,2.2-1.6,3.5-1.6c1.1,0,2.1,0.5,2.9,1.4C172.9,78.1,173.4,79.5,173.4,81.3L173.4,81.3z M170.5,80.5c0-1.3-0.1-2.1-0.2-2.6
		c-0.1-0.5-0.3-0.8-0.6-1.1c-0.2-0.1-0.4-0.2-0.7-0.2c-0.4,0-0.7,0.2-1,0.6c-0.5,0.7-0.7,1.6-0.7,2.9v0.4H170.5L170.5,80.5z"/>
	<path class="st1" d="M178.6,86v4.1c0,0.6,0,0.9,0.1,1.1c0.1,0.2,0.2,0.3,0.4,0.4c0.2,0.1,0.6,0.1,1.1,0.1v0.4H174v-0.4
		c0.5,0,0.8-0.2,1.1-0.4c0.2-0.2,0.2-0.6,0.2-1.4V78.5c0-0.8-0.1-1.3-0.3-1.5c-0.2-0.2-0.5-0.3-1-0.4v-0.4h4.6v1.4
		c0.4-0.6,0.8-1,1.2-1.2c0.6-0.4,1.2-0.6,1.9-0.6c0.8,0,1.5,0.3,2.2,0.8c0.7,0.5,1.2,1.2,1.5,2.1c0.3,0.9,0.5,1.9,0.5,2.9
		c0,1.1-0.2,2.1-0.5,3c-0.4,0.9-0.9,1.6-1.5,2.1c-0.7,0.5-1.4,0.7-2.3,0.7c-0.6,0-1.2-0.1-1.7-0.4C179.4,86.9,179,86.5,178.6,86
		L178.6,86z M178.6,84.8c0.7,1,1.4,1.4,2.2,1.4c0.4,0,0.8-0.2,1-0.7c0.4-0.7,0.6-1.9,0.6-3.8c0-1.9-0.2-3.2-0.7-3.9
		c-0.3-0.5-0.7-0.7-1.2-0.7c-0.8,0-1.4,0.6-1.9,1.7V84.8L178.6,84.8z"/>
	<path class="st1" d="M193.2,85.5c-1.3,1.2-2.5,1.8-3.6,1.8c-0.6,0-1.1-0.2-1.6-0.6c-0.4-0.4-0.6-0.9-0.6-1.5c0-0.8,0.4-1.6,1.1-2.3
		c0.7-0.7,2.3-1.6,4.7-2.7v-1.1c0-0.8,0-1.3-0.1-1.6c-0.1-0.2-0.3-0.4-0.5-0.6c-0.3-0.2-0.5-0.2-0.8-0.2c-0.5,0-0.9,0.1-1.3,0.3
		c-0.2,0.1-0.3,0.3-0.3,0.5c0,0.2,0.1,0.4,0.3,0.6c0.3,0.3,0.4,0.7,0.4,1c0,0.4-0.1,0.7-0.4,1c-0.3,0.3-0.7,0.4-1.1,0.4
		c-0.5,0-0.9-0.1-1.2-0.4c-0.3-0.3-0.5-0.6-0.5-1c0-0.6,0.2-1.1,0.7-1.6c0.4-0.5,1.1-0.9,1.9-1.2s1.6-0.4,2.5-0.4
		c1,0,1.9,0.2,2.5,0.7c0.6,0.4,1,0.9,1.2,1.4c0.1,0.3,0.2,1.1,0.2,2.3v4.3c0,0.5,0,0.8,0.1,0.9c0,0.1,0.1,0.2,0.2,0.3
		c0.1,0.1,0.2,0.1,0.3,0.1c0.2,0,0.4-0.1,0.6-0.4l0.4,0.3c-0.4,0.6-0.8,1-1.2,1.3c-0.4,0.3-0.9,0.4-1.4,0.4c-0.6,0-1.1-0.1-1.5-0.4
		C193.5,86.6,193.3,86.1,193.2,85.5L193.2,85.5z M193.2,84.7V81c-0.9,0.6-1.6,1.1-2.1,1.8c-0.3,0.4-0.5,0.8-0.5,1.3
		c0,0.4,0.1,0.7,0.4,0.9c0.2,0.2,0.5,0.3,0.8,0.3C192.3,85.3,192.7,85.1,193.2,84.7L193.2,84.7z"/>
	<path d="M203,76.2v2.5c0.7-1.1,1.4-1.9,1.9-2.3c0.5-0.4,1.1-0.6,1.6-0.6c0.4,0,0.8,0.1,1,0.4c0.3,0.3,0.4,0.6,0.4,1.1
		c0,0.5-0.1,0.9-0.4,1.2c-0.3,0.3-0.6,0.4-0.9,0.4c-0.4,0-0.8-0.1-1.1-0.4s-0.5-0.4-0.5-0.4c-0.1,0-0.2-0.1-0.3-0.1
		c-0.2,0-0.4,0.1-0.6,0.3c-0.3,0.3-0.6,0.6-0.7,1.1c-0.3,0.8-0.4,1.6-0.4,2.5v2.5l0,0.7c0,0.4,0,0.7,0.1,0.9
		c0.1,0.2,0.2,0.4,0.4,0.5c0.2,0.1,0.5,0.2,0.9,0.2v0.4h-5.9v-0.4c0.5,0,0.8-0.2,1-0.4c0.2-0.2,0.3-0.8,0.3-1.8v-6.1
		c0-0.6,0-1-0.1-1.2c-0.1-0.2-0.2-0.4-0.3-0.5c-0.1-0.1-0.4-0.2-0.8-0.2v-0.4H203L203,76.2z"/>
	<path d="M213.5,72.2v4h2.6v1.2h-2.6v6.8c0,0.6,0,1,0.1,1.2c0.1,0.2,0.2,0.3,0.3,0.4c0.1,0.1,0.3,0.2,0.4,0.2c0.5,0,1-0.4,1.4-1.2
		l0.4,0.3c-0.6,1.5-1.7,2.3-3.1,2.3c-0.7,0-1.3-0.2-1.8-0.6c-0.5-0.4-0.8-0.8-0.9-1.3c-0.1-0.3-0.1-1-0.1-2.2v-5.9h-1.4v-0.4
		c1-0.7,1.8-1.4,2.5-2.2c0.7-0.8,1.3-1.6,1.8-2.6H213.5L213.5,72.2z"/>
	<path d="M221.7,76.2v1.4c0.6-0.7,1.2-1.1,1.7-1.4c0.5-0.3,1.1-0.4,1.7-0.4c0.7,0,1.3,0.2,1.8,0.5s0.8,0.8,1.1,1.5
		c0.6-0.7,1.2-1.2,1.8-1.5c0.6-0.3,1.2-0.5,1.8-0.5c0.8,0,1.4,0.2,1.8,0.5c0.5,0.3,0.8,0.8,0.9,1.3c0.2,0.5,0.3,1.4,0.3,2.6v4.5
		c0,0.8,0.1,1.4,0.2,1.6c0.2,0.2,0.5,0.3,1,0.4v0.4H230v-0.4c0.4,0,0.8-0.2,1-0.5c0.1-0.2,0.2-0.7,0.2-1.5V80c0-1,0-1.6-0.1-1.9
		s-0.2-0.5-0.4-0.6c-0.2-0.1-0.4-0.2-0.6-0.2c-0.3,0-0.7,0.1-1,0.4c-0.3,0.2-0.7,0.6-1,1.1v5.9c0,0.8,0.1,1.3,0.2,1.5
		c0.2,0.3,0.5,0.4,1,0.5v0.4h-5.7v-0.4c0.3,0,0.5-0.1,0.7-0.2c0.2-0.1,0.3-0.3,0.4-0.5c0.1-0.2,0.1-0.6,0.1-1.3V80
		c0-1,0-1.6-0.1-1.9s-0.2-0.4-0.4-0.6c-0.2-0.1-0.4-0.2-0.6-0.2c-0.3,0-0.6,0.1-0.9,0.2c-0.4,0.2-0.8,0.7-1.2,1.2v5.9
		c0,0.8,0.1,1.3,0.2,1.5c0.2,0.2,0.5,0.4,1,0.4v0.4h-5.6v-0.4c0.5,0,0.8-0.2,1-0.4c0.1-0.2,0.2-0.7,0.2-1.5v-6.2
		c0-0.8-0.1-1.3-0.2-1.5c-0.1-0.2-0.5-0.3-0.9-0.4v-0.4H221.7L221.7,76.2z"/>
	<path class="st1" d="M245.7,81.3h-6c0.1,1.5,0.5,2.6,1.2,3.4c0.5,0.6,1.2,1,1.9,1c0.5,0,0.9-0.1,1.3-0.4c0.4-0.3,0.8-0.7,1.2-1.4
		l0.4,0.3c-0.6,1.2-1.3,2.1-2,2.6c-0.7,0.5-1.6,0.7-2.5,0.8c-1.6,0-2.9-0.6-3.7-1.9c-0.7-1-1-2.3-1-3.8c0-1.8,0.5-3.3,1.5-4.4
		c1-1.1,2.2-1.6,3.5-1.6c1.1,0,2.1,0.5,2.9,1.4C245.2,78.1,245.6,79.5,245.7,81.3L245.7,81.3z M242.8,80.5c0-1.3-0.1-2.1-0.2-2.6
		c-0.1-0.5-0.3-0.8-0.6-1.1c-0.2-0.1-0.4-0.2-0.7-0.2c-0.4,0-0.7,0.2-1,0.6c-0.5,0.7-0.7,1.6-0.7,2.9v0.4H242.8L242.8,80.5z"/>
	<path d="M251.3,76.2v1.4c0.6-0.6,1.1-1.1,1.6-1.3c0.5-0.3,1.1-0.4,1.7-0.4c0.7,0,1.3,0.2,1.8,0.6c0.5,0.4,0.8,0.9,0.9,1.5
		c0.1,0.4,0.2,1.3,0.2,2.6v4.3c0,0.8,0.1,1.4,0.2,1.6c0.2,0.2,0.5,0.3,1,0.4v0.4h-5.5v-0.4c0.4-0.1,0.7-0.2,0.9-0.5
		c0.1-0.2,0.2-0.7,0.2-1.5v-4.9c0-0.9,0-1.5-0.1-1.7s-0.2-0.4-0.4-0.5c-0.2-0.1-0.3-0.2-0.6-0.2c-0.7,0-1.3,0.5-1.9,1.4v5.9
		c0,0.8,0.1,1.3,0.2,1.6c0.2,0.2,0.4,0.4,0.9,0.4v0.4h-5.5v-0.4c0.5,0,0.8-0.2,1-0.4c0.1-0.2,0.2-0.7,0.2-1.5v-6.2
		c0-0.8-0.1-1.3-0.2-1.5c-0.1-0.2-0.5-0.3-0.9-0.4v-0.4H251.3L251.3,76.2z"/>
	<path d="M263.7,72.2v4h2.6v1.2h-2.6v6.8c0,0.6,0,1,0.1,1.2c0.1,0.2,0.2,0.3,0.3,0.4c0.1,0.1,0.3,0.2,0.4,0.2c0.5,0,1-0.4,1.4-1.2
		l0.4,0.3c-0.6,1.5-1.7,2.3-3.1,2.3c-0.7,0-1.3-0.2-1.8-0.6c-0.5-0.4-0.8-0.8-0.9-1.3c-0.1-0.3-0.1-1-0.1-2.2v-5.9h-1.4v-0.4
		c1-0.7,1.8-1.4,2.5-2.2c0.7-0.8,1.3-1.6,1.8-2.6H263.7L263.7,72.2z"/>
	<path class="st1" d="M277.7,75.9c1,0,1.8,0.2,2.7,0.7s1.4,1.2,1.9,2.1c0.4,0.9,0.6,1.9,0.6,3c0,1.6-0.4,2.9-1.2,3.9
		c-1,1.3-2.3,1.9-4,1.9c-1.6,0-2.9-0.6-3.8-1.7c-0.9-1.2-1.3-2.5-1.3-4c0-1.6,0.5-2.9,1.4-4.1C274.9,76.4,276.2,75.9,277.7,75.9
		L277.7,75.9z M277.8,76.7c-0.4,0-0.7,0.2-1,0.5c-0.3,0.3-0.5,0.9-0.6,1.8c-0.1,0.9-0.1,2.1-0.1,3.7c0,0.8,0.1,1.6,0.2,2.3
		c0.1,0.6,0.3,1,0.5,1.3s0.6,0.4,1,0.4c0.4,0,0.6-0.1,0.9-0.3c0.3-0.3,0.5-0.6,0.6-1.1c0.2-0.7,0.2-2.2,0.2-4.5
		c0-1.3-0.1-2.2-0.2-2.7c-0.1-0.5-0.4-0.9-0.7-1.1C278.4,76.8,278.1,76.7,277.8,76.7L277.8,76.7z"/>
	<path d="M288.8,77.3v7.6c0,0.7,0.1,1.2,0.2,1.4c0.3,0.3,0.7,0.4,1.4,0.4v0.4h-6.5v-0.4c0.5,0,0.8-0.1,1-0.2
		c0.2-0.1,0.4-0.3,0.4-0.4c0.1-0.2,0.1-0.6,0.1-1.2v-7.6h-1.6v-1.1h1.6v-0.8l0-0.6c0-1.1,0.4-2.1,1.2-2.8c0.8-0.8,1.9-1.1,3.4-1.1
		c1,0,1.7,0.2,2.1,0.5c0.5,0.4,0.7,0.8,0.7,1.2c0,0.4-0.1,0.7-0.4,0.9s-0.7,0.4-1.1,0.4c-0.4,0-0.7-0.1-1-0.3
		c-0.2-0.2-0.4-0.4-0.4-0.7c0-0.1,0-0.2,0.1-0.4c0-0.1,0-0.3,0-0.4c0-0.2,0-0.3-0.1-0.4c-0.1-0.1-0.3-0.2-0.5-0.2
		c-0.2,0-0.4,0.1-0.6,0.3c-0.1,0.2-0.2,0.5-0.2,0.9l0,2.1v1.4h1.6v1.1H288.8L288.8,77.3z"/>
	<path d="M303,79.5v4.9c0,0.8,0,1.3,0.1,1.5c0.1,0.2,0.3,0.4,0.5,0.5c0.3,0.1,0.6,0.2,1.1,0.2h0.5v0.4h-8.3v-0.4h0.5
		c0.5,0,0.8-0.1,1.1-0.2c0.2-0.1,0.4-0.3,0.5-0.6c0.1-0.2,0.1-0.7,0.1-1.5V74c0-0.8,0-1.3-0.1-1.5s-0.3-0.4-0.5-0.5
		c-0.3-0.2-0.6-0.2-1.1-0.2h-0.5v-0.4h8.3v0.4h-0.5c-0.5,0-0.8,0.1-1.1,0.2c-0.2,0.1-0.4,0.3-0.5,0.6c-0.1,0.2-0.1,0.7-0.1,1.5v4.5
		h5.6V74c0-0.8,0-1.3-0.1-1.5s-0.3-0.4-0.5-0.5c-0.3-0.2-0.6-0.2-1.1-0.2h-0.5v-0.4h8.3v0.4h-0.5c-0.5,0-0.8,0.1-1.1,0.2
		c-0.2,0.1-0.4,0.3-0.5,0.6c-0.1,0.2-0.1,0.7-0.1,1.5v10.5c0,0.8,0,1.3,0.1,1.5s0.3,0.4,0.5,0.5c0.3,0.1,0.6,0.2,1.1,0.2h0.5v0.4
		h-8.3v-0.4h0.5c0.5,0,0.8-0.1,1.1-0.2c0.2-0.1,0.4-0.3,0.5-0.6c0.1-0.2,0.1-0.7,0.1-1.5v-4.9H303L303,79.5z"/>
	<path class="st1" d="M324,81.3h-6c0.1,1.5,0.5,2.6,1.2,3.4c0.5,0.6,1.2,1,1.9,1c0.5,0,0.9-0.1,1.3-0.4c0.4-0.3,0.8-0.7,1.2-1.4
		l0.4,0.3c-0.6,1.2-1.3,2.1-2,2.6c-0.7,0.5-1.6,0.7-2.5,0.8c-1.6,0-2.9-0.6-3.7-1.9c-0.7-1-1-2.3-1-3.8c0-1.8,0.5-3.3,1.5-4.4
		c1-1.1,2.2-1.6,3.5-1.6c1.1,0,2.1,0.5,2.9,1.4C323.5,78.1,323.9,79.5,324,81.3L324,81.3z M321.1,80.5c0-1.3-0.1-2.1-0.2-2.6
		c-0.1-0.5-0.3-0.8-0.6-1.1c-0.2-0.1-0.4-0.2-0.7-0.2c-0.4,0-0.7,0.2-1,0.6c-0.5,0.7-0.7,1.6-0.7,2.9v0.4H321.1L321.1,80.5z"/>
	<path class="st1" d="M330.7,85.5c-1.3,1.2-2.5,1.8-3.6,1.8c-0.6,0-1.1-0.2-1.6-0.6c-0.4-0.4-0.6-0.9-0.6-1.5c0-0.8,0.4-1.6,1.1-2.3
		c0.7-0.7,2.3-1.6,4.7-2.7v-1.1c0-0.8,0-1.3-0.1-1.6c-0.1-0.2-0.3-0.4-0.5-0.6c-0.3-0.2-0.5-0.2-0.8-0.2c-0.5,0-0.9,0.1-1.3,0.3
		c-0.2,0.1-0.3,0.3-0.3,0.5c0,0.2,0.1,0.4,0.3,0.6c0.3,0.3,0.4,0.7,0.4,1c0,0.4-0.1,0.7-0.4,1c-0.3,0.3-0.7,0.4-1.1,0.4
		c-0.5,0-0.9-0.1-1.2-0.4c-0.3-0.3-0.5-0.6-0.5-1c0-0.6,0.2-1.1,0.7-1.6c0.4-0.5,1.1-0.9,1.9-1.2s1.6-0.4,2.5-0.4
		c1,0,1.9,0.2,2.5,0.7c0.6,0.4,1,0.9,1.2,1.4c0.1,0.3,0.2,1.1,0.2,2.3v4.3c0,0.5,0,0.8,0.1,0.9c0,0.1,0.1,0.2,0.2,0.3
		c0.1,0.1,0.2,0.1,0.3,0.1c0.2,0,0.4-0.1,0.6-0.4l0.4,0.3c-0.4,0.6-0.8,1-1.2,1.3c-0.4,0.3-0.9,0.4-1.4,0.4c-0.6,0-1.1-0.1-1.5-0.4
		C331,86.6,330.8,86.1,330.7,85.5L330.7,85.5z M330.7,84.7V81c-0.9,0.6-1.6,1.1-2.1,1.8c-0.3,0.4-0.5,0.8-0.5,1.3
		c0,0.4,0.1,0.7,0.4,0.9c0.2,0.2,0.5,0.3,0.8,0.3C329.7,85.3,330.2,85.1,330.7,84.7L330.7,84.7z"/>
	<path d="M340.5,71.3v13.6c0,0.8,0.1,1.3,0.3,1.5c0.2,0.2,0.5,0.3,1.1,0.4v0.4h-5.9v-0.4c0.5,0,0.8-0.2,1.1-0.4
		c0.2-0.2,0.2-0.7,0.2-1.4V73.5c0-0.8-0.1-1.3-0.3-1.5c-0.2-0.2-0.5-0.3-1-0.4v-0.4H340.5L340.5,71.3z"/>
	<path d="M346.5,72.2v4h2.6v1.2h-2.6v6.8c0,0.6,0,1,0.1,1.2c0.1,0.2,0.2,0.3,0.3,0.4c0.1,0.1,0.3,0.2,0.4,0.2c0.5,0,1-0.4,1.4-1.2
		l0.4,0.3c-0.6,1.5-1.7,2.3-3.1,2.3c-0.7,0-1.3-0.2-1.8-0.6c-0.5-0.4-0.8-0.8-0.9-1.3c-0.1-0.3-0.1-1-0.1-2.2v-5.9h-1.4v-0.4
		c1-0.7,1.8-1.4,2.5-2.2c0.7-0.8,1.3-1.6,1.8-2.6H346.5L346.5,72.2z"/>
	<path d="M354.1,71.3v6.3c0.6-0.6,1.2-1.1,1.7-1.3c0.5-0.3,1-0.4,1.6-0.4c0.7,0,1.3,0.2,1.8,0.6c0.5,0.4,0.8,0.9,1,1.4
		c0.2,0.5,0.2,1.4,0.2,2.7v4.3c0,0.8,0.1,1.4,0.2,1.6c0.2,0.2,0.5,0.3,0.9,0.4v0.4h-5.6v-0.4c0.4-0.1,0.7-0.2,0.9-0.5
		c0.1-0.2,0.2-0.7,0.2-1.5v-4.9c0-0.9,0-1.5-0.1-1.7c-0.1-0.2-0.2-0.4-0.4-0.5c-0.2-0.1-0.4-0.2-0.6-0.2c-0.3,0-0.6,0.1-0.9,0.3
		c-0.3,0.2-0.6,0.6-1,1.1v5.9c0,0.8,0.1,1.3,0.2,1.5c0.1,0.3,0.5,0.4,0.9,0.5v0.4h-5.6v-0.4c0.5,0,0.8-0.2,1-0.4
		c0.1-0.2,0.2-0.7,0.2-1.5V73.6c0-0.8-0.1-1.3-0.2-1.5c-0.1-0.2-0.5-0.3-0.9-0.4v-0.4H354.1L354.1,71.3z"/>
</svg>
