<svg xmlns="http://www.w3.org/2000/svg" id="health_crest" viewBox="0 0 401 94.5"><style>.st0{fill:#fff}.st1{fill:#000}</style><path class="st1" d="M157.5 42h-6.2l-.7 1.7c-.2.6-.4 1-.4 1.4 0 .5.2.9.6 1.1.2.1.8.2 1.7.3v.5h-5.8v-.5c.6-.1 1.1-.4 1.5-.8.4-.4.9-1.3 1.5-2.6l6.3-13.9h.2l6.3 14.3c.6 1.4 1.1 2.2 1.5 2.6.3.3.7.4 1.2.5v.4h-8.5v-.5h.3c.7 0 1.2-.1 1.4-.3.2-.1.3-.3.3-.6 0-.2 0-.3-.1-.5 0-.1-.1-.4-.4-1l-.7-2.1zm-.5-1l-2.6-6-2.7 6h5.3z"/><path d="M176 34.9v9.4c0 .9.1 1.5.3 1.7.2.2.5.4 1 .4v.6h-4.9v-1.6c-.6.7-1.2 1.2-1.7 1.5-.6.3-1.2.5-1.9.5s-1.3-.2-1.8-.6c-.5-.4-.9-.9-1.1-1.5-.2-.6-.3-1.5-.3-2.9v-4.8c0-.9-.1-1.5-.3-1.7-.2-.2-.5-.4-1-.4V35h4.9v8.2c0 .9 0 1.4.1 1.7.1.2.2.4.4.6.2.1.4.2.6.2.3 0 .6-.1.8-.2.3-.2.8-.7 1.2-1.4v-6.4c0-.9-.1-1.5-.3-1.7-.2-.2-.5-.4-1-.4v-.5h5v-.2zm9.7-.3l.2 4.1h-.4c-.5-1.2-1.1-2.1-1.6-2.5-.6-.4-1.1-.7-1.7-.7-.4 0-.7.1-.9.4-.2.2-.4.5-.4.8 0 .2.1.5.3.7.3.4 1 1 2.3 1.8 1.3.9 2.1 1.6 2.5 2.2.4.6.6 1.3.6 2s-.2 1.3-.5 2-.8 1.1-1.4 1.5-1.3.5-2 .5c-.6 0-1.3-.2-2.3-.5-.3-.1-.4-.1-.5-.1-.3 0-.5.2-.7.6h-.4l-.2-4.3h.4c.4 1.1.9 2 1.6 2.6.7.6 1.3.9 1.9.9.4 0 .7-.1 1-.4.3-.3.4-.6.4-.9 0-.4-.1-.8-.4-1.1-.3-.3-.8-.8-1.7-1.4-1.3-.9-2.2-1.6-2.6-2.1-.6-.7-.9-1.5-.9-2.3 0-.9.3-1.8 1-2.5.6-.8 1.6-1.1 2.8-1.1.7 0 1.3.2 1.9.5.2.1.4.2.6.2.2 0 .3 0 .4-.1.1-.1.2-.3.5-.6h.2v-.2zm6.4-4.1v4.4h2.9v1.3h-2.9v7.4c0 .7 0 1.1.1 1.4.1.2.2.4.3.5.2.1.3.2.5.2.6 0 1.1-.4 1.6-1.3l.4.3c-.7 1.6-1.8 2.5-3.4 2.5-.8 0-1.4-.2-1.9-.6-.5-.4-.9-.9-1-1.4-.1-.3-.1-1.1-.1-2.4v-6.5H187v-.5c1.1-.8 2-1.6 2.8-2.4.8-.8 1.4-1.8 2-2.8h.3v-.1zm8.7 4.4v2.7c.8-1.2 1.5-2.1 2.1-2.5.6-.4 1.2-.6 1.7-.6s.9.2 1.1.5c.3.3.4.7.4 1.3 0 .6-.1 1-.4 1.3-.3.3-.6.5-1 .5-.5 0-.9-.1-1.2-.4-.3-.3-.5-.5-.6-.5-.1-.1-.2-.1-.3-.1-.3 0-.5.1-.7.3-.4.3-.6.7-.8 1.3-.3.8-.4 1.8-.4 2.8V45c0 .5 0 .8.1.9.1.2.3.4.5.5.2.1.5.2 1 .2v.4h-6.5v-.5c.5 0 .9-.2 1.1-.4.2-.2.3-.9.3-1.9v-6.7c0-.7 0-1.1-.1-1.3-.1-.2-.2-.4-.4-.5s-.5-.2-.9-.2V35h5v-.1z"/><path class="st1" d="M212.9 45.2c-1.5 1.3-2.8 1.9-4 1.9-.7 0-1.3-.2-1.7-.7-.5-.5-.7-1-.7-1.7 0-.9.4-1.7 1.2-2.5.8-.7 2.5-1.7 5.2-2.9v-1.2c0-.9-.1-1.5-.2-1.7-.1-.2-.3-.4-.6-.6-.3-.2-.6-.3-.9-.3-.6 0-1 .1-1.4.4-.2.2-.3.3-.3.5s.1.4.4.7c.3.4.5.7.5 1.1 0 .4-.2.8-.5 1.1-.3.3-.7.4-1.2.4s-1-.2-1.4-.5c-.4-.3-.5-.7-.5-1.1 0-.6.2-1.2.7-1.8.5-.6 1.2-1 2-1.3.9-.3 1.8-.5 2.7-.5 1.1 0 2 .2 2.7.7.7.5 1.1 1 1.3 1.6.1.4.2 1.2.2 2.5V44c0 .6 0 .9.1 1 0 .1.1.2.2.3.1.1.2.1.3.1.2 0 .5-.2.7-.5l.4.3c-.4.6-.9 1.1-1.3 1.4-.5.3-1 .4-1.6.4-.7 0-1.2-.2-1.6-.5-.4-.2-.6-.7-.7-1.3zm0-.9v-4c-1 .6-1.8 1.3-2.3 2-.3.5-.5.9-.5 1.4 0 .4.1.7.4 1 .2.2.5.3.9.3s.9-.3 1.5-.7z"/><path d="M223.3 29.5v15c0 .9.1 1.4.3 1.6.2.2.6.4 1.2.4v.5h-6.5v-.5c.5 0 .9-.2 1.2-.5.2-.2.3-.7.3-1.6V32c0-.8-.1-1.4-.3-1.6-.2-.2-.6-.4-1.1-.4v-.5h4.9z"/><path class="st1" d="M228.9 29.1c.6 0 1 .2 1.4.6.4.4.6.9.6 1.4s-.2 1-.6 1.4c-.4.4-.9.6-1.4.6s-1-.2-1.4-.6-.6-.9-.6-1.4.2-1 .6-1.4c.3-.4.8-.6 1.4-.6zm1.8 5.8v9.6c0 .9.1 1.4.3 1.6.2.2.6.4 1.2.4v.5h-6.5v-.5c.5 0 .9-.2 1.2-.5.2-.2.3-.7.3-1.6v-7c0-.9-.1-1.4-.3-1.6-.2-.2-.6-.4-1.1-.4v-.5h4.9zm8.5 10.3c-1.5 1.3-2.8 1.9-4 1.9-.7 0-1.3-.2-1.7-.7-.5-.5-.7-1-.7-1.7 0-.9.4-1.7 1.2-2.5.8-.7 2.5-1.7 5.2-2.9v-1.2c0-.9-.1-1.5-.2-1.7-.1-.2-.3-.4-.6-.6-.3-.2-.6-.3-.9-.3-.6 0-1 .1-1.4.4-.2.2-.3.3-.3.5s.1.4.4.7c.3.4.5.7.5 1.1 0 .4-.2.8-.5 1.1-.3.3-.7.4-1.2.4s-1-.2-1.4-.5c-.4-.3-.5-.7-.5-1.1 0-.6.2-1.2.7-1.8.5-.6 1.2-1 2-1.3.9-.3 1.8-.5 2.7-.5 1.1 0 2 .2 2.7.7.7.5 1.1 1 1.3 1.6.1.4.2 1.2.2 2.5V44c0 .6 0 .9.1 1 0 .1.1.2.2.3s.2.1.3.1c.2 0 .5-.2.7-.5l.4.3c-.4.6-.9 1.1-1.3 1.4-.5.3-1 .4-1.6.4-.7 0-1.2-.2-1.6-.5-.4-.2-.7-.7-.7-1.3zm0-.9v-4c-1 .6-1.8 1.3-2.3 2-.3.5-.5.9-.5 1.4 0 .4.1.7.4 1 .2.2.5.3.9.3s.9-.3 1.5-.7z"/><path d="M249.6 34.9v1.6c.6-.7 1.2-1.2 1.8-1.5.6-.3 1.2-.5 1.8-.5.8 0 1.4.2 1.9.7.5.4.9 1 1 1.6.1.5.2 1.4.2 2.8v4.7c0 .9.1 1.5.2 1.7.2.2.5.4 1.1.4v.6h-6.1v-.5c.5-.1.8-.2 1-.6.1-.2.2-.7.2-1.6V39c0-1 0-1.6-.1-1.9-.1-.3-.2-.5-.4-.6-.2-.1-.4-.2-.6-.2-.7 0-1.4.5-2.1 1.6v6.5c0 .9.1 1.5.2 1.7.2.2.5.4.9.5v.4h-6.1v-.5c.5-.1.9-.2 1.1-.5.1-.2.2-.7.2-1.7v-6.8c0-.9-.1-1.5-.3-1.7-.2-.2-.5-.4-1-.4v-.5h5.1zm31.8-5.8v6.2h-.5c-.6-1.7-1.4-3-2.6-3.8-1.2-.9-2.4-1.3-3.8-1.3-1.3 0-2.4.4-3.3 1.1-.9.7-1.5 1.8-1.8 3.1-.4 1.3-.5 2.7-.5 4 0 1.7.2 3.1.6 4.4.4 1.3 1 2.2 1.9 2.8.9.6 1.9.9 3.1.9.4 0 .9 0 1.3-.1s.9-.2 1.4-.4v-3.6c0-.7 0-1.1-.1-1.3-.1-.2-.3-.4-.6-.6-.3-.2-.6-.2-1.1-.2h-.4v-.5h8.5v.5c-.6 0-1.1.1-1.4.3-.3.1-.4.3-.6.7-.1.2-.1.6-.1 1.2v3.6c-1.1.5-2.3.9-3.5 1.1-1.2.3-2.5.4-3.8.4-1.7 0-3-.2-4.1-.7-1.1-.5-2.1-1-2.9-1.8-.8-.7-1.5-1.6-2-2.5-.6-1.2-.9-2.5-.9-4 0-2.6.9-4.9 2.8-6.7 1.8-1.8 4.2-2.7 7-2.7.9 0 1.6.1 2.3.2.4.1 1 .3 1.8.6.9.3 1.4.5 1.5.5.2 0 .5-.1.7-.3.2-.2.4-.5.6-1h.5v-.1z"/><path class="st1" d="M289.8 34.6c1 0 2 .3 2.9.8s1.6 1.3 2 2.3c.5 1 .7 2.1.7 3.3 0 1.7-.4 3.1-1.3 4.3-1 1.4-2.5 2.1-4.3 2.1-1.8 0-3.2-.6-4.2-1.9s-1.5-2.7-1.5-4.4c0-1.7.5-3.2 1.5-4.5 1.1-1.4 2.4-2 4.2-2zm0 .9c-.4 0-.8.2-1.1.5-.3.3-.5 1-.6 2-.1 1-.1 2.3-.1 4.1 0 .9.1 1.8.2 2.6.1.6.3 1.1.6 1.4s.7.5 1.1.5c.4 0 .7-.1 1-.3.3-.3.6-.7.7-1.2.2-.8.3-2.5.3-4.9 0-1.5-.1-2.5-.2-3-.2-.5-.4-.9-.7-1.2-.5-.4-.8-.5-1.2-.5z"/><path d="M301.1 47.3L297 38c-.5-1.1-.9-1.8-1.1-2.1-.2-.2-.5-.4-.9-.5v-.5h6.4v.5c-.4 0-.7.1-.8.2-.2.2-.3.4-.3.7 0 .3.2.9.6 1.8l2 4.5 1.6-3.9c.5-1.1.7-1.9.7-2.4 0-.3-.1-.5-.3-.6-.2-.2-.5-.3-1-.3v-.5h3.9v.5c-.4.1-.7.2-.9.4-.2.2-.6.9-1.1 2l-4 9.5h-.7z"/><path class="st1" d="M317.3 40.5h-6.6c.1 1.6.5 2.9 1.3 3.8.6.7 1.3 1.1 2.1 1.1.5 0 1-.1 1.4-.4.4-.3.9-.8 1.4-1.6l.4.3c-.7 1.3-1.4 2.3-2.2 2.8-.8.5-1.7.8-2.7.8-1.8 0-3.1-.7-4.1-2.1-.7-1.1-1.1-2.5-1.1-4.1 0-2 .5-3.6 1.6-4.8 1.1-1.2 2.4-1.8 3.8-1.8 1.2 0 2.3.5 3.2 1.5.9 1.1 1.4 2.5 1.5 4.5zm-3.2-.8c0-1.4-.1-2.3-.2-2.8s-.4-.9-.7-1.2c-.2-.2-.4-.2-.7-.2-.4 0-.8.2-1.1.7-.5.8-.8 1.8-.8 3.1v.5h3.5v-.1z"/><path d="M323 34.9v2.7c.8-1.2 1.5-2.1 2.1-2.5.6-.4 1.2-.6 1.7-.6s.9.2 1.1.5c.3.3.4.7.4 1.3 0 .6-.1 1-.4 1.3-.3.3-.6.5-1 .5-.5 0-.9-.1-1.2-.4-.3-.3-.5-.5-.6-.5-.1-.1-.2-.1-.3-.1-.2 0-.5.1-.7.3-.4.3-.6.7-.8 1.3-.3.8-.4 1.8-.4 2.8V45c0 .5 0 .8.1.9.1.2.3.4.5.5.2.1.5.2 1 .2v.4H318v-.5c.5 0 .9-.2 1.1-.4.2-.2.3-.9.3-1.9v-6.7c0-.7 0-1.1-.1-1.3-.1-.2-.2-.4-.4-.5-.2-.1-.5-.2-.9-.2V35h5v-.1zm11.1 0v1.6c.6-.7 1.2-1.2 1.8-1.5.6-.3 1.2-.5 1.8-.5.8 0 1.4.2 1.9.7.5.4.9 1 1 1.6.1.5.2 1.4.2 2.8v4.7c0 .9.1 1.5.2 1.7.2.2.5.4 1.1.4v.6H336v-.5c.5-.1.8-.2 1-.6.1-.2.2-.7.2-1.6V39c0-1 0-1.6-.1-1.9s-.2-.5-.4-.6c-.2-.1-.4-.2-.6-.2-.7 0-1.4.5-2.1 1.6v6.5c0 .9.1 1.5.2 1.7.2.2.5.4.9.5v.4H329v-.5c.5-.1.9-.2 1.1-.5.1-.2.2-.7.2-1.7v-6.8c0-.9-.1-1.5-.3-1.7-.2-.2-.5-.4-1-.4v-.5h5.1zm14 0v1.6c.7-.7 1.3-1.2 1.8-1.5.6-.3 1.2-.4 1.9-.4.8 0 1.4.2 1.9.5s.9.9 1.2 1.7c.7-.8 1.3-1.3 2-1.7.6-.3 1.3-.5 2-.5.8 0 1.5.2 2 .6.5.4.8.9 1 1.5.2.6.3 1.5.3 2.8v4.9c0 .9.1 1.5.2 1.7.2.2.5.4 1.1.4v.5h-6.2v-.5c.5 0 .9-.2 1.1-.6.2-.2.2-.8.2-1.6v-5.2c0-1.1 0-1.8-.1-2-.1-.3-.2-.5-.4-.6-.2-.1-.4-.2-.6-.2-.4 0-.7.1-1.1.4-.4.3-.8.7-1.1 1.2v6.5c0 .9.1 1.4.2 1.6.2.3.6.5 1.1.5v.5h-6.2v-.5c.3 0 .6-.1.8-.2.2-.2.3-.3.4-.5.1-.2.1-.7.1-1.4v-5.2c0-1.1 0-1.8-.1-2s-.2-.5-.4-.6c-.2-.2-.4-.2-.6-.2-.3 0-.7.1-.9.3-.4.3-.8.7-1.3 1.4v6.5c0 .9.1 1.4.2 1.7.2.3.5.4 1.1.5v.2h-6.2v-.5c.5-.1.9-.2 1.1-.5.1-.2.2-.7.2-1.7v-6.8c0-.9-.1-1.5-.3-1.7-.2-.2-.5-.4-1-.4v-.5h4.6z"/><path class="st1" d="M374.2 40.5h-6.6c.1 1.6.5 2.9 1.3 3.8.6.7 1.3 1.1 2.1 1.1.5 0 1-.1 1.4-.4.4-.3.9-.8 1.4-1.6l.4.3c-.7 1.3-1.4 2.3-2.2 2.8-.8.5-1.7.8-2.7.8-1.8 0-3.1-.7-4.1-2.1-.7-1.1-1.1-2.5-1.1-4.1 0-2 .5-3.6 1.6-4.8 1.1-1.2 2.4-1.8 3.8-1.8 1.2 0 2.3.5 3.2 1.5 1 1.1 1.4 2.5 1.5 4.5zm-3.2-.8c0-1.4-.1-2.3-.2-2.8s-.4-.9-.7-1.2c-.2-.2-.4-.2-.7-.2-.4 0-.8.2-1.1.7-.5.8-.8 1.8-.8 3.1v.5h3.5v-.1z"/><path d="M379.6 34.9v1.6c.6-.7 1.2-1.2 1.8-1.5.6-.3 1.2-.5 1.8-.5.8 0 1.4.2 1.9.7.5.4.9 1 1 1.6.1.5.2 1.4.2 2.8v4.7c0 .9.1 1.5.2 1.7.2.2.5.4 1.1.4v.6h-6.1v-.5c.5-.1.8-.2 1-.6.1-.2.2-.7.2-1.6V39c0-1 0-1.6-.1-1.9-.1-.3-.2-.5-.4-.6-.2-.1-.4-.2-.6-.2-.7 0-1.4.5-2.1 1.6v6.5c0 .9.1 1.5.2 1.7.2.2.5.4.9.5v.4h-6.1v-.5c.5-.1.9-.2 1.1-.5.1-.2.2-.7.2-1.7v-6.8c0-.9-.1-1.5-.3-1.7-.2-.2-.5-.4-1-.4v-.5h5.1zm13.2-4.4v4.4h2.9v1.3h-2.9v7.4c0 .7 0 1.1.1 1.4.1.2.2.4.3.5.2.1.3.2.5.2.6 0 1.1-.4 1.6-1.3l.4.3c-.7 1.6-1.8 2.5-3.4 2.5-.8 0-1.4-.2-1.9-.6-.5-.4-.9-.9-1-1.4-.1-.3-.1-1.1-.1-2.4v-6.5h-1.6v-.5c1.1-.8 2-1.6 2.8-2.4.8-.8 1.4-1.8 2-2.8h.3v-.1zM49.3 75.7c-.1.1-.2.3-.3.3m3.3-23.9c.3 0 .6-.3.6-.6s-.3-.6-.6-.6-.6.3-.6.6.3.6.6.6zm29.3-26.6H58.9v18.4c0 1.8.8 3.3 1.8 3.8l8.7 5.2c.2.2.5.4.8.4.3 0 .5-.1.7-.3l8.9-5.3c1-.5 1.8-2 1.8-3.8V25.5zm-15.2 5.3h-2v-4.7h2v4.7zM65 32.4l.3-.3-.2-.3h.4l.2-.4.2.4h.4l-.2.3.3.3-.4.1v.4l-.3-.3-.3.3v-.4l-.4-.1zm-5.5 5.9v-4.5h2.4v4.5h-2.4zm.4-6.5h.4l.2-.4.2.4h.4l-.2.3.3.3-.4.1v.4l-.3-.3-.3.3v-.4l-.4-.1.3-.3-.2-.3zm2.7 4.6h.4l.2-.4.2.4h.4l-.2.3.3.3h-.4v.4l-.3-.3-.3.3V37h-.4l.3-.3-.2-.3zm1.6-3.6c0-.1-.2-.2-.2-.2-.2 0-.3.4-.5.4-.1 0-.2 0-.2-.1s.3-.2.4-.3c-1.5 0-1.5.7-1.7.7-.4 0 .3-.7.5-.9-.3 0-.5-.4-.8-.6.2-.2.2-.1.4 0 0-.2.1-.3.5-.3.7 0 .5.6.6.6s0-.6.4-.6c.7 0 1.5 1.7.7 1.7-.4-.1-.1-.4-.1-.4zm-1.7-4.9l.3-.3-.2-.3h.4l.2-.4.2.4h.4l-.2.3.3.3-.4.1v.4l-.3-.3-.3.3V28l-.4-.1zm-.6-1.8v4.7h-2.4v-4.7h2.4zm4.5 24.3L61 47.1c-.9-.6-1.4-1.7-1.5-3v-5.2h6.9v11.5zm-2-12.1v-4.5h2v4.5h-2zm9 12.4l-2.5 1.5c-.2.1-.4.2-.7.2-.3 0-.5-.1-.7-.2L67 50.7V38.9h6.4v11.8zm0-12.4H67V26.1h6.4v12.2zm7.6 5.8c-.1 1.3-.6 2.4-1.5 3L74 50.4V38.9h7v5.2zm0-5.8h-7V26.1h7v12.2z"/><path d="M66 43.1c0-.1-.9.3-.6.3 0-.2.5-.7.7-.9 0-.3-.4 0-.8.2 1.3-1.9.5-1.1-.3-1 1.2-1.2.9-1.2 0-.8.7-.5.8-1.2.7-1.3-.6.8-1.2.7-1.2 1.5 0 .5-.2 1.4-.4 1.6-.3.4-.1-1.4-1-1.4-.3 0-1 0-1.2.3.2 0 .5.5.5.6 0 .2.2.7-.1.7s-.7-.6-.7-.9v-.7c0-.7-1.2-1.8-1.7-1.8 0 .5.7.6.7 1.3-.3 0-.7-.5-.7-.2s.4.4.4.7-.5-.1-.5.2c0 .3.3.2.3.5-.2-.1-.4 0-.4.1s.1.2.2.3c-.1.1-.1.2-.1.6 0 1.5.9 2.1 1.6 2.1.5 0 .4-.3.5-.5 0 .2.3-.1.3.3s-.5.3-.5.6c0 .5.7 0 .7.6 0 .7-.1.7-.1.9 0 .2.8-.3.7-.3.2.1.2.6.5.6.2 0 .3-.6.4-.6-.1 0 .7.5.7.3 0-.7-.3-.4-.3-.9 0-.4.9-.3.8-.6-.1-.2-.2-.1-.3-.4 0 .1-.7-1.1.2-.5 1 .7 1.1-1.4 1-1.5zm24.3 4.8c.4 0 .7-.3.7-.7 0-.4-.3-.7-.7-.7-.4 0-.7.3-.7.7 0 .4.3.7.7.7zm-3 1.8c.4 0 .7-.3.7-.7s-.3-.7-.7-.7c-.4 0-.7.3-.7.7s.3.7.7.7zm-36 4.2c.4 0 .7-.3.7-.7 0-.4-.3-.7-.7-.7-.4 0-.7.3-.7.7 0 .4.3.7.7.7zm2.4.2c.4 0 .7-.3.7-.7 0-.4-.3-.7-.7-.7s-.7.3-.7.7c-.1.4.2.7.7.7zm64.7-31.4c1.1 1.3 1.3 3.4.6 5-.4 0-.4-.6-.4-.9-.8-1.5-1.4-3.4-.7-5 .4 0 .2.6.5.9zm-95 1.8c-.2 1-.2 2.3 0 3.2-.2.2-.2-.2-.4-.2-1.5-1.1-.8-3.3-1.2-4.9.1-.1.3-.2.4-.1.7.5 1.1 1.2 1.2 2zm98.4.1c.2.4-.2.9-.5 1.1-.4.1-.8-.1-1-.4-.1-.4.1-.8.5-1 .4-.1.7 0 1 .3zM21 26.4c-.1.4-.2.7-.5.9-.2 0-.6 0-.8-.2-.2-.2-.3-.6-.2-.8.2-.3.5-.3.8-.4.3.1.6.2.7.5zm102.3.6c.1.2.1.4 0 .6-.3.4-.7.5-1.1.4-.3-.2-.4-.4-.4-.7.1-.3.4-.6.7-.7.4 0 .6.2.8.4zm-2.2.1c.3.2.1.6 0 .8-.2.2-.5.5-.8.4-.2-.2-.4-.2-.5-.5 0-.4.2-.8.6-.9.2-.1.4.1.7.2zm-2.9.6c0 .4 0 1-.5 1.1-.5.2-.8-.2-.9-.6 0-.4.2-.8.6-1 .3 0 .6.2.8.5zm-92.9.2c.1.4-.3.6-.5.8-.3.1-.6-.2-.8-.4-.3-.3.1-.5.2-.8.4-.3 1-.1 1.1.4zm-2.4.1c0 .3-.2.6-.4.8-.3.1-.6-.1-.8-.4-.2-.4 0-.8.4-.9.4-.2.7.2.8.5zm85.7.2c.4.8.7 1.8.8 2.9-.2.8.1 1.8-.4 2.3-.6-.2-.6-.9-1-1.2-.7-1.4-.1-3 .2-4.4.3-.2.3.2.4.4zm-87.5.4c.1.5-.2.7-.5 1-.5.1-.8-.2-1-.6 0-.4.2-.8.5-1 .4.1.8.3 1 .6zm93.7 1.2c.5 1.2.6 2.6.2 3.8l-.2.2c-.6-1.1-1.3-2.1-1.6-3.2 0-.8.2-1.6.5-2.3.3-.2.4 0 .6.3-.1.4.1 1 .5 1.2zm5-.7c0 .4-.2.8-.6 1-.4.1-.8 0-.9-.5-.1-.4.1-.8.4-1 .5-.2.9.2 1.1.5zM23 30.3c0 .3-.3.7-.6.8-.3.2-.6-.2-.8-.3-.1-.3-.2-.6 0-.9.1-.2.4-.2.6-.3.3.2.7.3.8.7zm1.7-.2c.2.4-.3.6-.4.8-.5.2-.7-.2-.9-.5-.1-.4.2-.6.4-.9.5-.1.7.3.9.6zM121 30c0 .5-.8 1-.9 1.6-.4 1.1-1.4 1.9-2.5 2.2-.2.2-.6.5-.9.5-.1-.8.6-1.5 1.1-2.2.8-1.1 1.9-1.8 3.2-2.1zm-98.8 1.7c.6.7.9 1.3 1.6 1.9 0 .2-.1.4-.3.4-1.9-.1-3.3-2.1-4.2-3.5.1-.4.6-.1.9-.1.7.4 1.5.6 2 1.3zm99.3.5c-.1 1.7-.9 3.5-2.5 4.3-.4.2-.9.6-1.3.3.8-1.7 2.1-3.1 3.5-4.6h.3zm-7.6 1.2c.1.6-.2 1-.7 1.2-.4 0-.7-.3-.9-.6 0-.4.2-.8.6-.9.1-.1.3-.1.5-.1s.3.2.5.4zm-93.9.4c.8.5 1.4 1.2 2.1 1.9-.5.4-1.1 0-1.7 0-1.3-.5-2.3-1.6-3.6-2 0-.4.6-.3.8-.4.9-.1 1.6.3 2.4.5z"/><path d="M62.5 21.9c-2.2-.9-3.7 1.4-6 1.2-.3.2-.2.4-.4.6-.1.1-.3 0-.4 0-.1-1-.4-1.8-.6-2.8-.2-.4-.1-1-.3-1.4-1.3-3.5 3.1-.8 4-2.9.8-1.8-1.5-2-2.1-3.2V13c-.6-.6-1.3-.8-1.7-1.7.3-1 .4-2.1.1-3.1 0-.2-.2-.6-.6-.4-.8 1-1.3 1.9-2 2.9-.8-.6-1.5-1.3-2.3-1.8-.6-.1-1.2-.7-1.8-.4-.1.2 0 .4.1.6 0 1.6.8 2.8 1.9 3.9l.1.6c-.7 1.6-.5 3.5-.7 5.3-1.8 4.6-4.7 8.9-8.6 12.1-2.3 2.6-5 5-5.3 8.5-.1.6.1 1.2-.4 1.6-1.3-.5-2.6-1.1-3.7-2-1.8-1.3-4.4-1.1-5.6-3.4-.5-.9.1-1.8.6-2.5 1.3-1.3 1.2-3.6.4-5.1-.2 0-.2.2-.3.2-.1 2.4-2 4-1.3 6.6.2.8.6 1.2.8 2-.3-.1-.7-.1-.9-.2-.9-.1-1.7-.5-2.7-.4-1.8.8-4.3-.2-5.8 1.5-.2 0-.6.1-.5.4.9 0 1.7.2 2.6.2 1.4.2 2.3-.9 3.3-1.4h.2c.4-.4 1.1-.2 1.6-.2 2.5.3 4.4 1.5 6.5 2.7v.2c-.8.4-1.7.6-2.5 1-.9.7-1.9 1.6-2.2 2.7-.6 1 .2 1.9.6 2.7 0 .4.1.9.4 1 1.3-1.4.1-3 .3-4.6.3-1.2 1.4-1.8 2.6-2.1 2.3-1 3.9.9 5.7 1.9 0 1.8.2 3.6-.2 5.4-.6.2-1.3.3-1.9.3-3.1.2-5.6 2-8.4 2.9-1.3.4-2.8.4-4 .9 1 .3 2-.1 3.1-.1 3.9-.6 6.9-3.6 11.1-3l.1.1c-.5 1-1.1 1.8-1.9 2.6-.1-.4-.2-.8-.6-1-.3-.2-.7 0-.9.3-.1.2-.1.4 0 .6.2.4.5.4.9.6-.1.4-.5.5-.8.8-1.1 1.9-3.4 1.1-4.7 2.4-.2.3-.9.4-.6.9 1.5.2 3-.2 4.1-1l4.5-4.8c.2 1.3-.1 2.6-.9 3.6-.4-.2-.6-.5-1.1-.6-.4.1-.7.5-.7.8.2.3.3.6.6.8-1.3 1-3.1 1-4.6 1.5-2.9.4-5.7.6-8.6.6-1.4-.1-3 .4-4.3 0-1.5.3-3.1-.2-4.4.6-.2.2 0 .4 0 .6 1.8 1.2 4.3.2 6.4.6h15.6c1.2 0 2.3-.1 3.2-.6 2-1.2 3.1-3.2 4.2-5.3.4-.7.7-1.6.8-2.4.4-1.4 1.6-2.3 3-2.4.2 2.1-.2 4.2-.7 6.1-.2 1.3-1.1 2.5-.6 3.9.1.6.8.6 1.3.7 4.8-.1 9.6-.3 14.7.1.9.2 1.7.4 2.7.4.1-.1.4-.2.2-.4-.1-.4-.4-1-1-1.1-.1-.2-.4-.2-.6-.3-2.5-1.4-5.6-.7-8.6-.6-1.5.2-3.1.4-4.4-.4-.6-.7-.2-3-.2-3 0-.9 2.2-7.2 2.5-7.7.1-.6.3-1.2.2-1.8.3-.8.2-1.8.2-2.7.2-1.3.8-2.5 1.2-3.7.2-.6.4-1.2.7-1.8.2-.8.3-1.5.8-2.1 1.3.8 2.6.8 3.2 2.3l.5 3.3c0 .2.2.6.4.4 1-.7.7-2.2.7-3.2.2-1.2-.6-1.8-1-2.9.1-.5-.3-1.5-.3-1.5-.2-.9-2.1-1.5-1.6-2.6.2-.9.5-1.8 1.3-2.3.1.1.2.2.2.3l.5-.3v-3.3c1.3 0 3.2.2 4.5.2.4.1.6.4 1 .4l.3-.4 3.2-.6c-1.3.1-2.1-1.5-3.4-1.5zm3.5 1.5c.1 0 .2 0 .3-.1l-.3.1z"/><path d="M31.4 34.5c0 .5-.2.8-.6.9-.3-.1-.6-.2-.8-.5-.2-.4.2-.8.6-.9.4.1.7.1.8.5zm-2.6 0c.2.2.3.6.2.9-.3.2-.7.4-1 .1-.2-.2-.5-.5-.3-.8.4-.3.8-.5 1.1-.2zm55.3.4s0 .1 0 0m30.2.7c.2.4-.2.8-.5.9-.4-.1-.9-.2-.9-.7 0-.3.3-.5.6-.6.3-.1.6.2.8.4zm2.1-.1c.1.2.4.5.1.7-.2.1-.3.2-.4.3-.4.1-.8-.1-1-.5-.1-.4.3-.6.6-.8.3 0 .5.2.7.3zm-97.5.5c-.2.5-.6.7-1.1.5-.1-.1-.2-.3-.3-.5 0-.3.1-.6.4-.7.5.1.9.3 1 .7zm13.4.7c0 .3-.4.6-.7.8-.4 0-.7-.3-.9-.6 0-.3.2-.7.5-.8.4-.2.9.1 1.1.6zm-2.4-.3c.1.1.2.4.1.6-.2.2-.6.6-1 .3-.2-.2-.5-.4-.4-.8.2-.2.4-.4.6-.5.3 0 .5.2.7.4zm92.6.5c0 .3-.3.6-.5.8-.3.1-.7 0-.9-.2-.2-.1-.2-.4-.2-.6.2-.3.5-.4.8-.5.3 0 .6.2.8.5zm2.5.3c-.1.4-.4.7-.8.7-.2 0-.7-.1-.6-.5 0-.3.2-.6.4-.6.4-.2.9 0 1 .4zm-101.6.6c.1.5-.1.8-.5 1-.3.2-.6 0-.8-.2-.1-.2-.3-.6-.1-.8.1-.4.4-.3.7-.4.3 0 .5.1.7.4zm2 .4c.1.3-.2.4-.3.7-.2.1-.5.2-.7.1-.3-.2-.6-.6-.3-1 .2-.6 1.1-.3 1.3.2zm94.7-.2c0 .4-.3.7-.6.9-.4.1-.7-.2-.8-.5 0-.3.2-.6.4-.8.5 0 .8 0 1 .4zm3.3.6c-.1.4 0 .8-.4 1-.3.1-.7 0-1-.2-.2-.2-.3-.6-.2-.8.2-.3.6-.6 1-.5.3.2.3.4.6.5zm-101.5.8c.2.3-.2.4-.3.6-.3.2-.6 0-.8-.1-.3-.2-.2-.6-.1-.8.3-.6 1.1-.1 1.2.3zm99 .8c.2 0 .1.3 0 .4-1 .5-2.4.6-3.2-.2-.5-.4-1.1-.6-1.6-.9.2-.5.9-.5 1.4-.6 1.2.2 2.1 1.3 3.4 1.3zm-97.1-.4c.1.3-.2.4-.2.7-.2.2-.5.2-.7.1-.4-.2-.5-.7-.3-1 .5-.4 1-.2 1.2.2zm3.5.3c.2.4-.1.7-.4.9-.3.2-.5-.1-.8-.1-.2-.3-.6-.6-.2-.9.4-.7 1.1-.4 1.4.1zm45.9 1.7c-.1.8-1.4-.1-1.2.9.2.8.3 1.7.8 2.2.4.5.2 1.4.2 2-.3.6-.9 1-1.5 1.3-1.1-.1-2.8.6-3.3-.8-.2-.6-.6-1.2-.6-1.9.1-.1.3-.1.4-.2 0-.3-.3-.4-.3-.7 1.3-.2-.5-1.4.6-1.4.9.9 2.4.6 3.2 1.7.2.2.3.4.6.5-.2-.9-.6-1.9-.8-2.9-.1-.5.1-1 .5-1.3.4-.6 1 .1 1.4.6zm-42.4-.3c.1.4-.2.6-.4.8-.4.2-.6-.2-.7-.4-.1-.4.2-.6.4-.8.2 0 .5.1.7.4zm24.5.4c.5 1.6.3 3.2-.5 4.5 0 .3.1.8-.4.8-1.1-1.5-.3-3.6.2-5.1.1-.4.5-.6.7-.2zm33.9.8c.6 1.1.6 2.6.1 3.7l-.3.3c-.4-.9-.8-1.8-.9-2.8.2-.7.4-1.4.5-2.1.5-.2.5.5.6.9zm-55.3.4c-.2.5-.9.6-1.3.9-1 .7-2.3.9-3.5.7 1-1.4 2.6-2.3 4.5-1.9 0 .2.2.1.3.3zm-16.3 1.4c1.5 1 1.9 2.5 2.7 3.9.1.2.5.2.4.5-.3.2-.6-.2-1.1-.2-1.5-.7-2.5-2.4-2.4-4.1 0-.1.2-.1.4-.1zm70.1 1.3c0 .4 0 .8-.4.9-.4.1-.8-.1-.9-.5-.1-.3.1-.4.2-.6.3-.3.9-.2 1.1.2z"/><path d="M104.4 47.9c0-.8.2-1.5.3-2.2.1-.2.2-.5.2-.8 1-1.3 2.9-.9 4.4-.8.6.3 1.3.3 2 .4.3-.2.7-.2 1-.2 1.3-.7.4-2.2.5-3.3l-.5-1.2c-.1-.2-.2-.5-.3-.8-.2-.3-.4-.8-.6-1.1-.7-1.8-2-2.8-3.1-4.2-2-2.6-5.2-4.1-8.4-5.2-3.1-1.1-6.3.3-9.1 1.3-.9-.2-1.3-.9-1.5-1.7-.2-1.5.2-3 .8-4.2.1-1 .8-1.8 1.1-2.7.7-2.2 1.5-4.4 1.6-6.9.1-1.5-1-2.5-2.1-3.2-.8-.2-1.6-.2-2.2.4-.5 1.1-1.6 1.8-2.6 2.3-.1.7.8.2 1 .5.9.2 1.9-.1 2.6.4.1 1.6-.8 2.9-1.7 4.1-1.3 2-2.8 4-3.6 6.2l-.2-.2.2 9.8c1.3 2.1 2.8 4.5 5.2 5.3 1.3 1 2.9 2.3 4.6 1.4.9-.3 1 1 1.4 1.5.5 1.5-.6 2.5-.7 3.9l-1 2.2c-1.2 2.3-2.3 4.8-4.1 6.8-.6 0-1 .6-1.5.7-.3.4-1 .1-1.3.3-1.2.5-3 .2-3.8 1.4.1.1.2.2.3.2 2.4 0 5.1.2 7.7.1.3-.1.6-.4.6-.8-.4-.7.1-1.3.4-1.8.2-1 .8-1.6 1.1-2.5.8-1.6 1.8-3.2 2.7-4.9l1.2-2c.3-.7.8-1.5 1.2-2.2.3-.3.5-.7.7-1.1 0-.4-.2-.6-.4-.8.3-.3.7-.2 1.1-.3 1 .6 2 1.6 2.2 2.6l.4 1 .2.5-.1 1.3.2 1.2c.2 1.9-.2 3.9-.4 5.8-.7 2.3-3.3 2.1-5.2 2.6-.5.3-1.4.2-1.4 1 2.3.5 5 .2 7.5.2.4-.2.5-.5.7-.9.1-.5.6-1 .4-1.5-.4-.6 0-1.4-.2-2.2.1-.2.1-.5 0-.8.3-1.2.2-2.6.5-3.7v-1.2zm19.5-1.6c-1.3 1.8-2.6 3.8-4.8 4.5-.2 0-.3.1-.4-.1 1.3-1.4 2.1-3.7 4.2-4.2.3-.2.7-.3 1-.2zm-108.3 2c-.2.2 0 .5-.4.6-.3.2-.7 0-.8-.4-.2-.4.2-.8.5-.9.3.2.7.3.7.7zm11.5.6c.1.4-.3.4-.5.4-1.7.6-3.4 0-4.6-1.2 0-.2 0-.3.2-.4 1.6.5 3.5.2 4.9 1.2zm-9.3-.6c.1.2.1.4.1.6-.2.4-.6.4-1 .4-.2-.1-.4-.3-.5-.5 0-.4.4-.6.7-.8.3.1.5.1.7.3zm37.2.2c.1.4-.2.6-.5.8-.4.1-.7-.1-.8-.3-.1-.3 0-.7.3-.8.3-.1.9 0 1 .3zm70.4.2c.1.4-.2.6-.5.8-.2.1-.5 0-.8-.1 0-.2-.3-.4-.2-.6.2-.4.5-.5.9-.5.3.2.4.2.6.4zm2.7-.2c.2.4 0 .6-.2.9-.2.3-.5.4-.7.2-.2-.2-.6-.4-.6-.7 0-.3.4-.6.6-.7.4-.1.5.3.9.3zM14 49.7c0 .3-.2.4-.3.7-.2.1-.4.2-.6.2-.3-.1-.5-.4-.6-.6.1-.4.3-.7.7-.8.3 0 .7.1.8.5z"/><path d="M97.5 49.7c.1.2 0 .4 0 .5-.2.3-.6.6-1 .4-.2-.2-.5-.5-.4-.8.4-.5 1.1-.6 1.4-.1zm-77.1.6c-.1.3-.2.6-.6.6-.4 0-.5-.3-.7-.4 0-.4 0-.7.3-.9.5-.2 1 .2 1 .7zm-3.8.1c.1.4-.2.7-.4.9-.5.2-.9-.2-1.1-.6 0-.4.3-.8.7-.9.4 0 .6.4.8.6zm83.5-.1c.1.4 0 .8-.4 1-.5.2-.9-.2-1.1-.6.2-.3.2-.8.7-.8.4 0 .6.1.8.4zm-81.7.2c.1.3-.1.4-.2.6-.2 0-.3.2-.6.2-.2-.2-.5-.3-.5-.6 0-.4.2-.6.5-.8.5 0 .7.2.8.6zm104.9.3c-.1.3-.4.5-.7.6-.3.1-.5-.2-.8-.3-.2-.2-.1-.5 0-.7.4-.7 1.5-.4 1.5.4zm3 .1c-.1.4-.6.6-1 .7-.4-.2-.8-.4-.5-.9.2-.2.2-.3.5-.4.5-.1.8.2 1 .6zm-18.9.3c.2.5-.3.7-.6.9-.3 0-.5-.2-.8-.3-.1-.4.1-.8.6-1 .4 0 .6.1.8.4zm-10.9.5c.2.1.1.4.1.5-.2.2-.6.6-.9.3-.3-.2-.5-.4-.4-.8.2-.4 1-.4 1.2 0zm2.2.3c0 .3 0 .5-.3.6-.3.3-.6 0-.9-.1-.1-.2-.2-.4 0-.6.1-.2.3-.3.5-.3.3.1.6.1.7.4zm-67.3 0c.2.2 0 .5-.1.8-.2.2-.6.4-1 .2s-.4-.7-.3-1c.2-.1.2-.4.6-.4.4.1.6.2.8.4zm80.3.2c.1.4-.3.6-.6.6-.5.2-.7-.2-.9-.5 0-.2.2-.4.3-.6.5-.2.9.2 1.2.5zm-2.2 0c.2.4-.3.6-.4.8-.3.1-.6.1-.9-.2-.2-.1-.2-.4-.2-.6.2-.2.4-.4.6-.5.4 0 .8.2.9.5zm17.9.5c.1.6-.6.3-.9.4-1.7 1-3.8.2-5.4-.4.1-.5.7-.3 1-.5 1.7-1.1 3.5.2 5.2.3l.1.2zm-108.5-.5l-.2.3c-1.5.9-3.4 1.5-5.1.9l-.2-.2c1.5-1.1 3.4-1.4 5.3-1.1l.2.1zm96.8.3c0 .3-.2.6-.4.8-.4.1-.9 0-1-.4-.1-.3.2-.6.5-.8.3-.1.8 0 .9.4zm-89.7.1c-.2.3-.1.6-.5.8-.4.2-.9-.2-1-.5-.1-.4.2-.6.4-.8.5-.2.8.2 1.1.5zm-2.9.2c.1.3-.1.4-.2.6-.2.2-.6.2-.8.1-.3-.2-.6-.5-.4-1 .2-.2.4-.3.6-.4.4.2.8.3.8.7zm95.4.9c0 .4-.3.6-.6.7-.3 0-.6-.2-.8-.4-.1-.2-.1-.6.2-.8.1-.1.4-.1.5-.2.3.1.6.4.7.7zm-98.3-.4c.1.3-.2.4-.2.7-.1.7-.6 1.1-.9 1.7-.8.9-1.8.9-2.9 1.2l-.2-.3c1.2-1.5 2.4-2.6 4-3.4l.2.1zm96.3.9c.1.5-.3.6-.6.8-.4 0-.6-.2-.8-.5-.1-.4.3-.6.5-.8.4-.1.8.2.9.5zm-91.7 0c0 .1 0 .2.1.2 0 .4-.4.6-.6.8-.4 0-.6-.1-.9-.4-.2-.4 0-.8.4-.9.4-.1.8-.1 1 .3zm99 1.2c.4 0 .5-.5.9-.6.4-.1.8.2 1 .4.2.5-.2.7-.5.9-.3.2-.9-.2-.8.3.3.2.5.5.6.8-.1.2-.4.1-.5 0-1.2-.5-2.4-1.3-2.9-2.5-.2-.4-.9-.6-.5-1 1.1 0 2.1 1 2.7 1.7zm3.8-1.3c.2.2.1.6 0 .8-.2.4-.8.2-1.2.2-.2-.2-.4-.4-.3-.7.2-.2.3-.4.6-.5.4-.1.6 0 .9.2zm-14.4 2.2c.4.4.7 1.1.9 1.6-.1.1-.3.1-.4.1-1.3-.8-3.1-1.6-3.6-3.2-.1-.2-.4-.4-.4-.6 1-.2 2 .6 2.7 1.1.3.4.7.6.8 1zm-90.7-1.5c.2.4-.2.6-.4.8-.4.1-.7-.1-.9-.3-.3-.4.2-.8.6-1 .3 0 .5.3.7.5zm95.7.9c0 .2-.3.4-.4.6-.3 0-.6.2-.9-.1-.1-.2-.3-.5 0-.7.4-.6 1-.2 1.3.2zm9.9.6c.1.5-.2.8-.6 1-.4.1-.7-.2-1-.4-.2-.2 0-.5 0-.8.3-.2.6-.4 1-.3.2.2.4.3.6.5zm-27.5 5.5c0 .5-.9.4-1.2.7-1.2.6-2.7.6-4.2.6v-.2c1.4-1.3 3.5-1.7 5.4-1.1zm-57.9 1.7c0 .4-.2.6-.6.7-.3 0-.6-.2-.7-.4-.2-.5.2-.7.5-.9.4 0 .8.3.8.6zm57.2.4c-.1.4-.2.8-.6.9-.4.1-.6-.1-.9-.3-.2-.2-.1-.4-.1-.6.3-.7 1.4-.7 1.6 0zm7.9.2c-1 .6-2.1 1.4-3.4 1.4h-2.1l-.2-.2c1.3-1.6 3.7-1.6 5.8-1.4v.2h-.1zm-75.9.9c0 .4-.2.6-.5.8-.4.1-.7-.1-.8-.4-.2-.4 0-.7.3-.9.4-.3.8.2 1 .5zm1.9.4c.1.2-.1.3-.2.5-.2.1-.6.2-.8 0-.3-.2-.4-.4-.2-.7.1-.2.4-.2.5-.4.4.2.6.4.7.6zm-15.1 4.1c-.4.5-1-.1-1.5-.4-1.4-.8-1.3-2.4-2.7-3.3.2-.5.5 0 .8 0 .2.2.6.3.8.4 1.3.8 1.6 2.1 2.6 3.3z"/><path d="M134.3 54c-.6-1.2-1.7-1.6-3-1.6-1 .1-1.8.8-2.2 1.6-.2.9.1 1.7.8 2.2.3.1.6.1.8-.2.2-.5-.4-.5-.4-.9-.2-.6 0-1 .4-1.4.4-.4 1.1-.2 1.5-.2.5.3 1 .6 1.2 1.2.2.7.2 1.4 0 2.1-.4 1-1.4 1.8-2.5 2-3.3.5-39.4.3-39.4.3-4.2.4-9.1-.8-12.7 1.4-1.7.8-2.5 2.6-2.9 4.3-1.1 1-2.2 2.1-3.1 3.2l-.1-.1c.2-1 .6-1.8.8-2.8.6-.8.6-1.9 1-2.8 1.5-2.4 2.9-4.9 5.3-6.6 1-1.3 2.7-1.1 4.2-1.1 1.6.8 3.5 1 5.5.8.1-.1.1-.2.1-.3-.6-.5-1.5-.7-2.1-1.2-1.6-.8-3.1.2-4.8.1-.1-.1-.2-.1-.1-.2 1.5-1.1 3.2-1.9 4.9-2.6 1.4-.8 2.9-1.2 4.3-1.7.6 0 1.2-.5 1.7-.2l2.1-.6c.1 0 .2.2.3.1 1.8-.6 4 0 6.1-.1l.3.2 1.9.5c.7.1 1 .9 1.8 1 .4-.6-.4-.8-.6-1.2.9-.2 1.9 0 2.7.4l-.4.4c-.2.4.1.8.5.9.3.1.5-.1.7-.2.5-.4 0-.7.1-1 2.9.5 5.8 1.2 8.4 2.4.8.2 1.5.8 2.3.8-.8-.8-2-1.2-3-1.6-.7-.4-1.6-.4-2.1-1 .1-.2.4-.1.5-.3 1.3-.2 2.5-1.2 3.5-2.2.1-.2.5-.2.5-.5-.4-.4-1 .1-1.4.1-1.7.3-2.4 2.3-4 2.6-2-.5-4.1-1-6.1-1.5-1-.2-2.1-.2-3-.6l-2.2-.2h-4c0-.1-.2-.1-.1-.2 1.4-.4 2.7-1.2 4.1-1.6L113 41c1.1-1 2.1-2.1 3-3.3 0-.3-.2-.6-.4-.8-.3-.1-.6-.1-.8.2-.5.4 0 .8 0 1.2-.5.6-1.2 1.2-1.8 1.6-.2 0-10.9 4.9-10.9 4.9-1.6.7-3.2 1.4-4.8 1.8l-2.7.4c-.2.5-.6.8-1 .9-.6.1-1.1.5-1.8.5-5.2 2-10.5 4.1-14.6 8.2.2-.5.4-1.1.4-1.7-.1-.6 0-1.3-.4-1.8-.1-.2-.4-.9-.3-1.1l-.6.4c-.4.9-.7 2.5-.3 3.4.1.7.7 1.6.2 2.2-1.9 2.3-3 5.1-4.2 7.8-.5-.1-.7-.5-.9-1 1.3-1.7 2.4-3.6 2.8-5.8.3-.2.1-.7.4-1-.1-.6.4-1.3 0-1.8.3-.9-1.2-1.7-.3-2.2l-.7.4c-1.7 2.2.9 5.6-1.1 7.8v.2c-.6.7-.8 1.4-1.6 1.9-1-.4-1.3-1.5-1.9-2.3-.9-.8-.9-2.6-.4-3.7.4-1.2-.2-2.2-.4-3.2l-.4-.2c-1 1.2-1.3 3.2-.6 4.7.4.7.4 1.7 1 2.3.4 1.2 1.1 1.9 1.7 3 .2.4-.2.5-.4.7-.4-.3-.4-.9-.8-1.2-1.3-2.8-3-5-5.1-7.3-.1-.4-.4-.7-.2-1.1.8-.7.9-2.1.5-3-.1-.2-.3-.4-.3-.6l-.6-.5c.1 1.4-.8 2.6-.4 4.1v.1c-4.1-3.1-8.6-5.8-13.2-8l-.4 1c1.2.3 4.2 2.2 4.2 2.2 1.4.5 2.7 1.4 4 2.1 5.4 3 9 7.9 11.4 13.5 0 .4.4.9.2 1.4-.8-1.3-2-2-3-3-.3-1.9-1.4-3.7-3-4.4-.6-.9-1.9-1-2.9-1.2l-14.4-.1c-11.7-.2-22.5.4-34.1.2-1.6-.2-3.6-.7-4.1-2.4-.3-.6-.3-1.6 0-2.2.4-.8 1.2-1 2-1.1.6.1 1.1.7 1.3 1.1 0 .5-.4 1-.6 1.4 0 .2.2.5.5.4.5-.2.9-.8 1-1.3 0-.3.2-.7-.1-.9-.2-.8-1.1-1.4-1.9-1.6-1-.1-2 .2-2.7.9-1 .8-.9 2.2-.6 3.4.6 1.8 2.5 3 4.3 3.2l38.6.2c3.8.2 8-.4 11.8.3 1.4.4 2.9 1.5 3.2 3 0 .1-.2 0-.3 0-3.1-2-7.3-2.8-11.3-2.3-1.6-.1-3 .5-4.4.9-.8.2-1.5-.2-1.9-.6-1.4-1.3-3.9-1.2-5.8-.7v.3c1.9-.2 3.1 1.5 4.8 1.7.4.1.7-.4 1.1 0-1.8.9-3.6 1.9-5.5 2.5-.6-.1-.9-.7-1.4-1-.8-.8-2.1-.5-3.2-.6-.4.1-.7-.2-.9 0 .3.6 1 1 1.7 1.3 1 .4 2.1 0 3.1.6-.2.3-.6.4-.8.6-1.9.7-3.4 2.4-5.5 2.3-2.2.2-4.4-.4-5.9-1.9-.6-1.6-2.3-2.4-4-2.3-.1.1-.3.1-.2.3.9.5 1.5 1.6 2.4 2.2.6.7 1.6 0 2.1.8.8.5 1.7 1 2.6 1.1.6.3 1.3.4 2.1.6l-.3.2c-3.6 1.2-7.8 1.3-11.8 1.2-1.2 0-2.3-.4-3.5-.4.2.2.6.4 1 .6-.3.2-.7.3-1.1.3-.5.1-1 .2-1.5.4-.6 0-1.2.2-1.7.4-.7.7-1.5 1.5-2.3 1.8 0 .2 0 .4.2.4.8-.3 1.7-.1 2.5-.4 1.3-.1 2.1-1.6 3.1-2.2 1.1-.9 2.7-.7 4-.5.8.2-.1.5.2 1 .3.3.6.6 1 .5.1-.1.2-.2.3-.2.2-.3.2-.7 0-1 .6-.4 1.3 0 1.9-.2 1.5 0 3-.4 4.5-.4.2 0 .5-.3.8 0-.1.3-.5.4-.4.8.1.4.5.5.8.6.4-.2.8-.4.6-1-.1-.3-.4-.3-.6-.4.8-.4 1.8-.5 2.6-.9.6-.1 1.2-.3 1.7-.6.5 0 1-.5 1.4-.3-.2.7-.5 1.3-.8 1.9-.6 2.1-1.1 4.9 0 7 .1 0 .2 0 .2-.1-.8-2.1-.4-4.6.4-6.6.6-3.4 4-4.4 6.5-5.7l.1.2c-.7 1.8-1.7 3.4-1.5 5.6.1.4-.2.7 0 1 .7-.4 1.1-1.2 1.5-1.8.3-1.8-.8-4 1.1-5.4 3.3-1.3 6.3-3 10.1-3 .1.1.4-.1.4.2-.8.9-1.9 1.7-2.3 2.8-1.3 1.8-1.2 4.8-.7 6.9.4 1.2-.7 1.9-1.2 2.9-.2.3-.3.9-.5 1.3l.8.1c.7-.7 1.3-1.6 1.3-2.6.1.4.4.7.8.8.3-.4-.2-.8-.3-1.2.6-.4.9.4 1.4.6.8.2 1.5.6 2.4.6l.3-.3c-.9-1.4-2.6-1.6-4.1-1.7-.8-1.3-.8-3-.7-4.6.2-.8.3-1.7.8-2.5.2-.6.8-1.1 1.1-1.5.7-.7 1.6-1.2 2.5-1.4h.1v.1c-1.1.8-1.2 2-1.8 3-.7 1-1 2.4-.4 3.5.2.5.1 1.3.7 1.7.5-.7.6-1.6.8-2.4-.1-1.3-.9-2.6-.2-3.8.4-1 1.2-1.4 2.1-1.8 2.2-.2 4.1.9 6 1.8.4.3 1.1.5 1.2 1.1 0 1.1-.6 2.2-1.5 2.7-1.1.6-2.6.7-3.6 0-.6-.6-.8-1.6-.6-2.4.4-.5 1-.9 1.7-.6.4.2.8.6 1.3.4.2-.1.3-.4.2-.6-.4-.2-.6-.8-1.2-.9-.8-.1-1.7-.1-2.2.4-.8.7-1.2 1.8-.9 2.8.3 1.3 1.2 2.2 2.5 2.6 1.8.4 3.7-.1 4.9-1.7.5-.5.6-1.1.9-1.7 1.9 1.2 3.3 3.2 4.1 5.3 0 .7.2 1.4 0 2l1.4.1c-.1-.3 0-.7.1-1 .5-2.6 2.1-4.8 4.1-6.6.7-.4.5.5.7.8.6 1.5 2 2.6 3.5 3 1.7.3 3.3-.1 4.3-1.4.5-1 1.2-2.4.3-3.4-.6-.7-1.3-1-2.2-1-1 0-1.7.7-2.2 1.5 0 .3 0 .7.2.8.2 0 .5 0 .6-.2.1-.6.6-.9 1.1-1.2.4-.2.9 0 1.3.2.4.4.5 1 .6 1.6-.1.8-.6 1.6-1.3 1.9-1.2.6-2.8.3-3.8-.4-.5-.5-.8-1.1-1.1-1.8-.1-.6-.3-1.2 0-1.8 1.7-1 3.6-1.8 5.7-2 .8.2 1.5.7 2.1 1.3 1.8 1.9-.4 4.6.9 6.6.5-.1.5-.7.7-1.1.6-1.4-.2-3-.5-4.4-.5-.9-.8-1.6-1.5-2.4.2-.1.3-.1.5-.1.8.6 1.7 1.2 2.4 2.1 1.2 1.9 1.7 4.1 1.5 6.6-.3 1.2-1.6 1.8-2.6 2.2-.4.3-.9.8-1.1 1.3.5.3 1.2 0 1.6-.2.8-.3 1.2-1.2 1.7-1.7.1 0 0 .2.1.2 0 .4-.2 1 .2 1.2.2-.6.2-1.4.4-2 .5.6.6 1.3.8 2 .4.7 1 1.7 1.9 1.8.2-.4 0-.7-.1-1-.1-1-1-1.5-1.5-2.2-1.4-1.9-.8-4.9-1.8-7.1-.4-1.2-1.2-2-2.1-3l.2-.2c1.9 0 3.6.6 5.4 1 2.2 1.1 5.4.8 6.4 3.7.4 1.6 1.2 3.1 2.3 4.3l.1-.1c.2-.4.2-1.1 0-1.5-.2-2-2-2.5-2.9-4.2l.1-.2c1 .3 1.9.5 2.9.9 3.2.9 5.4 4 5.8 7.2 0 2.6-.5 4.7-1.5 6.8-.1.3-.7.7-.3 1 .4-.3.5-.8.8-1.2 1.3-2.2 2-5.2 1.3-8 0-.5-.6-.9-.4-1.4.2.2.4.3.7.4.2-.2.6-.2.8-.4 0-.2.2-.5 0-.7-.2-.4-.8-.4-1.2-.3-.2.2-.4.6-.5.9-.4-.7-.8-1.6-1.4-2.1l.1-.1c1.8.6 3.4 1.5 5.2 2 .4.2.8.4 1.4.4 1.5.6 3.3.8 4.9 1.2 1.2-.1 2.2.4 3.4.2v-.1c-.4-.6-1.4 0-1.9-.4-2.7-.3-5.4-1-7.8-2 0-.1.2-.1.3-.1.4-.2.7-.6.6-1-.2-.3-.5-.4-.9-.4-.2.1-.6.4-.6.7 0 .3.3.7.6.8-.1.1-.2 0-.4 0-1.2-.6-2.4-1.1-3.6-1.6-.4-.1-.8-.4-1.2-.5-.9-.4-1.8-.9-2.7-1.2-2.5-1.3-5.4-2-8-3-.6-.2-1.2-.3-1.7-.5-1-.3-2-.5-3-.8-3.4-.8-7.9-.9-10.8.9-.5-.2-.8.6-1 .1.8-2.2 3.3-2.9 5.4-3 15.9-.2 30.8-.3 46.5-.5 1.8 0 3.6-.6 4.6-2.3.1-1.9.2-3.5-.3-4.6zM71.2 68.7c-.2.5-.5.9-.4 1.4l-.2.1c.1-.6-.5-1-.3-1.6-.3-.5-.3-1.1-.6-1.6-.4-.6.3-.9.6-1.4.6.2.8.8 1.2 1.2.2.8-.3 1.3-.3 1.9z"/><path d="M114.2 66.2c0 .1.2.2.2.4-1.4 1.2-3.3 1.6-5.3 1.7-.2 0-.3.2-.5.1-.1-.1-.2-.2-.1-.3 1.4-1.6 3.6-2.4 5.7-1.9zm-6.3.6c.2.6-.2.9-.6 1.1-.4 0-.7-.3-.9-.6-.1-.3.2-.5.3-.7.3-.3 1-.3 1.2.2zm-75.4.1c.1.3 0 .6-.2.8-.2.3-.6.3-.8.3-.3 0-.4-.4-.5-.6 0-.4.2-.6.5-.8.4 0 .7 0 1 .3zm-7.1 2.6v.3c-1 .2-1.9 0-2.6-.6-.6-.8-1.2-1.6-2.1-2 0-.1-.2-.3 0-.4 2 0 3.2 1.6 4.7 2.7zm94.9-2.6c-.9 1.4-1.7 3-3.3 3.6-.3 0-.5.4-.8.1.6-1.5 2-3.2 3.5-3.8.2 0 .4 0 .6.1zm-85.5.5c0 .4-.3.5-.6.8-.3 0-.5-.2-.7-.4-.2-.4.2-.6.4-.8.3-.2.7.1.9.4zm90.5.2c-.4.5-.2 1.3-.6 1.8-.8.9-1.5 2-2.7 2.2-.2-.4.3-.8.5-1.2.6-1.2 1.3-2.6 2.6-3.1l.2.3zM13.1 68c.1.3.2.6 0 .9-.2.2-.6.3-.9.2-.4-.2-.5-.6-.3-1s.9-.6 1.2-.1zm-2.3.4c0 .2.2.4.1.6-.1.2-.3.4-.6.5-.4.1-.7-.2-.9-.5 0-.4.1-.7.4-.8.4-.2.8 0 1 .2zm4.7.3c.1.3.2.9-.3 1-.6.2-.9-.2-1.2-.5 0-.4.2-.6.5-.8.3-.1.7 0 1 .3zm6.5.5c0 .3 0 .7-.3.8-.2.2-.6.1-.8.1-.1-.2-.5-.4-.3-.7.2-.2.3-.3.6-.4.3 0 .6-.1.8.2zm107.1.3c-.1.3-.3.6-.6.6-.4 0-.7-.1-.9-.4-.2-.4.2-.7.5-.8.4 0 .9.1 1 .6zm-7.3.2c0 .3-.3.6-.5.7-.6.2-1-.2-1.2-.6.1-.4.4-.6.7-.7.5-.1.8.2 1 .6zm4.9-.1c0 .3-.2.6-.4.7-.3.1-.7.1-1-.2-.4-.3-.1-.6.2-.8.5-.2 1.1-.2 1.2.3zM12 70.3c.1.4-.1.8-.5 1-.4 0-.8-.2-.9-.6 0-.4.1-.7.4-.8.5-.1.8.1 1 .4zm107.8.4c.1.4-.1.8-.6 1-.3.1-.5-.1-.8-.3-.2-.2-.4-.6 0-.8.4-.6 1.2-.3 1.4.1zm-86.4.5c.2.4-.3.5-.4.8-.2.1-.5.1-.6 0-.2-.2-.4-.5-.3-.8.2-.2.3-.3.5-.4.4-.3.5.1.8.4zm95 .2c.1.3-.2.4-.2.6-.2.2-.6.2-.9.2-.4-.2-.4-.5-.4-.9.2-.2.3-.4.6-.4s.8.1.9.5zm-2.5.2c.2.5-.3.7-.6.8-.2 0-.4-.1-.4.2 1 .5 1.7 1.4 2.5 2.1v.3c-1.4 0-2.9-.4-3.9-1.5-.3-.2-.8-.2-1.1-.5.5-.5 1.5-.3 2.2-.4.5-.6-.6-1 .1-1.4.2 0 .4-.3.7-.2.2.1.4.3.5.6zm-16.2 0c.1.2-.2.4-.2.6-.2.2-.6.3-.9.2-.2-.3-.5-.5-.4-.9.3-.6 1.4-.5 1.5.1zM21 73c-.1.4-.3.6-.7.6-.3 0-.6-.2-.7-.5 0-.3.2-.4.2-.6.4-.3 1.2-.1 1.2.5zm3.2-.5c0 .6-.6.9-.8 1.4-.6 1.3-1.7 2.5-3.2 2.6-.2-.4.5-.8.7-1.2.6-1.4 1.9-2.1 3.1-2.9h.2v.1zm84.5.5c0 .4-.4.8-.7.9-.4.1-.6-.2-.8-.3-.3-.3-.1-.6 0-1 .5-.4 1.2 0 1.5.4zm2.5.3c0 .4-.3.8-.7.9-.1-.1-.3 0-.4-.1-.3-.2-.5-.4-.5-.7.2-.2.3-.5.6-.6.3 0 .9 0 1 .5zm-80.8 0c0 .4-.3.7-.6.8-.4 0-.6-.2-.8-.5-.1-.4.3-.6.5-.8.5-.1.6.2.9.5zm2.7.1c-.1.4-.4.6-.8.7-.3-.1-.6-.2-.7-.5 0-.4.3-.6.6-.8.4 0 .8.2.9.6zm86.6 2.8c.2.2.6.4.5.6-.6.3-1.1-.4-1.7-.6-1-1-1.7-2-2.1-3.2.4-.4.8.1 1.1.2.9.9 1.7 1.9 2.2 3zm1.5-2.8c.1.3.1.6-.1.9-.2.4-.8.3-1.1.2-.2-.2-.6-.6-.3-.9.1-.3.5-.4.8-.5.2 0 .4.2.7.3zm-84.5 1.1c0 .3.1.8-.3 1-.4.1-.8 0-1-.5-.2-.5.2-.6.5-.8.4-.1.6.1.8.3zm74.4 2.6c.6.8 1 1.8 1 2.8-.1.3.2.6 0 .8h-.2c-1.8-1.3-2.2-3.1-2.9-4.9-.2-.1-.2-.2-.2-.4.4-.4.7.4 1.1.5l1.2 1.2zm-69.2-1.4s0 .1 0 0c-1.5 1.2-3.8 1.9-5.6.8 0-.1 0-.3.2-.4 1.2-.4 2.3-.9 3.5-.8l1.9.4zm-9 .2c-1.3.8-2.6 2.5-4.2 2.9-.3.1-.5.6-.9.3.7-2.2 3.1-3.3 5.2-3.5v.3h-.1zm75.8 1.8c.1.3 0 .8-.3.8-.2.2-.6.2-.8 0-.4-.2-.4-.5-.4-.8.1-.3.4-.3.6-.4.5.1.7.1.9.4zm-3.3.2c-.2.6-.9.9-1.4 1-1.3.5-2.6-.2-3.8-.5 0-.3.4-.2.6-.4 1.3-.3 2.7-.6 4-.2.2 0 .5-.1.6.1zm-72.5 1.2c-.1.2-.2.5-.5.6-.3.1-.6 0-.8-.2-.1-.2-.4-.4-.2-.7.1-.3.4-.4.6-.4.5 0 .8.3.9.7zm2.3.3c-.1.2-.2.6-.6.8-.3.1-.6-.1-.8-.3-.1-.2-.2-.5-.1-.8.1-.2.4-.2.6-.4.4 0 .7.4.9.7zm72.8.4c0 .3-.1.5-.3.8-.2.3-.6.3-.9.2-.3 0-.4-.4-.5-.6-.2-.3.2-.5.3-.8.5-.4 1.2-.2 1.4.4zm1.7-.1c0 .2.2.4.1.6-.2.2-.4.7-.9.5-.2.1-.4-.2-.5-.3-.2-.4 0-1 .5-1.1.4-.1.6.2.8.3zm-75.9 1.2c.1.4-.1.8-.4 1.1-.4.1-1 .1-1.2-.4 0-.4 0-.9.5-1.2.4-.1.9 0 1.1.5zm2.2-.2c-.1 1.1-.3 2.5-1.4 3.1-.6.1-1.3.7-1.9.3V84c.8-1.2 2.3-2.1 3.3-3.3zm65.8 1c.2.2-.1.4-.2.6-.2.3-.7.2-1 0-.3-.1-.3-.5-.2-.8.1-.2.3-.4.5-.4.3 0 .7.3.9.6zM40 83.5c.6.9.2 2.2.6 3.2-.7.1-1-.7-1.4-1.1-.9-1.2-.8-2.8-1.1-4.2.1-.1.2-.1.3-.1.6.4 1 1.2 1.5 1.7-.2.3.1.3.1.5zm63.7-1.5c0 .3-.4.4-.6.6-.3 0-.5-.2-.8-.4-.1-.4.2-.5.4-.7.5-.2.9 0 1 .5zm4.8 3.5c0 .1 0 .4-.2.3h-.2c-1.1-1-2.3-2.2-2.1-3.8h.2c1 .9 2.2 1.9 2.3 3.5zm-3-1.2c0 .3-.2.6-.4.8-.4.1-1.1.1-1.2-.5 0-.4.4-.6.6-.8.5-.2.8.1 1 .5zm-2.6.8c-.6 1.5-2.1 2.2-3.1 3.4-.2-.1-.1-.4-.1-.6.4-1.5 1.6-3 3.1-3.6.6 0-.1.5.1.8zm2.9 1.2c0 .4-.4.5-.6.7-.3 0-.6-.1-.9-.4 0-.4.3-.5.5-.7.5-.1.9.1 1 .4zM76.3 13.8c.5 0 1 .4 1 1 0 .5-.4 1-1 1H64.6c-.5 0-1-.4-1-1 0-.5.4-1 1-1h11.7zM68 15.5c1.1 0 .1-1.4-.6-1.4h-1.1c-1.1 0-.1 1.4.6 1.4H68zm4.8 0c1.1 0 .1-1.4-.6-1.4h-1.1c-1.1 0-.1 1.4.6 1.4h1.1zm3.6-1.4H76c-1.1 0-.2 1.4.4 1.4.8 0 .8-1.4 0-1.4zm-1.1 13.2l2.2.9 2.2-.9-.9 3.3 1.8-.4-.6 2 .6 1.9-1.6-.4.7 3.6-2.2-.9-2.2.9.9-3.6-1.8.5.5-2-.5-1.9 1.7.3-.8-3.3zm3.3 5.9c.5 0 .5-.7.5-1.3 0-1.4-1.1 0-1.6-1.3-.4 1.1-1.5.1-1.5 1.2 0 .8 0 1.3.8 1.3h1.8v.1zM76.4 32c0 .5.7.2 1.2.2s1.2.3 1.2-.2c0-.7-.7-.5-1.2-.5s-1.2-.2-1.2.5zm-6.4.1v-.4l-.3-.1.3-.3-.2-.3h.4l.2-.4.2.4h.4l-.2.3.3.3-.4.1v.4l-.3-.2-.4.2zm-1.7 2.3V34l-.4-.1.3-.3-.2-.4.4.1.2-.4.3.4.4-.1-.2.4.3.3-.4.1v.4l-.4-.3-.3.3zm2.9-.3v-.4l-.3-.1.3-.3-.2-.3h.4l.2-.4.2.4h.4l-.2.3.3.3-.3.1v.4l-.4-.3-.4.3zm.4 1.7v-.3h-.2l.2-.2-.2-.2h.3l.1-.2.1.2h.2l-.1.2.2.2H72v.3l-.2-.2-.2.2zm-2.8 1.9V37l-.6-.2.5-.5-.3-.6.7.1.4-.7.3.7.7-.1-.3.6.5.5-.6.2v.7l-.6-.5-.7.5zM70.2 0l1.4 3.4 3.6-1-1.8 3.2 3 2.2-3.6.6.2 3.7-2.8-2.5-2.7 2.5.2-3.7-3.6-.6 3-2.2-1.8-3.2 3.6 1L70.2 0zM57.5 77c-.4.2-.6.3-.5.7l.5 2.1c.1.4.1 1-.1 1.4-.3.5-1 .7-1.4.9-.3.1-1.1.2-1.7 0-.4-.2-.7-.4-.8-1.1l-.5-2.2c-.1-.6-.3-.5-.8-.5v-.2l2.7-.6v.2c-.5.1-.8.2-.6.8l.5 2.2c.1.4.3 1.3 1.4 1 1.4-.3 1.2-1.3 1.1-1.8l-.5-2c-.1-.4-.2-.6-.9-.5v-.2l1.7-.4-.1.2zm3.9.5c-.2-.4-.9-1.1-1.8-.9-.4.1-.8.4-.7.8.1.4.3.5 1 .6l1.3.2c.3.1 1 .3 1.1 1 .1.6-.2 1.5-1.7 1.8-.7.2-1.2 0-1.4.1-.2 0-.2.2-.2.3l-.2.1-.4-1.6.2-.1c.3.6.9 1.3 1.9 1.1.9-.2.8-.9.8-1-.1-.4-.5-.5-1.1-.6l-.6-.1c-1.5-.2-1.6-.8-1.7-1.1-.1-.4 0-1.4 1.5-1.7.6-.1 1.1 0 1.3-.1.2 0 .2-.1.2-.3l.2-.1.3 1.4v.2zm5.2 2.6l-2.9.3v-.2c.6-.1.8-.1.7-.7l-.3-3.6c-.6.1-1.4.2-1.4 1.3h-.2l-.1-1.4 4.8-.5.1 1.4h-.2c-.3-1.1-1.1-1-1.7-1l.3 3.6c.1.6.2.6.8.5l.1.3zm6.8 0h-1.7l-1.6-2.2h-.2v1.3c0 .5.2.6.7.6v.2h-2.8v-.2c.6 0 .7-.1.7-.6l.1-3c0-.6-.2-.6-.7-.6v-.2l2.6.1c.6 0 2.3.1 2.3 1.2 0 .8-.9 1-1.3 1.1l1.6 2c.1.1.2.1.3.1v.2zm-3.5-2.4c1.1 0 1.5-.1 1.5-1 0-.7-.3-1-1-1-.4 0-.5.1-.5.3v1.7z"/><path d="M78.7 80.8l-2.6-.3v-.2c.5 0 .6 0 .7-.2 0-.2-.2-.7-.3-.9l-1.8-.2c-.3.5-.4.7-.5.8 0 .3.4.3.6.4v.2l-1.6-.2V80c.4 0 .6-.2.9-.7l2.2-3.5h.2l1.4 3.8c.3.8.4 1 .8 1v.2zm-2.3-1.9l-.6-1.7-1 1.5 1.6.2zm7 2.8l-4.6-.8v-.2c.5 0 .7.1.8-.3l.6-3.2c.1-.4-.2-.5-.6-.6v-.2l2.8.5v.2c-.6-.1-.8-.1-.9.5l-.6 3.2c-.1.3.1.4.6.5 1.2.2 1.7-.3 2.3-.9h.2l-.6 1.3z"/><path d="M86.4 82.4l-2.8-.6v-.2c.4.1.7.1.8-.3l.7-3.2c.1-.4-.3-.5-.6-.6v-.2l2.8.6v.2c-.4-.1-.8-.1-.8.3l-.7 3.2c-.1.4.2.5.7.6l-.1.2zm5.7.7l-2.6-.3v-.2c.5 0 .6 0 .7-.2 0-.2-.2-.7-.3-.9l-1.9-.1c-.3.5-.4.7-.4.8 0 .3.4.3.6.4v.2l-1.6-.2v-.2c.4 0 .6-.2.9-.7l2.2-3.5h.2l1.4 3.7c.3.8.4 1 .8 1v.2zm-2.3-1.8l-.6-1.7-.9 1.6 1.5.1zM71.4 28.4c0-1.6-.9-.1-1.4-1.5-.4 1.2-1.5.2-1.5 1.4 0 .5.1.8.4.9v.5c0 .1.1.2.2.2h1.7c.1 0 .2-.1.2-.2v-.5c.2-.2.4-.5.4-.8zm-1.4.3c-.5 0-1.1.3-1.1-.2 0-.8.5-.6 1-.6s1.2-.2 1.2.6c0 .5-.7.2-1.1.2zm15.6 19.7c.4 0 .7-.3.7-.7 0-.4-.3-.7-.7-.7-.4 0-.7.3-.7.7-.1.4.2.7.7.7zM82 24.2s-.4.6-.4.7c0 .2.2.4.4.4s.4-.2.4-.4l-.4-.7zm-23.9 0s-.4.6-.4.7c0 .2.2.4.4.4s.4-.2.4-.4c-.1 0-.4-.7-.4-.7zm6 0s-.3.6-.3.7c0 .2.2.4.4.4s.4-.2.4-.4c-.2 0-.5-.7-.5-.7zm6 0s-.4.6-.4.7c0 .2.2.4.4.4s.4-.2.4-.4c-.1 0-.4-.7-.4-.7zm6 0s-.4.6-.4.7c0 .2.2.4.4.4s.4-.2.4-.4c-.1 0-.4-.7-.4-.7zm-18 8.2s.3.6.3.7c0 .2-.2.4-.4.4s-.4-.2-.4-.4c.1 0 .5-.7.5-.7zm0 8s.3.6.3.7c0 .2-.2.4-.4.4s-.4-.2-.4-.4c.1 0 .5-.7.5-.7zm1 6.4s.4.6.4.7c0 .2-.2.4-.4.4s-.4-.2-.4-.4c0-.1.4-.7.4-.7zm5 3.3s.4.6.4.7c0 .2-.2.4-.4.4s-.4-.2-.4-.4l.4-.7zm18.2-17.7s-.3.6-.3.7c0 .2.2.4.4.4s.4-.2.4-.4c-.1 0-.5-.7-.5-.7zm0 8s-.3.6-.3.7c0 .2.2.4.4.4s.4-.2.4-.4c-.1 0-.5-.7-.5-.7zm-.9 6.4s-.4.6-.4.7c0 .2.2.4.4.4s.4-.2.4-.4c-.1-.1-.4-.7-.4-.7zm-5 3.3s-.3.6-.3.7c0 .2.2.4.4.4s.4-.2.4-.4c-.2 0-.5-.7-.5-.7zm-6.2 3.6s-.3.6-.3.7c0 .2.2.4.4.4s.4-.2.4-.4c-.1 0-.5-.7-.5-.7zM80 41.8c.1.1.3.2.5.1l.2-.6s-.3-.3-.4-.3c-.6.2-1.3.2-1.7.8 0 .4.3.8.6 1 .2-.1.3.2.4.3 0 .2-.1.3-.3.3-.5-.5-1.2.2-1.6-.4.2-.6.5-1.2 0-1.7 0-.1.2-.2.1-.3-.2-.5-.8-.1-1.1-.1-.6-.1-1 .2-1.4.7 0 .2.1.4.3.6.2 0 .2 0 .3.2l-.4.2c.1.1.1.3.2.4-.3.1-.5-.3-.6-.5 0-.3 0-.8-.4-.9-.1 0-.3.1-.3.1-.1.1-.2.4-.2.6 0 .3.1.7.1.7s1.2.9 1.4 1.4c-.3.7-.3 1.6-1.1 2-.2.2-.2.4-.2.6l.2.2c.5-.3 1.4-.3 1.4-1.2.2-.3.4-.7.7-1 .4-.1.7.1.9.4-.1.6-.5.9-1 1.1-.1.1 0 .2 0 .3.2.3.6.2.8.1.6-.4.9-1.2 1.5-1.4.1.4-.8.5-.2.9.3-.1.8 0 1-.4-.3-.6.9-.9.2-1.5 0-.6.6-.8.6-1.4-.2-.6-.9-.6-1.1-1.2 0-.3.4-.3.6-.1zm-27.5 6.9c.4 0 .7-.3.7-.7 0-.4-.3-.7-.7-.7-.4 0-.7.3-.7.7-.1.4.3.7.7.7zM13.6 71.4c.4 0 .7-.3.7-.7 0-.4-.3-.7-.7-.7s-.7.3-.7.7c0 .3.3.7.7.7zm24.7 5.5l-.1-.1c0 .1 0 .1.1.1h-.2v-.1h.1c.1-.1.1-.1.1.1 0-.1 0-.1 0 0zm-.1-.1c.1 0 .1 0 0 0 .1 0 .1-.1 0 0 0-.1 0-.1 0 0zm.3 0c-.1 0-.1-.1 0 0-.1-.1-.1-.1 0 0-.1 0-.1 0 0 0-.1 0 0 0 0 0 0 .1-.1.1 0 0-.1.1-.1.1 0 0-.1.1-.1.1 0 0l-.1.1.1-.1c-.1 0-.1.1 0 0-.1.1-.1 0 0 0-.1 0-.1 0 0 0-.1 0-.1 0 0 0-.1 0-.1-.1 0 0-.1-.1-.1-.1 0 0-.1-.1-.1-.1 0 0zm.2-.1l-.1.1v-.1.1-.1h.1v.1-.1c-.1 0-.1 0 0 0-.1.1-.1.1 0 0 0 .1 0 .1 0 0zm0 .2s.1 0 0 0c.1-.1.1-.1 0 0 .1-.1.1-.1 0 0 0-.1 0-.1 0 0 0-.1 0-.1.1-.1 0 0 .1 0 .1.1-.1-.1-.1 0-.2 0zm.1-.1s0-.1 0 0c-.1-.1-.1 0 0 0-.1 0-.1 0 0 0z"/><path d="M38.8 76.8c.1 0 .1 0 0 0 .1 0 .1 0 0 0 .1.1.1.1 0 0 0 .1 0 .1 0 0 0 .1 0 0 0 0s.1.1 0 0c.1.1.1.1 0 0 .1 0 .1 0 0 0 .1 0 0 0 0 0zM84 23.3H56.4v21.1c0 2.2.9 4 2.2 4.6l10.6 6.8c.2.3.6.4 1 .4.3 0 .6-.1.9-.3L81.8 49c1.3-.6 2.2-2.5 2.2-4.6V23.3zm-.7 21.4c-.1 1.6-.7 2.9-1.8 3.7L71 55c-.2.2-.5.3-.8.3-.3 0-.6-.1-.8-.3L59 48.4c-1.1-.8-1.6-2.1-1.8-3.7V24h26.1v20.7z"/><path d="M73.9 54.1l.3-.2c-.1 0-.2.1-.3.2zM53.1 82.9l-2.6.3V83c.5-.1.6-.1.6-.3 0-.2-.3-.7-.5-.9l-1.8.2c-.2.5-.3.8-.3.9 0 .3.4.2.7.2v.2l-1.6.2v-.2c.4-.1.5-.3.7-.9l1.4-3.9h.2l2.2 3.3c.4.7.6.9 1 .8v.3zm-2.7-1.3l-1-1.5-.6 1.7 1.6-.2z"/><path d="M98.9 73c-.5-1.2-1.5-2.1-2.7-2.5-1.3-.3-2.6-.1-3.5.9-1.4 1.2-.4 3.1-.4 4.6 0 .3 0 .6-.3.7-5.8-.5-11.1-2-16.8-2.6-1.3-.2-2.6-.2-3.9-.4l-1.6-.2c-5 .2-9.9.4-14.6 1.6-1 .3-2.1.4-3.1.8-.7-.1-1.3.4-2 .2l-1.3.3h-.4c-.6-1.6 1.3-2.6.7-4.2-.5-.9-1.5-1.8-2.7-1.6-1.3-.2-2.5.6-3.2 1.6-.9 2 .2 4.1.6 6-.1.6.6 1.4 0 1.9-1.3-.9-2.9-1.4-4.5-.9-.5.2-1.3-.1-1.6.5 1.7.9 3.9.8 5.8.7.2-.1.4-.1.6 0 .2 1-.2 2.4.4 3.4.7 1 1.9 1.2 3.1 1.3 3.7-.1 6.9-1.2 10.2-2 .5 0 .9-.3 1.5-.3 1.8-.4 3.7-.7 5.6-.8-.8 1.1-1.3 2.3-1.7 3.6-.5 1.1.8 1.2 1.2 1.8-1.2.4-2.1 1.2-3.3 1.7-2.5-.1-4.7.9-7.1 1.2 0 .5.8.4.9.9-.1.4-.5.4-.8.6 0 .2 0 .3.2.3.2-.3.8-.1 1-.4.8 0 1.5-.2 2.2-.3.7-.3 1.4-.3 2-.8.8-.2 1.3-.8 2.2-1 1.2 0 2.3-.4 3.4-.5v.2c-.9 1.5-1.9 3-2.8 4.4-.2.3 0 .6.3.6.6.2 1.1 0 1.5-.2.8-1.4 1.6-2.8 2.3-4.3.3-1.4 1.3-2.1 2.3-3 .2-.1.4-.3.6-.1-.8.9-1.3 1.8-1.9 2.8-.3 1.1-.4 2.6.6 3.5.5.4 1.2.3 1.8.3 1.5-.8 3.5.5 4.7-1 .7-.1.8.7 1.2 1.1.7.2 1.4.9 2.1.4 0-.4-.5-.8-.8-1.2-.5-.8-1.1-1.5-1.5-2.3-.2-.6-.6-.9-.6-1.5.7.2 1.3.7 2.1.8.7.3 1.5.2 2.1.6.5.7 1.3 1.1 2 1.5 1 .5 2.1.6 3.1 1 .4 0 1 .4 1.3 0-.2-.2-.4-.3-.6-.4-.1-.5.7-.2 1-.6-.1-.2-.3-.3-.5-.3-.6-.3-2-.4-2.4-.6-.5-.1-.9-.3-1.4-.4-2.4 0-3.7-2.2-5.6-3 .4-.4 1.1-.7 1.4-1.3.4-.6.5-1.5.1-2.1-.4-1.2-1.9-1.1-2.9-1.8l.1-.1c1.5-.1 2.9.3 4.3.6 3.8.5 7.3 2 11.3 2 2.2 0 4.9.1 6-2 .2-1.2.4-2.5.6-3.7.9-1.9 2.3-3.8 2.1-6zM56 91.2l-.6-.5c.3-.4.9-.2 1.3-.4 1-.3 2.2-.7 3.4-.5-1.1 1-2.7 1.1-4.1 1.4zm24.8-.6c.9.4 2.9.8 4.2 1-.1.5-1.1 0-1 .8-1.2-.5-2.7-.7-3.6-1.7.1 0 .2-.1.4-.1zm-37.2-17c.1-.7.3-1.5 1-2 1-.5 2.3-.4 3.1.1.3.2.5.4.6.8.2.7-.1 1.4-.6 1.8h-.4c0-.6 0-1.3.2-1.8 0-.5-.4-.5-.8-.7-.7-.2-1.3.1-1.8.4-.4.5-.8 1.1-.5 1.8.3.4 0 1 .2 1.5l-.1.2c-.4-.6-1.1-1.2-.9-2.1zm1.8 1.2c.6.4 1.4.2 2.1.4.1.4.1 1-.2 1.4-.7-.2-1.5-.1-1.9-.7.1-.4-.1-.8 0-1.1zm-.1-1.4c.1-.3 0-.8.4-.9.3-.1.7-.1.8.2 0 .5-.1 1-.2 1.4-.6.1-.8-.2-1-.7zm18.6 12.9c-.2-1.4.4-2.6 1.3-3.6.6-.1 1.2-.2 1.7.1-1 .3-2.3.5-2.6 1.8 0 .5-.1.8.1 1.2.4.8 1.4.4 2 1 0 .2-.2.4-.4.5-.6-.4-1.5-.5-2.1-1zM62.5 89c1-.4 1.9-1.2 3-.9-.8.6-2 .9-3 .9zm3.8.4c-.6 1.3-1.2 2.5-1.9 3.8-.1.2-.4.2-.6.3 0-.6.6-1 .8-1.5.8-1.1 1.1-2.2 2-3.3.1.2-.3.4-.3.7zm.9-2.3v.2h-.1l.1-.2c.1 0 0 0 0 0zm-.3-1.1c-.7-.1-1.3-.3-1.9-.5-.4-.4 0-.8 0-1.3.6-.9 2.1-1.3 2.9-.5-.1.9-.5 1.7-1 2.3zm.9 0c.1-.5.4-1.2.6-1.7 0 .6-.3 1.3-.6 1.7zm.4-3.2c-.5-.1-.8-.7-1.3-.7.5-.2 1-.1 1.5 0 .2.2-.2.4-.2.7zm.5 1.2v-.4.4zm0 1.8c0-.2.1-.4.1-.6.2-.2.4.2.5.3-.1.2-.3.4-.6.3zm.6-2.5c.2-.6.2-1 .6-1.5.4 0 .8 0 1.1.2.1.8 1.1 1.9 0 2.6-.4.2-.9.5-1.3.2-.5-.5-.6-.9-.4-1.5zm2.9-1.1c-.1-.4.4-.1.5-.2l1.2.1c-.6-.1-1.4 1.4-1.7.1zm2 .5c-.5.2-.8.7-1.3.8.2-.4.8-.8 1.3-.8zm-1.7 2.5v.1-.1zm.1 2.5c0 .1 0 .2-.1.3l-.9-.7c.4-.2.8 0 1 .4zm-1.1-1.3c.1-.1.3-.1.4 0h-.4zm-.5-.6c.2-.2.4-.6.6-.6 0 0 0 .1.1.1-.2.2-.4.4-.7.5zm-.9-.1h-.2l.2-.2c.2.1 0 .2 0 .2zm.1 1.6c.5-.6 1 .3 1.2.8.6.9 2.1 1.7 1.5 2.9-.8.7-1.9 0-2.8.6-.4 0-1.2.1-1.4-.4.4-1.4.8-2.8 1.5-3.9zm-1.1.7l.2-.3c-.3 1-.8 2-1.3 2.9-.3-1 .7-1.7 1.1-2.6zm1.7 4.8c-.8 0-1.9.5-2.6-.2 0-.3-.3-.5-.3-.8.6-.2 1.2.5 1.8 0 .9 0 1.9-.1 2.8.1.4.1 1.1-.7 1.2.1-.3 1.3-1.9.4-2.9.8zm2.3-5.8v-.1h.1l-.1.1zm.3 2.5c0 .4.4.6.2.9-.1-.1-.4-.5-.2-.9zm1.1 2.4l-.2.1c-.2-.2-.1-.6-.1-.8.2.2.4.4.3.7zm1.9 1c0 .1-.2.1-.3 0-1.2-1.5-1.7-3.1-2.5-4.8h.2c.9 1.5 1.7 3.3 2.6 4.8zm1.5-3.7c-.1 0-.1.1-.1.2-1.2 0-1.9-.6-2.8-1.2V88c1.1 0 2 .7 2.9 1.2zm-1-5.3c.5.1.5.6.6 1 0 .9-.5 1.6-1.3 2-.4.2-1.1.3-1.5.2 1 0 2-.4 2.4-1.4l-.2-1.8zm-.9-.2c.2.6.6 1.1.4 1.8-.4.8-1.2.8-1.9.9-.4 0-.6-.1-.9-.3 0-.2 0-.3-.2-.4.1-.5-.9-1-.2-1.5.6-.5 2.1-1.9 2.8-.5zm20.2-2.9c-.3.4 0 1-.4 1.4 0 .7-.6 1.1-1.1 1.4-4.7 1-9.4-.6-13.9-1.4-6.4-1.4-13.8-1.8-20.3-.3-3.1.6-6 1.3-9 2.1-1.8.2-3.8.5-5.6 0-1.4-.7-.8-2.5-1.3-3.8.1-1-.3-1.8-.3-2.8-.1-.3-.2-.7-.2-1 .6.1 1.2.5 1.8.7 3.3.6 6.3-.4 9.4-1 3-.6 6-1.2 9.2-1.4 3.6 0 7.2-.2 10.6.4 1.1 0 2.1.3 3.1.4 2.2.3 4.3.9 6.5 1 .4.1.8.1 1.2.2 3.6.6 7.6 1.6 11 0 .1 1.4-.5 2.7-.7 4.1zm-1.1-4.9c0 .6-.6.5-.9.7h-1c-.2-.3-.1-.8-.1-1.1.6.2 1.4.2 2 .4zm-.5-1c.4-.4-.1-3 1.1-1.3 0 .3 0 .8-.3 1-.2.2-.5.5-.8.3zm3.2-.4c-.4.7-.9 1.2-1.7 1.4 0-1 .9-1.6.6-2.7-.5-.8-1.5-1-2.5-.8-.4.2-.2.6-.3 1l-.2 1.3c-.8 0-.8-.7-1.1-1.3 0-.8.4-1.7 1.2-2.1.6-.3 1.7-.3 2.3.1.5.1 1.1.4 1.3.8.7.6.5 1.6.4 2.3z"/><path class="st0" d="M146.7 59.7h249"/><path class="st1" d="M146.7 87.1v-.4h.5c.5 0 .8-.1 1.1-.2.3-.1.4-.3.6-.6.1-.2.1-.7.1-1.5V74c0-.8 0-1.3-.1-1.5s-.3-.4-.5-.5c-.3-.2-.6-.2-1.1-.2h-.5v-.4h7.1c1.9 0 3.4.3 4.6.8 1.4.6 2.5 1.6 3.2 2.9.7 1.3 1.1 2.7 1.1 4.3 0 1.1-.2 2.1-.5 3.1-.4.9-.8 1.7-1.4 2.3-.6.6-1.2 1.1-2 1.5-.7.4-1.7.7-2.7.9-.5.1-1.2.1-2.3.1h-7.2v-.2zm6-14.9v12.4c0 .7 0 1.1.1 1.2s.2.3.3.3c.2.1.5.2.9.2 1.3 0 2.3-.4 3-1.3.9-1.2 1.4-3.1 1.4-5.6 0-2-.3-3.7-1-4.9-.5-1-1.2-1.6-2-1.9-.4-.3-1.4-.5-2.7-.4zm20.7 9.1h-6c.1 1.5.5 2.6 1.2 3.4.5.6 1.2 1 1.9 1 .5 0 .9-.1 1.3-.4.4-.3.8-.7 1.2-1.4l.4.3c-.6 1.2-1.3 2.1-2 2.6s-1.6.7-2.5.8c-1.6 0-2.9-.6-3.7-1.9-.7-1-1-2.3-1-3.8 0-1.8.5-3.3 1.5-4.4 1-1.1 2.2-1.6 3.5-1.6 1.1 0 2.1.5 2.9 1.4.8.8 1.3 2.2 1.3 4zm-2.9-.8c0-1.3-.1-2.1-.2-2.6s-.3-.8-.6-1.1c-.2-.1-.4-.2-.7-.2-.4 0-.7.2-1 .6-.5.7-.7 1.6-.7 2.9v.4h3.2zm8.1 5.5v4.1c0 .6 0 .9.1 1.1.1.2.2.3.4.4.2.1.6.1 1.1.1v.4H174v-.4c.5 0 .8-.2 1.1-.4.2-.2.2-.6.2-1.4V78.5c0-.8-.1-1.3-.3-1.5-.2-.2-.5-.3-1-.4v-.4h4.6v1.4c.4-.6.8-1 1.2-1.2.6-.4 1.2-.6 1.9-.6.8 0 1.5.3 2.2.8.7.5 1.2 1.2 1.5 2.1.3.9.5 1.9.5 2.9 0 1.1-.2 2.1-.5 3-.4.9-.9 1.6-1.5 2.1-.7.5-1.4.7-2.3.7-.6 0-1.2-.1-1.7-.4-.5-.1-.9-.5-1.3-1zm0-1.2c.7 1 1.4 1.4 2.2 1.4.4 0 .8-.2 1-.7.4-.7.6-1.9.6-3.8s-.2-3.2-.7-3.9c-.3-.5-.7-.7-1.2-.7-.8 0-1.4.6-1.9 1.7v6zm14.6.7c-1.3 1.2-2.5 1.8-3.6 1.8-.6 0-1.1-.2-1.6-.6-.4-.4-.6-.9-.6-1.5 0-.8.4-1.6 1.1-2.3.7-.7 2.3-1.6 4.7-2.7v-1.1c0-.8 0-1.3-.1-1.6-.1-.2-.3-.4-.5-.6-.3-.2-.5-.2-.8-.2-.5 0-.9.1-1.3.3-.2.1-.3.3-.3.5s.1.4.3.6c.3.3.4.7.4 1 0 .4-.1.7-.4 1-.3.3-.7.4-1.1.4-.5 0-.9-.1-1.2-.4-.3-.3-.5-.6-.5-1 0-.6.2-1.1.7-1.6.4-.5 1.1-.9 1.9-1.2s1.6-.4 2.5-.4c1 0 1.9.2 2.5.7.6.4 1 .9 1.2 1.4.1.3.2 1.1.2 2.3v4.3c0 .5 0 .8.1.9 0 .1.1.2.2.3.1.1.2.1.3.1.2 0 .4-.1.6-.4l.4.3c-.4.6-.8 1-1.2 1.3-.4.3-.9.4-1.4.4-.6 0-1.1-.1-1.5-.4-.7-.5-.9-1-1-1.6zm0-.8V81c-.9.6-1.6 1.1-2.1 1.8-.3.4-.5.8-.5 1.3 0 .4.1.7.4.9.2.2.5.3.8.3.5 0 .9-.2 1.4-.6z"/><path d="M203 76.2v2.5c.7-1.1 1.4-1.9 1.9-2.3.5-.4 1.1-.6 1.6-.6.4 0 .8.1 1 .4.3.3.4.6.4 1.1 0 .5-.1.9-.4 1.2-.3.3-.6.4-.9.4-.4 0-.8-.1-1.1-.4s-.5-.4-.5-.4c-.1 0-.2-.1-.3-.1-.2 0-.4.1-.6.3-.3.3-.6.6-.7 1.1-.3.8-.4 1.6-.4 2.5v3.2c0 .4 0 .7.1.9.1.2.2.4.4.5.2.1.5.2.9.2v.4h-5.9v-.4c.5 0 .8-.2 1-.4.2-.2.3-.8.3-1.8v-6.1c0-.6 0-1-.1-1.2-.1-.2-.2-.4-.3-.5-.1-.1-.4-.2-.8-.2v-.4h4.4v.1zm10.5-4v4h2.6v1.2h-2.6v6.8c0 .6 0 1 .1 1.2.1.2.2.3.3.4.1.1.3.2.4.2.5 0 1-.4 1.4-1.2l.4.3c-.6 1.5-1.7 2.3-3.1 2.3-.7 0-1.3-.2-1.8-.6-.5-.4-.8-.8-.9-1.3-.1-.3-.1-1-.1-2.2v-5.9h-1.4V77c1-.7 1.8-1.4 2.5-2.2.7-.8 1.3-1.6 1.8-2.6h.4zm8.2 4v1.4c.6-.7 1.2-1.1 1.7-1.4.5-.3 1.1-.4 1.7-.4.7 0 1.3.2 1.8.5s.8.8 1.1 1.5c.6-.7 1.2-1.2 1.8-1.5.6-.3 1.2-.5 1.8-.5.8 0 1.4.2 1.8.5.5.3.8.8.9 1.3.2.5.3 1.4.3 2.6v4.5c0 .8.1 1.4.2 1.6.2.2.5.3 1 .4v.4H230v-.4c.4 0 .8-.2 1-.5.1-.2.2-.7.2-1.5V80c0-1 0-1.6-.1-1.9s-.2-.5-.4-.6c-.2-.1-.4-.2-.6-.2-.3 0-.7.1-1 .4-.3.2-.7.6-1 1.1v5.9c0 .8.1 1.3.2 1.5.2.3.5.4 1 .5v.4h-5.7v-.4c.3 0 .5-.1.7-.2.2-.1.3-.3.4-.5.1-.2.1-.6.1-1.3V80c0-1 0-1.6-.1-1.9s-.2-.4-.4-.6c-.2-.1-.4-.2-.6-.2-.3 0-.6.1-.9.2-.4.2-.8.7-1.2 1.2v5.9c0 .8.1 1.3.2 1.5.2.2.5.4 1 .4v.4h-5.6v-.4c.5 0 .8-.2 1-.4.1-.2.2-.7.2-1.5v-6.2c0-.8-.1-1.3-.2-1.5-.1-.2-.5-.3-.9-.4v-.4h4.4v.1z"/><path class="st1" d="M245.7 81.3h-6c.1 1.5.5 2.6 1.2 3.4.5.6 1.2 1 1.9 1 .5 0 .9-.1 1.3-.4.4-.3.8-.7 1.2-1.4l.4.3c-.6 1.2-1.3 2.1-2 2.6s-1.6.7-2.5.8c-1.6 0-2.9-.6-3.7-1.9-.7-1-1-2.3-1-3.8 0-1.8.5-3.3 1.5-4.4 1-1.1 2.2-1.6 3.5-1.6 1.1 0 2.1.5 2.9 1.4.8.8 1.2 2.2 1.3 4zm-2.9-.8c0-1.3-.1-2.1-.2-2.6s-.3-.8-.6-1.1c-.2-.1-.4-.2-.7-.2-.4 0-.7.2-1 .6-.5.7-.7 1.6-.7 2.9v.4h3.2z"/><path d="M251.3 76.2v1.4c.6-.6 1.1-1.1 1.6-1.3.5-.3 1.1-.4 1.7-.4.7 0 1.3.2 1.8.6.5.4.8.9.9 1.5.1.4.2 1.3.2 2.6v4.3c0 .8.1 1.4.2 1.6.2.2.5.3 1 .4v.4h-5.5v-.4c.4-.1.7-.2.9-.5.1-.2.2-.7.2-1.5V80c0-.9 0-1.5-.1-1.7s-.2-.4-.4-.5c-.2-.1-.3-.2-.6-.2-.7 0-1.3.5-1.9 1.4v5.9c0 .8.1 1.3.2 1.6.2.2.4.4.9.4v.4h-5.5v-.4c.5 0 .8-.2 1-.4.1-.2.2-.7.2-1.5v-6.2c0-.8-.1-1.3-.2-1.5-.1-.2-.5-.3-.9-.4v-.4h4.3v-.3zm12.4-4v4h2.6v1.2h-2.6v6.8c0 .6 0 1 .1 1.2.1.2.2.3.3.4.1.1.3.2.4.2.5 0 1-.4 1.4-1.2l.4.3c-.6 1.5-1.7 2.3-3.1 2.3-.7 0-1.3-.2-1.8-.6-.5-.4-.8-.8-.9-1.3-.1-.3-.1-1-.1-2.2v-5.9H259V77c1-.7 1.8-1.4 2.5-2.2.7-.8 1.3-1.6 1.8-2.6h.4z"/><path class="st1" d="M277.7 75.9c1 0 1.8.2 2.7.7s1.4 1.2 1.9 2.1c.4.9.6 1.9.6 3 0 1.6-.4 2.9-1.2 3.9-1 1.3-2.3 1.9-4 1.9-1.6 0-2.9-.6-3.8-1.7-.9-1.2-1.3-2.5-1.3-4 0-1.6.5-2.9 1.4-4.1.9-1.3 2.2-1.8 3.7-1.8zm.1.8c-.4 0-.7.2-1 .5-.3.3-.5.9-.6 1.8-.1.9-.1 2.1-.1 3.7 0 .8.1 1.6.2 2.3.1.6.3 1 .5 1.3s.6.4 1 .4.6-.1.9-.3c.3-.3.5-.6.6-1.1.2-.7.2-2.2.2-4.5 0-1.3-.1-2.2-.2-2.7s-.4-.9-.7-1.1c-.2-.2-.5-.3-.8-.3z"/><path d="M288.8 77.3v7.6c0 .7.1 1.2.2 1.4.3.3.7.4 1.4.4v.4h-6.5v-.4c.5 0 .8-.1 1-.2.2-.1.4-.3.4-.4.1-.2.1-.6.1-1.2v-7.6h-1.6v-1.1h1.6v-1.4c0-1.1.4-2.1 1.2-2.8.8-.8 1.9-1.1 3.4-1.1 1 0 1.7.2 2.1.5.5.4.7.8.7 1.2 0 .4-.1.7-.4.9s-.7.4-1.1.4c-.4 0-.7-.1-1-.3-.2-.2-.4-.4-.4-.7 0-.1 0-.2.1-.4v-.4c0-.2 0-.3-.1-.4-.1-.1-.3-.2-.5-.2s-.4.1-.6.3c-.1.2-.2.5-.2.9v3.5h1.6v1.1h-1.4zm14.2 2.2v4.9c0 .8 0 1.3.1 1.5.1.2.3.4.5.5.3.1.6.2 1.1.2h.5v.4h-8.3v-.4h.5c.5 0 .8-.1 1.1-.2.2-.1.4-.3.5-.6.1-.2.1-.7.1-1.5V74c0-.8 0-1.3-.1-1.5s-.3-.4-.5-.5c-.3-.2-.6-.2-1.1-.2h-.5v-.4h8.3v.4h-.5c-.5 0-.8.1-1.1.2-.2.1-.4.3-.5.6-.1.2-.1.7-.1 1.5v4.5h5.6V74c0-.8 0-1.3-.1-1.5s-.3-.4-.5-.5c-.3-.2-.6-.2-1.1-.2h-.5v-.4h8.3v.4h-.5c-.5 0-.8.1-1.1.2-.2.1-.4.3-.5.6-.1.2-.1.7-.1 1.5v10.5c0 .8 0 1.3.1 1.5s.3.4.5.5c.3.1.6.2 1.1.2h.5v.4h-8.3v-.4h.5c.5 0 .8-.1 1.1-.2.2-.1.4-.3.5-.6.1-.2.1-.7.1-1.5v-4.9H303v-.1z"/><path class="st1" d="M324 81.3h-6c.1 1.5.5 2.6 1.2 3.4.5.6 1.2 1 1.9 1 .5 0 .9-.1 1.3-.4.4-.3.8-.7 1.2-1.4l.4.3c-.6 1.2-1.3 2.1-2 2.6s-1.6.7-2.5.8c-1.6 0-2.9-.6-3.7-1.9-.7-1-1-2.3-1-3.8 0-1.8.5-3.3 1.5-4.4 1-1.1 2.2-1.6 3.5-1.6 1.1 0 2.1.5 2.9 1.4.8.8 1.2 2.2 1.3 4zm-2.9-.8c0-1.3-.1-2.1-.2-2.6s-.3-.8-.6-1.1c-.2-.1-.4-.2-.7-.2-.4 0-.7.2-1 .6-.5.7-.7 1.6-.7 2.9v.4h3.2zm9.6 5c-1.3 1.2-2.5 1.8-3.6 1.8-.6 0-1.1-.2-1.6-.6-.4-.4-.6-.9-.6-1.5 0-.8.4-1.6 1.1-2.3.7-.7 2.3-1.6 4.7-2.7v-1.1c0-.8 0-1.3-.1-1.6-.1-.2-.3-.4-.5-.6-.3-.2-.5-.2-.8-.2-.5 0-.9.1-1.3.3-.2.1-.3.3-.3.5s.1.4.3.6c.3.3.4.7.4 1 0 .4-.1.7-.4 1-.3.3-.7.4-1.1.4-.5 0-.9-.1-1.2-.4-.3-.3-.5-.6-.5-1 0-.6.2-1.1.7-1.6.4-.5 1.1-.9 1.9-1.2s1.6-.4 2.5-.4c1 0 1.9.2 2.5.7.6.4 1 .9 1.2 1.4.1.3.2 1.1.2 2.3v4.3c0 .5 0 .8.1.9 0 .1.1.2.2.3.1.1.2.1.3.1.2 0 .4-.1.6-.4l.4.3c-.4.6-.8 1-1.2 1.3-.4.3-.9.4-1.4.4-.6 0-1.1-.1-1.5-.4-.7-.5-.9-1-1-1.6zm0-.8V81c-.9.6-1.6 1.1-2.1 1.8-.3.4-.5.8-.5 1.3 0 .4.1.7.4.9.2.2.5.3.8.3.4 0 .9-.2 1.4-.6z"/><path d="M340.5 71.3v13.6c0 .8.1 1.3.3 1.5.2.2.5.3 1.1.4v.4H336v-.4c.5 0 .8-.2 1.1-.4.2-.2.2-.7.2-1.4V73.5c0-.8-.1-1.3-.3-1.5-.2-.2-.5-.3-1-.4v-.4h4.5v.1zm6 .9v4h2.6v1.2h-2.6v6.8c0 .6 0 1 .1 1.2.1.2.2.3.3.4.1.1.3.2.4.2.5 0 1-.4 1.4-1.2l.4.3c-.6 1.5-1.7 2.3-3.1 2.3-.7 0-1.3-.2-1.8-.6-.5-.4-.8-.8-.9-1.3-.1-.3-.1-1-.1-2.2v-5.9h-1.4V77c1-.7 1.8-1.4 2.5-2.2.7-.8 1.3-1.6 1.8-2.6h.4zm7.6-.9v6.3c.6-.6 1.2-1.1 1.7-1.3.5-.3 1-.4 1.6-.4.7 0 1.3.2 1.8.6.5.4.8.9 1 1.4.2.5.2 1.4.2 2.7v4.3c0 .8.1 1.4.2 1.6.2.2.5.3.9.4v.4h-5.6v-.4c.4-.1.7-.2.9-.5.1-.2.2-.7.2-1.5V80c0-.9 0-1.5-.1-1.7-.1-.2-.2-.4-.4-.5-.2-.1-.4-.2-.6-.2-.3 0-.6.1-.9.3-.3.2-.6.6-1 1.1v5.9c0 .8.1 1.3.2 1.5.1.3.5.4.9.5v.4h-5.6v-.4c.5 0 .8-.2 1-.4.1-.2.2-.7.2-1.5V73.6c0-.8-.1-1.3-.2-1.5-.1-.2-.5-.3-.9-.4v-.4h4.5z"/></svg>