<svg id="Layer_1" data-name="Layer 1" xmlns="http://www.w3.org/2000/svg" viewBox="0 0 389.8 94.51"><defs><style>.cls-1,.cls-2{fill:#231f20}.cls-1{fill-rule:evenodd}</style></defs><title>DoH_Inline</title><path class="cls-1" d="M151.59 42h-6.17l-.74 1.7a3.77 3.77 0 0 0-.36 1.41 1.17 1.17 0 0 0 .59 1.08 5 5 0 0 0 1.71.31v.5h-5.81v-.5a2.61 2.61 0 0 0 1.55-.77 10.53 10.53 0 0 0 1.5-2.64l6.25-13.95h.25l6.3 14.33a8.69 8.69 0 0 0 1.48 2.53 2 2 0 0 0 1.24.46V47h-8.46v-.5h.35a2.64 2.64 0 0 0 1.43-.28.69.69 0 0 0 .28-.59 1.58 1.58 0 0 0-.08-.48q0-.12-.39-1l-.92-2.15zm-.44-1l-2.6-6-2.68 6z"/><path class="cls-2" d="M170.09 34.92v9.44a3.51 3.51 0 0 0 .26 1.73 1.5 1.5 0 0 0 1 .43V47h-4.91v-1.64a6.31 6.31 0 0 1-1.73 1.51 4 4 0 0 1-1.93.46 2.89 2.89 0 0 1-1.82-.62 3.1 3.1 0 0 1-1.06-1.47 10.82 10.82 0 0 1-.27-2.93v-4.77a3.38 3.38 0 0 0-.26-1.7 1.5 1.5 0 0 0-1-.44v-.48h4.91v8.24a7.2 7.2 0 0 0 .12 1.66 1.15 1.15 0 0 0 .39.57 1 1 0 0 0 .62.19 1.5 1.5 0 0 0 .84-.25 5.33 5.33 0 0 0 1.23-1.33v-6.46a3.4 3.4 0 0 0-.26-1.7 1.51 1.51 0 0 0-1-.44v-.48zm9.74-.33l.17 4.11h-.44a6.42 6.42 0 0 0-1.64-2.5 2.68 2.68 0 0 0-1.68-.67 1.25 1.25 0 0 0-.9.36 1.08 1.08 0 0 0-.37.81 1.06 1.06 0 0 0 .26.67 12.48 12.48 0 0 0 2.31 1.82 9.23 9.23 0 0 1 2.46 2.18 3.47 3.47 0 0 1 .61 2 4.23 4.23 0 0 1-.5 2 3.52 3.52 0 0 1-1.42 1.48 4.06 4.06 0 0 1-2 .52 7 7 0 0 1-2.31-.54 2 2 0 0 0-.53-.14q-.43 0-.71.64h-.43l-.18-4.33h.47a5.64 5.64 0 0 0 1.58 2.55 3.08 3.08 0 0 0 1.92.85 1.38 1.38 0 0 0 1-.37 1.24 1.24 0 0 0 .4-.93 1.59 1.59 0 0 0-.39-1.07 10.14 10.14 0 0 0-1.73-1.37 13.53 13.53 0 0 1-2.55-2.09 3.64 3.64 0 0 1-.85-2.33 3.78 3.78 0 0 1 1-2.51 3.45 3.45 0 0 1 2.78-1.13 4.05 4.05 0 0 1 1.84.4 1.26 1.26 0 0 0 .57.19.69.69 0 0 0 .37-.09 2.65 2.65 0 0 0 .45-.55zm6.38-4.08v4.41h2.86v1.28h-2.86v7.44a6.12 6.12 0 0 0 .09 1.36 1 1 0 0 0 .35.49.78.78 0 0 0 .45.18q.84 0 1.59-1.28l.39.28a3.53 3.53 0 0 1-3.39 2.48 3 3 0 0 1-1.95-.63 2.86 2.86 0 0 1-1-1.43 12.16 12.16 0 0 1-.13-2.37V36.2H181v-.45a16.4 16.4 0 0 0 2.76-2.41 14.54 14.54 0 0 0 2-2.82zm8.79 4.41v2.73a8.69 8.69 0 0 1 2.1-2.47 3.09 3.09 0 0 1 1.74-.62 1.5 1.5 0 0 1 1.15.45 1.69 1.69 0 0 1 .44 1.25 2 2 0 0 1-.43 1.34 1.28 1.28 0 0 1-1 .48 1.74 1.74 0 0 1-1.19-.44 7.34 7.34 0 0 0-.59-.49.56.56 0 0 0-.3-.08 1.08 1.08 0 0 0-.71.28 2.67 2.67 0 0 0-.8 1.25 8.78 8.78 0 0 0-.41 2.76v3.49a2.94 2.94 0 0 0 .09.94 1.06 1.06 0 0 0 .45.52 2.82 2.82 0 0 0 1 .19v.5H190v-.46a1.41 1.41 0 0 0 1.06-.43 4 4 0 0 0 .28-1.95v-6.69a5 5 0 0 0-.1-1.32 1 1 0 0 0-.37-.53 2 2 0 0 0-.86-.23v-.48z"/><path class="cls-1" d="M207 45.19a6.36 6.36 0 0 1-4 1.95 2.35 2.35 0 0 1-1.71-.67 2.31 2.31 0 0 1-.68-1.7 3.3 3.3 0 0 1 1.19-2.48 22.24 22.24 0 0 1 5.2-2.94v-1.21a5.59 5.59 0 0 0-.15-1.71 1.31 1.31 0 0 0-.55-.62 1.66 1.66 0 0 0-.93-.27 2.38 2.38 0 0 0-1.38.37.66.66 0 0 0-.33.54 1.12 1.12 0 0 0 .36.67 1.65 1.65 0 0 1 .49 1.07 1.44 1.44 0 0 1-.48 1.08 1.71 1.71 0 0 1-1.22.44 2 2 0 0 1-1.37-.49 1.5 1.5 0 0 1-.54-1.15 2.65 2.65 0 0 1 .74-1.77 4.61 4.61 0 0 1 2-1.3 8.38 8.38 0 0 1 2.73-.45 4.46 4.46 0 0 1 2.71.73 3.38 3.38 0 0 1 1.3 1.57 10.29 10.29 0 0 1 .18 2.49V44a5 5 0 0 0 .06 1 .61.61 0 0 0 .19.31.46.46 0 0 0 .3.1q.34 0 .68-.48l.39.31a4.75 4.75 0 0 1-1.34 1.39 2.89 2.89 0 0 1-1.56.43 2.47 2.47 0 0 1-1.61-.48 2.21 2.21 0 0 1-.71-1.47zm0-.94v-4a7.53 7.53 0 0 0-2.32 2 2.39 2.39 0 0 0-.5 1.41 1.47 1.47 0 0 0 .43 1 1.17 1.17 0 0 0 .9.35 2.48 2.48 0 0 0 1.5-.72z"/><path class="cls-2" d="M217.48 29.49v15a2.92 2.92 0 0 0 .3 1.64 1.63 1.63 0 0 0 1.16.4V47h-6.51v-.46a1.57 1.57 0 0 0 1.19-.46 2.88 2.88 0 0 0 .26-1.57V32a2.81 2.81 0 0 0-.3-1.61 1.57 1.57 0 0 0-1.15-.41v-.48z"/><path class="cls-1" d="M223 29.08a2 2 0 1 1-1.4.59 1.91 1.91 0 0 1 1.4-.59zm1.8 5.84v9.55a2.9 2.9 0 0 0 .3 1.64 1.63 1.63 0 0 0 1.16.4V47h-6.51v-.46a1.57 1.57 0 0 0 1.19-.46 2.88 2.88 0 0 0 .26-1.57v-7a2.84 2.84 0 0 0-.3-1.62 1.57 1.57 0 0 0-1.15-.41V35zm8.49 10.27a6.35 6.35 0 0 1-4 1.95 2.35 2.35 0 0 1-1.71-.67 2.31 2.31 0 0 1-.68-1.7 3.31 3.31 0 0 1 1.19-2.48 22.29 22.29 0 0 1 5.17-2.94v-1.21a5.56 5.56 0 0 0-.15-1.71 1.31 1.31 0 0 0-.55-.62 1.65 1.65 0 0 0-.93-.27 2.37 2.37 0 0 0-1.38.37.66.66 0 0 0-.34.54 1.12 1.12 0 0 0 .36.67 1.66 1.66 0 0 1 .49 1.07 1.44 1.44 0 0 1-.48 1.08 1.71 1.71 0 0 1-1.22.44 2 2 0 0 1-1.37-.49 1.5 1.5 0 0 1-.54-1.15 2.65 2.65 0 0 1 .73-1.77 4.62 4.62 0 0 1 2-1.3 8.37 8.37 0 0 1 2.73-.45 4.46 4.46 0 0 1 2.71.73 3.37 3.37 0 0 1 1.3 1.57 10.24 10.24 0 0 1 .18 2.49V44a4.94 4.94 0 0 0 .06 1 .62.62 0 0 0 .19.31.46.46 0 0 0 .3.1q.33 0 .68-.48l.39.31a4.73 4.73 0 0 1-1.34 1.39 2.89 2.89 0 0 1-1.56.43 2.47 2.47 0 0 1-1.61-.48 2.21 2.21 0 0 1-.71-1.47zm0-.94v-4a7.53 7.53 0 0 0-2.32 2 2.38 2.38 0 0 0-.5 1.41 1.47 1.47 0 0 0 .43 1 1.17 1.17 0 0 0 .9.35 2.48 2.48 0 0 0 1.5-.72z"/><path class="cls-2" d="M243.71 34.92v1.56a7 7 0 0 1 1.78-1.48 3.76 3.76 0 0 1 1.83-.46 2.9 2.9 0 0 1 1.95.66 3.09 3.09 0 0 1 1 1.61 12.47 12.47 0 0 1 .21 2.82v4.69a3.72 3.72 0 0 0 .25 1.74 1.52 1.52 0 0 0 1.06.43V47h-6.1v-.46a1.27 1.27 0 0 0 1-.57 3.7 3.7 0 0 0 .21-1.6V39a8.8 8.8 0 0 0-.12-1.87 1.1 1.1 0 0 0-.4-.59.94.94 0 0 0-.61-.22q-1.11 0-2.06 1.59v6.46a3.67 3.67 0 0 0 .25 1.71 1.3 1.3 0 0 0 .94.45V47h-6.1v-.46a1.5 1.5 0 0 0 1.08-.49 3.62 3.62 0 0 0 .22-1.68v-6.83a3.39 3.39 0 0 0-.26-1.7 1.5 1.5 0 0 0-1-.44v-.48zm31.83-5.83v6.16h-.48a7.85 7.85 0 0 0-2.59-3.84 6.1 6.1 0 0 0-3.78-1.31 4.85 4.85 0 0 0-3.26 1.11 5.92 5.92 0 0 0-1.84 3.07 15.2 15.2 0 0 0-.54 4 14.82 14.82 0 0 0 .59 4.41 5 5 0 0 0 1.91 2.78 5.52 5.52 0 0 0 3.15.89 6.66 6.66 0 0 0 1.29-.13 9.77 9.77 0 0 0 1.37-.4v-3.59a3.81 3.81 0 0 0-.14-1.33 1.29 1.29 0 0 0-.59-.55 2.17 2.17 0 0 0-1.07-.25h-.45v-.48h8.5v.48a3.66 3.66 0 0 0-1.35.27 1.29 1.29 0 0 0-.58.66 3.65 3.65 0 0 0-.12 1.2v3.64A16.86 16.86 0 0 1 272 47a17.86 17.86 0 0 1-3.75.39 11.07 11.07 0 0 1-4.14-.67 10.66 10.66 0 0 1-2.9-1.78 8.51 8.51 0 0 1-2-2.49 8.68 8.68 0 0 1-.9-4 9 9 0 0 1 2.77-6.66 9.55 9.55 0 0 1 7-2.72 12.2 12.2 0 0 1 2.35.21 11.7 11.7 0 0 1 1.83.59 7.78 7.78 0 0 0 1.51.48 1 1 0 0 0 .67-.26 2.43 2.43 0 0 0 .57-1z"/><path class="cls-1" d="M283.91 34.56a5.59 5.59 0 0 1 2.93.81 5.16 5.16 0 0 1 2 2.31 7.56 7.56 0 0 1 .71 3.27 6.93 6.93 0 0 1-1.3 4.29 5.14 5.14 0 0 1-4.34 2.09 5 5 0 0 1-4.19-1.91 7 7 0 0 1-1.43-4.42 7.13 7.13 0 0 1 1.5-4.51 5 5 0 0 1 4.12-1.93zm.05.91a1.51 1.51 0 0 0-1.13.5 3.51 3.51 0 0 0-.62 2q-.14 1.46-.14 4.06a17.23 17.23 0 0 0 .18 2.58 2.48 2.48 0 0 0 .61 1.39 1.44 1.44 0 0 0 1.06.48 1.46 1.46 0 0 0 1-.32 2.17 2.17 0 0 0 .67-1.22 29.75 29.75 0 0 0 .26-4.95 12.17 12.17 0 0 0-.25-3 2.31 2.31 0 0 0-.72-1.2 1.35 1.35 0 0 0-.88-.27z"/><path class="cls-2" d="M295.28 47.33L291.22 38a9.26 9.26 0 0 0-1.15-2.14 1.54 1.54 0 0 0-.88-.45v-.48h6.41v.48a1.17 1.17 0 0 0-.83.22.88.88 0 0 0-.31.67 5.77 5.77 0 0 0 .57 1.79l2 4.52 1.58-3.91a7.56 7.56 0 0 0 .68-2.37.79.79 0 0 0-.3-.64 1.62 1.62 0 0 0-1-.28v-.48h3.95v.48a1.61 1.61 0 0 0-.93.43 7.9 7.9 0 0 0-1.08 2l-4 9.46z"/><path class="cls-1" d="M311.4 40.52h-6.61a6.22 6.22 0 0 0 1.28 3.79 2.69 2.69 0 0 0 2.14 1.07 2.46 2.46 0 0 0 1.41-.43 5.56 5.56 0 0 0 1.38-1.56l.44.28a7.35 7.35 0 0 1-2.17 2.84 4.7 4.7 0 0 1-2.75.83 4.57 4.57 0 0 1-4.06-2.06 7.27 7.27 0 0 1-1.11-4.12 6.84 6.84 0 0 1 1.62-4.8 5 5 0 0 1 3.83-1.79 4.11 4.11 0 0 1 3.17 1.51 6.8 6.8 0 0 1 1.46 4.45zm-3.17-.86a11.6 11.6 0 0 0-.23-2.86 2.3 2.3 0 0 0-.7-1.17 1.07 1.07 0 0 0-.72-.23 1.27 1.27 0 0 0-1.1.66 5.63 5.63 0 0 0-.76 3.15v.45z"/><path class="cls-2" d="M317.12 34.92v2.73a8.71 8.71 0 0 1 2.1-2.47 3.09 3.09 0 0 1 1.74-.62 1.51 1.51 0 0 1 1.15.45 1.69 1.69 0 0 1 .44 1.25 1.94 1.94 0 0 1-.42 1.34 1.28 1.28 0 0 1-1 .48 1.75 1.75 0 0 1-1.19-.44 7.44 7.44 0 0 0-.59-.49.57.57 0 0 0-.3-.08 1.08 1.08 0 0 0-.71.28 2.67 2.67 0 0 0-.8 1.25 8.76 8.76 0 0 0-.41 2.76v3.49a3 3 0 0 0 .09.94 1.06 1.06 0 0 0 .45.52 2.82 2.82 0 0 0 1 .19v.5h-6.47v-.46a1.41 1.41 0 0 0 1.06-.43 4 4 0 0 0 .28-1.95v-6.69a5 5 0 0 0-.1-1.32 1 1 0 0 0-.37-.53 2 2 0 0 0-.86-.23v-.48zm11.11 0v1.56A6.93 6.93 0 0 1 330 35a3.76 3.76 0 0 1 1.83-.46 2.9 2.9 0 0 1 1.95.66 3.09 3.09 0 0 1 1 1.61 12.53 12.53 0 0 1 .21 2.82v4.69a3.7 3.7 0 0 0 .25 1.74 1.52 1.52 0 0 0 1.06.43V47h-6.1v-.46a1.27 1.27 0 0 0 1-.57 3.71 3.71 0 0 0 .21-1.6V39a8.78 8.78 0 0 0-.12-1.87 1.1 1.1 0 0 0-.4-.59.94.94 0 0 0-.61-.22q-1.11 0-2.06 1.59v6.46a3.68 3.68 0 0 0 .24 1.71 1.3 1.3 0 0 0 .94.45V47h-6.1v-.46a1.5 1.5 0 0 0 1.1-.54 3.62 3.62 0 0 0 .22-1.68v-6.78a3.4 3.4 0 0 0-.26-1.7 1.51 1.51 0 0 0-1-.44v-.48zm13.97 0v1.59A6.84 6.84 0 0 1 344 35a4 4 0 0 1 1.86-.44 3.35 3.35 0 0 1 1.95.54 3.41 3.41 0 0 1 1.19 1.65 7.71 7.71 0 0 1 2-1.68 4.12 4.12 0 0 1 2-.52 3.12 3.12 0 0 1 2 .58 2.89 2.89 0 0 1 1 1.46 9.62 9.62 0 0 1 .3 2.81v4.94a3.63 3.63 0 0 0 .24 1.73 1.56 1.56 0 0 0 1.06.44V47h-6.23v-.46a1.38 1.38 0 0 0 1.08-.57 3.43 3.43 0 0 0 .23-1.6v-5.21a9.62 9.62 0 0 0-.13-2 1.18 1.18 0 0 0-.41-.64 1 1 0 0 0-.64-.22 1.9 1.9 0 0 0-1.12.41 5.08 5.08 0 0 0-1.15 1.21v6.47a3.7 3.7 0 0 0 .22 1.64 1.33 1.33 0 0 0 1.13.53V47h-6.24v-.46a1.38 1.38 0 0 0 .79-.24 1.07 1.07 0 0 0 .39-.54 5.69 5.69 0 0 0 .1-1.38v-5.22a9.39 9.39 0 0 0-.13-2 1.24 1.24 0 0 0-.44-.64 1 1 0 0 0-.64-.23 1.71 1.71 0 0 0-.94.27 5.25 5.25 0 0 0-1.29 1.37v6.47a3.8 3.8 0 0 0 .24 1.69 1.34 1.34 0 0 0 1.06.48V47h-6.21v-.46a1.5 1.5 0 0 0 1.08-.49 3.63 3.63 0 0 0 .22-1.68v-6.83a3.4 3.4 0 0 0-.26-1.7 1.51 1.51 0 0 0-1-.44v-.48z"/><path class="cls-1" d="M368.34 40.52h-6.61a6.23 6.23 0 0 0 1.27 3.79 2.69 2.69 0 0 0 2.14 1.07 2.46 2.46 0 0 0 1.41-.43 5.56 5.56 0 0 0 1.35-1.56l.44.28a7.35 7.35 0 0 1-2.17 2.84 4.7 4.7 0 0 1-2.75.83 4.57 4.57 0 0 1-4.06-2.06 7.27 7.27 0 0 1-1.11-4.12 6.84 6.84 0 0 1 1.62-4.8 5 5 0 0 1 3.83-1.79 4.11 4.11 0 0 1 3.17 1.51 6.8 6.8 0 0 1 1.46 4.45zm-3.17-.86a11.6 11.6 0 0 0-.23-2.85 2.3 2.3 0 0 0-.7-1.17 1.07 1.07 0 0 0-.72-.23 1.27 1.27 0 0 0-1.1.66 5.63 5.63 0 0 0-.76 3.15v.45z"/><path class="cls-2" d="M373.72 34.92v1.56A7 7 0 0 1 375.5 35a3.76 3.76 0 0 1 1.83-.46 2.9 2.9 0 0 1 1.95.66 3.09 3.09 0 0 1 1 1.61 12.47 12.47 0 0 1 .21 2.82v4.69a3.72 3.72 0 0 0 .25 1.74 1.52 1.52 0 0 0 1.06.43V47h-6.1v-.46a1.27 1.27 0 0 0 1-.57 3.7 3.7 0 0 0 .21-1.6V39a8.81 8.81 0 0 0-.12-1.87 1.1 1.1 0 0 0-.4-.59.94.94 0 0 0-.61-.22q-1.11 0-2.06 1.59v6.46a3.67 3.67 0 0 0 .25 1.71 1.3 1.3 0 0 0 .94.45V47h-6.1v-.46a1.5 1.5 0 0 0 1.08-.49 3.62 3.62 0 0 0 .22-1.68v-6.83a3.39 3.39 0 0 0-.26-1.7 1.5 1.5 0 0 0-1-.44v-.48zm13.22-4.41v4.41h2.86v1.28h-2.86v7.44A6.12 6.12 0 0 0 387 45a1 1 0 0 0 .35.49.78.78 0 0 0 .45.18q.84 0 1.59-1.28l.39.28a3.53 3.53 0 0 1-3.39 2.48 3 3 0 0 1-1.95-.63 2.86 2.86 0 0 1-1-1.43 12.15 12.15 0 0 1-.13-2.37V36.2h-1.57v-.45a16.4 16.4 0 0 0 2.76-2.41 14.58 14.58 0 0 0 2-2.82zM43.46 75.74a.81.81 0 0 1-.33.33m3.35-23.93a.64.64 0 1 0-.63-.63.63.63 0 0 0 .63.63zm29.24-26.66H53v18.37c0 1.77.75 3.32 1.79 3.8l8.75 5.22a1.06 1.06 0 0 0 .8.36 1.05 1.05 0 0 0 .71-.28l8.88-5.31c1-.48 1.79-2 1.79-3.8V25.47zm-15.18 5.31h-2v-4.7h2v4.7zm-1.43 1.64l.28-.29-.18-.32h.37l.22-.39.22.38h.37l-.17.32.28.29-.36.07v.4l-.34-.25-.34.25v-.4l-.36-.07zm-5.49 5.85v-4.46H56v4.46zm.38-6.46h.37l.22-.39.22.38h.37l-.17.32.28.29-.36.07v.4l-.34-.25-.34.25v-.4l-.36-.07.28-.29-.17-.31zm2.7 4.54h.37l.23-.36.22.38h.37l-.17.32.28.3-.36.07v.4l-.34-.25-.34.25V37h-.35l.28-.29-.17-.32zm1.59-3.59c0-.12-.17-.15-.24-.15s-.3.35-.48.36-.23 0-.23-.14.27-.21.37-.31c-1.47 0-1.5.68-1.73.68-.39 0 .32-.71.53-.92-.3 0-.47-.42-.8-.6.15-.22.24-.13.43 0 0-.16.12-.34.46-.34.66 0 .47.64.58.64s0-.64.44-.64c.65 0 1.47 1.68.73 1.68-.32 0-.06-.24-.07-.28zm-1.69-4.92l.28-.29-.17-.32h.37l.22-.39.22.38h.37l-.17.32.28.29-.36.07v.4l-.34-.25-.34.25v-.4l-.36-.07zm-.6-1.76v4.7h-2.38v-4.7zm4.53 24.27L55.1 47.1a3.9 3.9 0 0 1-1.48-3v-5.19h6.92v11.44zm-2-12.07v-4.47h2v4.46zm9 12.44L65 52.23a1.07 1.07 0 0 1-.66.23 1.06 1.06 0 0 1-.67-.24l-2.5-1.49V38.91h6.39v11.82zm0-12.44h-6.37v-12.2h6.39v12.19zm7.54 5.79a3.9 3.9 0 0 1-1.48 3l-5.44 3.25V38.91h6.92v5.17zm0-5.79h-6.91v-12.2h6.92v12.19z"/><path class="cls-2" d="M60.17 43.11c0-.07-.87.28-.63.25a2.49 2.49 0 0 1 .69-.93c0-.29-.41 0-.8.18 1.29-1.85.46-1.09-.26-1 1.16-1.25.85-1.22 0-.84.67-.53.81-1.16.71-1.35-.63.84-1.21.71-1.21 1.48a3.1 3.1 0 0 1-.45 1.63c-.34.37-.08-1.37-1-1.37-.28 0-1 0-1.16.32.18 0 .45.46.45.64s.17.69-.14.69-.66-.64-.66-.94v-.67a2.47 2.47 0 0 0-1.68-1.77c0 .51.67.63.67 1.29-.28 0-.69-.53-.69-.2s.43.39.43.67-.49-.1-.49.2.27.22.33.49c-.2-.06-.37 0-.41.07s.06.2.21.29c-.07.06-.13.22-.13.65 0 1.45.91 2.12 1.58 2.12.47 0 .4-.33.46-.49 0 .25.25-.12.25.31s-.46.25-.46.64.73 0 .73.56a6.85 6.85 0 0 1-.09.95c0 .18.76-.25.72-.33.18.07.17.61.51.59s.27-.55.44-.6c-.1 0 .69.52.69.27 0-.68-.28-.39-.28-.85s.94-.35.79-.56-.21-.07-.31-.39c0 .06-.74-1.07.16-.49s1-1.43 1-1.53zm24.26 4.81a.66.66 0 1 0-.75-.66.71.71 0 0 0 .75.66zm-3.02 1.8a.67.67 0 1 0-.75-.66.71.71 0 0 0 .75.66zm-35.95 4.14a.67.67 0 1 0-.75-.66.71.71 0 0 0 .75.66zm2.33.2a.66.66 0 1 0-.79-.66.71.71 0 0 0 .75.66zm64.72-31.37a4.69 4.69 0 0 1 .55 5c-.44 0-.36-.6-.44-.92-.79-1.48-1.43-3.36-.71-5 .52.08.32.72.6 1zm-94.96 1.8a7.05 7.05 0 0 0 0 3.16c-.2.2-.16-.2-.36-.16-1.55-1.12-.83-3.32-1.23-4.87a.31.31 0 0 1 .4-.08 2.85 2.85 0 0 1 1.19 2zm98.37.12c.24.44-.2.88-.52 1.08a1 1 0 0 1-1-.44.92.92 0 0 1 .48-1 1 1 0 0 1 1 .4zM15.13 26.37a1.18 1.18 0 0 1-.51.88c-.24 0-.6 0-.75-.2a.74.74 0 0 1-.16-.84.92.92 0 0 1 .75-.36c.28.12.56.2.67.52zm102.33.63a.89.89 0 0 1 0 .64.9.9 0 0 1-1.07.36 1.07 1.07 0 0 1-.44-.68 1.21 1.21 0 0 1 .67-.72 1.27 1.27 0 0 1 .83.4zm-2.26.09c.32.16.08.56 0 .8-.2.2-.48.52-.83.4-.2-.2-.44-.2-.52-.48a.89.89 0 0 1 .56-.92 1 1 0 0 1 .75.2zm-2.89.6c0 .44 0 1-.48 1.08a.75.75 0 0 1-.91-.56 1 1 0 0 1 .59-1 1.07 1.07 0 0 1 .79.44zm-92.86.2c.12.4-.28.64-.51.84a.81.81 0 0 1-.8-.44c-.28-.28.08-.52.16-.76a.74.74 0 0 1 1.15.36zm-2.38.11a.82.82 0 0 1-.44.76.72.72 0 0 1-.79-.36.68.68 0 0 1 .36-.92c.44-.16.71.24.87.52zm85.64.17a8.4 8.4 0 0 1 .79 2.83c-.16.76.12 1.76-.44 2.28-.56-.2-.59-.88-1-1.24-.71-1.4-.08-3 .16-4.4.32-.12.32.28.44.48zm-87.5.48c.12.48-.24.72-.52 1a.93.93 0 0 1-1-.56 1 1 0 0 1 .52-1 1 1 0 0 1 1 .52zM109 29.8a5.76 5.76 0 0 1 .2 3.84l-.24.2a15.56 15.56 0 0 1-1.63-3.24 5.32 5.32 0 0 1 .48-2.28c.28-.2.44 0 .55.28a1.58 1.58 0 0 0 .63 1.2zm5-.71a1 1 0 0 1-.6 1 .71.71 0 0 1-.91-.48.86.86 0 0 1 .44-1c.44-.24.87.16 1.07.48zm-96.89 1.23a.85.85 0 0 1-.6.76c-.32.24-.55-.16-.83-.28a.94.94 0 0 1 0-.92c.12-.24.4-.24.64-.32.36.2.71.36.79.76zm1.74-.2c.16.4-.28.6-.44.8-.48.16-.71-.2-.91-.48s.16-.64.44-.88c.48-.12.71.2.91.56zm96.23-.12c0 .52-.84 1-.91 1.56a4 4 0 0 1-2.46 2.24 1.91 1.91 0 0 1-.91.52c-.08-.8.63-1.52 1.07-2.24a5.88 5.88 0 0 1 3.21-2.08zm-98.76 1.68a14.47 14.47 0 0 0 1.63 1.88.33.33 0 0 1-.28.4c-1.94-.12-3.25-2.12-4.2-3.52.12-.44.63-.08.91-.12.67.52 1.43.68 1.94 1.36zm99.32.56a5.13 5.13 0 0 1-2.46 4.31c-.44.16-.91.6-1.35.32a20 20 0 0 1 3.49-4.63zM108 33.4a1 1 0 0 1-.67 1.16c-.44 0-.71-.32-.91-.64A.83.83 0 0 1 107 33a.66.66 0 0 1 .48-.12c.24.08.36.28.56.48zm-93.87.36a23.13 23.13 0 0 1 2.14 1.88c-.51.36-1.15 0-1.75 0-1.35-.48-2.26-1.64-3.65-2 0-.44.55-.28.83-.4a7.28 7.28 0 0 1 2.42.52z"/><path class="cls-2" d="M56.62 21.94c-2.22-.88-3.69 1.44-6 1.16-.28.16-.2.44-.36.64s-.32 0-.44 0c-.12-1-.44-1.84-.55-2.76-.24-.4-.12-1-.32-1.36-1.27-3.48 3.09-.84 4-2.88.76-1.76-1.47-2-2.14-3.2V13c-.63-.64-1.31-.84-1.71-1.68a5.78 5.78 0 0 0 .12-3.08c0-.24-.2-.56-.55-.44-.75 1-1.31 1.88-2 2.88a21.34 21.34 0 0 0-2.34-1.76c-.6-.08-1.15-.68-1.82-.44a.55.55 0 0 0 .12.6A5.73 5.73 0 0 0 44.56 13l.12.6c-.71 1.64-.52 3.51-.71 5.27A29.26 29.26 0 0 1 35.36 31c-2.26 2.56-5 5-5.32 8.55-.12.56.08 1.24-.36 1.64a13.64 13.64 0 0 1-3.69-2c-1.82-1.28-4.44-1.12-5.63-3.44-.48-.92.12-1.84.55-2.52 1.35-1.28 1.15-3.56.44-5.11-.16 0-.2.16-.32.2-.12 2.36-2 4-1.27 6.59.16.76.56 1.24.75 2a6.18 6.18 0 0 1-.91-.2 9.93 9.93 0 0 0-2.6-.39c-1.82.84-4.32-.2-5.79 1.48-.24 0-.56.08-.48.44.87 0 1.7.24 2.58.2 1.39.24 2.3-.92 3.25-1.44h.24c.4-.4 1.07-.16 1.59-.24 2.5.28 4.44 1.48 6.5 2.72v.16c-.79.36-1.71.6-2.5 1a5.38 5.38 0 0 0-2.22 2.68c-.63 1 .2 1.88.6 2.72 0 .4.08.88.44 1 1.27-1.36.08-3 .28-4.59A3.26 3.26 0 0 1 24 40.43c2.26-1 3.89.88 5.71 1.92a27.13 27.13 0 0 1-.2 5.39 5 5 0 0 1-1.87.28c-3.13.24-5.59 2-8.41 2.92-1.27.44-2.78.4-4 .88a9.9 9.9 0 0 0 3.05-.12c3.89-.56 6.86-3.56 11.07-3l.08.12a9.35 9.35 0 0 1-1.86 2.6c-.12-.44-.16-.8-.56-1a.74.74 0 0 0-.91.32.55.55 0 0 0 0 .6 1.3 1.3 0 0 0 .87.56c-.08.36-.52.52-.75.84-1.11 1.88-3.37 1.12-4.68 2.44-.2.28-.91.44-.6.88a6 6 0 0 0 4.09-1c1.47-1.64 3-3.2 4.48-4.75a4.77 4.77 0 0 1-.87 3.64 4.6 4.6 0 0 0-1.07-.6 1 1 0 0 0-.71.8 2.34 2.34 0 0 0 .59.8c-1.35 1-3.05 1-4.6 1.48a77.76 77.76 0 0 1-8.65.64c-1.39-.08-3 .4-4.28 0-1.51.28-3.13-.2-4.36.64-.16.2 0 .4 0 .6 1.83 1.2 4.33.24 6.39.6h15.63a7 7 0 0 0 3.21-.6c2-1.16 3.13-3.24 4.17-5.27a8.18 8.18 0 0 0 .83-2.4 3.45 3.45 0 0 1 3-2.44 18.2 18.2 0 0 1-.67 6.07c-.24 1.28-1.07 2.52-.56 3.87.12.64.79.64 1.31.72 4.8-.08 9.6-.28 14.68.08a12 12 0 0 0 2.7.4c.08-.12.36-.16.24-.4a1.5 1.5 0 0 0-1-1.12c-.08-.24-.44-.16-.56-.32-2.54-1.44-5.59-.68-8.57-.64-1.55.16-3.09.44-4.4-.44-.59-.72-.16-3-.16-3a57.26 57.26 0 0 1 2.46-7.71 6.92 6.92 0 0 0 .24-1.84 7.72 7.72 0 0 0 .26-2.87A18.53 18.53 0 0 1 46 37.32c.24-.6.44-1.24.67-1.84a6 6 0 0 1 .79-2.08c1.29.82 2.56.8 3.18 2.26l.54 3.34c0 .2.16.6.44.36 1-.68.71-2.2.71-3.24.24-1.24-.63-1.84-1-2.92a4.78 4.78 0 0 1-.72-1.2c-.16-.88-2.08-1.48-1.65-2.56a3.25 3.25 0 0 1 1.35-2.28.41.41 0 0 1 .2.28l.48-.33v-3.34c1.28 0 3.2.16 4.51.16.36.12.64.4 1 .44l.32-.44 3.21-.63c-1.36.15-2.19-1.42-3.49-1.42zm3.49 1.41l.3-.06-.3.06z"/><path class="cls-2" d="M25.56 34.48a.88.88 0 0 1-.6.92c-.32-.12-.55-.16-.75-.48s.24-.76.55-.92c.32.08.71.12.79.48zm-2.56 0a.87.87 0 0 1 .16.92c-.28.24-.71.44-1 .12s-.47-.52-.28-.84.75-.52 1.07-.2zm55.2.44v.06m30.22.62c.16.44-.2.76-.51.92-.4-.12-.91-.2-.91-.72a.76.76 0 0 1 1.43-.2zm2.1-.08c.12.2.4.52.08.72a1.54 1.54 0 0 0-.4.32.77.77 0 0 1-1-.48c-.08-.44.28-.64.59-.84s.48.12.67.28zM13 36a.78.78 0 0 1-1.07.52 1.66 1.66 0 0 1-.32-.52.74.74 0 0 1 .44-.68A1 1 0 0 1 13 36zm13.39.68c0 .32-.4.6-.67.76a1 1 0 0 1-.87-.56.8.8 0 0 1 .48-.8.89.89 0 0 1 1.07.6zm-2.34-.28a.62.62 0 0 1 .12.64c-.24.2-.6.56-1 .32-.24-.2-.52-.36-.44-.76a1.76 1.76 0 0 1 .6-.48c.32-.08.48.12.71.28zm92.54.48a1.06 1.06 0 0 1-.52.76.78.78 0 0 1-.87-.2c-.24-.08-.16-.4-.16-.6a1.38 1.38 0 0 1 .75-.52 1.45 1.45 0 0 1 .79.56zm2.54.36a1 1 0 0 1-.75.72c-.24 0-.67-.12-.59-.48a.71.71 0 0 1 .36-.64.7.7 0 0 1 1 .4zm-101.58.56a.78.78 0 0 1-.48 1c-.28.16-.56 0-.75-.2a.69.69 0 0 1-.2-.8c.08-.36.44-.28.67-.44a1 1 0 0 1 .75.48zm1.94.35c.12.32-.24.44-.32.68a.66.66 0 0 1-.71.08c-.28-.24-.59-.6-.32-1 .32-.6 1.15-.28 1.35.2zm94.76-.15c0 .4-.32.68-.55.92a.68.68 0 0 1-.79-.48.83.83 0 0 1 .44-.76.86.86 0 0 1 .91.32zm3.25.59c-.08.36 0 .76-.44 1a1.13 1.13 0 0 1-1-.16.73.73 0 0 1-.16-.84.93.93 0 0 1 1-.48c.28.16.36.36.59.48zM16 39.43c.16.32-.2.4-.32.56a.8.8 0 0 1-.79-.08c-.28-.16-.16-.56-.12-.76.36-.68 1.07-.2 1.23.28zm99 .76c.16 0 .08.28 0 .36a3 3 0 0 1-3.21-.16 12.36 12.36 0 0 0-1.59-.88c.2-.52.91-.48 1.43-.6 1.15.16 2.06 1.24 3.33 1.28zm-97.06-.36c.08.32-.16.44-.24.68s-.48.16-.67.08a.67.67 0 1 1 .91-.76zm3.49.24c.16.36-.08.68-.4.88s-.52-.08-.75-.12c-.2-.28-.56-.6-.2-.92.36-.6 1.07-.28 1.35.16zm45.86 1.69c-.08.8-1.39-.11-1.21.95a6.09 6.09 0 0 0 .79 2.24c.38.53.19 1.37.15 2a3.58 3.58 0 0 1-1.51 1.29c-1.13-.11-2.79.57-3.32-.83a5.66 5.66 0 0 1-.64-1.9c.11-.08.27-.08.38-.19 0-.27-.3-.42-.26-.68 1.28-.23-.53-1.37.57-1.44.9.95 2.37.65 3.16 1.67a3.53 3.53 0 0 0 .57.49c-.15-.95-.6-1.9-.75-2.92a1.32 1.32 0 0 1 .45-1.33c.68-.53 1.24.23 1.62.64zm-42.37-.25c.12.4-.2.64-.44.84s-.55-.24-.71-.44c-.12-.4.16-.6.4-.8a.86.86 0 0 1 .75.4zm24.48.4a5.48 5.48 0 0 1-.48 4.47c0 .32.08.84-.36.8-1.07-1.48-.28-3.56.16-5.11.08-.4.55-.56.67-.16zm33.95.76a4.51 4.51 0 0 1 .08 3.72l-.32.32a9.12 9.12 0 0 1-.91-2.84 9.65 9.65 0 0 0 .48-2.12c.56-.12.52.6.67.92zM28 43.11c-.24.48-.91.6-1.35.92a4.73 4.73 0 0 1-3.53.68 4.31 4.31 0 0 1 4.52-1.88c.08.16.28.08.36.28zm-16.28 1.44c1.47 1 1.86 2.48 2.74 3.92.12.16.52.2.36.52-.32.24-.63-.24-1.07-.16a4.39 4.39 0 0 1-2.42-4.11c0-.16.24-.16.4-.16zm70.08 1.24c0 .4 0 .8-.36.92a.73.73 0 0 1-.91-.48c-.12-.28.12-.44.2-.64a.7.7 0 0 1 1.07.2z"/><path class="cls-2" d="M98.54 47.9a19.82 19.82 0 0 1 .28-2.2 1.46 1.46 0 0 0 .16-.84c1-1.28 2.9-.88 4.4-.76a8.42 8.42 0 0 0 2 .44 1.45 1.45 0 0 1 1-.2c1.27-.68.44-2.16.52-3.32l-.48-1.2a4.66 4.66 0 0 1-.32-.8c-.24-.28-.4-.8-.63-1.08-.67-1.76-2-2.76-3.09-4.15-2-2.64-5.2-4.12-8.37-5.15S87.67 29 84.86 30a2.28 2.28 0 0 1-1.55-1.68 7.94 7.94 0 0 1 .75-4.23 15.66 15.66 0 0 1 1.07-2.68 28.48 28.48 0 0 0 1.63-6.87 3.6 3.6 0 0 0-2.14-3.16 2.16 2.16 0 0 0-2.18.44 5.79 5.79 0 0 1-2.58 2.32c-.08.68.75.24 1 .48.87.16 1.87-.12 2.58.44a6.79 6.79 0 0 1-1.67 4.11 31.71 31.71 0 0 0-3.61 6.23l-.16-.19.23 9.79c1.26 2.1 2.84 4.5 5.2 5.3 1.27 1 2.86 2.28 4.56 1.36.91-.28 1 1 1.43 1.52.48 1.48-.59 2.52-.67 3.87l-1 2.2c-1.23 2.29-2.3 4.75-4.12 6.75-.6 0-1 .64-1.55.68-.32.44-1 .12-1.35.28-1.23.52-3 .2-3.81 1.36a.54.54 0 0 0 .32.2c2.42 0 5.12.2 7.7.08a1 1 0 0 0 .63-.76c-.36-.68.12-1.28.44-1.8.2-1 .83-1.56 1.11-2.48.83-1.64 1.78-3.24 2.7-4.87l1.23-2a14 14 0 0 1 1.23-2.24 5.1 5.1 0 0 0 .72-1.1c0-.4-.16-.56-.4-.84.28-.28.71-.2 1.07-.28a4.5 4.5 0 0 1 2.22 2.64l.36 1 .16.48-.08 1.32.16 1.24a28.52 28.52 0 0 1-.36 5.79c-.68 2.32-3.33 2.08-5.24 2.6-.48.32-1.39.16-1.39 1 2.3.48 5 .2 7.46.16.4-.16.48-.52.67-.88.08-.52.6-1 .44-1.52-.44-.56 0-1.44-.16-2.2a1.23 1.23 0 0 0 0-.76c.32-1.16.24-2.56.47-3.68l.16-1.52zm19.52-1.56c-1.27 1.8-2.62 3.83-4.84 4.48-.16 0-.32.08-.4-.12 1.35-1.44 2.06-3.68 4.17-4.19a1.3 1.3 0 0 1 1.07-.16zM9.77 48.3c-.2.16 0 .52-.4.56a.64.64 0 0 1-.83-.36.71.71 0 0 1 .51-.88c.32.16.63.28.71.68zm11.43.56c.12.36-.28.36-.48.44a4.32 4.32 0 0 1-4.56-1.16c0-.16 0-.32.16-.36 1.63.4 3.53.08 4.88 1.08zm-9.2-.52a1.05 1.05 0 0 1 .08.6.88.88 0 0 1-1 .36 1.28 1.28 0 0 1-.52-.52 1 1 0 0 1 .64-.78 1.19 1.19 0 0 1 .75.32zm37.12.2c.08.36-.24.6-.48.76a.79.79 0 0 1-.83-.32.58.58 0 0 1 .28-.76c.36-.08.91 0 1 .32zm70.45.16c.12.4-.24.6-.52.84a.86.86 0 0 1-.75-.12c0-.2-.28-.36-.2-.64a.85.85 0 0 1 .91-.48 4.61 4.61 0 0 1 .56.4zm2.61-.16c.24.36 0 .64-.16.92a.54.54 0 0 1-.71.24c-.24-.24-.56-.36-.59-.72s.36-.56.59-.68c.4-.16.56.24.87.24zM8.11 49.7c0 .28-.2.44-.28.68-.2.08-.4.24-.64.16a1.16 1.16 0 0 1-.59-.64 1 1 0 0 1 .71-.8 1 1 0 0 1 .79.6z"/><path class="cls-2" d="M91.64 49.7a1.15 1.15 0 0 1 0 .52c-.24.32-.55.6-1 .4-.24-.24-.52-.48-.4-.84a.78.78 0 0 1 1.31-.08zm-77.15.6c-.08.28-.2.56-.56.6s-.48-.28-.67-.44c0-.36 0-.72.32-.92a.72.72 0 0 1 .91.76zm-3.81.08a.84.84 0 0 1-.4.88.93.93 0 0 1-1.07-.56 1.13 1.13 0 0 1 .71-.92c.36 0 .56.4.75.6zm83.58-.08a.8.8 0 0 1-.44 1c-.48.16-.87-.24-1.07-.56.2-.32.24-.76.71-.84a.91.91 0 0 1 .79.44zm-81.71.16c.12.28-.12.4-.2.6-.2 0-.32.24-.55.16s-.48-.28-.52-.56.24-.6.52-.76a.73.73 0 0 1 .75.56zm104.83.32a1.19 1.19 0 0 1-.67.64c-.32.08-.52-.2-.75-.32s-.12-.52 0-.72a.8.8 0 0 1 1.47.4zm3.02.16a1 1 0 0 1-1 .68c-.36-.16-.75-.44-.48-.92.16-.16.24-.32.48-.36a.76.76 0 0 1 1 .6zm-18.84.28c.2.52-.28.68-.59.92a1.82 1.82 0 0 1-.75-.32.92.92 0 0 1 .56-1 1 1 0 0 1 .79.44zm-10.91.48c.2.08.12.36.08.48-.24.16-.55.56-.91.32a.68.68 0 0 1-.4-.76.74.74 0 0 1 1.23 0zm2.22.3a.54.54 0 0 1-.32.64c-.28.28-.6 0-.87-.12a.64.64 0 0 1 0-.6.89.89 0 0 1 .52-.32c.28.08.6.08.71.4zm-67.31 0c.24.24 0 .52-.08.76a.78.78 0 0 1-1 .2c-.4-.16-.36-.68-.28-1 .24-.08.24-.36.55-.36a1.37 1.37 0 0 1 .79.4zm80.24.18c.08.4-.32.56-.59.64-.48.16-.71-.2-.91-.52 0-.24.24-.4.32-.6.56-.24.91.16 1.19.48zm-2.14 0c.16.4-.28.6-.44.8a.79.79 0 0 1-.87-.16c-.2-.12-.2-.36-.2-.6.24-.2.36-.44.64-.52a1 1 0 0 1 .87.48zm17.89.48c.08.56-.63.28-.91.44-1.67 1-3.81.24-5.4-.36.12-.52.71-.32 1-.52 1.71-1.08 3.45.24 5.15.32l.12.12zM13 52.18l-.16.28a6.43 6.43 0 0 1-5.12.92l-.16-.24a7.18 7.18 0 0 1 5.32-1.08l.12.12zm96.85.28a.91.91 0 0 1-.4.76.79.79 0 0 1-1-.44c-.12-.32.2-.64.52-.76s.75 0 .91.44zm-89.77.16c-.16.32-.08.64-.48.8a.86.86 0 0 1-1-.52c-.12-.44.2-.56.4-.76.47-.24.83.12 1.07.48zm-2.81.2c.12.28-.12.44-.2.64a.73.73 0 0 1-.79.12c-.28-.24-.55-.52-.44-1a2.28 2.28 0 0 1 .64-.44c.36.08.71.24.79.64zm95.35.92a.86.86 0 0 1-.63.72.9.9 0 0 1-.75-.4.62.62 0 0 1 .16-.76c.08-.12.36-.12.52-.2a.85.85 0 0 1 .71.64zm-98.29-.44c.12.32-.16.44-.2.68a5.84 5.84 0 0 1-.87 1.72c-.75.92-1.83.92-2.9 1.2l-.16-.32a10.42 10.42 0 0 1 4-3.36l.12.08zm96.31.88c.08.48-.32.56-.59.76a.9.9 0 0 1-.79-.48c-.12-.44.28-.6.52-.8a.8.8 0 0 1 .87.52zm-91.75 0c0 .08 0 .16.12.2 0 .44-.36.56-.6.76a1.07 1.07 0 0 1-.87-.4.66.66 0 0 1 .4-.92c.36 0 .83 0 1 .36zm99.05 1.19c.4 0 .47-.52.91-.6a1 1 0 0 1 1 .44c.16.48-.2.72-.52.92s-.87-.24-.83.28a1.24 1.24 0 0 1 .56.8c-.08.16-.36.12-.48 0a5 5 0 0 1-2.86-2.48c-.16-.36-.91-.64-.48-1a3.66 3.66 0 0 1 2.74 1.56zm3.81-1.24a.61.61 0 0 1 0 .76c-.2.4-.79.24-1.15.2-.2-.2-.4-.4-.32-.72a1.27 1.27 0 0 1 .59-.52 1.1 1.1 0 0 1 .91.28zm-14.4 2.16a5.76 5.76 0 0 1 .87 1.6c-.08.12-.28.08-.36.08-1.35-.76-3.09-1.6-3.61-3.2-.12-.16-.44-.36-.4-.64 1-.2 2 .56 2.74 1.12.28.4.59.6.75 1zm-90.68-1.52c.16.36-.16.64-.36.8a.91.91 0 0 1-.91-.32c-.28-.44.24-.8.56-1s.51.28.71.48zm95.64.92c0 .24-.28.4-.4.56-.32 0-.63.16-.91-.12-.08-.2-.28-.52 0-.72.44-.56 1.07-.12 1.35.28zm9.87.56a.94.94 0 0 1-.56 1 1 1 0 0 1-1-.36c-.2-.24 0-.48 0-.76a1 1 0 0 1 1-.28 2.12 2.12 0 0 1 .48.4zm-27.44 5.52c0 .48-.87.36-1.23.72a8.5 8.5 0 0 1-4.16.6v-.24a5.9 5.9 0 0 1 5.39-1.08zm-57.88 1.71a.66.66 0 0 1-1.27.28c-.16-.48.24-.68.52-.88a.93.93 0 0 1 .75.6zm57.2.44a1.14 1.14 0 0 1-.6.92c-.36.08-.6-.12-.87-.28s-.08-.44-.12-.64a.85.85 0 0 1 1.59 0zm7.94.16a6.5 6.5 0 0 1-3.41 1.4h-2.14l-.2-.16c1.31-1.6 3.69-1.6 5.75-1.44v.24zM26 65a.73.73 0 0 1-.52.76.69.69 0 0 1-.48-1.24c.44-.28.87.2 1 .52zm2 .44c.12.2-.08.32-.16.52a.65.65 0 0 1-.75 0 .5.5 0 0 1-.24-.68c.12-.24.36-.2.48-.36a1.12 1.12 0 0 1 .67.52zm-15.21 4.04c-.4.48-1-.12-1.47-.36-1.39-.8-1.35-2.36-2.74-3.28.16-.48.51 0 .79 0a5.35 5.35 0 0 0 .83.44c1.35.76 1.67 2 2.58 3.24z"/><path class="cls-2" d="M128.41 54a3.16 3.16 0 0 0-3-1.64 2.74 2.74 0 0 0-2.2 1.64 2 2 0 0 0 .75 2.2.61.61 0 0 0 .79-.2c.2-.52-.36-.52-.44-.92a1.32 1.32 0 0 1 .44-1.4c.4-.4 1.07-.2 1.55-.2a2.78 2.78 0 0 1 1.19 1.16 3.21 3.21 0 0 1 0 2.12 3.55 3.55 0 0 1-2.46 2c-3.29.48-39.43.32-39.43.32-4.24.4-9.08-.8-12.73 1.44-1.67.8-2.5 2.64-2.93 4.28a28.82 28.82 0 0 0-3.09 3.16l-.12-.12c.2-1 .63-1.8.83-2.76.59-.8.59-1.88 1-2.76 1.51-2.44 2.93-4.91 5.28-6.63 1-1.32 2.74-1.08 4.24-1.08a10.52 10.52 0 0 0 5.51.8.37.37 0 0 0 .12-.28c-.56-.52-1.47-.72-2.1-1.24-1.59-.76-3.09.24-4.76.12-.08-.08-.16-.12-.12-.24a23.43 23.43 0 0 1 4.92-2.64A33.68 33.68 0 0 1 86 49.38c.6 0 1.15-.52 1.71-.16l2.1-.56c.08 0 .16.16.32.12 1.78-.6 4 0 6.07-.08l.28.24 1.9.48c.71.08 1 .92 1.79 1 .4-.56-.44-.8-.63-1.16a4.36 4.36 0 0 1 2.66.4l-.39.44c-.24.44.12.76.47.92s.48-.12.67-.2c.52-.36 0-.72.12-1a37.87 37.87 0 0 1 8.45 2.4 6.83 6.83 0 0 0 2.3.76 10.45 10.45 0 0 0-3-1.6c-.68-.4-1.63-.44-2.14-1 .12-.2.4-.12.51-.28a5.9 5.9 0 0 0 3.45-2.24c.08-.24.51-.16.48-.48-.36-.4-1 .12-1.43.08-1.67.32-2.38 2.28-4 2.64-2-.48-4.09-1-6.11-1.48a12.34 12.34 0 0 1-3-.64l-2.22-.2h-4c0-.08-.16-.12-.12-.24 1.43-.36 2.66-1.2 4.09-1.56L106.87 41a26.13 26.13 0 0 0 3-3.28.75.75 0 0 0-.44-.76.66.66 0 0 0-.79.16c-.48.36 0 .8 0 1.24a6.73 6.73 0 0 1-1.81 1.64c-.16 0-10.95 4.91-10.95 4.91A27.29 27.29 0 0 1 91 46.66l-2.3.36a1.51 1.51 0 0 1-1 .92 9.44 9.44 0 0 1-1.82.52c-5.16 2-10.51 4.12-14.6 8.19a4.52 4.52 0 0 0 .4-1.68 3.31 3.31 0 0 0-.44-1.76c-.09-.22-.38-.87-.29-1.1l-.58.38a5.56 5.56 0 0 0-.32 3.39c.12.72.71 1.56.16 2.2-1.9 2.32-3 5.12-4.24 7.75-.48-.08-.71-.52-.91-1A13.3 13.3 0 0 0 67.92 59c.28-.2.08-.72.36-1-.08-.64.36-1.28 0-1.8.25-.87-1.16-1.68-.26-2.24l-.75.36c-1.71 2.24.89 5.59-1.06 7.75v.16a6.78 6.78 0 0 1-1.59 1.92c-1-.4-1.31-1.48-1.87-2.28a3.55 3.55 0 0 1-.36-3.71c.36-1.16-.24-2.16-.36-3.2l-.4-.24a4.61 4.61 0 0 0-.56 4.67c.4.72.44 1.72 1 2.32a12.93 12.93 0 0 0 1.71 3c.16.4-.24.48-.44.68-.44-.28-.36-.92-.75-1.2a29.1 29.1 0 0 0-5.08-7.31c-.08-.36-.44-.68-.24-1.08a2.92 2.92 0 0 0 .52-3c-.08-.2-.32-.44-.28-.64L57 51.7c.08 1.4-.83 2.63-.44 4.11v.08a75.51 75.51 0 0 0-13.21-8l-.37 1a27.44 27.44 0 0 1 4.25 2.17 27.34 27.34 0 0 1 4 2.12c5.39 3 9 7.95 11.38 13.46 0 .44.44.92.16 1.36a21.73 21.73 0 0 0-3-3 5.82 5.82 0 0 0-3-4.44c-.59-.88-1.86-1-2.86-1.24l-14.44-.08c-11.74-.16-22.45.36-34.11.16-1.66-.15-3.64-.71-4.12-2.4a2.65 2.65 0 0 1 0-2.2 2.42 2.42 0 0 1 2-1.08 2.13 2.13 0 0 1 1.35 1.12c0 .52-.44 1-.64 1.44 0 .16.2.48.48.36a1.86 1.86 0 0 0 1-1.28c0-.28.16-.68-.12-.88a2.66 2.66 0 0 0-1.81-1.66 3.31 3.31 0 0 0-2.7.92c-1 .8-.91 2.24-.63 3.36a5.35 5.35 0 0 0 4.28 3.2l38.59.16c3.77.2 8-.44 11.82.32a4.56 4.56 0 0 1 3.21 3c0 .08-.16 0-.28 0a17.2 17.2 0 0 0-11.27-2.32 13.79 13.79 0 0 0-4.44.92 2.25 2.25 0 0 1-1.94-.64c-1.43-1.28-3.93-1.2-5.75-.72v.28c1.94-.16 3.09 1.52 4.84 1.72.4.08.71-.36 1.07 0a35.88 35.88 0 0 1-5.51 2.48c-.59-.12-.91-.68-1.39-1-.75-.84-2.14-.48-3.17-.56-.36.08-.67-.16-.91 0a3.37 3.37 0 0 0 1.71 1.32c1 .44 2.14 0 3.05.56a3.76 3.76 0 0 1-.83.56c-1.86.72-3.41 2.4-5.47 2.28a7.08 7.08 0 0 1-5.87-1.92 4 4 0 0 0-4-2.32c-.12.08-.28.08-.24.28.87.52 1.55 1.56 2.42 2.16.56.68 1.63 0 2.14.76a7.08 7.08 0 0 0 2.58 1.12 11.24 11.24 0 0 0 2.06.56l-.28.16c-3.61 1.2-7.78 1.32-11.82 1.16-1.19 0-2.34-.4-3.53-.36a2.22 2.22 0 0 0 1 .56 2.41 2.41 0 0 1-1.07.32 7 7 0 0 0-1.51.4 4 4 0 0 0-1.7.4 8.06 8.06 0 0 1-2.26 1.84c0 .16 0 .4.16.4.75-.32 1.71-.08 2.46-.4 1.31-.12 2.06-1.56 3.09-2.16 1.11-.88 2.7-.68 4-.48.79.2-.08.52.16 1 .32.28.59.6 1 .48a.69.69 0 0 1 .28-.2.91.91 0 0 0 0-1c.56-.36 1.31 0 1.9-.2 1.51 0 3-.36 4.48-.4.24 0 .52-.28.75 0-.12.32-.52.36-.36.8s.48.52.79.6c.4-.16.75-.44.6-1-.08-.28-.4-.32-.6-.44.83-.4 1.79-.52 2.62-.92a7.39 7.39 0 0 0 1.67-.56c.52 0 1-.52 1.43-.32a8.26 8.26 0 0 1-.72 2.02c-.63 2.12-1.11 4.91 0 7 .12 0 .16 0 .24-.08-.83-2.12-.36-4.55.36-6.55.55-3.39 4-4.39 6.55-5.67l.12.16C36 67.52 35 69.2 35.16 71.31c.08.36-.16.72 0 1a4.21 4.21 0 0 0 1.47-1.84c.28-1.8-.75-4 1.07-5.35 3.25-1.28 6.31-3 10.07-3 .12.12.4-.08.44.16-.79.88-1.94 1.72-2.3 2.8-1.27 1.76-1.23 4.76-.67 6.91.36 1.24-.71 1.92-1.23 2.88-.25.34-.32.92-.54 1.31l.78.09a4.25 4.25 0 0 0 1.35-2.64 1.09 1.09 0 0 0 .75.8c.28-.44-.24-.76-.28-1.2.63-.36.91.44 1.43.6a10.17 10.17 0 0 0 2.42.56l.28-.28c-.87-1.36-2.62-1.6-4.12-1.68a8 8 0 0 1-.71-4.55 7 7 0 0 1 .79-2.48 6 6 0 0 1 1.11-1.52 5.51 5.51 0 0 1 2.5-1.36h.12a.18.18 0 0 0 0 .12c-1.07.84-1.19 2-1.82 3a3.34 3.34 0 0 0-.36 3.47c.24.52.12 1.32.67 1.68a8.85 8.85 0 0 0 .83-2.44c-.12-1.32-.91-2.56-.16-3.84a3.27 3.27 0 0 1 2.14-1.76c2.18-.2 4.09.92 6 1.76.4.28 1.07.52 1.15 1.08a3.24 3.24 0 0 1-5.08 2.64 2.74 2.74 0 0 1-.63-2.44 1.64 1.64 0 0 1 1.75-.64c.4.2.75.6 1.27.36a.51.51 0 0 0 .16-.64c-.44-.24-.59-.84-1.19-.92a2.57 2.57 0 0 0-2.18.44 2.81 2.81 0 0 0-.91 2.8A3.41 3.41 0 0 0 54 69.76a4.61 4.61 0 0 0 4.88-1.68 5.43 5.43 0 0 0 .87-1.72 10.37 10.37 0 0 1 4.08 5.27 8.47 8.47 0 0 1 0 2l1.39.12a1.33 1.33 0 0 1 .12-1 12 12 0 0 1 4.08-6.55c.67-.4.52.52.67.8a5.34 5.34 0 0 0 3.45 3 4.35 4.35 0 0 0 4.28-1.4c.52-1 1.15-2.36.28-3.36a2.74 2.74 0 0 0-2.18-1 2.69 2.69 0 0 0-2.18 1.48c0 .32 0 .68.24.84.16 0 .48 0 .6-.2.08-.6.59-.88 1.07-1.2a1.24 1.24 0 0 1 1.27.24 2.09 2.09 0 0 1 .6 1.6 2.4 2.4 0 0 1-1.31 1.88 4 4 0 0 1-3.81-.36 8.79 8.79 0 0 1-1.11-1.76 2.91 2.91 0 0 1 0-1.84 13.41 13.41 0 0 1 5.67-2 4 4 0 0 1 2.1 1.32c1.83 1.88-.4 4.55.87 6.63.48-.08.48-.72.67-1.12.6-1.44-.16-3-.51-4.39a8.2 8.2 0 0 0-1.5-2.36 1 1 0 0 1 .48-.08A9.82 9.82 0 0 1 81.49 65 10.73 10.73 0 0 1 83 71.55c-.32 1.2-1.59 1.76-2.58 2.2A3.7 3.7 0 0 0 79.38 75c.48.28 1.15 0 1.63-.2.75-.28 1.19-1.24 1.71-1.68.08 0 0 .16.08.24 0 .44-.2 1 .2 1.16a14.3 14.3 0 0 0 .36-2 4 4 0 0 1 .75 2c.36.72 1 1.68 1.9 1.8.24-.36 0-.72-.12-1-.12-1-1-1.52-1.51-2.24-1.38-1.97-.75-4.96-1.82-7.08a8.41 8.41 0 0 0-2.14-3l.16-.16a23.56 23.56 0 0 1 5.36 1c2.18 1.08 5.35.84 6.39 3.68a10.49 10.49 0 0 0 2.26 4.31l.12-.08a1.63 1.63 0 0 0 0-1.48c-.24-2-2-2.48-2.9-4.16l.12-.16a27.12 27.12 0 0 1 2.9.92 8.54 8.54 0 0 1 5.79 7.23 15.62 15.62 0 0 1-1.47 6.83c-.12.32-.67.68-.32 1 .44-.32.52-.84.75-1.2a11.12 11.12 0 0 0 1.31-8c0-.52-.63-.92-.36-1.44a1.28 1.28 0 0 0 .67.36c.24-.16.6-.16.75-.44s.2-.52 0-.72a1.09 1.09 0 0 0-1.15-.28 1.91 1.91 0 0 0-.48.88 8.25 8.25 0 0 0-1.43-2.12l.08-.12c1.79.6 3.41 1.48 5.24 2a2.6 2.6 0 0 0 1.39.44 39.74 39.74 0 0 0 4.88 1.24c1.19-.12 2.18.44 3.37.16v-.08c-.44-.56-1.39 0-1.9-.44a29.88 29.88 0 0 1-7.81-2c0-.12.2-.08.32-.08a1 1 0 0 0 .63-1 1.07 1.07 0 0 0-.91-.44 1.12 1.12 0 0 0-.6.68 1 1 0 0 0 .6.76c-.08.08-.24 0-.36 0-1.23-.56-2.42-1.08-3.61-1.64-.44-.08-.79-.44-1.23-.52-.91-.44-1.83-.88-2.74-1.24a62.66 62.66 0 0 0-8-3l-1.71-.48c-1-.28-2-.52-3-.8-3.37-.84-7.89-.92-10.83.92-.48-.16-.75.6-1 .12.83-2.2 3.25-2.92 5.43-3 15.91-.16 30.82-.28 46.49-.52a5 5 0 0 0 4.56-2.28 4 4 0 0 0 .28-3.67zM65.34 68.72a3.6 3.6 0 0 0-.44 1.4l-.16.08c.12-.6-.48-1-.32-1.6-.32-.48-.32-1.08-.59-1.6s.32-.92.59-1.36c.56.24.75.76 1.15 1.24.24.68-.28 1.2-.24 1.84z"/><path class="cls-2" d="M108.38 66.2c0 .12.24.16.16.36a8.3 8.3 0 0 1-5.31 1.68c-.16 0-.32.16-.51.12s-.16-.2-.08-.28a6 6 0 0 1 5.75-1.88zm-6.38.64c.16.56-.2.88-.64 1.08a1.13 1.13 0 0 1-.87-.64c-.12-.32.16-.48.28-.68a.75.75 0 0 1 1.23.24zm-75.41.08a.82.82 0 0 1-.2.84.8.8 0 0 1-.72.2c-.28 0-.44-.36-.51-.6a.86.86 0 0 1 .51-.76c.32 0 .67 0 .91.32zm-7.1 2.6v.28a3.1 3.1 0 0 1-2.58-.6 5.31 5.31 0 0 0-2.1-2c0-.12-.24-.28 0-.36 2 0 3.17 1.6 4.68 2.68zm94.92-2.64c-.91 1.36-1.71 3-3.33 3.64-.28 0-.52.4-.75.12a7.3 7.3 0 0 1 3.53-3.79 1.31 1.31 0 0 1 .55 0zm-85.52.48c0 .44-.28.52-.56.76-.32 0-.48-.2-.67-.44-.16-.4.2-.56.4-.76a.83.83 0 0 1 .83.44zm90.52.24c-.36.52-.2 1.28-.55 1.84-.79.92-1.47 2-2.74 2.16-.2-.4.28-.8.48-1.16a5.72 5.72 0 0 1 2.62-3.07l.2.24zM7.19 68a.79.79 0 0 1 0 .88.93.93 0 0 1-.91.16A.74.74 0 0 1 6 68c.24-.36 1-.56 1.23-.08zm-2.26.44c0 .2.16.36.12.56a.93.93 0 0 1-.55.48.83.83 0 0 1-.92-.48.78.78 0 0 1 .42-.88.81.81 0 0 1 1 .32zm4.68.24c.08.32.16.88-.32 1-.56.24-.87-.16-1.19-.48a.91.91 0 0 1 .48-.8 1.1 1.1 0 0 1 1 .32zm6.51.52c0 .28 0 .68-.28.76s-.55.12-.75.08c-.08-.24-.52-.44-.28-.72a1.49 1.49 0 0 1 .55-.44c.24.12.6 0 .75.32zm107.09.28c-.12.28-.28.64-.6.64s-.71-.08-.91-.44.2-.68.52-.8.91.16 1 .6zm-7.21.2c0 .32-.32.56-.48.68a1 1 0 0 1-1.23-.6 1 1 0 0 1 .68-.72 1 1 0 0 1 1 .64zm4.87-.08a.83.83 0 0 1-.36.68.92.92 0 0 1-1-.16c-.36-.32-.08-.6.16-.84s1-.16 1.15.32zm-114.71.67a.84.84 0 0 1-.48 1 .91.91 0 0 1-.87-.56.75.75 0 0 1 .4-.84.9.9 0 0 1 1 .4zm107.84.44a.88.88 0 0 1-.56 1c-.32.08-.52-.08-.75-.28s-.36-.64 0-.84a.78.78 0 0 1 1.35.08zm-86.5.44c.16.44-.32.52-.44.76-.16.08-.48.12-.59 0s-.44-.48-.32-.84c.2-.16.28-.32.52-.4.44-.12.6.28.83.52zm95 .28c.08.28-.16.4-.2.6a1.07 1.07 0 0 1-.91.16c-.36-.2-.36-.52-.36-.88.24-.16.28-.36.55-.44a.9.9 0 0 1 .91.56zm-2.5.12c.16.48-.28.72-.59.84-.16 0-.4-.08-.44.16a10.44 10.44 0 0 1 2.46 2.12V75a5.35 5.35 0 0 1-3.93-1.52c-.28-.2-.75-.2-1.07-.48.52-.52 1.47-.32 2.18-.36.52-.56-.59-1 .08-1.44.24 0 .4-.28.71-.2a1.35 1.35 0 0 1 .59.56zm-16.18.04c.08.2-.16.44-.2.64a.8.8 0 0 1-.87.16c-.2-.28-.52-.52-.4-.92a.82.82 0 0 1 1.47.12zM15.13 73c-.12.36-.28.6-.67.64a.79.79 0 0 1-.71-.48c0-.28.16-.44.2-.64.44-.36 1.23-.12 1.19.48zm3.21-.53c0 .56-.59.88-.79 1.44a4 4 0 0 1-3.17 2.64c-.16-.36.52-.8.67-1.16.63-1.36 1.9-2.08 3.05-2.92zm84.53.53c0 .44-.36.76-.67.92s-.63-.16-.83-.32c-.32-.32-.12-.64 0-1 .48-.48 1.15-.08 1.47.36zm2.46.31a1 1 0 0 1-.71.88c-.08-.12-.28 0-.4-.08a.88.88 0 0 1-.52-.72c.2-.2.28-.52.56-.56s1 0 1.07.48zm-80.84-.04a.86.86 0 0 1-.59.84.78.78 0 0 1-.75-.48c-.08-.36.28-.6.47-.8.48-.16.6.2.87.44zm2.74.16a.94.94 0 0 1-.75.68c-.28-.08-.59-.16-.71-.48s.28-.6.55-.8a.84.84 0 0 1 .91.6zm86.62 2.8c.2.16.55.36.47.64-.63.28-1.15-.44-1.74-.56a8.19 8.19 0 0 1-2.06-3.2c.36-.36.75.08 1.07.2a7.81 7.81 0 0 1 2.26 2.92zm1.47-2.8a1 1 0 0 1-.08.88c-.24.4-.75.32-1.11.24-.2-.24-.56-.56-.32-.92s.48-.4.75-.52.47.2.75.32zm-84.45 1.04c0 .32.12.8-.28 1a.77.77 0 0 1-1-.48c-.2-.48.24-.56.48-.8.32-.08.51.08.75.28zm74.34 2.6a5.83 5.83 0 0 1 1 2.84c-.12.28.2.56 0 .76H106c-1.79-1.28-2.18-3.08-2.86-4.87a.33.33 0 0 1-.16-.4c.4-.36.67.36 1.07.48l1.11 1.2zM36 75.71v.08c-1.58 1.12-3.81 1.8-5.63.72a.3.3 0 0 1 .2-.36 8.21 8.21 0 0 1 3.49-.76l1.9.32zm-9 .2c-1.35.84-2.58 2.48-4.24 2.88-.32.12-.51.56-.91.32.71-2.16 3.05-3.31 5.16-3.52v.32zm75.87 1.79c.12.32 0 .76-.32.84a.55.55 0 0 1-.75 0c-.36-.16-.36-.52-.36-.8s.4-.32.59-.44c.36.08.63.08.83.4zm-3.3.21a2.22 2.22 0 0 1-1.43 1c-1.35.48-2.58-.16-3.77-.48 0-.32.44-.2.63-.4a8.64 8.64 0 0 1 4-.2.42.42 0 0 1 .52 0zM27 79.06c-.12.16-.16.52-.48.64a.83.83 0 0 1-.79-.16c-.08-.24-.36-.44-.16-.72s.4-.36.63-.44a.85.85 0 0 1 .79.68zm2.33.36a1.46 1.46 0 0 1-.55.76.87.87 0 0 1-.78-.28 1 1 0 0 1-.12-.8c.08-.2.36-.24.56-.36.4 0 .75.36.91.68zm72.78.4a1.06 1.06 0 0 1-.28.76.67.67 0 0 1-.87.16c-.28 0-.36-.36-.48-.56s.16-.52.28-.8a.86.86 0 0 1 1.35.44zm1.75-.08c0 .2.16.4.08.56-.24.2-.4.72-.87.52-.24.08-.36-.24-.47-.32a.76.76 0 0 1 .47-1.08c.36-.12.6.2.79.32zM27.9 80.9a1.09 1.09 0 0 1-.4 1.1c-.44.08-1 .08-1.15-.44a1.07 1.07 0 0 1 .48-1.16 1 1 0 0 1 1.07.52zm2.26-.16c-.08 1.12-.32 2.48-1.43 3.12-.64.12-1.27.72-1.9.32V84c.83-1.2 2.34-2.12 3.33-3.24zm65.73.92c.16.24-.12.44-.24.64s-.67.16-1 0-.32-.52-.2-.8a.81.81 0 0 1 .55-.4c.36 0 .67.28.87.56zM34.13 83.5c.55.92.24 2.16.55 3.16-.67.08-1-.68-1.39-1.08-.87-1.2-.75-2.8-1.15-4.19a.21.21 0 0 1 .28-.08A10.14 10.14 0 0 1 33.93 83c-.08.28.24.28.2.52zM97.87 82c0 .32-.36.4-.55.6a1.46 1.46 0 0 1-.75-.36c-.12-.4.2-.52.4-.72a.66.66 0 0 1 .91.48zm4.72 3.54c0 .12 0 .36-.24.28h-.16c-1.15-1-2.3-2.2-2.14-3.8h.24c1.07.92 2.26 1.92 2.3 3.56zm-2.98-1.28a.92.92 0 0 1-.36.76c-.44.12-1.11.08-1.19-.52 0-.4.4-.6.6-.8a.81.81 0 0 1 1 .56zM97 85.1c-.55 1.48-2.06 2.24-3.09 3.36-.2-.12-.12-.44-.08-.6a5.52 5.52 0 0 1 3.05-3.6c.63.08 0 .52.12.84zm3 1.19c0 .36-.36.52-.56.72a1.16 1.16 0 0 1-.87-.44c0-.4.28-.52.51-.72a.83.83 0 0 1 .91.44zM70.46 13.77a1 1 0 0 1 0 2H58.69a1 1 0 0 1 0-2zm-8.32 1.71c1.15 0 .06-1.39-.56-1.39h-1.15c-1.15 0-.06 1.39.55 1.39zm4.82 0c1.15 0 .06-1.39-.56-1.39h-1.15c-1.15 0-.06 1.39.56 1.39zm3.55-1.39h-.44c-1.15 0-.17 1.39.44 1.39.77 0 .82-1.39 0-1.39zm-1.09 13.17l2.25.86 2.21-.86-.88 3.31 1.75-.36-.6 2 .6 1.92-1.55-.42.68 3.57-2.21-.86-2.25.86.92-3.57-1.79.5.48-2-.48-1.92 1.71.28-.84-3.31zm3.32 6c.5 0 .55-.7.55-1.3 0-1.36-1.08 0-1.63-1.28-.4 1.08-1.51.08-1.51 1.24 0 .8 0 1.34.79 1.34zM70.54 32c0 .52.7.17 1.21.17S73 32.52 73 32c0-.74-.7-.48-1.21-.48s-1.21-.26-1.21.48zm-6.38.13v-.42l-.37-.07.29-.31-.18-.34.38.04.24-.41.23.41.39-.04-.19.34.3.31-.37.07v.42l-.36-.27-.36.27zm-1.74 2.24v-.42l-.38-.07.3-.3-.18-.34.38.04.24-.41.22.4.39-.03-.18.34.3.3-.38.07v.42l-.35-.26-.36.26zm2.96-.28v-.42L65 33.6l.3-.31-.18-.34.38.04.23-.41.23.41.4-.04-.19.34.3.31-.38.07v.42l-.36-.27-.35.27zm.35 1.68v-.24l-.21-.04.16-.18-.1-.19.22.03.13-.24.13.23.22-.02-.1.19.16.18-.21.04v.24l-.2-.16-.2.16zm-2.75 1.92v-.72l-.64-.13.5-.52-.31-.58.66.07.4-.7.39.69.67-.06-.31.58.5.52-.64.13v.72l-.61-.46-.61.46zM64.38 0l1.4 3.44 3.53-1.05-1.79 3.24 3.01 2.14-3.63.61.22 3.71-2.74-2.49-2.74 2.49.22-3.71-3.63-.61 3.01-2.14-1.79-3.24 3.53 1.05L64.38 0zm-12.8 77c-.42.16-.58.27-.48.71l.5 2.1a1.89 1.89 0 0 1-.14 1.38 2.56 2.56 0 0 1-1.44.85 2.9 2.9 0 0 1-1.7 0A1.25 1.25 0 0 1 47.5 81l-.5-2.21c-.13-.55-.34-.52-.79-.45v-.16l2.66-.64v.16c-.52.14-.76.21-.62.79l.52 2.21c.09.38.31 1.29 1.44 1a1.28 1.28 0 0 0 1.06-1.77l-.48-2c-.09-.4-.24-.61-.93-.47v-.17l1.73-.42v.17zm3.94.48a1.69 1.69 0 0 0-1.82-.88c-.41.09-.8.39-.71.82s.26.47 1 .6l1.27.22a1.41 1.41 0 0 1 1.14 1c.13.58-.2 1.5-1.65 1.82a7 7 0 0 1-1.4.08c-.17 0-.18.17-.19.28l-.23.05-.36-1.64.23-.05a1.69 1.69 0 0 0 1.93 1.06c.95-.21.84-.88.82-1-.1-.44-.5-.52-1.06-.61l-.58-.09c-1.47-.24-1.6-.81-1.66-1.12s0-1.36 1.46-1.69a7.2 7.2 0 0 1 1.29 0c.18 0 .2-.15.21-.28l.24-.05.32 1.44h-.22zm5.24 2.62l-2.88.28v-.17c.58-.1.78-.13.72-.7l-.34-3.56c-.56.08-1.39.19-1.45 1.29h-.23l-.1-1.36 4.83-.46.14 1.36h-.23c-.26-1.06-1.1-1-1.66-1l.34 3.56c.06.57.25.57.85.54v.17zm6.73 0h-1.66l-1.63-2.19H64v1.33c0 .54.17.57.7.64V80h-2.79v-.17c.55 0 .71-.06.72-.61l.06-3c0-.59-.24-.6-.7-.64v-.18l2.6.05c.57 0 2.28.1 2.26 1.24 0 .84-.85 1-1.29 1.14l1.59 2a.41.41 0 0 0 .33.14v.17zM64 77.69c1.06 0 1.48-.13 1.5-1a.85.85 0 0 0-1-1c-.44 0-.46.07-.51.28v1.73z"/><path class="cls-2" d="M72.79 80.78l-2.6-.33v-.17c.5 0 .65 0 .67-.18a3.42 3.42 0 0 0-.26-.94l-1.81-.23a4.11 4.11 0 0 0-.46.82c0 .26.35.32.62.37v.17l-1.63-.2v-.17c.44 0 .58-.21.88-.69l2.24-3.47h.22l1.35 3.77c.27.77.37 1 .76 1v.17zm-2.25-1.9l-.61-1.74-1 1.54 1.57.2zm6.96 2.86l-4.6-.85v-.17c.46 0 .7.06.77-.35l.59-3.23c.08-.44-.24-.51-.6-.6v-.17l2.78.51v.17c-.56-.08-.81-.12-.92.47L75 80.68c-.06.32.11.41.64.51a2 2 0 0 0 2.25-.94h.23l-.6 1.46z"/><path class="cls-2" d="M80.56 82.43l-2.77-.58v-.17c.43.06.75.1.83-.32l.67-3.21c.09-.44-.28-.53-.64-.63v-.16l2.77.58v.17c-.37-.06-.76-.14-.85.31l-.67 3.21c-.09.43.23.51.65.63v.17zm5.62.72l-2.61-.27v-.17c.5 0 .65 0 .67-.2a3.53 3.53 0 0 0-.28-.94l-1.81-.19a3.87 3.87 0 0 0-.44.83c0 .26.36.32.63.36v.17l-1.64-.17v-.17c.44 0 .58-.22.87-.71l2.16-3.52h.23l1.43 3.74c.29.76.39 1 .78 1v.17zm-2.29-1.85l-.65-1.72-.92 1.56 1.57.16zm-18.4-52.94c0-1.63-.91-.1-1.42-1.49-.37 1.17-1.47.19-1.47 1.45a1 1 0 0 0 .36.91v.48a.22.22 0 0 0 .22.23h1.73a.22.22 0 0 0 .22-.23v-.52a1.06 1.06 0 0 0 .35-.83zm-1.41.31c-.48 0-1.12.33-1.12-.24 0-.8.54-.62 1-.62s1.21-.18 1.21.62c0 .56-.64.24-1.12.24zm15.61 19.7a.66.66 0 1 0-.75-.66.71.71 0 0 0 .75.66zm-3.52-24.15a4.12 4.12 0 0 0-.35.7.36.36 0 1 0 .71 0l-.36-.7zm-23.96 0a4.12 4.12 0 0 0-.35.7.36.36 0 1 0 .71 0l-.36-.7zm5.99 0a4.13 4.13 0 0 0-.35.7.36.36 0 1 0 .71 0l-.36-.7zm5.99 0a4.12 4.12 0 0 0-.35.7.36.36 0 1 0 .71 0l-.36-.7zm5.99 0a4.12 4.12 0 0 0-.35.7.36.36 0 1 0 .71 0l-.36-.7zm-17.95 8.22a4.11 4.11 0 0 1 .35.7.36.36 0 1 1-.71 0l.36-.7zm0 7.99a4.14 4.14 0 0 1 .35.7.36.36 0 1 1-.71 0l.36-.7zm.95 6.32a4.12 4.12 0 0 1 .35.7.36.36 0 1 1-.71 0l.36-.7zm5.03 3.36a4.11 4.11 0 0 1 .35.7.36.36 0 1 1-.71 0l.36-.7zm18.27-17.67a4.12 4.12 0 0 0-.35.7.36.36 0 1 0 .71 0l-.36-.7zm0 7.99a4.14 4.14 0 0 0-.35.7.36.36 0 1 0 .71 0l-.36-.7zm-.96 6.32a4.13 4.13 0 0 0-.35.7.36.36 0 1 0 .71 0l-.36-.7zm-5.03 3.36a4.12 4.12 0 0 0-.35.7.36.36 0 1 0 .71 0l-.36-.7zm-6.11 3.57a4.09 4.09 0 0 0-.35.7.36.36 0 1 0 .71 0l-.36-.7zm9.74-11.92c.08.11.26.15.5.07l.23-.64s-.26-.3-.43-.26c-.64.15-1.32.23-1.69.84a1.25 1.25 0 0 0 .6 1c.23-.08.26.15.41.27a.27.27 0 0 1-.26.34c-.45-.46-1.24.15-1.58-.42.15-.57.45-1.21 0-1.75 0-.11.23-.23.11-.34-.19-.53-.75-.11-1.09-.11a1.44 1.44 0 0 0-1.36.68 1.06 1.06 0 0 0 .3.57c.15 0 .23 0 .26.15l-.38.23a.8.8 0 0 1 .15.42c-.26.11-.53-.27-.64-.46s0-.83-.38-.91a1.62 1.62 0 0 0-.33.11 1.09 1.09 0 0 0-.15.63 2.58 2.58 0 0 0 .15.68 6.54 6.54 0 0 1 1.43 1.39c-.34.68-.34 1.63-1.13 2a.63.63 0 0 0-.23.61l.19.15c.49-.27 1.43-.34 1.36-1.18a3 3 0 0 1 .71-1 .78.78 0 0 1 .87.42 1.49 1.49 0 0 1-1 1.14c-.08.08 0 .19 0 .3.15.27.57.15.79.11.64-.42.91-1.18 1.47-1.4.08.38-.75.49-.23.87.34-.08.79 0 1-.42-.26-.64.9-.95.19-1.52 0-.57.6-.8.56-1.4-.23-.61-.94-.61-1.13-1.18a.83.83 0 0 1 .79 0zM46.6 48.67a.66.66 0 1 0-.75-.66.71.71 0 0 0 .75.66zM7.75 71.36a.71.71 0 1 0-.75-.71.72.72 0 0 0 .74.71zm24.73 5.51v-.06h-.08v-.09h.15v.06zm-.1-.07zm.2-.02h-.11.1zm.25-.04v.12-.09.09-.12.07-.06.07-.07zm.01.13a.07.07 0 0 0 .06-.05h.05a.05.05 0 0 1 .05.06s0 .07-.1.08zm.06-.05v-.05zm.1-.04h-.07.07v-.07h.08H33z"/><path class="cls-2" d="M78.16 23.27H50.52v21.12c0 2.15.91 4 2.17 4.62l10.63 6.75a1.29 1.29 0 0 0 1.83.1L76 49c1.26-.58 2.17-2.46 2.17-4.62V23.26zm-.78 21.41a4.75 4.75 0 0 1-1.79 3.68L65.17 55h-.06a1.28 1.28 0 0 1-1.62 0l-10.4-6.61a4.75 4.75 0 0 1-1.79-3.68V24h26.08v20.67z"/><path class="cls-2" d="M68.06 54.06l.34-.16a1.74 1.74 0 0 0-.34.16zM47.21 82.93l-2.61.3v-.17c.5-.09.64-.11.61-.34a3.43 3.43 0 0 0-.47-.86l-1.81.21a3.85 3.85 0 0 0-.25.91c0 .26.42.23.69.21v.17l-1.63.19v-.17c.43-.11.51-.35.7-.88l1.36-3.9h.23l2.2 3.34c.45.68.6.89 1 .84v.17zm-2.63-1.31l-1-1.54-.58 1.73 1.57-.18z"/><path class="cls-2" d="M93 73a4.17 4.17 0 0 0-2.7-2.48 3.47 3.47 0 0 0-3.45.88c-1.43 1.16-.44 3.08-.4 4.63 0 .32 0 .56-.28.72-5.75-.52-11.11-2-16.82-2.56-1.31-.23-2.63-.17-3.88-.43l-1.6-.17a67.17 67.17 0 0 0-14.56 1.64c-1 .32-2.1.4-3.09.76-.71-.12-1.31.4-2 .2l-1.31.3a1.09 1.09 0 0 1-.44 0c-.63-1.64 1.27-2.64.67-4.23a2.9 2.9 0 0 0-2.74-1.64 3.32 3.32 0 0 0-3.17 1.64c-.91 2 .24 4.07.6 6-.08.64.64 1.36 0 1.88a5.43 5.43 0 0 0-4.48-.92c-.48.24-1.35-.08-1.59.48 1.71.92 3.89.8 5.79.72.24-.08.4-.12.59 0 .16 1-.2 2.44.44 3.36a4.08 4.08 0 0 0 3.05 1.32c3.65-.12 6.9-1.2 10.23-2 .52 0 .91-.32 1.47-.32a29 29 0 0 1 5.67-.72 9.93 9.93 0 0 0-1.67 3.6c-.48 1.08.83 1.24 1.23 1.84-1.23.36-2.1 1.2-3.25 1.68-2.54-.08-4.68.88-7.06 1.16 0 .52.83.36.91.88-.12.36-.47.4-.75.6 0 .24 0 .28.24.32.24-.28.75-.08 1-.36.79 0 1.47-.24 2.22-.28a7.33 7.33 0 0 0 2-.8c.83-.24 1.35-.8 2.18-1 1.19 0 2.26-.4 3.37-.48v.24c-.91 1.48-1.86 3-2.82 4.39a.45.45 0 0 0 .28.64 2 2 0 0 0 1.55-.24c.83-1.44 1.59-2.8 2.26-4.27.28-1.36 1.27-2.08 2.26-3 .16-.08.4-.32.55-.08a18.22 18.22 0 0 0-1.9 2.79 3.38 3.38 0 0 0 .59 3.48c.48.4 1.19.28 1.83.32 1.55-.8 3.53.48 4.72-1 .71-.12.83.72 1.23 1.12.67.2 1.39.88 2.06.4 0-.44-.52-.84-.75-1.24-.48-.84-1.07-1.52-1.51-2.28a7.91 7.91 0 0 1-.63-1.48 12.65 12.65 0 0 0 2.14.84 13.12 13.12 0 0 1 2.14.64 7.28 7.28 0 0 0 2 1.52c1 .48 2.1.56 3.13 1 .4 0 1 .36 1.27 0a1.68 1.68 0 0 0-.59-.44c-.12-.52.71-.24 1-.64a.56.56 0 0 0-.46-.3c-.57-.3-2-.41-2.36-.62a9.46 9.46 0 0 1-1.41-.56c-2.38 0-3.69-2.16-5.59-3 .44-.4 1.11-.72 1.39-1.32a2.22 2.22 0 0 0 .12-2.12C71.57 82.82 70 83 69.07 82.3l.12-.12a16.57 16.57 0 0 1 4.28.56c3.81.52 7.34 2 11.31 2 2.18 0 4.92.12 6-2 .2-1.24.44-2.48.63-3.71.48-2 1.78-3.84 1.59-6zM50.15 91.25l-.55-.52c.28-.36.87-.16 1.31-.4a6.87 6.87 0 0 1 3.37-.48c-1.19 1-2.74 1.08-4.13 1.4zm24.76-.64a17.28 17.28 0 0 0 4.23 1c-.12.54-1.09 0-1 .8-1.23-.48-2.66-.72-3.57-1.68.08 0 .16-.16.32-.12zm-37.22-17a2.89 2.89 0 0 1 1-2 3.35 3.35 0 0 1 3.13.12 1.53 1.53 0 0 1 .64.76 1.78 1.78 0 0 1-.6 1.8h-.4a4.41 4.41 0 0 1 .24-1.8c0-.48-.44-.52-.75-.72a2.31 2.31 0 0 0-1.79.4 1.8 1.8 0 0 0-.55 1.83c.28.44 0 1 .2 1.52l-.12.16a2.47 2.47 0 0 1-1-2zm1.86 1.14c.59.44 1.43.24 2.14.36a1.51 1.51 0 0 1-.2 1.36c-.67-.16-1.55-.08-1.9-.72.08-.28-.12-.68 0-1zm-.12-1.34c.12-.32 0-.8.44-.88.28-.08.71-.08.75.24a7.89 7.89 0 0 1-.2 1.4.92.92 0 0 1-1-.76zM58 86.26a4.34 4.34 0 0 1 1.27-3.6 2.29 2.29 0 0 1 1.7.08c-1 .28-2.34.52-2.58 1.84 0 .52-.12.8.12 1.24.44.76 1.43.44 2 1a.52.52 0 0 1-.36.48A15.5 15.5 0 0 1 58 86.26zM56.62 89c1-.4 1.94-1.24 3-.88a5.47 5.47 0 0 1-3 .88zm3.77.4a30.75 30.75 0 0 1-1.95 3.75c-.08.2-.4.24-.63.28 0-.56.55-1 .79-1.48.83-1.08 1.07-2.24 2-3.28.24.24-.24.4-.24.72zm1-2.32v.16h-.09v-.2h.16a.24.24 0 0 0-.16 0zM61 86a9.51 9.51 0 0 1-1.9-.48c-.4-.4 0-.84 0-1.28.55-.88 2.14-1.32 2.9-.52A4.25 4.25 0 0 1 61 86zm.87 0a6.69 6.69 0 0 1 .63-1.68 3.35 3.35 0 0 1-.61 1.68zm.44-3.24c-.52-.12-.79-.72-1.35-.72a3.17 3.17 0 0 1 1.51 0c.2.28-.12.52-.16.76zM62.8 84v-.44.44zm0 1.84c0-.16.08-.36.12-.56.2-.2.4.16.48.28a.59.59 0 0 1-.59.28zm.59-2.48a4.45 4.45 0 0 1 .6-1.48 2.32 2.32 0 0 1 1.11.12c.08.8 1.07 1.88 0 2.56-.36.16-.87.52-1.27.16a1.11 1.11 0 0 1-.4-1.4zm2.9-1.12c-.08-.36.36-.08.52-.24l1.23.08c-.64-.08-1.43 1.4-1.75.16zm2 .52c-.48.16-.83.72-1.31.84a1.61 1.61 0 0 1 1.31-.84zm-1.67 2.48v.12-.12zm.08 2.44c0 .08 0 .2-.08.28l-.91-.72a1 1 0 0 1 1 .44zm-1.07-1.24a.3.3 0 0 1 .36 0zm-.56-.6c.16-.24.36-.6.63-.6 0 0 0 .08.08.12a2.05 2.05 0 0 1-.71.48zm-.91-.08H64l.24-.24c.12.08 0 .16-.08.24zm.12 1.52c.52-.56 1 .32 1.19.76.6.88 2.14 1.68 1.55 2.88-.75.68-1.94 0-2.78.56-.44 0-1.19.08-1.43-.36a23.24 23.24 0 0 1 1.47-3.84zM63.2 88l.2-.32a17.05 17.05 0 0 1-1.31 2.88c-.24-1 .75-1.72 1.11-2.56zm1.75 4.75c-.75 0-1.9.48-2.62-.16 0-.32-.32-.48-.28-.8.63-.24 1.19.52 1.79 0a16.29 16.29 0 0 1 2.78.08c.44.12 1.11-.72 1.19.12-.32 1.32-1.9.4-2.85.8zm2.3-5.75v-.12h.08V87zm.24 2.52c0 .4.44.56.2.92a1.23 1.23 0 0 1-.2-.92zm1.11 2.4l-.2.08c-.2-.16-.12-.6-.08-.84.24.2.44.48.28.76zm2 1c0 .12-.24.12-.32 0a21.3 21.3 0 0 1-2.5-4.79h.16c1 1.56 1.71 3.28 2.66 4.79zm1.4-3.71a.16.16 0 0 0-.08.16 4.54 4.54 0 0 1-2.78-1.24v-.2A7.53 7.53 0 0 1 72 89.21zm-1-5.31c.48.12.52.64.56 1a2.12 2.12 0 0 1-1.35 2 2.1 2.1 0 0 1-1.55.16 2.54 2.54 0 0 0 2.38-1.36v-1.8zm-.87-.16a2.67 2.67 0 0 1 .36 1.76c-.4.76-1.19.76-1.9.92a1.25 1.25 0 0 1-.91-.28.41.41 0 0 0-.16-.4c.12-.52-.91-1-.2-1.48.63-.6 2.14-2 2.82-.52zm20.15-2.92c-.32.4 0 1-.44 1.4 0 .72-.6 1.08-1.11 1.36-4.72 1-9.36-.56-13.92-1.36a48.5 48.5 0 0 0-20.35-.32c-3.05.56-6 1.28-9 2.12A13 13 0 0 1 40 84c-1.43-.68-.83-2.52-1.27-3.79a20.82 20.82 0 0 0-.32-2.76 2.36 2.36 0 0 1-.16-1c.59.08 1.19.52 1.82.68 3.33.64 6.31-.44 9.4-1a68.27 68.27 0 0 1 9.16-1.4 58.7 58.7 0 0 1 10.6.27c1.11 0 2.06.32 3.13.4 2.22.28 4.29.88 6.55 1a10.32 10.32 0 0 0 1.19.2c3.57.56 7.58 1.56 11 0a29.41 29.41 0 0 1-.79 4.15zm-1.11-4.87c0 .64-.56.48-.87.72h-1a2.18 2.18 0 0 1-.12-1.12 7.91 7.91 0 0 1 1.94.4zm-.44-1c.44-.44-.12-3 1.11-1.32 0 .32 0 .8-.28 1s-.52.48-.83.28zm3.21-.4a2.27 2.27 0 0 1-1.71 1.36c0-1 .91-1.64.6-2.72a2.39 2.39 0 0 0-2.5-.8c-.36.24-.2.64-.32 1l-.16 1.32c-.79 0-.83-.72-1.07-1.28A2.31 2.31 0 0 1 88 71.35a2.73 2.73 0 0 1 2.3.08 1.78 1.78 0 0 1 1.31.84c.6.56.44 1.56.32 2.28zm48.87-15.53H389.8v1.28H140.81z"/><path class="cls-1" d="M140.81 87.15v-.43h.53a2.13 2.13 0 0 0 1.05-.21 1.35 1.35 0 0 0 .55-.6 5.6 5.6 0 0 0 .11-1.48V74a5.22 5.22 0 0 0-.13-1.52 1.14 1.14 0 0 0-.53-.53 2 2 0 0 0-1.05-.23h-.53v-.43h7.11a11.39 11.39 0 0 1 4.58.77 6.74 6.74 0 0 1 3.21 2.87 9.14 9.14 0 0 1 .56 7.44 7.18 7.18 0 0 1-1.39 2.33 7 7 0 0 1-2 1.48 10.61 10.61 0 0 1-2.73.86 12.86 12.86 0 0 1-2.25.14zm6.06-15v12.4a4.37 4.37 0 0 0 .09 1.21.67.67 0 0 0 .32.34 1.92 1.92 0 0 0 .91.18 3.55 3.55 0 0 0 3-1.34q1.41-1.8 1.41-5.6a10.55 10.55 0 0 0-1-4.89 4.1 4.1 0 0 0-2-1.95 7.59 7.59 0 0 0-2.8-.35zm20.69 9.12h-6a5.66 5.66 0 0 0 1.16 3.45 2.45 2.45 0 0 0 1.95 1 2.24 2.24 0 0 0 1.28-.39 5.05 5.05 0 0 0 1.23-1.42l.4.26a6.69 6.69 0 0 1-2 2.58 4.28 4.28 0 0 1-2.5.75 4.16 4.16 0 0 1-3.69-1.87 6.61 6.61 0 0 1-1-3.75 6.22 6.22 0 0 1 1.48-4.36 4.58 4.58 0 0 1 3.48-1.63 3.74 3.74 0 0 1 2.88 1.37 6.19 6.19 0 0 1 1.32 4zm-2.88-.79a10.51 10.51 0 0 0-.21-2.59 2.09 2.09 0 0 0-.63-1.07 1 1 0 0 0-.66-.21 1.15 1.15 0 0 0-1 .6 5.13 5.13 0 0 0-.69 2.86v.41zm8.01 5.52v4.08a3.39 3.39 0 0 0 .13 1.15.92.92 0 0 0 .42.45 2.83 2.83 0 0 0 1.1.14v.43h-6.24v-.43a1.46 1.46 0 0 0 1.08-.41 2.53 2.53 0 0 0 .23-1.39V78.47a2.58 2.58 0 0 0-.27-1.48 1.43 1.43 0 0 0-1-.37v-.43h4.59v1.44a4.17 4.17 0 0 1 1.17-1.22 3.37 3.37 0 0 1 1.86-.55 3.5 3.5 0 0 1 2.19.76 4.69 4.69 0 0 1 1.51 2.11 8 8 0 0 1 .52 2.88 8.32 8.32 0 0 1-.54 3 4.45 4.45 0 0 1-1.55 2.1 3.81 3.81 0 0 1-2.25.71 3.68 3.68 0 0 1-1.69-.4 4.43 4.43 0 0 1-1.23-1zm0-1.18a2.75 2.75 0 0 0 2.16 1.43 1.2 1.2 0 0 0 1-.67 7.88 7.88 0 0 0 .61-3.75 7.82 7.82 0 0 0-.67-3.88 1.36 1.36 0 0 0-1.2-.69q-1.19 0-1.95 1.71v5.85zm14.67.71a5.79 5.79 0 0 1-3.6 1.77 2.13 2.13 0 0 1-1.56-.61 2.1 2.1 0 0 1-.62-1.55 3 3 0 0 1 1.08-2.25 20.16 20.16 0 0 1 4.7-2.67v-1.1a5.05 5.05 0 0 0-.14-1.56 1.2 1.2 0 0 0-.5-.56 1.51 1.51 0 0 0-.84-.25 2.16 2.16 0 0 0-1.25.34.6.6 0 0 0-.3.49 1 1 0 0 0 .33.61 1.51 1.51 0 0 1 .45 1 1.31 1.31 0 0 1-.43 1 1.56 1.56 0 0 1-1.11.4 1.81 1.81 0 0 1-1.24-.45 1.37 1.37 0 0 1-.49-1 2.41 2.41 0 0 1 .67-1.61 4.2 4.2 0 0 1 1.86-1.18 7.6 7.6 0 0 1 2.48-.41 4.06 4.06 0 0 1 2.46.67 3.07 3.07 0 0 1 1.16 1.39 9.41 9.41 0 0 1 .16 2.26v4.25a4.44 4.44 0 0 0 .06.95.55.55 0 0 0 .18.28.42.42 0 0 0 .27.09q.3 0 .62-.43l.35.28a4.33 4.33 0 0 1-1.22 1.27 2.63 2.63 0 0 1-1.42.39 2.24 2.24 0 0 1-1.46-.43 2 2 0 0 1-.64-1.34zm0-.86V81a6.82 6.82 0 0 0-2.11 1.78 2.17 2.17 0 0 0-.46 1.28 1.34 1.34 0 0 0 .39.95 1.06 1.06 0 0 0 .82.32 2.26 2.26 0 0 0 1.36-.66z"/><path class="cls-2" d="M197.14 76.19v2.48a7.9 7.9 0 0 1 1.91-2.25 2.81 2.81 0 0 1 1.58-.56 1.37 1.37 0 0 1 1 .41 1.54 1.54 0 0 1 .4 1.14 1.77 1.77 0 0 1-.39 1.22 1.16 1.16 0 0 1-.91.43 1.59 1.59 0 0 1-1.08-.4 6.33 6.33 0 0 0-.54-.45.51.51 0 0 0-.27-.07 1 1 0 0 0-.64.26 2.42 2.42 0 0 0-.73 1.14 8 8 0 0 0-.37 2.51v3.18a2.67 2.67 0 0 0 .08.86 1 1 0 0 0 .41.47 2.57 2.57 0 0 0 .94.18v.42h-5.92v-.42a1.29 1.29 0 0 0 1-.39 3.63 3.63 0 0 0 .26-1.77v-6.07a4.53 4.53 0 0 0-.09-1.2.94.94 0 0 0-.34-.48 1.82 1.82 0 0 0-.79-.21v-.43zm10.46-4.01v4h2.6v1.16h-2.6v6.76a5.61 5.61 0 0 0 .08 1.23 1 1 0 0 0 .32.45.71.71 0 0 0 .41.16q.76 0 1.44-1.16l.35.26a3.2 3.2 0 0 1-3.08 2.25 2.77 2.77 0 0 1-1.77-.57 2.6 2.6 0 0 1-.91-1.3 11.06 11.06 0 0 1-.12-2.16v-5.91h-1.43v-.41a14.91 14.91 0 0 0 2.51-2.19 13.2 13.2 0 0 0 1.82-2.57zm8.19 4.01v1.44a6.22 6.22 0 0 1 1.66-1.37 3.63 3.63 0 0 1 1.69-.4 3 3 0 0 1 1.77.49 3.1 3.1 0 0 1 1.1 1.5 7 7 0 0 1 1.79-1.52 3.75 3.75 0 0 1 1.8-.47 2.84 2.84 0 0 1 1.8.53 2.63 2.63 0 0 1 .94 1.32 8.7 8.7 0 0 1 .27 2.55v4.49a3.29 3.29 0 0 0 .22 1.57 1.42 1.42 0 0 0 1 .4v.42h-5.66v-.42a1.26 1.26 0 0 0 1-.52 3.11 3.11 0 0 0 .21-1.45V80a8.75 8.75 0 0 0-.12-1.86 1.07 1.07 0 0 0-.37-.59.9.9 0 0 0-.59-.2 1.73 1.73 0 0 0-1 .38 4.61 4.61 0 0 0-1 1.1v5.88a3.35 3.35 0 0 0 .2 1.49 1.21 1.21 0 0 0 1 .48v.42h-5.67v-.42a1.25 1.25 0 0 0 .71-.22 1 1 0 0 0 .35-.49 5.16 5.16 0 0 0 .09-1.25V80a8.54 8.54 0 0 0-.12-1.86 1.13 1.13 0 0 0-.4-.59.93.93 0 0 0-.59-.21 1.56 1.56 0 0 0-.86.25 4.78 4.78 0 0 0-1.17 1.24v5.88a3.45 3.45 0 0 0 .22 1.54 1.22 1.22 0 0 0 1 .43v.42h-5.65v-.42a1.36 1.36 0 0 0 1-.45 3.28 3.28 0 0 0 .2-1.52v-6.14a3.08 3.08 0 0 0-.23-1.55 1.37 1.37 0 0 0-.95-.4v-.43z"/><path class="cls-1" d="M239.8 81.27h-6a5.66 5.66 0 0 0 1.16 3.45 2.45 2.45 0 0 0 1.95 1 2.24 2.24 0 0 0 1.28-.39 5.05 5.05 0 0 0 1.23-1.42l.4.26a6.69 6.69 0 0 1-2 2.58 4.28 4.28 0 0 1-2.5.75 4.16 4.16 0 0 1-3.69-1.87 6.61 6.61 0 0 1-1-3.75 6.22 6.22 0 0 1 1.48-4.36 4.58 4.58 0 0 1 3.48-1.63 3.74 3.74 0 0 1 2.88 1.37 6.19 6.19 0 0 1 1.32 4zm-2.88-.79a10.51 10.51 0 0 0-.21-2.59 2.09 2.09 0 0 0-.63-1.07 1 1 0 0 0-.66-.21 1.15 1.15 0 0 0-1 .6 5.13 5.13 0 0 0-.69 2.86v.41z"/><path class="cls-2" d="M245.4 76.19v1.42a6.32 6.32 0 0 1 1.6-1.33 3.42 3.42 0 0 1 1.66-.42 2.64 2.64 0 0 1 1.77.6 2.81 2.81 0 0 1 .94 1.46 11.46 11.46 0 0 1 .19 2.57v4.27a3.36 3.36 0 0 0 .22 1.58 1.38 1.38 0 0 0 1 .39v.42h-5.54v-.42a1.16 1.16 0 0 0 .89-.52 3.39 3.39 0 0 0 .19-1.45v-4.88a8 8 0 0 0-.11-1.7 1 1 0 0 0-.36-.54.86.86 0 0 0-.55-.2q-1 0-1.87 1.44v5.87a3.33 3.33 0 0 0 .22 1.56 1.19 1.19 0 0 0 .86.41v.42h-5.54v-.42a1.37 1.37 0 0 0 1-.45 3.31 3.31 0 0 0 .2-1.52v-6.18a3.09 3.09 0 0 0-.23-1.55 1.37 1.37 0 0 0-.95-.4v-.43zm12.38-4.01v4h2.6v1.16h-2.6v6.76a5.55 5.55 0 0 0 .08 1.23.94.94 0 0 0 .32.45.71.71 0 0 0 .41.16q.76 0 1.44-1.16l.35.26a3.2 3.2 0 0 1-3.08 2.25 2.76 2.76 0 0 1-1.77-.57 2.6 2.6 0 0 1-.91-1.3 11 11 0 0 1-.12-2.16v-5.91h-1.43v-.41a15 15 0 0 0 2.51-2.19 13.29 13.29 0 0 0 1.82-2.57z"/><path class="cls-1" d="M271.87 75.86a5.08 5.08 0 0 1 2.66.74 4.69 4.69 0 0 1 1.86 2.1 6.86 6.86 0 0 1 .64 3 6.3 6.3 0 0 1-1.18 3.9 4.67 4.67 0 0 1-4 1.9 4.53 4.53 0 0 1-3.81-1.73 6.4 6.4 0 0 1-1.34-4 6.48 6.48 0 0 1 1.36-4.1 4.5 4.5 0 0 1 3.75-1.76zm0 .83a1.37 1.37 0 0 0-1 .46 3.21 3.21 0 0 0-.56 1.78q-.13 1.32-.13 3.69a15.62 15.62 0 0 0 .17 2.34 2.26 2.26 0 0 0 .55 1.27 1.31 1.31 0 0 0 1 .43 1.33 1.33 0 0 0 .88-.29 2 2 0 0 0 .61-1.11 27.1 27.1 0 0 0 .23-4.5 11 11 0 0 0-.22-2.73 2.09 2.09 0 0 0-.66-1.09 1.23 1.23 0 0 0-.8-.25z"/><path class="cls-2" d="M282.91 77.34v7.61a2.52 2.52 0 0 0 .23 1.38 1.69 1.69 0 0 0 1.38.4v.42h-6.46v-.42a2.64 2.64 0 0 0 1-.16.89.89 0 0 0 .43-.45 3.73 3.73 0 0 0 .12-1.17v-7.61h-1.59v-1.15h1.59v-1.36a3.65 3.65 0 0 1 1.27-2.83 4.81 4.81 0 0 1 3.35-1.12 3.45 3.45 0 0 1 2.13.54 1.52 1.52 0 0 1 .7 1.2 1.19 1.19 0 0 1-.43.91 1.66 1.66 0 0 1-1.15.39 1.43 1.43 0 0 1-1-.32.93.93 0 0 1-.35-.7 2.6 2.6 0 0 1 .07-.43 1.69 1.69 0 0 0 0-.37.44.44 0 0 0-.14-.36.64.64 0 0 0-.46-.18.72.72 0 0 0-.57.28 1.45 1.45 0 0 0-.22.9v3.44h1.62v1.15zm14.22 2.17v4.92a5.23 5.23 0 0 0 .13 1.52 1.28 1.28 0 0 0 .53.54 2.19 2.19 0 0 0 1.07.22h.53v.43h-8.31v-.43h.53a2.2 2.2 0 0 0 1.11-.25 1.07 1.07 0 0 0 .47-.56 4.83 4.83 0 0 0 .13-1.48V74a5.23 5.23 0 0 0-.13-1.52 1.14 1.14 0 0 0-.53-.53 2 2 0 0 0-1.05-.23h-.53v-.43h8.31v.43h-.53a2.2 2.2 0 0 0-1.11.25 1.12 1.12 0 0 0-.48.56 4.83 4.83 0 0 0-.13 1.48v4.5h5.61V74a5.23 5.23 0 0 0-.13-1.52 1.14 1.14 0 0 0-.53-.53 2.09 2.09 0 0 0-1.07-.23h-.52v-.43h8.3v.43h-.52a2.16 2.16 0 0 0-1.11.25 1.12 1.12 0 0 0-.48.56 4.83 4.83 0 0 0-.13 1.48v10.42a5.23 5.23 0 0 0 .14 1.57 1.2 1.2 0 0 0 .53.54 2.19 2.19 0 0 0 1.07.22h.52v.43h-8.3v-.43h.48a2.16 2.16 0 0 0 1.11-.25 1.12 1.12 0 0 0 .48-.56 4.83 4.83 0 0 0 .13-1.48v-4.96z"/><path class="cls-1" d="M318.13 81.27h-6a5.66 5.66 0 0 0 1.16 3.45 2.45 2.45 0 0 0 1.95 1 2.24 2.24 0 0 0 1.28-.39 5.05 5.05 0 0 0 1.23-1.42l.4.26a6.69 6.69 0 0 1-2 2.58 4.28 4.28 0 0 1-2.5.75 4.16 4.16 0 0 1-3.65-1.9 6.61 6.61 0 0 1-1-3.75 6.22 6.22 0 0 1 1.48-4.36 4.58 4.58 0 0 1 3.48-1.63 3.74 3.74 0 0 1 2.88 1.37 6.19 6.19 0 0 1 1.32 4zm-2.88-.79a10.46 10.46 0 0 0-.25-2.58 2.09 2.09 0 0 0-.63-1.07 1 1 0 0 0-.66-.21 1.15 1.15 0 0 0-1 .6 5.13 5.13 0 0 0-.69 2.86v.41zm9.58 5.05a5.79 5.79 0 0 1-3.6 1.77 2.13 2.13 0 0 1-1.56-.61 2.1 2.1 0 0 1-.62-1.55 3 3 0 0 1 1.08-2.25 20.17 20.17 0 0 1 4.7-2.67v-1.1a5.05 5.05 0 0 0-.14-1.56 1.19 1.19 0 0 0-.5-.56 1.51 1.51 0 0 0-.84-.25 2.16 2.16 0 0 0-1.25.34.6.6 0 0 0-.3.49 1 1 0 0 0 .33.61 1.51 1.51 0 0 1 .45 1 1.31 1.31 0 0 1-.43 1 1.56 1.56 0 0 1-1.11.4 1.81 1.81 0 0 1-1.24-.45 1.37 1.37 0 0 1-.49-1 2.41 2.41 0 0 1 .67-1.61 4.2 4.2 0 0 1 1.86-1.18 7.6 7.6 0 0 1 2.48-.41 4.06 4.06 0 0 1 2.46.67 3.07 3.07 0 0 1 1.15 1.39 9.41 9.41 0 0 1 .16 2.26v4.25a4.43 4.43 0 0 0 .06.95.55.55 0 0 0 .18.28.42.42 0 0 0 .27.09q.3 0 .62-.43l.35.28a4.33 4.33 0 0 1-1.22 1.27 2.63 2.63 0 0 1-1.42.39 2.24 2.24 0 0 1-1.46-.43 2 2 0 0 1-.64-1.34zm0-.86V81a6.82 6.82 0 0 0-2.11 1.78 2.17 2.17 0 0 0-.46 1.28 1.34 1.34 0 0 0 .39.95 1.06 1.06 0 0 0 .82.32 2.26 2.26 0 0 0 1.36-.66z"/><path class="cls-2" d="M334.59 71.26v13.61a2.65 2.65 0 0 0 .27 1.49 1.48 1.48 0 0 0 1.05.36v.42H330v-.42a1.43 1.43 0 0 0 1.08-.42 2.62 2.62 0 0 0 .23-1.43V73.53a2.55 2.55 0 0 0-.27-1.46 1.43 1.43 0 0 0-1-.37v-.43zm6.01.92v4h2.6v1.16h-2.6v6.76a5.63 5.63 0 0 0 .08 1.23 1 1 0 0 0 .32.45.71.71 0 0 0 .41.16q.76 0 1.44-1.16l.35.26a3.2 3.2 0 0 1-3.08 2.25 2.76 2.76 0 0 1-1.77-.57 2.6 2.6 0 0 1-.92-1.3 11.06 11.06 0 0 1-.12-2.16v-5.91h-1.43v-.41a14.92 14.92 0 0 0 2.51-2.19 13.2 13.2 0 0 0 1.82-2.57zm7.64-.92v6.34a6.56 6.56 0 0 1 1.65-1.34 3.27 3.27 0 0 1 1.56-.4 2.83 2.83 0 0 1 2.73 2 10 10 0 0 1 .25 2.66v4.28a3.19 3.19 0 0 0 .23 1.57 1.36 1.36 0 0 0 .95.39v.42h-5.55v-.42a1.27 1.27 0 0 0 .88-.47 3.17 3.17 0 0 0 .21-1.49v-4.92a7.85 7.85 0 0 0-.11-1.7 1 1 0 0 0-.36-.54.87.87 0 0 0-.56-.2 1.52 1.52 0 0 0-.91.33 4 4 0 0 0-1 1.12v5.87a3.61 3.61 0 0 0 .18 1.46 1.14 1.14 0 0 0 .92.49v.42h-5.56v-.42a1.36 1.36 0 0 0 1-.45 3.25 3.25 0 0 0 .2-1.51V73.63a3.07 3.07 0 0 0-.24-1.55 1.37 1.37 0 0 0-.95-.4v-.43z"/></svg>