<svg id="Layer_1" data-name="Layer 1" xmlns="http://www.w3.org/2000/svg" viewBox="0 0 400 130"><defs><style>.cls-1{fill:#fff;}</style></defs><title>MyQuitBuddy</title><path class="cls-1" d="M91.63,58S81.92,71.74,70.19,69.51c6.67,6.68,17.5,1.91,16.75,2.95A24.68,24.68,0,1,1,91.63,58ZM69.28,57a6.39,6.39,0,0,1,5,.29c-7.73-7.52-8.4,3.5-8.4,3.5A6.39,6.39,0,0,1,69.28,57Z"/><path class="cls-1" d="M47.26,77.1S10.62,79.3,1.32,124.87H18.26l9.31-19.67-7.31,19.67H79.74l-1-20.27,3,21.35,19.94.14S89.25,88.45,74.76,79.62"/><path class="cls-1" d="M189.41,103.2a4.46,4.46,0,0,1-3.05,5.75c-26.23,11.72-53.65,17.14-53.65,17.14-2.45.78-4.85.12-5.82-2.91C110.67,82.08,97,29.67,97,29.67c-.76-2.39-.64-4.57,3.05-5.74,23-9.75,53.65-17.14,53.65-17.14a4.6,4.6,0,0,1,5.82,2.91S179.32,61.42,189.41,103.2ZM161,26.42a4.6,4.6,0,0,0-5.82-2.91S126.86,30.8,109,38.24A4.38,4.38,0,0,0,106,44s9,32.89,20.6,64.5a4.47,4.47,0,0,0,5.82,2.91s26.37-6.67,46.12-14.73a4.88,4.88,0,0,0,3.05-5.75C173.84,61.11,161,26.42,161,26.42Zm-46.17.8a1.78,1.78,0,1,0,2.27,1.14A1.8,1.8,0,0,0,114.8,27.22Zm42.14,80.15a4.62,4.62,0,1,0,5.91,3A4.68,4.68,0,0,0,156.94,107.37ZM139.21,21.31c-.69,0-1.38-.72-2-.52l-17.53,5.44c-.61.2-1.64,1-1.64,1.56h0c0,.53,1.45.91,2.06.71L137.6,23c.61-.2,1.55-.27,1.55-1.65Zm-6-2.22c0-.53-1.86-.89-2.47-.69l-7.24,2.1c-.62.19-1.34.88-1.34,1.41h0c1.38.77.91,1,1.52.77l7.71-2.14c.62-.2,1.82-.68,1.82-1.45Z"/><path class="cls-1" d="M133.82,50.76a11.78,11.78,0,1,1-4.14,20.58c-.48-.38,5.11.42,7.32-3.51-5.11,2.54-11.34-2.54-11.34-2.54A11.78,11.78,0,0,1,133.82,50.76Zm4,12.5s-1.73-5-4.32-.52a2.77,2.77,0,0,1,4.32.52Z"/><path class="cls-1" d="M148.6,68.69S165.51,64.18,176,85.06l-7.79,2.18-6.81-7.85,5.9,8.1-27.35,7.66-2.24-9.77,1.33,10L129.83,98s.89-18.78,6.42-24.71"/><path class="cls-1" d="M226.57,58.09h-4.13l-1.71-1.75a11,11,0,0,1-6.06,1.75A11.35,11.35,0,0,1,207,55.15a10.52,10.52,0,0,1-3.65-8.25,10.86,10.86,0,0,1,3.46-8.21,11.37,11.37,0,0,1,15.36-.39,11,11,0,0,1,3.95,8.76A10.62,10.62,0,0,1,223,54.57Zm-9-9,3.16,3.15a7.46,7.46,0,0,0,2.09-5.37A8.06,8.06,0,0,0,220.45,41a7.78,7.78,0,0,0-5.78-2.37A7.6,7.6,0,0,0,208.91,41a8.25,8.25,0,0,0-2.27,6A7.63,7.63,0,0,0,209,52.7,7.87,7.87,0,0,0,214.55,55a7.69,7.69,0,0,0,3.85-1l-5.12-5Z"/><path class="cls-1" d="M232.79,44v7.88q0,3.41,2.69,3.41t2.69-3.41V44h3.17v8a8.86,8.86,0,0,1-.41,2.85,4.78,4.78,0,0,1-1.37,1.93,6.67,6.67,0,0,1-8.17,0,4.86,4.86,0,0,1-1.4-1.93,7.86,7.86,0,0,1-.4-2.85V44Z"/><path class="cls-1" d="M244.88,38.24a2.07,2.07,0,0,1,2.06-2,2,2,0,0,1,1.47.61,2,2,0,0,1,.61,1.45,2,2,0,0,1-.61,1.47,2,2,0,0,1-1.45.61,2.07,2.07,0,0,1-2.07-2.09ZM248.53,44V57.69h-3.17V44Z"/><path class="cls-1" d="M255.82,46.92V57.69h-3.17V46.92H251.3V44h1.35v-5h3.17v5h2.47v3Z"/><path class="cls-1" d="M270,57.69V34.43L285.85,51V35.91h3.29V59L273.26,42.44V57.69Z"/><path class="cls-1" d="M293.3,50.72a6.83,6.83,0,0,1,2.13-5.06,7.51,7.51,0,0,1,10.41,0,7.36,7.36,0,0,1,0,10.34,7.28,7.28,0,0,1-5.26,2.07A7,7,0,0,1,295.39,56,7.11,7.11,0,0,1,293.3,50.72Zm3.24.06a4.63,4.63,0,0,0,1.1,3.26,4.27,4.27,0,0,0,6,0,5.16,5.16,0,0,0,0-6.4,4.22,4.22,0,0,0-5.92,0A4.41,4.41,0,0,0,296.55,50.78Z"/><path class="cls-1" d="M312.49,44l3.6,7.84L320,42.7l3.91,9.1L327.42,44H331l-7.19,14.77L320,49.88l-3.86,8.84L308.92,44Z"/><path class="cls-1" d="M333.79,45.5a1.85,1.85,0,0,1,.58-1.35,2,2,0,1,1,0,2.76A1.91,1.91,0,0,1,333.79,45.5Zm0,10.61a2,2,0,0,1,2-1.95,2,2,0,1,1-1.4,3.36A1.91,1.91,0,0,1,333.79,56.11Z"/><path class="cls-1" d="M203.65,92.36l4.58-23.42,7.48,16.93,7.74-16.93,4.12,23.42H224.2l-2.1-13.15-6.45,14.15L209.39,79.2,207,92.36Z"/><path class="cls-1" d="M235.91,89.8l-6.18-11.19h3.68l4.2,7.9,3.92-7.9h3.58L234.17,99.83h-3.62Z"/><path class="cls-1" d="M279,92.75h-4.13L273.12,91a11,11,0,0,1-6.06,1.75,11.35,11.35,0,0,1-7.69-2.93,10.52,10.52,0,0,1-3.65-8.25,10.86,10.86,0,0,1,3.46-8.21A11.37,11.37,0,0,1,274.53,73a11,11,0,0,1,3.95,8.76,10.62,10.62,0,0,1-3.12,7.52Zm-9-9,3.16,3.15a7.46,7.46,0,0,0,2.09-5.37,8.06,8.06,0,0,0-2.33-5.88,7.78,7.78,0,0,0-5.78-2.37,7.6,7.6,0,0,0-5.76,2.37,8.25,8.25,0,0,0-2.27,6,7.63,7.63,0,0,0,2.34,5.77,7.87,7.87,0,0,0,5.57,2.31,7.69,7.69,0,0,0,3.85-1l-5.12-5Z"/><path class="cls-1" d="M285.18,78.62V86.5q0,3.41,2.69,3.41t2.69-3.41V78.62h3.17v8a8.86,8.86,0,0,1-.41,2.85A4.78,4.78,0,0,1,292,91.35a6.67,6.67,0,0,1-8.17,0,4.86,4.86,0,0,1-1.4-1.93,7.86,7.86,0,0,1-.4-2.85v-8Z"/><path class="cls-1" d="M297.27,72.91a2.07,2.07,0,0,1,2.06-2,2,2,0,0,1,1.47.61,2,2,0,0,1,.61,1.45,2,2,0,0,1-.61,1.47,2,2,0,0,1-1.45.61,2.07,2.07,0,0,1-2.07-2.09Zm3.65,5.71V92.36h-3.17V78.62Z"/><path class="cls-1" d="M308.21,81.58V92.36H305V81.58h-1.35v-3H305v-5h3.17v5h2.47v3Z"/><path class="cls-1" d="M313.45,92.36V70.58h3.27a14.34,14.34,0,0,1,3.48.34,5.23,5.23,0,0,1,2.21,1.14,5.94,5.94,0,0,1,1.45,2.07,6.28,6.28,0,0,1,.55,2.54,5.14,5.14,0,0,1-1.79,4,5.26,5.26,0,0,1,2.74,2.07,6.14,6.14,0,0,1-.79,7.73,5.93,5.93,0,0,1-2.44,1.51,14.16,14.16,0,0,1-3.71.41Zm3.29-12.43h1a3.79,3.79,0,0,0,2.69-.81,3.14,3.14,0,0,0,.85-2.39,3,3,0,0,0-.87-2.33,3.65,3.65,0,0,0-2.54-.8h-1.16Zm0,9.34h2a5,5,0,0,0,3.27-.87,3,3,0,0,0,1.1-2.4,3.07,3.07,0,0,0-1.06-2.37,5.49,5.49,0,0,0-3.68-.95h-1.66Z"/><path class="cls-1" d="M333.09,78.62V86.5q0,3.41,2.69,3.41t2.69-3.41V78.62h3.17v8a8.86,8.86,0,0,1-.41,2.85,4.78,4.78,0,0,1-1.37,1.93,6.67,6.67,0,0,1-8.17,0,4.86,4.86,0,0,1-1.4-1.93,7.86,7.86,0,0,1-.4-2.85v-8Z"/><path class="cls-1" d="M355.79,68.53H359V92.36h-3.19V90.92a5.92,5.92,0,0,1-4.25,1.83,6,6,0,0,1-4.68-2.06A7.66,7.66,0,0,1,345,85.44a7.4,7.4,0,0,1,1.85-5.13,5.93,5.93,0,0,1,8.93-.1Zm-7.53,16.91a4.79,4.79,0,0,0,1.06,3.22,3.46,3.46,0,0,0,2.74,1.25,3.64,3.64,0,0,0,2.85-1.21,5.22,5.22,0,0,0,0-6.38,3.59,3.59,0,0,0-2.82-1.23,3.51,3.51,0,0,0-2.74,1.24A4.57,4.57,0,0,0,348.26,85.44Z"/><path class="cls-1" d="M373.11,68.53h3.19V92.36h-3.19V90.92a5.92,5.92,0,0,1-4.25,1.83,6,6,0,0,1-4.68-2.06,7.66,7.66,0,0,1-1.85-5.25,7.4,7.4,0,0,1,1.85-5.13,5.93,5.93,0,0,1,8.93-.1Zm-7.53,16.91a4.79,4.79,0,0,0,1.06,3.22,3.46,3.46,0,0,0,2.74,1.25,3.64,3.64,0,0,0,2.85-1.21,5.22,5.22,0,0,0,0-6.38,3.59,3.59,0,0,0-2.82-1.23,3.51,3.51,0,0,0-2.74,1.24A4.57,4.57,0,0,0,365.58,85.44Z"/><path class="cls-1" d="M384.64,89.8l-6.18-11.19h3.68l4.2,7.9,3.92-7.9h3.58L382.9,99.83h-3.62Z"/></svg>