<svg id="Layer_1" data-name="Layer 1" xmlns="http://www.w3.org/2000/svg" viewBox="0 0 400 192"><defs><style>.cls-1{fill:#fff;}</style></defs><title>Quitline</title><path class="cls-1" d="M80.12,87.7a53.54,53.54,0,0,1-14.21,8.52l-2-3.46A53.38,53.38,0,0,0,78,84.19l2.12,3.46Z"/><path class="cls-1" d="M84.3,94.61a53.53,53.53,0,0,1-14.21,8.53l-2-3.47a53.2,53.2,0,0,0,14.14-8.56l2.12,3.46Z"/><path class="cls-1" d="M88.46,101.62a53.76,53.76,0,0,1-14.21,8.52l-2-3.46a53.43,53.43,0,0,0,14.14-8.57l2.12,3.47Z"/><path class="cls-1" d="M47.38,5.94a37.38,37.38,0,0,0-14.06,2.6v.08l11,18.27-.08.1a15.05,15.05,0,0,1,3-.59,12.7,12.7,0,0,1,3.4.68L29,60.39l0-.19a19.6,19.6,0,0,1-2.87-10.36,20.17,20.17,0,0,1,4.27-13l.08,0L19,17.29l-.11.05c-9,7.81-14,19.88-13.85,32.73A42.12,42.12,0,0,0,47.52,91.79a37.49,37.49,0,0,0,14.06-2.6V89.1l-11-18.26.08-.1a14.85,14.85,0,0,1-3,.25,18.13,18.13,0,0,1-3.91-.46L65.42,37.17l.52.36A19.72,19.72,0,0,1,68.81,47.9a20.14,20.14,0,0,1-4.27,13l-.09,0L75.91,80.45l.11-.05c9-7.81,14-19.88,13.86-32.73A42.12,42.12,0,0,0,47.38,5.94Z"/><path class="cls-1" d="M114.26,37.49V64.34c0,6.37,1.57,10.88,8.92,10.88s8.92-4.51,8.92-10.88V37.49h17.84V67.77c0,16.57-11.66,21.67-26.75,21.67s-26.76-5.1-26.76-21.67V37.49Z"/><path class="cls-1" d="M174.25,87.77H156.4V37.49h17.84Zm1.07-69.6a10,10,0,1,1-10-10A10,10,0,0,1,175.32,18.18Z"/><path class="cls-1" d="M203,87.77H185.2V52.19h-5.78V37.49h5.78V22.39H203V37.49h10.09v14.7H203Z"/><path class="cls-1" d="M236.65,87.77H218.81V6.41h17.84Z"/><path class="cls-1" d="M261.33,87.77H243.48V37.49h17.85Zm1.07-69.6a10,10,0,1,1-10-10A10,10,0,0,1,262.4,18.18Z"/><path class="cls-1" d="M286,44h.19c4.12-6.07,9.11-8.13,16.08-8.13,13.52,0,18.92,8.52,18.92,20.87V87.77H303.35V63.26c0-4.8.79-13.23-8-13.23C288.06,50,286,55.43,286,61.7V87.77H268.16V37.49H286Z"/><path class="cls-1" d="M380.52,65.62H343c0,7.26,3.81,11.17,11.17,11.17,3.82,0,6.57-1.27,8.53-4.6h17.15C377,84,365.71,89.44,354.25,89.44c-16.67,0-29.12-9.41-29.12-26.76,0-16.76,11.47-26.86,27.84-26.86,17.45,0,27.55,10.78,27.55,27.93ZM364,55.32a10,10,0,0,0-10.09-7.94c-5.21,0-9.51,2.74-10.6,7.94Z"/><path class="cls-1" d="M381.54,83.42a6.23,6.23,0,1,1,6.23,6.2A6.17,6.17,0,0,1,381.54,83.42Zm11.51,0a5.28,5.28,0,1,0-5.28,5.25A5.29,5.29,0,0,0,393,83.42Zm-2.32,3.35h-1.15l-2-3.13H386.4v3.13h-1V80h3c1.23,0,2.41.33,2.41,1.79s-.93,1.83-2.15,1.86Zm-3.18-4.09c.84,0,2.32.16,2.32-.92,0-.7-.92-.83-1.66-.83H386.4v1.75Z"/><polygon class="cls-1" points="40.32 129.63 40.32 114.29 67.85 114.29 67.85 183.93 50.1 183.93 50.1 129.63 40.32 129.63"/><path class="cls-1" d="M76.86,134.33c.73-7.29,3.62-12.83,8-16.81s10.42-6,17.39-6c12.23,0,21.82,7.2,21.82,20.23,0,5.54-2.17,11.45-7.15,14.32C124.12,148,128,156.5,128,163.61c0,15.24-12.95,23.09-26.53,23.09-7.79,0-14.85-2.12-20.38-7.85-4.08-4.25-8-11.46-7.79-17.54H91.44c0,5.53,3.9,9.88,9.51,9.88,5.44,0,9.51-3.7,9.51-9.33a9.44,9.44,0,0,0-9.42-9.33,11.4,11.4,0,0,0-3.07.55V141h1.81c4.53,0,7.79-2.86,7.79-7.67a6.69,6.69,0,0,0-7-7c-4.53,0-7.33,3.5-7.24,8Z"/><path class="cls-1" d="M246.87,131.18a16.69,16.69,0,0,1-10.89,16v.18c8.24,2.8,13.73,9.24,13.73,18.49,0,14.57-14.47,21.3-26.37,21.3S197,180.4,197,165.83c0-9.25,5.5-15.69,13.74-18.49v-.18a16.69,16.69,0,0,1-10.9-16c0-13.45,11.72-20.09,23.54-20.09S246.87,117.72,246.87,131.18Zm-31.13.56a7.61,7.61,0,1,0,7.6-7.94A7.76,7.76,0,0,0,215.73,131.73Zm-.64,31.76a8.25,8.25,0,1,0,16.49,0,8.26,8.26,0,1,0-16.49,0Z"/><path class="cls-1" d="M312.83,155.74v14H304.5v14.56H287.83V169.76H254.31V158.08L281,113.89H304.5v41.85Zm-25-27.08h-.18l-16.11,27.08h16.29Z"/><path class="cls-1" d="M366,131.18a16.7,16.7,0,0,1-10.89,16v.18c8.23,2.8,13.72,9.24,13.72,18.49,0,14.57-14.46,21.3-26.36,21.3s-26.36-6.73-26.36-21.3c0-9.25,5.49-15.69,13.73-18.49v-.18a16.69,16.69,0,0,1-10.9-16c0-13.45,11.73-20.09,23.53-20.09S366,117.72,366,131.18Zm-31.13.56a7.61,7.61,0,1,0,7.6-7.94A7.76,7.76,0,0,0,334.84,131.73Zm-.64,31.76a8.25,8.25,0,1,0,16.49,0,8.26,8.26,0,1,0-16.49,0Z"/><polygon class="cls-1" points="173.95 129.59 143.56 129.59 143.56 113.49 198.5 113.49 198.5 116.91 167.21 184.72 146.89 184.72 173.95 129.59"/></svg>