<svg id="Layer_1" data-name="Layer 1" xmlns="http://www.w3.org/2000/svg" viewBox="0 0 400 400"><defs><style>.cls-1{fill:#fff;}</style></defs><title>Q4UQ42</title><path class="cls-1" d="M309.41,185.35q-1.59,0-2.54,2.32a16.67,16.67,0,0,0-.93,6.33,18.5,18.5,0,0,0,.87,6.38q.88,2.27,2.42,2.27t2.46-2.24a17.15,17.15,0,0,0,.9-6.23Q312.6,185.35,309.41,185.35Z"/><path class="cls-1" d="M219.58,312.77h-.32v7.92h.6a3.29,3.29,0,0,0,2.58-1.18,4.42,4.42,0,0,0,1-3Q223.48,312.77,219.58,312.77Z"/><path class="cls-1" d="M225.89,185.35c-1.06,0-1.91.77-2.54,2.32a16.81,16.81,0,0,0-.92,6.33,18.49,18.49,0,0,0,.87,6.38q.87,2.27,2.42,2.27t2.45-2.24a17.15,17.15,0,0,0,.9-6.23Q229.07,185.35,225.89,185.35Z"/><path class="cls-1" d="M196.06,313.73c-1.06,0-1.91.78-2.54,2.32a16.71,16.71,0,0,0-.93,6.33,18.54,18.54,0,0,0,.87,6.38q.87,2.27,2.42,2.27t2.45-2.24a17.12,17.12,0,0,0,.9-6.23Q199.25,313.74,196.06,313.73Z"/><path class="cls-1" d="M249.08,192.3h.6a3.27,3.27,0,0,0,2.58-1.18,4.39,4.39,0,0,0,1-3q0-3.73-3.89-3.72h-.33Z"/><path class="cls-1" d="M312.08,313.73q-1.59,0-2.54,2.32a16.68,16.68,0,0,0-.93,6.33,18.45,18.45,0,0,0,.87,6.38q.87,2.27,2.42,2.27t2.45-2.24a17.17,17.17,0,0,0,.9-6.23Q315.26,313.74,312.08,313.73Z"/><path class="cls-1" d="M331.78,344.61C370.7,308.55,394,257.69,394,199.9,394,91,307.27,2.73,200.29,2.73S6.58,91,6.58,199.9,93.31,397.07,200.29,397.07H363.57l-31.52-52.2ZM299.65,103.19h7.23V90.13h25.49v13.07h13.22v20.6H332.37v47.92H306.88V123.8h-7.23ZM269.89,251.52v-20.7h7.26V217.7h25.6v13.13h15.69v20.7H302.75v48.15h-25.6V251.52Zm-2.41-79.8V103.19H293v68.53Zm42,38.89a11.46,11.46,0,0,1-8.42-3.51q-4.41-4.44-4.41-13.34,0-8.52,4.61-13a11.21,11.21,0,0,1,8.11-3.34,10.85,10.85,0,0,1,9.14,4.53q3.4,4.53,3.4,12.2,0,7.33-3.47,11.92A10.71,10.71,0,0,1,309.48,210.61ZM289.7,196.54v14.07h-9V196.54l-8.24-19.15h9.36l1.61,4.93q.47,1.44.85,2.78t.68,2.56q.5-1.83.86-3.15c.24-.88.46-1.59.64-2.14l1.64-5h9.3ZM269.76,71.31A14.67,14.67,0,0,1,280.22,67a14.84,14.84,0,0,1,14.9,15,14.21,14.21,0,0,1-4.38,10.4,14.67,14.67,0,0,1-10.46,4.31,14.35,14.35,0,0,1-10.52-4.37,14.73,14.73,0,0,1-4.31-10.52A14.25,14.25,0,0,1,269.76,71.31Zm-7.56,117.17q0,6-5.14,8.33l6.67,13.81H254l-4.43-11.83a7.83,7.83,0,0,0-.23-.8c-.11-.33-.24-.72-.4-1.18L249,199v11.62H240.1V177.39h9.19q6.07,0,9.08,2.39A10.48,10.48,0,0,1,262.21,188.47ZM195.5,103.19H221v38.6q0,5.52,1.08,8.05,1.14,2.09,4.31,2.09t4.18-2.09q1.14-2.09,1.14-8.05v-38.6h25.48v41.19a38,38,0,0,1-.67,7.42,22.05,22.05,0,0,1-2.1,6,20.41,20.41,0,0,1-3.68,4.94,28,28,0,0,1-5.37,4.1,37.26,37.26,0,0,1-19,4.85,36.8,36.8,0,0,1-19-4.85,27.92,27.92,0,0,1-5.43-4.07,19.44,19.44,0,0,1-3.68-4.94,22.55,22.55,0,0,1-2.1-6.06,37.94,37.94,0,0,1-.67-7.42Zm0,74.2h15.86v8h-6.89v4.24h6.41v8h-6.41v13.06h-9ZM92.31,77.91l15.09,25.15a30.06,30.06,0,0,0-.67,33l29.71-45.18a28.43,28.43,0,0,0-9.71-.12L111.66,65.72a55.89,55.89,0,0,1,19.58-3.52c31.41,0,56.87,25.92,56.87,57.89a58.19,58.19,0,0,1-18.23,42.45l-15.07-25.05a30.08,30.08,0,0,0,.66-33.85L125.6,149.17a28.46,28.46,0,0,0,9.65.28l15.11,25.16A55.83,55.83,0,0,1,131.25,178C99.84,178,74.37,152,74.37,120.08A58.2,58.2,0,0,1,92.31,77.91Zm83,93.67a66.87,66.87,0,0,1-19.54,12.09l-2.55-4.24a62.06,62.06,0,0,0,19.54-12.08Zm-35.79,119,9.3,15.4H100.7c-31.56,0-57.14-26-57.14-58.16s25.58-58.15,57.14-58.15,57.14,26,57.14,58.15a57.46,57.46,0,0,1-18.35,42.69ZM159,189a72.94,72.94,0,0,0,19.54-12.1l2.64,4.39a78,78,0,0,1-19.54,12.11Zm25.12-2.82,2.59,4.31a88.39,88.39,0,0,1-19.54,12.12l-2.59-4.32A83.57,83.57,0,0,0,184.13,186.17Zm-18.88,44.65h25.61v38.79q0,5.54,1.08,8.09c.76,1.4,2.2,2.11,4.33,2.11s3.48-.71,4.2-2.11,1.15-4.09,1.15-8.09V230.82h25.61v41.39a38.35,38.35,0,0,1-.67,7.46,22.28,22.28,0,0,1-2.11,6.05,20.3,20.3,0,0,1-3.7,5,28.14,28.14,0,0,1-5.39,4.12,37.45,37.45,0,0,1-19.08,4.87,37,37,0,0,1-19.08-4.87,28.07,28.07,0,0,1-5.46-4.09,19.55,19.55,0,0,1-3.7-5,22.69,22.69,0,0,1-2.11-6.08,37.92,37.92,0,0,1-.67-7.46Zm16.29,82.91h-6.89V318h6.41v8h-6.41V339h-9V305.77h15.86Zm23.56,20.69a10.72,10.72,0,0,1-9,4.57,11.47,11.47,0,0,1-8.41-3.51q-4.41-4.45-4.41-13.34,0-8.52,4.6-13a11.22,11.22,0,0,1,8.11-3.35,10.86,10.86,0,0,1,9.15,4.53q3.4,4.53,3.4,12.2Q208.57,329.84,205.1,334.43ZM224.21,339l-4.43-11.83a6.85,6.85,0,0,0-.23-.8c-.11-.34-.24-.72-.4-1.19l.06,2.2V339h-8.93V305.77h9.19q6.07,0,9.08,2.39,3.83,3.05,3.83,8.69,0,6-5.15,8.32L233.91,339ZM226,210.61a11.46,11.46,0,0,1-8.41-3.51q-4.41-4.44-4.41-13.34,0-8.52,4.6-13a11.22,11.22,0,0,1,8.11-3.34,10.85,10.85,0,0,1,9.15,4.53q3.39,4.53,3.4,12.2,0,7.33-3.47,11.92A10.71,10.71,0,0,1,226,210.61Zm11.62,20.21h25.6v68.85h-25.6Zm24.16,82.91h-5.14V339h-9V313.73h-4.95v-8h19.06ZM284.05,339,282,327.36q-.61-3.37-.91-5.85c-.1-.82-.19-1.5-.26-2s-.12-1-.15-1.25c-.07.59-.18,1.68-.33,3.29q-.1,1.22-.24,2.58t-.33,2.86l-1.56,12H269.8l-7.4-33.23h8.86l1.47,9.15q.84,5.46,1.16,8.58l.3,3,.28-2.6q.44-4.57,1.12-8.68l1.62-9.49h7.47l1.45,8q1,5.58,1.81,13.19.24-3.43.52-6.07t.63-4.8l1.63-10.31h8.75L292.74,339Zm37.06-4.57a10.72,10.72,0,0,1-9,4.57,11.47,11.47,0,0,1-8.41-3.51q-4.41-4.45-4.41-13.34,0-8.52,4.6-13a11.22,11.22,0,0,1,8.11-3.35,10.86,10.86,0,0,1,9.15,4.53q3.4,4.53,3.4,12.2Q324.58,329.84,321.11,334.43Zm3.79-135.19V177.39h9v21.3a6.43,6.43,0,0,0,.53,3.06,2.26,2.26,0,0,0,3.56.06,6.82,6.82,0,0,0,.5-3.1V177.39h9v23.09a10.29,10.29,0,0,1-.93,4.69,9.2,9.2,0,0,1-3,3.41,11.58,11.58,0,0,1-6.91,2,12.93,12.93,0,0,1-7.72-2.24Q324.91,205.52,324.91,199.24Z"/><path class="cls-1" d="M100.7,213.29a35.3,35.3,0,0,0-12.16,2.15,8.74,8.74,0,0,1-6.08-8.32,7,7,0,0,1,7-6.95,4.94,4.94,0,0,1,4.94,4.93,3.66,3.66,0,0,1-3.65,3.65A2.77,2.77,0,0,1,87.93,206a1.51,1.51,0,0,0-3,0,5.78,5.78,0,0,0,5.78,5.78,6.68,6.68,0,0,0,6.67-6.67,8,8,0,0,0-8-7.95,10,10,0,0,0-10,10,11.73,11.73,0,0,0,5.45,9.9,35.36,35.36,0,1,0,15.8-3.73ZM88.45,236.61a3.64,3.64,0,1,1-3.65,3.64A3.64,3.64,0,0,1,88.45,236.61Zm12.24,35.65a15.84,15.84,0,0,1-15.82-15.82,1.51,1.51,0,1,1,3,0,12.8,12.8,0,0,0,25.61,0,1.51,1.51,0,1,1,3,0A15.84,15.84,0,0,1,100.69,272.26Zm12.24-28.37a3.64,3.64,0,1,1,3.64-3.64A3.65,3.65,0,0,1,112.94,243.9Z"/></svg>