<?xml version="1.0" encoding="utf-8"?>
<!-- Generator: Adobe Illustrator 21.0.0, SVG Export Plug-In . SVG Version: 6.00 Build 0)  -->
<svg version="1.1" id="Layer_1" xmlns="http://www.w3.org/2000/svg" xmlns:xlink="http://www.w3.org/1999/xlink" x="0px" y="0px"
	 viewBox="0 0 264.4 182" style="enable-background:new 0 0 264.4 182;" xml:space="preserve">
<style type="text/css">
	.st0{fill:#2A868D;}
</style>
<g>
	<path class="st0" d="M11.7,178.4c-0.7,0-1.4-0.6-1.6-1.3l-1.6-10.4v10c0,0.9-0.8,1.7-1.7,1.7H5.6c-0.9,0-1.7-0.7-1.7-1.7v-27.7
		c0-0.9,0.7-1.7,1.7-1.7H7c0.7,0,1.4,0.6,1.6,1.3l3.6,18.5l3.6-18.5c0.1-0.7,0.9-1.3,1.6-1.3h1.4c0.9,0,1.7,0.7,1.7,1.7v27.7
		c0,0.9-0.7,1.7-1.7,1.7h-1.3c-0.9,0-1.7-0.7-1.7-1.7v-9.9l-1.5,10.2c-0.2,0.7-0.9,1.3-1.6,1.3H11.7z"/>
	<path class="st0" d="M35.4,169.9h-4.7l-1.6,7.2c-0.2,0.7-0.9,1.3-1.6,1.3h-1.3c-1.1,0-1.8-0.9-1.6-2l2.2-9.8l4.2-18
		c0.2-0.7,0.9-1.3,1.6-1.3h1c0.7,0,1.5,0.6,1.6,1.3l6.3,27.7c0.2,1.1-0.5,2-1.6,2h-1.3c-0.7,0-1.4-0.6-1.6-1.3L35.4,169.9z
		 M31.8,165.4h2.6c-0.5-2.2-0.4-3.4-1.3-7.4L31.8,165.4z"/>
	<path class="st0" d="M56.6,148.2c0.2-0.4,0.9-0.8,1.4-0.8h1.6c1.4,0,2.2,1.3,1.4,2.5l-7.7,12.4l7.7,13.6c0.6,1.2-0.1,2.5-1.5,2.5
		h-1.5c-0.5,0-1.2-0.4-1.4-0.8l-6.2-10.8l-0.6,0.8v9.1c0,0.9-0.7,1.7-1.7,1.7H47c-0.9,0-1.7-0.7-1.7-1.7v-27.7
		c0-0.9,0.7-1.7,1.7-1.7h1.3c0.9,0,1.7,0.7,1.7,1.7v9.9L56.6,148.2z"/>
	<path class="st0" d="M76.6,147.4c0.9,0,1.7,0.7,1.7,1.7v1.2c0,0.9-0.7,1.7-1.7,1.7h-7v8.6h5.8c0.9,0,1.7,0.7,1.7,1.7v1.2
		c0,0.9-0.7,1.7-1.7,1.7h-5.8v8.7h7c0.9,0,1.7,0.7,1.7,1.7v1.2c0,0.9-0.7,1.7-1.7,1.7h-9.9c-0.9,0-1.7-0.7-1.7-1.7v-27.7
		c0-0.9,0.7-1.7,1.7-1.7H76.6z"/>
	<path class="st0" d="M102.1,156.8l3.7-8.5c0.2-0.5,1-1,1.5-1h1.5c1.2,0,2,1.1,1.5,2.3l-5.9,13.8v13.2c0,0.9-0.7,1.7-1.7,1.7h-1.3
		c-0.9,0-1.6-0.7-1.6-1.7v-13.3c-2-4.6-4-9.2-6-13.8c-0.5-1.1,0.2-2.3,1.5-2.3h1.5c0.6,0,1.3,0.5,1.5,1L102.1,156.8z"/>
	<path class="st0" d="M112.7,156.4c0-5.8,2.5-9,7.5-9c5.1,0,7.5,3.1,7.5,9v13c0,3.6-1,5.8-2.4,7.2c-1.5,1.5-3.5,1.8-5.2,1.8
		c-1.7,0-3.6-0.4-5.1-1.8c-1.4-1.4-2.4-3.5-2.4-7.2V156.4z M117.3,169.4c0,3,1,4.5,2.9,4.5c1.9,0,2.9-1.3,2.9-4.5v-13
		c0-3.1-1-4.4-2.9-4.4c-2,0-2.9,1.4-2.9,4.4V169.4z"/>
	<path class="st0" d="M132.9,149c0-0.9,0.7-1.7,1.6-1.7h1.3c0.9,0,1.7,0.7,1.7,1.7v20.9c0,2.4,0.7,3.9,3,3.9c2.3,0,3-1.7,3-3.9V149
		c0-0.9,0.7-1.7,1.6-1.7h1.3c0.9,0,1.7,0.7,1.7,1.7v20.9c0,5.2-2.2,8.4-7.5,8.4c-5.5,0-7.5-3.5-7.5-8.4V149z"/>
	<path class="st0" d="M168.7,176.7c0,0.9-0.7,1.7-1.7,1.7h-1.3c-0.9,0-1.7-0.7-1.7-1.7V169c0-2.3-1.3-3.6-3.5-3.6h-2.1v11.3
		c0,0.9-0.7,1.7-1.6,1.7h-1.3c-0.9,0-1.7-0.7-1.7-1.7V149c0-0.9,0.7-1.7,1.7-1.7h5.8c5.7,0,7.6,2.9,7.6,9c0,2.9-0.5,5.2-1.9,6.6
		c-0.1,0.1-0.2,0.2-0.4,0.4c1.3,1.4,2,3.3,2,5.7V176.7z M158.5,160.8h2.1c2.6,0,3.9-1.3,3.9-4.4c0-3.1-0.7-4.4-3.1-4.4h-2.9V160.8z"
		/>
	<path class="st0" d="M193.1,178.4c-0.7,0-1.4-0.6-1.6-1.3l-1.6-10.4v10c0,0.9-0.8,1.7-1.7,1.7H187c-0.9,0-1.7-0.7-1.7-1.7v-27.7
		c0-0.9,0.7-1.7,1.7-1.7h1.4c0.7,0,1.4,0.6,1.6,1.3l3.6,18.5l3.6-18.5c0.1-0.7,0.9-1.3,1.6-1.3h1.4c0.9,0,1.7,0.7,1.7,1.7v27.7
		c0,0.9-0.7,1.7-1.7,1.7h-1.3c-0.9,0-1.7-0.7-1.7-1.7v-9.9l-1.5,10.2c-0.2,0.7-0.9,1.3-1.6,1.3H193.1z"/>
	<path class="st0" d="M207.7,156.4c0-5.8,2.5-9,7.5-9c5.1,0,7.5,3.1,7.5,9v13c0,3.6-1,5.8-2.4,7.2c-1.5,1.5-3.5,1.8-5.2,1.8
		c-1.7,0-3.6-0.4-5.1-1.8c-1.4-1.4-2.4-3.5-2.4-7.2V156.4z M212.3,169.4c0,3,1,4.5,2.9,4.5c1.9,0,2.9-1.3,2.9-4.5v-13
		c0-3.1-1-4.4-2.9-4.4c-2,0-2.9,1.4-2.9,4.4V169.4z"/>
	<path class="st0" d="M235,166.2l4.1-17.5c0.1-0.7,0.9-1.3,1.6-1.3h1.3c1.1,0,1.8,1,1.6,2l-6.5,27.7c-0.2,0.7-0.9,1.3-1.6,1.3h-1
		c-0.7,0-1.5-0.6-1.6-1.3l-6.5-27.7c-0.3-1.1,0.5-2,1.6-2h1.3c0.7,0,1.4,0.6,1.6,1.3L235,166.2z"/>
	<path class="st0" d="M259.6,147.4c0.9,0,1.7,0.7,1.7,1.7v1.2c0,0.9-0.7,1.7-1.7,1.7h-7v8.6h5.8c0.9,0,1.7,0.7,1.7,1.7v1.2
		c0,0.9-0.7,1.7-1.7,1.7h-5.8v8.7h7c0.9,0,1.7,0.7,1.7,1.7v1.2c0,0.9-0.7,1.7-1.7,1.7h-9.9c-0.9,0-1.7-0.7-1.7-1.7v-27.7
		c0-0.9,0.7-1.7,1.7-1.7H259.6z"/>
</g>
<g>
	<path class="st0" d="M59.7,32.1c0.1-0.3,0-0.4-0.1-0.7c-0.1-0.3-0.3-0.5-0.3-1c0.1-0.1,0.1-0.4,0.3-0.5c0.3-0.4,0.5-0.8,0.7-1.4
		c0.5-1.2,1.1-2.3,1.8-3.4c0.7-1.1,1.4-2.2,1.8-3.6c0.1-0.3,0.3-0.7,0.3-1.1c0.1-1.4,0.3-2.7,0.3-4c0-0.8,0-1.5-0.1-2.2
		c-0.1-1.2-0.8-2.2-1.6-3c-1.1-1.1-2.3-1.9-3.8-2.1c-1-0.1-2.2-0.1-3.3,0c-0.7,0-1.2,0.1-1.8,0.4c-0.8,0.1-1.5,0.5-2.1,1.1
		c-0.7,0.7-1.5,1.4-2.1,2.1c-0.4,0.7-1,1.2-1.4,1.8c-0.1,0.3-0.3,0.4-0.5,0.7c-1.1,1.1-1.9,2.2-2.9,3.3c-0.8,0.5-1.2,1.2-1.6,1.9
		c-0.5,1-1.2,1.8-1.8,2.7c-1,1.2-1.8,2.6-2.6,4c-0.3,0.7-0.7,1.2-1.2,2.1c-0.3,0.4-0.4,1-0.7,1.4c-0.4,1-0.7,1.8-1.2,2.7
		c-0.5,1.1-0.8,2.5-1.2,3.6c-0.1,0.4-0.1,0.7-0.4,1.1c-0.1,0.1-0.3,0.4-0.3,0.7c-0.1,0.8-0.5,1.6-1.1,2.5c-0.1,0.4-0.3,1-0.3,1.4
		c-0.1,1.2-0.5,2.5-1.2,3.6c-0.4,0.5-0.7,1.1-1,1.6c-0.3,0.4-0.4,1.1-0.4,1.5l0.3-0.3c0.3-0.1,0.3-0.4,0.5-0.3
		c0.3,0.1,0.1,0.4,0,0.5c-0.3,1-0.5,1.9-1.1,2.7c-0.4,0.8-1,1.8-1.2,2.7l-0.4,2.7c-0.1,0.7-0.1,1.4-0.4,2.1C27,59.8,27,60.1,27,60.4
		c-0.3,1.5-0.4,2.7-0.3,4v0.4c-0.4,0.7-0.1,1.6-0.4,2.3c-0.1,0.3-0.1,0.5-0.1,1.1c0.3,1,0.3,1.9,0.1,2.9c0,1.1,0.1,2.1,0.1,3
		c0,1.2,0,2.2,0.1,3.2c0,0.4,0,0.7-0.1,1.1c-0.1,1.1-0.1,2.1-0.1,3.3c0.1,0.3,0.1,0.4,0,0.7c0,0.3,0.1,0.5,0.3,1
		c0.3,0.4,0.3,0.8,0.3,1.4c0,0.3,0,0.5,0.1,0.8c0,0.5,0.1,1,0.1,1.5c-0.1,0.5-0.1,1,0,1.4c0.4,1,0.3,1.9,0.4,2.9v0.5
		c0.5,1.5,1.1,3.2,2.1,4.5c0.3,0.5,0.5,1.1,0.8,1.5l0.3,0.4c0.7,0.7,1.1,1.4,2.1,1.5c1.1,0.4,2.1,0.5,3.2,0c1.4-0.5,2.6-1.2,3.8-2.1
		c1.5-1.1,3-2.2,4.5-3.6c0.8-1,1.5-1.9,2.2-2.9c0.1-0.3,0.3-0.4,0.1-0.7c-0.1-0.4,0-0.8,0.1-1.2c0-0.8,0.3-1.5,0.3-2.3l0.1-0.1
		c0.1-0.8-0.1-1.8,0.4-2.6c0.1-1,0.3-1.9,0.5-2.9l0.4-2.7c0.3-1.1,0.4-2.2,0.5-3.3c0.1-0.3,0.1-0.5,0.1-1c-0.1-0.7,0-1.4,0.1-1.9
		c0.3-1,0.4-1.8,0.5-2.7c0.1-0.8,0.4-1.9,0.5-2.9c0.1-0.4,0.1-0.8,0.4-1.4c0.1-0.4,0-0.5-0.5-0.7l-1-0.4c-1.2-0.3-2.3-0.7-3.4-1.2
		c-0.7-0.3-1.2-0.7-1.6-1.2l-0.8-1c-0.1-0.3-0.1-0.5,0.1-0.7c0.1-0.1,0.1-0.3,0.4-0.3c0.7-0.3,1.4-0.5,2.1-0.7
		c2.1-0.3,4.3-0.5,6.5-0.5c1.4,0.1,2.7,0.1,4,0.1c0.3,0,0.4-0.1,0.5-0.3c0.5-0.4,0.7-0.4,1.1,0c0,0.1,0.1,0.1,0.1,0.1
		c0.5,0,1,0.3,1.4,0.4h0.3c0.5-0.4,1.1-0.3,1.6-0.3c0.8,0.3,1.5,0.3,2.3,0c1-0.1,1.8-0.1,2.6-0.1c0.4,0,0.7,0.1,1,0.3
		c0.3,0.1,0.5,0.4,0.7,0.7c0,0.3,0.1,0.4,0.3,0.5c0.1,0.1,0.1,0.3,0.1,0.4c-0.1,0.4-0.1,1-0.1,1.2v0.5c-0.1,0.8-0.3,1.6-0.5,2.5
		c0,0.3-0.3,0.7-0.4,1.1c-0.4,0.5-0.8,1.2-0.8,2.2L66.3,69c-0.3,0.5-0.4,1.1-0.4,1.5c-0.3,1.2-0.4,2.3-0.7,3.4l-0.4,2.3
		c-0.1,0.8-0.1,1.6-0.3,2.6c0,0.8,0,1.6-0.1,2.6c-0.1,0.3,0,0.8,0,1.2c0,0.3,0.1,0.8,0,1.1c-0.1,1,0,1.9,0,2.9
		c-0.1,1.5-0.1,2.9-0.1,4.4v0.4c-0.3,2.1-0.3,4.1-0.3,6.2c0.1,1.5,0.1,3.2,0.3,4.7v1c0.1,0.7,0.1,1.4,0.3,2.2c0,0.8,0.1,1.9,0.3,2.7
		l0.8,5.1l0.4,1.8c0.1,0.4,0.3,0.7,0.3,1.2c-0.1,0.3,0,0.7,0.3,1c0.3,0.1,0.4,0.4,0.3,0.7c-0.1,0.4,0,0.8,0.1,1.1
		c0,0.5,0.1,1.1-0.3,1.5v0.1c-0.1,0.3,0,0.5,0.1,0.7l0.4,0.4v0.3l-0.4,0.5c-0.5,0.4-1,0.7-1.6,0.8c-0.1,0-0.3,0.1-0.5,0.1
		c-0.4,0.1-0.8,0.3-1.2,0.7c-0.1,0.4-0.4,0.7-1,0.7c-0.1,0-0.3,0.1-0.3,0.1c-0.8,0.5-1.6,0.8-2.5,1c-1.8,0.4-3.7-0.1-5.4-0.5
		l-0.4-0.4c-0.3-0.1-0.4-0.3-0.5-0.4c-1.1-0.5-2.1-1.5-3-2.6c-0.4-0.4-0.8-0.8-1.1-1.2c-0.1-0.3-0.3-0.4-0.5-0.5
		c-0.3-0.3-0.4-0.7-0.4-1.1c-0.1-0.3-0.3-0.5-0.5-0.8l-1-1.2c-0.4-0.4-0.7-1-0.7-1.6c-0.1-0.1,0-0.3-0.1-0.4
		c-0.5-0.5-0.1-1.1-0.3-1.8c0,0,0.1-0.3,0.3-0.3l0.3,0.1l0.4,1.1h0.1h0.1v-0.4v-0.7c-0.4-1.1-0.5-2.3-0.7-3.4c0-0.5,0-1.2-0.4-1.6
		c-0.1,0,0-0.1,0-0.3c-0.1-0.7,0-1.4,0-1.9c0-0.1,0-0.4-0.1-0.5c-0.3-0.8-0.3-1.6-0.3-2.5v-0.4c-0.1-0.4-0.4-0.5-0.8-0.3l-0.1,0.1
		c-1.6,1.5-3.6,2.7-5.2,4.1c-1.2,1.2-2.7,2.1-4.3,2.7c-1.1,0.5-2.2,0.8-3.3,1c-1.9,0.3-3.6,0.4-5.4,0.3c-0.7-0.1-1.5-0.1-2.5-0.4
		c-0.8-0.1-1.5-0.4-2.2-1l-1.4-1c-0.7-0.4-1.4-0.8-1.8-1.6c-0.7-0.4-1.1-1.1-1.5-1.5c-0.5-0.5-1-1.1-1.5-1.5l-0.3-0.4
		c-0.1-0.3-0.3-0.4-0.4-0.5c-0.4-0.5-1-0.8-1.2-1.4l-1-1.8c-0.1,0-0.1-0.1-0.3-0.1C12,99.1,12,98.9,12,98.8
		c-0.4-0.8-0.8-1.6-1.2-2.3c-0.1,0-0.3-0.1-0.3-0.3c-0.1-0.5-0.4-0.8-0.7-1.2H9.4C9.2,94.8,9,94.5,9,94.3c0.1-0.8,0-1.5-0.3-2.2
		c0-0.1-0.3-0.1-0.4,0c-0.4-0.4-0.5-1-0.7-1.6c-0.3-1.2-0.7-2.3-1-3.7c-0.1-0.4-0.1-1-0.3-1.4v-0.3c-0.7-1.2-0.5-2.5-1-3.7
		c-0.1-0.7,0-1.1,0.3-1.6C6,79.3,6.1,78.9,6,78.3c-0.1-0.3-0.1-0.5-0.1-0.8v-0.1l-0.1,0.1v0.4c0,0.1-0.1,0.4-0.3,0.7H5.3H5
		c-0.1-1.8-0.3-3.4-0.3-5.4c0-0.4,0-0.8,0.1-1.2C5,71.1,5.3,70,5,68.9c0-1.4,0-2.7,0.3-4.1V62c0.1-3.3,0.5-6.5,1.4-9.6l1.2-4.5
		c0-0.3,0.1-0.5,0.3-0.8c0.4-0.7,0.5-1.4,0.8-1.9l0.8-2.5c0-0.3,0.1-0.4,0.3-0.5c0.4-1,1-1.6,1.4-2.3c0.4-0.3,0.7-0.5,1.1-0.5
		c0.1-0.1,0.3-0.3,0.1-0.4c0-0.1-0.1-0.1-0.3-0.1c0.1-0.3,0.1-0.5,0.5-0.7c0.4-0.1,0.7-0.5,1-1.1c0.1-0.3,0.3-0.7,0.5-1.1
		c0.1-0.3,0.4-0.8,0.4-1.4c0-0.4,0.1-1,0.7-1.2c0.1,0,0.1-0.1,0.3-0.3c0-0.3,0.1-0.4,0.3-0.5c0.3-0.1,0.4-0.3,0.5-0.7
		c0-0.4,0.3-0.8,0.5-1.2c0.1-0.3,0.4-0.7,0.7-1l0.5-0.4c-0.1-0.4-0.1-0.8,0.1-1.1c0.1-0.1,0.3-0.3,0.4-0.3c1.1-0.4,1.5-1.4,1.9-2.2
		c0.5-0.3,1-0.7,1.1-1.2c0.8-1.4,1.6-2.7,2.9-3.8c0.8-1,1.6-2.1,2.5-3.2c0.4-0.7,1-1.2,1.5-1.9l4.5-3.8c0.5-0.4,1-1.1,1.6-1.4
		c0.5-0.8,1.2-1.2,1.8-1.8c0.4-0.4,1.1-0.7,1.5-1.1L39.5,6c0.3-0.3,0.5-0.7,1-0.8c0,0.1,0,0.3,0.3,0.4c0.1,0.3,0.4,0.3,0.7,0.1
		c0.4,0,0.7-0.1,1-0.4c0.4-0.4,0.7-0.5,1.2-0.4c0.3,0,0.8,0,1.1-0.3c0.4-0.3,0.8-0.4,1.4-0.4c1.5-0.4,3-0.8,4.5-0.8h0.3
		c1.4-0.5,2.7-0.3,4.1-0.3c0.1,0,0.4,0.1,0.7,0.1c0.3,0,0.7,0.1,1,0c1.6,0,3,0.1,4.4,0.4c1.9,0.3,3.7,1,5.2,2.1
		c0.7,0.4,1.2,1.1,1.8,1.8c0.4,0.7,0.8,1.5,1.2,2.3c0.4,0.5,0.5,1.2,0.7,1.9c0.4,1.1,0.5,2.2,0.5,3.3v1.5c0.1,2.1-0.5,4-1.2,6
		c-0.4,1-1,1.8-1.1,2.7c-0.3,1.1-1,2.1-1.5,3c-0.5,1.1-1.2,2.1-1.8,2.9c-0.4,0.5-0.8,1-1.5,1.2c-0.3,0-0.4,0.1-0.5,0.3
		c-0.3,0.3-0.5,0.3-1,0.1h-0.5h-0.8C59.7,32.9,59.7,32.6,59.7,32.1z M10,94.7c0,0.1-0.1,0.1-0.1,0.3C9.8,94.8,10.1,94.8,10,94.7z
		 M26.2,90.8l0.8,2.1c0,0.1,0,0.1,0.1,0.1v-0.3l-0.8-2.1C26.2,90.7,26.2,90.8,26.2,90.8z M29.3,49.6c0.1-0.1,0.1-0.1,0.1-0.3
		l-0.3,0.3C29.2,49.6,29.3,49.8,29.3,49.6z"/>
	<path class="st0" d="M86.2,105c-0.8-0.1-1.6-0.5-2.6-1.1c-0.5-0.3-1.1-0.7-1.6-1.2c-0.8-0.4-1.2-1.1-1.6-1.9l-0.8-1.4
		c-0.4-0.8-0.8-1.8-0.8-3c0-0.7-0.1-1.2-0.4-1.8c-0.1-0.4-0.1-0.8-0.3-1.2V93c-0.3-0.4-0.5-0.8-0.5-1.4v-1.2l0.1-1.1v-1.2
		c-0.1-0.7-0.1-1.2,0-1.9l0.1-1.6c0-0.5,0-1.1,0.1-1.6c0.1-1.2,0.3-2.3,0.5-3.4l0.7-4.5l0.4-1.5l0.3-1.5c0.4-1.5,0.7-3,1.1-4.4
		c0.5-2.7,1.2-5.1,2.1-7.4l0.3-0.7l0.1-0.7l1.1-3.4l0.4-1.2c0.4-0.8,0.7-1.8,1-2.7l0.8-1.9c0.5-1.2,1-2.6,1.2-3.7l0.4-1.1l0.4-1.9
		c0.1-0.8,0.4-1.5,0.7-2.3l0.3-0.8c0-0.3,0.1-0.5,0.3-0.8v-0.3c0-0.7,0.4-1.2,0.8-1.6l0.4-0.7l0.3-0.4l0.3-0.3
		c-0.1-0.3-0.1-0.7,0.1-1.1c0.3-0.3,0.7-0.5,1.1-0.5c0.3,0,0.5,0,0.7,0.1c0.8,0.1,1.4,0.3,2.1,0.5l0.4,0.1l1,0.4l0.3,0.1
		c1.1,0.7,2.2,1.4,3.3,2.3c0.3,0.3,0.8,0.8,1.2,1.5l0.4,0.4c0.5,0.5,0.8,1.4,1,2.2v0.3c0.1,0.1,0.1,0.4,0.1,0.5v0.3
		c0,0.3,0.1,0.7,0,1v2.5c0,0.8-0.1,1.5-0.4,2.5c0,0.4-0.1,0.7-0.1,1c-0.1,1-0.4,1.8-0.7,2.9l-0.4,0.8l-0.4,1.6
		c-0.1,0.4-0.3,0.8-0.5,1.2c-0.1,0.1-0.1,0.1-0.1,0.3l-0.3,1c-0.3,0.4-0.4,0.8-0.5,1.2L99.5,59c-0.1,0.5-0.4,1.1-0.5,1.6
		c0,0.1-0.1,0.3-0.1,0.5v0.1c-0.1,0.1-0.1,0.4-0.3,0.7c-0.4,0.7-0.5,1.5-0.8,2.3c0,0.4-0.1,1-0.7,1.4c0,0.1-0.1,0.3-0.1,0.5
		c0,0.3-0.1,0.7-0.1,1.1l-0.1,0.1c0,0.3,0,0.4-0.1,0.7c-0.1,0.7-0.4,1.5-0.5,2.3c-0.1,0.5-0.1,1-0.4,1.4c-0.3,0.8-0.4,1.6-0.7,2.6
		V75c-0.1,0.3-0.1,0.5-0.3,0.8L94.3,77L94,78.9c-0.1,0.3-0.1,0.5-0.1,0.8v0.1c-0.1,0.1-0.1,0.4-0.3,0.7c-0.1,0.3-0.1,0.5-0.1,0.8
		c-0.1,0.3-0.1,0.5-0.1,0.7c-0.1,0.1-0.1,0.4-0.1,0.5c-0.1,0.3-0.1,0.5-0.3,0.8c0,0.3-0.1,0.4-0.1,0.7l-0.1,0.5c0,0.1,0,0.4-0.1,0.5
		c0,0.4-0.1,0.8-0.3,1.1c0,0.4-0.1,0.8-0.1,1.2c0,0.5,0,1.2-0.1,1.9v0.1c0.1,0.5,0.3,1.2,0.3,1.8l0.1,1l0.1,0.5
		c0,0.4,0.1,0.7,0.3,1.1l0.3,1.1c0.1,0.1,0.1,0.3,0.1,0.4l0.4,1v0.1l0.3,0.7c0.8-0.3,1.5-0.7,2.2-1.1l1.4-1l0.5-0.4
		c0.1,0,7-6.5,7.3-7.1c0.3-0.4,0.5-0.8,0.8-1.4l1.9-2.9l1.8-2.7c0.3-0.4,0.5-0.8,0.7-1.2l0.4-0.7c0.3-0.5,8-9.9,8.2-10.4l1.8-3.2
		l1.5-2.9c0.7-1.4,1.5-2.1,2.2-3.6l0.1-0.3c0.1-0.4,0.3-0.7,0.3-1c0-0.4,0.1-0.8,0.4-1.1l0.1-0.1c0.3-0.3,0.5-0.5,0.8-1
		c0.4-0.3,0.8-1.1,1.1-1.2l0.1-0.1c0.3-0.1,0.7-0.3,1-0.3h1.1c0.8,0.1,1.1,0.4,1.2,0.7c0.3,0.3,0.4,0.7,0.1,1.4l-0.4,1.2l-0.1,0.1
		l-0.1,0.4l-0.1,0.1c-0.5,1-1.1,2.2-1.6,3.2c-0.4,1-1,1.9-1.5,2.9c-0.1,0.4-0.4,0.8-0.7,1.2V65c-0.1,0.1-0.3,0.3-0.3,0.5
		c-0.3,0.7-0.7,1.4-1.2,2.2c-0.3,0.7-8.1,10.3-8.5,11.1c-0.5,1.1-1.1,2.1-1.9,3c-0.4,0.5-0.7,1.1-1,1.6l-0.4,0.5
		c-0.3,0.7-0.7,1.4-1.4,1.9c0,0,0,0.1-0.1,0.3l-1.2,1.6c-0.1,0-0.1,0.1-0.3,0.1l-0.5,0.8l-0.4,0.4c-0.5,0.5-1,1.2-1.4,2.1l-6.7,6.7
		c-0.8,1-1.6,1.8-2.6,2.6l-0.4,0.4c-0.7,0.5-1.4,1.2-2.3,1.8c-0.5,0.5-1.1,1-1.8,1.4c-0.1,0-0.1,0.1-0.3,0.1
		c-1.2,0.8-2.5,1.1-3.7,1.2h-0.4C88.2,105.5,87.1,105.4,86.2,105z M100.3,24.1c-0.7-0.1-1.1-0.5-1.6-1c-0.3-0.4-1.4-2.5-1.4-2.9
		c-0.4-1.2-0.3-2.7,0-4.1c0-1.1,0.1-3.7,0.8-4.5c0.7-1.2,1.9-1.4,2.7-1.6c1-0.3,2.1,0,2.6,0.1c0.1,0.1,0.3,0.3,0.4,0.3
		c0.8,0.1,1.6,0.5,2.5,1c0.7,0.3,1.4,0.7,1.9,1.1c0.8,0.5,1.4,1,1.5,1.5c0.4,0.8,0.7,2.3,0.5,2.6c0,3.4-1,5.1-1.2,5.9
		c-1,1.4-3.2,1.9-5.4,1.9c-0.8,0.1-1.9,0.4-2.9,0C100.6,24.3,100.4,24.1,100.3,24.1z"/>
	<path class="st0" d="M171.7,58.4c0.4,0,0.7,0.4,0.5,0.7c-0.1,0.5-0.4,1-0.5,1.4c-0.8,1.1-1.4,2.2-1.8,3.3c-0.4,0.8-3.2,7.4-4.8,11
		c-1.8,3.8-3.3,7.7-3.2,7.7c-0.8,1.2-2.2,5.5-7.1,13.5l-0.3,0.4c-0.3,0.8-0.8,1.4-1.4,2.1l-2.1,2.5c-0.5,0.7-1.1,1.5-1.6,2.2
		c-0.4,0.4-0.7,0.8-1.1,1.4c-0.4,0.7-0.8,1.4-1.4,2.1c0,0,0,0.1-0.1,0.1c-1,1.1-1.8,2.5-2.9,3.4c-0.4,0.3-0.7,0.5-0.8,0.8
		c-0.7,1.1-1.6,1.9-2.3,2.9c-0.7,0.8-1.4,1.8-2.3,2.3c-0.4,0.4-1,0.8-1.5,1.1c-1.6,1-3.3,1.8-5.2,1.9c-0.4,0.1-0.8,0.1-1.2,0.3
		c-0.7,0.1-1.5,0.3-2.6,0.3c-1.8,0-3.4-0.7-5.2-1.6c-1.4-0.8-2.5-1.8-3.6-3c-0.1-0.1-0.3-0.4-0.5-0.5c-0.5-0.5-1-1.2-1.4-2.1l-0.4-1
		c-0.3-0.7-0.4-1.4-0.1-2.2c0-0.1,0.1-0.3,0.1-0.4c-0.3-0.8,0-1.9-0.3-2.7c-0.1-0.4,0-1,0.1-1.5c0.1-0.3,0.1-0.7,0.1-1.1
		c0-1.2,0-2.7,0.1-4c0.3-2.7,1.1-5.5,2.3-8c0.3-0.4,0.4-0.8,0.7-1.4c1-2.2,2.1-4.4,3.3-6.5c1.5-2.3,2.7-4.7,4.1-6.9
		c0-0.3,0.1-0.4,0.3-0.7c1-1.9,2.2-3.8,3.6-5.8c0.5-0.8,1-1.6,1.5-2.6c0.3-0.3,0.4-0.7,0.5-1.2c0.1-0.1,0-0.3-0.1-0.4h-0.3
		c-1.1-0.3-2.3-0.8-3.3-1.2c-0.1-0.1-0.3-0.1-0.4-0.1c-0.4-0.1-4.7-2.6-5.1-3c-0.5-0.7-2.2-1.9-2.5-2.7l-0.4-1.2
		c-0.5-1.5-0.1-4.9,0.3-6.6v-0.4c0-1.1,3.3-8.1,3.7-9.2c1.2-2.6,2.2-4,3.8-5.8c1.8-1.8,3-1.8,3.3-1.8c1,0,3,0.4,4,1.1
		c0.5,0.4,1.1,0.3,1.6,0.7c0.7,0.4,1.2,1.2,1.8,1.8c0.5,0.3,0.8,1,0.8,1.6c0.1,0.3,0.3,1.5,0.1,2.3c-0.1,1.1-0.1,2.1-0.4,3.3
		c-0.1,1.1-1.1,3-2.7,6c-0.3,0.4-0.3,0.8-0.5,1.2l-0.4,1c-0.1,0.3-0.3,0.4-0.3,0.7c-0.3,1.1-1,1.9-1.6,2.9c-0.4,0.5-0.8,1-1.1,1.5
		c-0.3,0.4-0.3,0.8-0.1,1.2c0.3,0.8,0.8,1.2,1.5,1.6c0.1,0.1,0.3,0.3,0.4,0.1c1,0,1.8,0.3,2.7,0.4c1,0.1,1.9,0.5,2.7,1.2
		c1.5,0.8,2.9,1.9,4.3,3c0.3,0.3,0.5,0.5,0.7,1c0.1,0.1,0.4,0.3,0.4,0.4c0.4,0.8,1,1.8,1,2.7v0.1c0,0.4,0.1,0.8,0.1,1.1l-0.4,1.6
		c-0.7,2.1-1.2,3.8-1.9,5.6l-1.5,2.9c0,0.3-0.3,0.5-0.3,0.8c-0.4,1.4-1.1,2.5-1.6,3.7c-0.1,0.1-0.1,0.3-0.1,0.4
		c-0.7,1.4-1.2,2.5-1.8,3.7c-0.4,1-1,1.9-1.2,3c-0.3,0.5-0.5,1.2-1,1.8c-0.7,1.4-1.2,2.7-1.8,4.1c-0.1,0.1-0.1,0.1-0.1,0.3
		c-0.7,1.2-1.1,2.6-1.6,3.8c-0.4,1.1-0.7,2.2-1,3.3c0,0.4-0.1,0.7-0.1,1.1c-0.1,0.1-0.1,0.5-0.3,0.8c-0.3,0.4-0.4,0.7-0.3,1.1v0.4
		c-0.3,0.4-0.1,0.8-0.1,1.2c0,0.3,0.1,0.4,0.1,0.7c0,0.8,0.4,1.2,1,1.6c1.1,0.7,5.6-1.9,5.9-2.2c1.4-1.1,3.2-3.3,4.1-4.7
		c1.4-1.9,4.3-6.6,7.1-9.7c0.4-0.5,5.5-11.5,5.8-12.1c1.5-2.1,9.1-18.9,10.7-22.1c0,0.1,2.7-3.8,2.9-4
		C170,57.9,170.8,58.2,171.7,58.4L171.7,58.4z M135,43.2c1-2.3-1-2.1-1.8-0.7l-4.1,7.1c-0.7,1.8,0.4,3.8,1.6,1.4
		C130.8,50.9,135,43.3,135,43.2z"/>
	<path class="st0" d="M172.5,111.7c-2.2-0.5-4.3-1.4-5.9-3c-1.9-1.6-3.4-3.6-4.8-5.6c-0.1-0.1-0.3-0.4-0.3-0.5l-0.8-2.2
		c-0.7-1.6-1.1-3.3-0.8-5.1v-0.4c0,0,0-0.1-0.1,0c-0.1,0-0.3,0-0.4-0.1c-0.1-1-0.4-1.9-0.4-2.9v-1.1c0-0.3,0-0.7,0.3-1.1
		c0.1-0.3,0.1-0.5,0.1-0.8l-0.1-1.4c0-0.3,0.1-0.4,0.1-0.7s0.4-0.3,0.3-0.7c-0.4,0.1-0.4-0.3-0.4-0.5c-0.1-0.3-0.1-1.9,0-2.2
		c0.1-1.4,0.3-2.6,0.5-3.8c0.1-0.3,0.1-0.5,0.1-0.8c0-0.7,0-1.4,0.3-2.1l0.4-3c0-0.1,0-0.4-0.1-0.7c-0.1-0.3,0-0.7,0-1
		c0.1-0.4,0.3-0.7,0.3-1c0.1-0.1,0.1-0.3,0.1-0.3c0-1.2,0.4-2.2,0.7-3.3v-0.5c0-0.1,0.1-0.1,0.1-0.3c0.1-0.3,0.4-0.3,0.4-0.5
		s-0.1-0.4-0.1-0.5c0.1-0.4,0.1-0.8,0.3-1.2l0.5-2.2c0-0.4,0.1-0.7,0.5-1c0.1-0.1,0-0.3-0.1-0.3c-0.1-0.1-0.1-0.3-0.1-0.4
		c0-0.1,0.1-0.1,0.1-0.3c0.5-0.3,0.8-0.8,0.4-1.4c0-0.8,0.3-1.4,0.7-1.9c0-0.3,0.3-0.4,0.4-0.5l0.1-0.5c-0.3-0.4,0-0.7,0.3-1
		c0.3-0.3,0.5-0.5,0.5-1c0-0.1-0.1-0.1-0.3-0.1c0,0,0,0.1-0.1,0.1c0.1-0.1,0-0.3,0.1-0.4c0.3-1,0.5-2.1,1.1-3
		c0.1-0.1,0.1-0.4,0.1-0.5c0-0.1,0.1-0.1,0.1-0.3c0.7,0,0.5-0.5,0.7-0.8c0.1-0.3,0.1-0.5,0.1-0.8c0-0.1-0.1-0.3-0.1-0.3
		c0-0.1,0-0.4,0.1-0.4c0.4-0.3,0.5-0.7,0.7-1.1c0-0.1,0.1-0.3,0.3-0.4c0.1-0.1,0.1-0.3,0.1-0.4c0.1-0.3,0-0.3-0.3-0.3
		c0-0.1,0-0.4,0.3-0.5c0.3-0.3,0.4-0.4,0.3-0.8c-0.1,0,0-0.3,0.1-0.4c0.3-0.4,0.7-0.8,0.8-1.4c0-0.3,0.1-0.4,0.1-0.5
		c0-0.3,0.1-0.4,0.3-0.5l0.4-0.5c0.4-1,0.7-1.8,1-2.7c0.4-1.1,0.8-2.1,1.4-3.2l0.4-0.5c0.1-0.5,0.3-1.1,0.5-1.5
		c0.1-0.4,0.5-0.7,0.7-1.2l1.2-2.6l0.8-1.4c0.4-0.8,1-1.6,1.4-2.6c0.1-0.3,0.3-0.7,0.5-1c0.4-0.7,0.8-1.4,1.1-2.2v-0.1
		c0.7-1,1-1.9,1.5-2.7l0.3-0.4c1.8-2.6,3.7-5.1,5.8-7.3c0.5-0.5,1.2-1.1,1.4-1.9c0.1-0.3,0.3-0.4,0.5-0.4c0.4,0,0.8-0.1,1.2-0.3
		c0.3-0.1,0.5-0.3,1-0.1c1.1,0.1,2.2,0,3.3,0h0.5c0.3,0,0.5,0,0.7-0.1c0.5-0.1,1-0.1,1.5-0.1l1.9,0.4c1,0.4,1.6,1.1,2.1,1.9
		c0.3,0.7,0.5,1.5,0.4,2.2c-0.1,0.3-0.1,0.5-0.1,0.7c0.1,1-0.1,1.8-0.1,2.6c-0.1,1-0.4,1.8-0.4,2.7c0,0.4-0.1,1-0.3,1.4
		c-0.3,1.2-0.7,2.5-0.8,3.7c-0.3,0.8-0.4,1.5-0.7,2.2c-0.4,0.8-0.8,1.8-1.1,2.6c-0.3,0.7-0.4,1.2-0.5,1.9c-0.4,1.5-1,2.9-1.8,4.3
		c-0.5,1-0.8,2.1-1.4,3c-0.3,0.5-0.4,1.1-0.7,1.5c-0.7,1.2-1.2,2.5-1.8,3.8c0,0.1-0.1,0.4-0.3,0.7c-0.5,0.7-0.8,1.5-1.4,2.3
		c-0.4,0.8-0.8,1.5-1.4,2.3v0.1c-1.1,1.4-1.9,3-3,4.4c-0.4,0.5-0.8,1.2-1.2,1.9c-0.7,1.2-2.7,5.8-3.6,6.9c-1.5,2.1-4,7-4,7.3
		l-0.4,0.8l-0.4,0.8c0,0.7-0.3,1.4-0.4,2.2c0,0.5-0.1,1.2-0.3,1.9v0.5c0,1.4,0.3,9.7,0.1,11.5v0.8v1.2c0.3,0.7,0.3,1.4,0.3,2.1
		c-0.1,0.4,0,0.8,0,1.2c0.3,0.8,0.4,1.6,0.5,2.5c0,0.7,0.1,1.4,0.5,2.1c0,0.3,0.1,0.4,0.3,0.7c0.1,1,0.8,1.9,1.4,2.7
		c0.4,0.7,1.1,1.4,1.6,1.9c0.4,0.3,0.7,0.4,1.2,0.3c1-0.1,2.3-0.1,3-1c6-7.3,11.3-18,12.4-19.5c0.5-0.8,3.2-5.4,3.7-6.3
		c0.8-1.5,2.1-3,2.7-4.7l1.6-3.6c1-2.2,3.2-4.5,3.8-6.9c0-0.1,0.1-0.1,0.1-0.3c1.4-2.6,4-2.1,3.2,0.5c-0.5,1.9-4.7,9.5-5.2,10.4
		c-0.7,1-1,1.9-1.5,3c-0.4,1.1-2.6,6-3.3,7.3c0,0.1-0.1,0.3-0.3,0.4c-1,1.5-6.5,12.6-7.4,13.9c0,0.1-0.1,0.3-0.1,0.3
		c-0.3,0.5-0.5,1-0.8,1.4c-0.3,0.4-2.9,4.5-5.9,7.5l-0.5,0.5c-0.5,0.4-1,0.8-1.4,1.4c-0.8,1-1.8,1.8-2.9,2.6
		c-1.1,0.7-2.2,1.4-3.4,1.9c-1.5,0.7-3.2,1-4.8,1C174,111.8,173.2,111.8,172.5,111.7z M177.7,60.2c3.8-6.3,6.6-9.6,8.1-12.2
		c1.8-3.2,3.3-5.2,4.7-8.5c0.4-1.1,1-2.2,1.4-3.3c0.5-1.1,1.1-2.3,1.4-3.7c0.3-1.2,0.7-2.3,1.2-3.6c0.3-0.7,0.5-1.4,0.7-2.1l0.8-2.3
		c0.5-1.8,1.2-3.4,1.4-5.4c0-0.5,0.1-1.1,0.3-1.8c0.1-0.8,0.1-1.8,0.1-2.5c0-0.4,0-0.7-0.1-1c0-0.4-0.4-0.8-0.8-1.1
		c-0.3-0.1-0.7-0.1-0.8,0.1c-0.5,0.7-1.1,1.2-1.5,1.9c-0.7,1.1-1.5,2.2-2.1,3.3c0,0.1-0.1,0.3-0.3,0.4l-1.2,2.2l-0.4,1.1
		c-0.7,1.2-1,2.6-1.6,3.7l-0.8,2.2c-0.4,0.8-1,1.5-1.1,2.3c0,0.1,0,0.1-0.1,0.3c-0.4,0.8-1,1.8-1.4,2.7c-0.4,0.8-0.8,1.6-0.8,2.6
		c0.1,0.1,0,0.4-0.1,0.7l-0.8,2.2c-0.4,1-0.8,1.8-1,2.9c0,0.5-0.1,1.1-0.4,1.6c0,0.1-0.1,0.3-0.1,0.5c-0.1,1.1-0.7,2.2-1.1,3.2
		c-0.1,0.5-0.4,1-0.1,1.5c0,0-0.1,0.3-0.1,0.4c-0.1,0.3-0.3,0.5-0.5,0.8l-0.4,1c0,0.5-0.1,1.1-0.1,1.6c-0.1,0.3-0.1,0.5-0.1,0.7
		c-0.4,0.7-0.5,1.4-0.8,2.2c-0.3,1.2,0,0.7-0.3,2.1c-0.1,0.7-0.3,1.2-0.5,1.9l-0.4,1c0,0.1,0,0.3,0.1,0.3
		C177.6,60.4,177.7,60.4,177.7,60.2z"/>
	<path class="st0" d="M260.5,60.1c0,1.1-3.2,2.9-7.4,7.3c-4.3,4.4-6.2,5.2-10.6,8.4c-3.4,2.5-7.4,6.2-10.3,8.9
		c1.1,1.6,2.3,3.3,3.3,5.1c1.8,3.4,3.4,7,3.8,10.8c0.3,4,0,7.8-2.1,11.5c-0.7,1.2-1.6,2.2-3,3.2c-2.7,1.8-5.4,3.8-8,5.9
		c-0.8,0.7-1.8,1.4-2.7,2.1c-2.2,1.5-4.8,2.3-7.3,3.7c-0.4,0.3-1.1,0.4-1.6,0.5l-4.8,0.7c-0.1,0-0.4,0-0.5,0c-1-0.5-1.9-0.5-2.7-0.8
		c-1.5-0.5-3-1.2-4-2.6c-0.3-0.4-0.8-1-1.4-1.2c-1.9-1.2-2.9-3-3.3-5.1c-0.3-1.5-0.7-3-0.8-4.5c0-1.1,0-2.2,0.3-3.2
		c0.4-1.6,0.8-3.2,1.4-4.5c2.9-7.4,13.9-14.5,18.3-17.4c-0.1-0.4-0.4-0.8-0.7-1.2c-2.6-4.4-5.9-8.4-8.9-12.5
		c-2.9-4-5.4-8.1-6.5-12.8c-1.8-7.4,0.7-14,6.2-19.8c0.7-0.8,1.6-1.6,2.5-2.3c2.9-2.2,6.2-4.3,10.8-2.7c0,0,0,0.1-0.1,0.1
		c2.9,1.2,7,4.4,6,9.7c-0.5,3.2-3.3,7.1-4.9,10c-1.5,2.5-3.8,5.2-6.2,7.3c0.1,0.5,0.4,1,0.7,1.2c2.9,3.2,5.9,6.2,8.6,9.3
		c1.8,2.1,3.6,4.1,5.2,6.3l1.5-0.8c1.2-0.8,3-2.1,4.9-3.6s2.1-1.9,3.6-3.4c1.5-1.5,6-5.1,9.6-8.2c4-3.6,7.3-6.7,8.6-8.1
		C258.8,56.5,260.5,58,260.5,60.1z M223.3,99.9c-2.2-3.2-3.3-5.6-4.8-8.4c-1.6,1.4-3.8,2.9-5.8,4.4c-0.3,0.3-2.9,2.5-3,2.7
		c-1,1.5-6,7.3-6,8.9c-0.1,1-1.1,3.7-1.1,4.7c0,5.9,6.9,9.2,10,7.5c3.3-1.6,8.8-4.3,10.2-7.1C224.6,108.4,224.9,102.4,223.3,99.9z
		 M221.8,45c-2.6,0.5-3.3,1.6-4.8,4.5c0.1,0,0.1,0.1,0,0.3c-0.1,0.1-0.1,0.4-0.3,0.5c-0.1,0.5-0.3,1.1-0.3,1.5
		c-0.1,1.4,0.3,2.2,1.2,1.2C221.9,49,223,44.7,221.8,45z"/>
</g>
</svg>
