<svg xmlns="http://www.w3.org/2000/svg" xmlns:xlink="http://www.w3.org/1999/xlink" viewBox="0 0 1440 1170"><defs><style>.cls-1,.cls-4{fill:none;}.cls-2{fill:#d5e7e8;}.cls-3{clip-path:url(#clip-path);}.cls-4{stroke:#d5e7e8;stroke-miterlimit:10;stroke-width:0.23px;}.cls-5{clip-path:url(#clip-path-2);}.cls-6{clip-path:url(#clip-path-3);}.cls-7{clip-path:url(#clip-path-4);}.cls-8{fill:url(#Circular_Pattern_40);}</style><clipPath id="clip-path"><path class="cls-1" d="M80.67,159.54a39.89,39.89,0,0,1,79.77,0Z"/></clipPath><clipPath id="clip-path-2"><path class="cls-1" d="M79.77,79.77A39.89,39.89,0,1,1,0,79.77Z"/></clipPath><clipPath id="clip-path-3"><path class="cls-1" d="M80.67,79.77a39.89,39.89,0,0,1,79.77,0Z"/></clipPath><clipPath id="clip-path-4"><path class="cls-1" d="M79.77,0A39.89,39.89,0,0,1,39.89,39.89,39.89,39.89,0,0,1,0,0Z"/></clipPath><pattern id="Circular_Pattern_40" data-name="Circular Pattern 40" width="160.44" height="159.54" patternTransform="translate(-317.6 754.57) scale(0.8)" patternUnits="userSpaceOnUse" viewBox="0 0 160.44 159.54"><rect class="cls-1" width="160.44" height="159.54"/><path class="cls-2" d="M79.77,159.54a39.89,39.89,0,0,0-79.77,0Z"/><g class="cls-3"><rect class="cls-1" x="153" y="84.53" width="16.9" height="57.61"/><line class="cls-4" x1="158.07" y1="84.53" x2="158.07" y2="142.14"/><line class="cls-4" x1="154.69" y1="84.53" x2="154.69" y2="142.14"/><rect class="cls-1" x="153" y="142.14" width="16.9" height="57.61"/><line class="cls-4" x1="158.07" y1="142.14" x2="158.07" y2="199.75"/><line class="cls-4" x1="154.69" y1="142.14" x2="154.69" y2="199.75"/><rect class="cls-1" x="136.1" y="84.53" width="16.9" height="57.61"/><line class="cls-4" x1="151.31" y1="84.53" x2="151.31" y2="142.14"/><line class="cls-4" x1="147.93" y1="84.53" x2="147.93" y2="142.14"/><line class="cls-4" x1="144.55" y1="84.53" x2="144.55" y2="142.14"/><line class="cls-4" x1="141.17" y1="84.53" x2="141.17" y2="142.14"/><line class="cls-4" x1="137.79" y1="84.53" x2="137.79" y2="142.14"/><rect class="cls-1" x="136.1" y="142.14" width="16.9" height="57.61"/><line class="cls-4" x1="151.31" y1="142.14" x2="151.31" y2="199.75"/><line class="cls-4" x1="147.93" y1="142.14" x2="147.93" y2="199.75"/><line class="cls-4" x1="144.55" y1="142.14" x2="144.55" y2="199.75"/><line class="cls-4" x1="141.17" y1="142.14" x2="141.17" y2="199.75"/><line class="cls-4" x1="137.79" y1="142.14" x2="137.79" y2="199.75"/><rect class="cls-1" x="119.2" y="84.53" width="16.9" height="57.61"/><line class="cls-4" x1="134.41" y1="84.53" x2="134.41" y2="142.14"/><line class="cls-4" x1="131.03" y1="84.53" x2="131.03" y2="142.14"/><line class="cls-4" x1="127.65" y1="84.53" x2="127.65" y2="142.14"/><line class="cls-4" x1="124.27" y1="84.53" x2="124.27" y2="142.14"/><line class="cls-4" x1="120.89" y1="84.53" x2="120.89" y2="142.14"/><rect class="cls-1" x="119.2" y="142.14" width="16.9" height="57.61"/><line class="cls-4" x1="134.41" y1="142.14" x2="134.41" y2="199.75"/><line class="cls-4" x1="131.03" y1="142.14" x2="131.03" y2="199.75"/><line class="cls-4" x1="127.65" y1="142.14" x2="127.65" y2="199.75"/><line class="cls-4" x1="124.27" y1="142.14" x2="124.27" y2="199.75"/><line class="cls-4" x1="120.89" y1="142.14" x2="120.89" y2="199.75"/><rect class="cls-1" x="102.3" y="84.53" width="16.9" height="57.61"/><line class="cls-4" x1="117.51" y1="84.53" x2="117.51" y2="142.14"/><line class="cls-4" x1="114.13" y1="84.53" x2="114.13" y2="142.14"/><line class="cls-4" x1="110.75" y1="84.53" x2="110.75" y2="142.14"/><line class="cls-4" x1="107.37" y1="84.53" x2="107.37" y2="142.14"/><line class="cls-4" x1="103.99" y1="84.53" x2="103.99" y2="142.14"/><rect class="cls-1" x="102.3" y="142.14" width="16.9" height="57.61"/><line class="cls-4" x1="117.51" y1="142.14" x2="117.51" y2="199.75"/><line class="cls-4" x1="114.13" y1="142.14" x2="114.13" y2="199.75"/><line class="cls-4" x1="110.75" y1="142.14" x2="110.75" y2="199.75"/><line class="cls-4" x1="107.37" y1="142.14" x2="107.37" y2="199.75"/><line class="cls-4" x1="103.99" y1="142.14" x2="103.99" y2="199.75"/><rect class="cls-1" x="85.4" y="84.53" width="16.9" height="57.61"/><line class="cls-4" x1="100.61" y1="84.53" x2="100.61" y2="142.14"/><line class="cls-4" x1="97.23" y1="84.53" x2="97.23" y2="142.14"/><line class="cls-4" x1="93.85" y1="84.53" x2="93.85" y2="142.14"/><line class="cls-4" x1="90.47" y1="84.53" x2="90.47" y2="142.14"/><line class="cls-4" x1="87.09" y1="84.53" x2="87.09" y2="142.14"/><rect class="cls-1" x="85.4" y="142.14" width="16.9" height="57.61"/><line class="cls-4" x1="100.61" y1="142.14" x2="100.61" y2="199.75"/><line class="cls-4" x1="97.23" y1="142.14" x2="97.23" y2="199.75"/><line class="cls-4" x1="93.85" y1="142.14" x2="93.85" y2="199.75"/><line class="cls-4" x1="90.47" y1="142.14" x2="90.47" y2="199.75"/><line class="cls-4" x1="87.09" y1="142.14" x2="87.09" y2="199.75"/><rect class="cls-1" x="68.5" y="84.53" width="16.9" height="57.61"/><line class="cls-4" x1="83.71" y1="84.53" x2="83.71" y2="142.14"/><line class="cls-4" x1="80.33" y1="84.53" x2="80.33" y2="142.14"/><line class="cls-4" x1="76.95" y1="84.53" x2="76.95" y2="142.14"/><line class="cls-4" x1="73.57" y1="84.53" x2="73.57" y2="142.14"/><line class="cls-4" x1="70.19" y1="84.53" x2="70.19" y2="142.14"/><rect class="cls-1" x="68.5" y="142.14" width="16.9" height="57.61"/><line class="cls-4" x1="83.71" y1="142.14" x2="83.71" y2="199.75"/><line class="cls-4" x1="80.33" y1="142.14" x2="80.33" y2="199.75"/><line class="cls-4" x1="76.95" y1="142.14" x2="76.95" y2="199.75"/><line class="cls-4" x1="73.57" y1="142.14" x2="73.57" y2="199.75"/><line class="cls-4" x1="70.19" y1="142.14" x2="70.19" y2="199.75"/></g><path class="cls-2" d="M79.77,79.77A39.89,39.89,0,0,0,0,79.77Z"/><g class="cls-5"><rect class="cls-1" x="75.26" y="62.37" width="16.9" height="57.61"/><line class="cls-4" x1="90.47" y1="62.37" x2="90.47" y2="119.98"/><line class="cls-4" x1="87.09" y1="62.37" x2="87.09" y2="119.98"/><line class="cls-4" x1="83.71" y1="62.37" x2="83.71" y2="119.98"/><line class="cls-4" x1="80.33" y1="62.37" x2="80.33" y2="119.98"/><line class="cls-4" x1="76.95" y1="62.37" x2="76.95" y2="119.98"/><rect class="cls-1" x="58.36" y="62.37" width="16.9" height="57.61"/><line class="cls-4" x1="73.57" y1="62.37" x2="73.57" y2="119.98"/><line class="cls-4" x1="70.19" y1="62.37" x2="70.19" y2="119.98"/><line class="cls-4" x1="66.81" y1="62.37" x2="66.81" y2="119.98"/><line class="cls-4" x1="63.43" y1="62.37" x2="63.43" y2="119.98"/><line class="cls-4" x1="60.05" y1="62.37" x2="60.05" y2="119.98"/><rect class="cls-1" x="41.46" y="62.37" width="16.9" height="57.61"/><line class="cls-4" x1="56.67" y1="62.37" x2="56.67" y2="119.98"/><line class="cls-4" x1="53.29" y1="62.37" x2="53.29" y2="119.98"/><line class="cls-4" x1="49.91" y1="62.37" x2="49.91" y2="119.98"/><line class="cls-4" x1="46.53" y1="62.37" x2="46.53" y2="119.98"/><line class="cls-4" x1="43.15" y1="62.37" x2="43.15" y2="119.98"/><rect class="cls-1" x="24.56" y="62.37" width="16.9" height="57.61"/><line class="cls-4" x1="39.77" y1="62.37" x2="39.77" y2="119.98"/><line class="cls-4" x1="36.39" y1="62.37" x2="36.39" y2="119.98"/><line class="cls-4" x1="33.01" y1="62.37" x2="33.01" y2="119.98"/><line class="cls-4" x1="29.63" y1="62.37" x2="29.63" y2="119.98"/><line class="cls-4" x1="26.25" y1="62.37" x2="26.25" y2="119.98"/><rect class="cls-1" x="7.66" y="62.37" width="16.9" height="57.61"/><line class="cls-4" x1="22.87" y1="62.37" x2="22.87" y2="119.98"/><line class="cls-4" x1="19.49" y1="62.37" x2="19.49" y2="119.98"/><line class="cls-4" x1="16.11" y1="62.37" x2="16.11" y2="119.98"/><line class="cls-4" x1="12.73" y1="62.37" x2="12.73" y2="119.98"/><line class="cls-4" x1="9.35" y1="62.37" x2="9.35" y2="119.98"/><rect class="cls-1" x="-9.23" y="62.37" width="16.9" height="57.61"/><line class="cls-4" x1="5.98" y1="62.37" x2="5.98" y2="119.98"/><line class="cls-4" x1="2.6" y1="62.37" x2="2.6" y2="119.98"/><line class="cls-4" x1="-0.78" y1="62.37" x2="-0.78" y2="119.98"/><line class="cls-4" x1="-4.16" y1="62.37" x2="-4.16" y2="119.98"/><line class="cls-4" x1="-7.54" y1="62.37" x2="-7.54" y2="119.98"/></g><path class="cls-2" d="M80.67,79.77a39.89,39.89,0,0,0,79.77,0Z"/><g class="cls-6"><rect class="cls-1" x="153" y="4.76" width="16.9" height="57.61"/><line class="cls-4" x1="168.21" y1="4.76" x2="168.21" y2="62.37"/><line class="cls-4" x1="164.83" y1="4.76" x2="164.83" y2="62.37"/><line class="cls-4" x1="161.45" y1="4.76" x2="161.45" y2="62.37"/><line class="cls-4" x1="158.07" y1="4.76" x2="158.07" y2="62.37"/><line class="cls-4" x1="154.69" y1="4.76" x2="154.69" y2="62.37"/><rect class="cls-1" x="153" y="62.37" width="16.9" height="57.61"/><line class="cls-4" x1="168.21" y1="62.37" x2="168.21" y2="119.98"/><line class="cls-4" x1="164.83" y1="62.37" x2="164.83" y2="119.98"/><line class="cls-4" x1="161.45" y1="62.37" x2="161.45" y2="119.98"/><line class="cls-4" x1="158.07" y1="62.37" x2="158.07" y2="119.98"/><line class="cls-4" x1="154.69" y1="62.37" x2="154.69" y2="119.98"/><rect class="cls-1" x="136.1" y="4.76" width="16.9" height="57.61"/><line class="cls-4" x1="151.31" y1="4.76" x2="151.31" y2="62.37"/><line class="cls-4" x1="147.93" y1="4.76" x2="147.93" y2="62.37"/><line class="cls-4" x1="144.55" y1="4.76" x2="144.55" y2="62.37"/><line class="cls-4" x1="141.17" y1="4.76" x2="141.17" y2="62.37"/><line class="cls-4" x1="137.79" y1="4.76" x2="137.79" y2="62.37"/><rect class="cls-1" x="136.1" y="62.37" width="16.9" height="57.61"/><line class="cls-4" x1="151.31" y1="62.37" x2="151.31" y2="119.98"/><line class="cls-4" x1="147.93" y1="62.37" x2="147.93" y2="119.98"/><line class="cls-4" x1="144.55" y1="62.37" x2="144.55" y2="119.98"/><line class="cls-4" x1="141.17" y1="62.37" x2="141.17" y2="119.98"/><line class="cls-4" x1="137.79" y1="62.37" x2="137.79" y2="119.98"/><rect class="cls-1" x="119.2" y="4.76" width="16.9" height="57.61"/><line class="cls-4" x1="134.41" y1="4.76" x2="134.41" y2="62.37"/><line class="cls-4" x1="131.03" y1="4.76" x2="131.03" y2="62.37"/><line class="cls-4" x1="127.65" y1="4.76" x2="127.65" y2="62.37"/><line class="cls-4" x1="124.27" y1="4.76" x2="124.27" y2="62.37"/><line class="cls-4" x1="120.89" y1="4.76" x2="120.89" y2="62.37"/><rect class="cls-1" x="119.2" y="62.37" width="16.9" height="57.61"/><line class="cls-4" x1="134.41" y1="62.37" x2="134.41" y2="119.98"/><line class="cls-4" x1="131.03" y1="62.37" x2="131.03" y2="119.98"/><line class="cls-4" x1="127.65" y1="62.37" x2="127.65" y2="119.98"/><line class="cls-4" x1="124.27" y1="62.37" x2="124.27" y2="119.98"/><line class="cls-4" x1="120.89" y1="62.37" x2="120.89" y2="119.98"/><rect class="cls-1" x="102.3" y="4.76" width="16.9" height="57.61"/><line class="cls-4" x1="117.51" y1="4.76" x2="117.51" y2="62.37"/><line class="cls-4" x1="114.13" y1="4.76" x2="114.13" y2="62.37"/><line class="cls-4" x1="110.75" y1="4.76" x2="110.75" y2="62.37"/><line class="cls-4" x1="107.37" y1="4.76" x2="107.37" y2="62.37"/><line class="cls-4" x1="103.99" y1="4.76" x2="103.99" y2="62.37"/><rect class="cls-1" x="102.3" y="62.37" width="16.9" height="57.61"/><line class="cls-4" x1="117.51" y1="62.37" x2="117.51" y2="119.98"/><line class="cls-4" x1="114.13" y1="62.37" x2="114.13" y2="119.98"/><line class="cls-4" x1="110.75" y1="62.37" x2="110.75" y2="119.98"/><line class="cls-4" x1="107.37" y1="62.37" x2="107.37" y2="119.98"/><line class="cls-4" x1="103.99" y1="62.37" x2="103.99" y2="119.98"/><rect class="cls-1" x="85.4" y="4.76" width="16.9" height="57.61"/><line class="cls-4" x1="100.61" y1="4.76" x2="100.61" y2="62.37"/><line class="cls-4" x1="97.23" y1="4.76" x2="97.23" y2="62.37"/><line class="cls-4" x1="93.85" y1="4.76" x2="93.85" y2="62.37"/><line class="cls-4" x1="90.47" y1="4.76" x2="90.47" y2="62.37"/><line class="cls-4" x1="87.09" y1="4.76" x2="87.09" y2="62.37"/><rect class="cls-1" x="85.4" y="62.37" width="16.9" height="57.61"/><line class="cls-4" x1="100.61" y1="62.37" x2="100.61" y2="119.98"/><line class="cls-4" x1="97.23" y1="62.37" x2="97.23" y2="119.98"/><line class="cls-4" x1="93.85" y1="62.37" x2="93.85" y2="119.98"/><line class="cls-4" x1="90.47" y1="62.37" x2="90.47" y2="119.98"/><line class="cls-4" x1="87.09" y1="62.37" x2="87.09" y2="119.98"/><rect class="cls-1" x="68.5" y="4.76" width="16.9" height="57.61"/><line class="cls-4" x1="83.71" y1="4.76" x2="83.71" y2="62.37"/><line class="cls-4" x1="80.33" y1="4.76" x2="80.33" y2="62.37"/><line class="cls-4" x1="76.95" y1="4.76" x2="76.95" y2="62.37"/><line class="cls-4" x1="73.57" y1="4.76" x2="73.57" y2="62.37"/><line class="cls-4" x1="70.19" y1="4.76" x2="70.19" y2="62.37"/><rect class="cls-1" x="68.5" y="62.37" width="16.9" height="57.61"/><line class="cls-4" x1="83.71" y1="62.37" x2="83.71" y2="119.98"/><line class="cls-4" x1="80.33" y1="62.37" x2="80.33" y2="119.98"/><line class="cls-4" x1="76.95" y1="62.37" x2="76.95" y2="119.98"/><line class="cls-4" x1="73.57" y1="62.37" x2="73.57" y2="119.98"/><line class="cls-4" x1="70.19" y1="62.37" x2="70.19" y2="119.98"/></g><g class="cls-7"><rect class="cls-1" x="75.26" y="-17.41" width="16.9" height="57.61"/><line class="cls-4" x1="90.47" y1="-17.41" x2="90.47" y2="40.2"/><line class="cls-4" x1="87.09" y1="-17.41" x2="87.09" y2="40.2"/><line class="cls-4" x1="83.71" y1="-17.41" x2="83.71" y2="40.2"/><line class="cls-4" x1="80.33" y1="-17.41" x2="80.33" y2="40.2"/><line class="cls-4" x1="76.95" y1="-17.41" x2="76.95" y2="40.2"/><rect class="cls-1" x="58.36" y="-17.41" width="16.9" height="57.61"/><line class="cls-4" x1="73.57" y1="-17.41" x2="73.57" y2="40.2"/><line class="cls-4" x1="70.19" y1="-17.41" x2="70.19" y2="40.2"/><line class="cls-4" x1="66.81" y1="-17.41" x2="66.81" y2="40.2"/><line class="cls-4" x1="63.43" y1="-17.41" x2="63.43" y2="40.2"/><line class="cls-4" x1="60.05" y1="-17.41" x2="60.05" y2="40.2"/><rect class="cls-1" x="41.46" y="-17.41" width="16.9" height="57.61"/><line class="cls-4" x1="56.67" y1="-17.41" x2="56.67" y2="40.2"/><line class="cls-4" x1="53.29" y1="-17.41" x2="53.29" y2="40.2"/><line class="cls-4" x1="49.91" y1="-17.41" x2="49.91" y2="40.2"/><line class="cls-4" x1="46.53" y1="-17.41" x2="46.53" y2="40.2"/><line class="cls-4" x1="43.15" y1="-17.41" x2="43.15" y2="40.2"/><rect class="cls-1" x="24.56" y="-17.41" width="16.9" height="57.61"/><line class="cls-4" x1="39.77" y1="-17.41" x2="39.77" y2="40.2"/><line class="cls-4" x1="36.39" y1="-17.41" x2="36.39" y2="40.2"/><line class="cls-4" x1="33.01" y1="-17.41" x2="33.01" y2="40.2"/><line class="cls-4" x1="29.63" y1="-17.41" x2="29.63" y2="40.2"/><line class="cls-4" x1="26.25" y1="-17.41" x2="26.25" y2="40.2"/><rect class="cls-1" x="7.66" y="-17.41" width="16.9" height="57.61"/><line class="cls-4" x1="22.87" y1="-17.41" x2="22.87" y2="40.2"/><line class="cls-4" x1="19.49" y1="-17.41" x2="19.49" y2="40.2"/><line class="cls-4" x1="16.11" y1="-17.41" x2="16.11" y2="40.2"/><line class="cls-4" x1="12.73" y1="-17.41" x2="12.73" y2="40.2"/><line class="cls-4" x1="9.35" y1="-17.41" x2="9.35" y2="40.2"/><rect class="cls-1" x="-9.23" y="-17.41" width="16.9" height="57.61"/><line class="cls-4" x1="5.98" y1="-17.41" x2="5.98" y2="40.2"/><line class="cls-4" x1="2.6" y1="-17.41" x2="2.6" y2="40.2"/></g><path class="cls-2" d="M80.67,0a39.89,39.89,0,0,0,39.89,39.89A39.89,39.89,0,0,0,160.44,0Z"/></pattern></defs><title>Circle</title><g id="Layer_4" data-name="Layer 4"><rect class="cls-8" width="1440" height="1170"/></g></svg>