<svg xmlns="http://www.w3.org/2000/svg" xmlns:xlink="http://www.w3.org/1999/xlink" viewBox="0 0 1440 1170"><defs><style>.cls-1{isolation:isolate;}.cls-2{fill:url(#linear-gradient);}.cls-3{fill:#d5e7e8;}.cls-4{opacity:0.35;fill:url(#linear-gradient-2);}.cls-5,.cls-6{opacity:0.2;mix-blend-mode:multiply;}.cls-5{fill:url(#linear-gradient-3);}.cls-6{fill:#97c3c6;}</style><linearGradient id="linear-gradient" x1="1456.08" y1="960.85" x2="166.23" y2="211.03" gradientUnits="userSpaceOnUse"><stop offset="0" stop-color="#97c3c6"/><stop offset="0.94" stop-color="#fff"/></linearGradient><linearGradient id="linear-gradient-2" x1="959.04" y1="545.45" x2="552.37" y2="1087.67" gradientUnits="userSpaceOnUse"><stop offset="0" stop-color="#97c3c6"/><stop offset="0.17" stop-color="#aed0d2"/><stop offset="0.54" stop-color="#dae9eb"/><stop offset="0.83" stop-color="#f5f9f9"/><stop offset="1" stop-color="#fff"/></linearGradient><linearGradient id="linear-gradient-3" x1="1463.03" y1="862.44" x2="209.08" y2="133.49" gradientUnits="userSpaceOnUse"><stop offset="0" stop-color="#97c3c6"/><stop offset="1" stop-color="#fff"/></linearGradient></defs><title>Prismic</title><g class="cls-1"><g id="Layer_6" data-name="Layer 6"><polygon class="cls-2" points="642 4 900 443 1326 1169 1132 1169 0 598 0 2 642 4"/></g><g id="Layer_3" data-name="Layer 3"><polygon class="cls-3" points="1440 2 530 2 154 1169 1440 1169 1440 2"/></g><g id="Layer_5" data-name="Layer 5"><polygon class="cls-4" points="532 2 150 1169 1326 1169 641 2 532 2"/></g><g id="Layer_4" data-name="Layer 4"><polygon class="cls-5" points="928 5 1440 263 1440 1169 1132 1169 0 598 0 2 928 5"/><polygon class="cls-6" points="928 5 1440 263 1440 1169 1132 1169 295 747 532 2 928 5"/></g></g></svg>