<svg xmlns="http://www.w3.org/2000/svg" xmlns:xlink="http://www.w3.org/1999/xlink" viewBox="0 0 1440 800"><defs><style>.cls-1{isolation:isolate;}.cls-2{mix-blend-mode:multiply;}.cls-3{fill:url(#linear-gradient);}.cls-4{fill:#d4e6e7;}.cls-5{fill:#e5f0f1;opacity:0.48;}.cls-6{fill:#eef5f5;opacity:0.7;mix-blend-mode:screen;}.cls-7{fill:#fff;}</style><linearGradient id="linear-gradient" x1="1401.51" y1="773.71" x2="100.85" y2="295.4" gradientUnits="userSpaceOnUse"><stop offset="0" stop-color="#97c3c6"/><stop offset="0.7" stop-color="#fff"/></linearGradient></defs><title>PrismicD</title><g class="cls-1"><g id="Layer_7" data-name="Layer 7"><polygon class="cls-3" points="642 2 900 441 1326 1167 1132 1167 0 596 0 0 642 2"/><polygon class="cls-4" points="1440 0 531.33 0.67 154 1167 1440 1167 1440 0"/><polygon class="cls-5" points="928 5 1440 263 1440 1169 1132 1169 295 747 531.33 0.67 928 5"/><polygon class="cls-6" points="531 1 150 1183.07 1326 1167 641 0 531 1"/><polygon class="cls-7" points="0 0 0 800 273.47 800 531 1 0 0"/></g></g></svg>