<svg xmlns="http://www.w3.org/2000/svg" xmlns:xlink="http://www.w3.org/1999/xlink" viewBox="0 0 1440 1170"><defs><style>.cls-1{isolation:isolate;}.cls-2{fill:url(#linear-gradient);}.cls-3{fill:#f6fafa;}.cls-4,.cls-5{opacity:0.1;mix-blend-mode:multiply;}.cls-4{fill:url(#linear-gradient-2);}.cls-5{fill:#e5f0f1;}.cls-6{fill:#eef5f5;opacity:0.2;mix-blend-mode:screen;}</style><linearGradient id="linear-gradient" x1="1482.61" y1="911.5" x2="121.64" y2="196.23" gradientUnits="userSpaceOnUse"><stop offset="0" stop-color="#97c3c6"/><stop offset="0.02" stop-color="#9bc5c8"/><stop offset="0.21" stop-color="#bfdadc"/><stop offset="0.41" stop-color="#dbeaeb"/><stop offset="0.61" stop-color="#eff6f6"/><stop offset="0.8" stop-color="#fbfdfd"/><stop offset="1" stop-color="#fff"/></linearGradient><linearGradient id="linear-gradient-2" x1="1427" y1="841.5" x2="445.52" y2="270.94" gradientUnits="userSpaceOnUse"><stop offset="0" stop-color="#97c3c6"/><stop offset="1" stop-color="#fff"/></linearGradient></defs><title>Prismic</title><g class="cls-1"><g id="Layer_6" data-name="Layer 6"><polygon class="cls-2" points="642 4 900 443 1326 1169 1132 1169 0 598 0 2 642 4"/></g><g id="Layer_3" data-name="Layer 3"><polygon class="cls-3" points="1440 2 530 2 154 1169 1440 1169 1440 2"/></g><g id="Layer_4" data-name="Layer 4"><polygon class="cls-4" points="928 5 1440 263 1440 1169 1132 1169 0 598 0 2 928 5"/><polygon class="cls-5" points="928 5 1440 263 1440 1169 1132 1169 295 747 532 2 928 5"/></g><g id="Layer_5" data-name="Layer 5"><polygon class="cls-6" points="532 2 150 1169 1326 1169 641 2 532 2"/></g></g></svg>